G75*
%MOIN*%
%OFA0B0*%
%FSLAX24Y24*%
%IPPOS*%
%LPD*%
%AMOC8*
5,1,8,0,0,1.08239X$1,22.5*
%
%ADD10C,0.2300*%
%ADD11OC8,0.0600*%
%ADD12C,0.1890*%
%ADD13C,0.0560*%
%ADD14R,0.0551X0.0827*%
%ADD15R,0.0531X0.0846*%
%ADD16C,0.0120*%
%ADD17OC8,0.0660*%
%ADD18R,0.0472X0.0551*%
%ADD19C,0.0554*%
%ADD20R,0.0276X0.0591*%
%ADD21C,0.0827*%
%ADD22R,0.0551X0.0472*%
%ADD23C,0.0740*%
%ADD24C,0.0660*%
%ADD25C,0.0500*%
%ADD26C,0.0475*%
%ADD27C,0.0320*%
%ADD28C,0.0560*%
%ADD29C,0.0160*%
%ADD30C,0.0240*%
%ADD31C,0.0396*%
%ADD32C,0.0100*%
D10*
X009075Y003169D03*
X045689Y011831D03*
X045689Y035453D03*
X003169Y035453D03*
D11*
X041449Y030819D03*
X042449Y030819D03*
X042449Y029819D03*
X042449Y028819D03*
X041449Y028819D03*
X041449Y029819D03*
X041449Y027819D03*
X042449Y027819D03*
X042449Y026819D03*
X042449Y025819D03*
X041449Y025819D03*
X041449Y026819D03*
X041449Y024819D03*
X042449Y024819D03*
X042449Y023819D03*
X042449Y022819D03*
X041449Y022819D03*
X041449Y023819D03*
X041449Y021819D03*
X042449Y021819D03*
X042449Y020819D03*
X042449Y019819D03*
X041449Y019819D03*
X041449Y020819D03*
X041449Y018819D03*
X042449Y018819D03*
X042449Y017819D03*
X042449Y016819D03*
X041449Y016819D03*
X041449Y017819D03*
X041449Y015819D03*
X042449Y015819D03*
X042449Y014819D03*
X042449Y013819D03*
X041449Y013819D03*
X041449Y014819D03*
X041449Y012819D03*
X042449Y012819D03*
X042449Y011819D03*
X041449Y011819D03*
D12*
X006315Y025551D03*
X003992Y025551D03*
X005134Y023701D03*
D13*
X006094Y029594D03*
X006094Y030594D03*
X006094Y031594D03*
D14*
X008228Y031594D03*
X009961Y031594D03*
D15*
X009665Y029594D03*
X008524Y029594D03*
D16*
X009094Y029560D02*
X009605Y029560D01*
X009605Y029534D02*
X009240Y029534D01*
X009240Y029150D01*
X009250Y029109D01*
X009272Y029073D01*
X009301Y029043D01*
X009338Y029022D01*
X009378Y029011D01*
X009605Y029011D01*
X009605Y029534D01*
X009725Y029534D01*
X009725Y029011D01*
X009952Y029011D01*
X009993Y029022D01*
X010029Y029043D01*
X010059Y029073D01*
X010080Y029109D01*
X010091Y029150D01*
X010091Y029534D01*
X009725Y029534D01*
X009725Y029654D01*
X010091Y029654D01*
X010091Y030039D01*
X010080Y030079D01*
X010059Y030116D01*
X010029Y030146D01*
X009993Y030167D01*
X009952Y030178D01*
X009725Y030178D01*
X009725Y029654D01*
X009605Y029654D01*
X009605Y029534D01*
X009605Y029442D02*
X009725Y029442D01*
X009725Y029560D02*
X012594Y029560D01*
X012594Y029594D02*
X012594Y028094D01*
X011594Y027094D01*
X009094Y027094D01*
X009094Y030594D01*
X011594Y030594D01*
X012594Y029594D01*
X012510Y029679D02*
X010091Y029679D01*
X010091Y029797D02*
X012391Y029797D01*
X012273Y029916D02*
X010091Y029916D01*
X010091Y030034D02*
X012154Y030034D01*
X012036Y030153D02*
X010017Y030153D01*
X009725Y030153D02*
X009605Y030153D01*
X009605Y030178D02*
X009378Y030178D01*
X009338Y030167D01*
X009301Y030146D01*
X009272Y030116D01*
X009250Y030079D01*
X009240Y030039D01*
X009240Y029654D01*
X009605Y029654D01*
X009605Y030178D01*
X009605Y030034D02*
X009725Y030034D01*
X009725Y029916D02*
X009605Y029916D01*
X009605Y029797D02*
X009725Y029797D01*
X009725Y029679D02*
X009605Y029679D01*
X009605Y029323D02*
X009725Y029323D01*
X009725Y029205D02*
X009605Y029205D01*
X009605Y029086D02*
X009725Y029086D01*
X010067Y029086D02*
X012594Y029086D01*
X012594Y028968D02*
X009094Y028968D01*
X009094Y029086D02*
X009264Y029086D01*
X009240Y029205D02*
X009094Y029205D01*
X009094Y029323D02*
X009240Y029323D01*
X009240Y029442D02*
X009094Y029442D01*
X009094Y029679D02*
X009240Y029679D01*
X009240Y029797D02*
X009094Y029797D01*
X009094Y029916D02*
X009240Y029916D01*
X009240Y030034D02*
X009094Y030034D01*
X009094Y030153D02*
X009314Y030153D01*
X009094Y030271D02*
X011917Y030271D01*
X011799Y030390D02*
X009094Y030390D01*
X009094Y030508D02*
X011680Y030508D01*
X012594Y029442D02*
X010091Y029442D01*
X010091Y029323D02*
X012594Y029323D01*
X012594Y029205D02*
X010091Y029205D01*
X009094Y028849D02*
X012594Y028849D01*
X012594Y028731D02*
X009094Y028731D01*
X009094Y028612D02*
X012594Y028612D01*
X012594Y028494D02*
X009094Y028494D01*
X009094Y028375D02*
X012594Y028375D01*
X012594Y028257D02*
X009094Y028257D01*
X009094Y028138D02*
X012594Y028138D01*
X012520Y028020D02*
X009094Y028020D01*
X009094Y027901D02*
X012401Y027901D01*
X012283Y027783D02*
X009094Y027783D01*
X009094Y027664D02*
X012164Y027664D01*
X012046Y027546D02*
X009094Y027546D01*
X009094Y027427D02*
X011927Y027427D01*
X011809Y027309D02*
X009094Y027309D01*
X009094Y027190D02*
X011690Y027190D01*
X009602Y020594D02*
X007988Y020594D01*
X007161Y020594D02*
X005823Y020594D01*
X005823Y019594D02*
X007161Y019594D01*
X007988Y019594D02*
X009602Y019594D01*
X009602Y014594D02*
X007988Y014594D01*
X007161Y014594D02*
X005823Y014594D01*
X005823Y013594D02*
X007161Y013594D01*
X007988Y013594D02*
X009602Y013594D01*
X009602Y009094D02*
X007988Y009094D01*
X007161Y009094D02*
X005823Y009094D01*
X005823Y008094D02*
X007161Y008094D01*
X007988Y008094D02*
X009602Y008094D01*
X012594Y007488D02*
X012594Y009102D01*
X012594Y006661D02*
X012594Y005323D01*
X016594Y005323D02*
X016594Y006661D01*
X016594Y007488D02*
X016594Y009102D01*
X020094Y009102D02*
X020094Y007488D01*
X020094Y006661D02*
X020094Y005323D01*
D17*
X020094Y005094D03*
X016594Y005094D03*
X012594Y005094D03*
X009594Y008094D03*
X009594Y009094D03*
X012594Y009094D03*
X016594Y009094D03*
X020094Y009094D03*
X009594Y013594D03*
X009594Y014594D03*
X005594Y014594D03*
X005594Y013594D03*
X005594Y009094D03*
X005594Y008094D03*
X005594Y019594D03*
X005594Y020594D03*
X009594Y020594D03*
X009594Y019594D03*
D18*
X007998Y019594D03*
X007191Y019594D03*
X007191Y020594D03*
X007998Y020594D03*
X007998Y014594D03*
X007191Y014594D03*
X007191Y013594D03*
X007998Y013594D03*
X007998Y009094D03*
X007191Y009094D03*
X007191Y008094D03*
X007998Y008094D03*
D19*
X012102Y003872D02*
X012102Y003317D01*
X013087Y003317D02*
X013087Y003872D01*
X003872Y019602D02*
X003317Y019602D01*
X003317Y020587D02*
X003872Y020587D01*
X044817Y022844D02*
X045372Y022844D01*
X045372Y023844D02*
X044817Y023844D01*
X044817Y024844D02*
X045372Y024844D01*
D20*
X045468Y026844D03*
X044720Y026844D03*
X044720Y027844D03*
X045468Y027844D03*
X006218Y035094D03*
X005470Y035094D03*
X005470Y035844D03*
X006218Y035844D03*
D21*
X003594Y015374D03*
X003594Y012815D03*
X003594Y009874D03*
X003594Y007315D03*
D22*
X012594Y007498D03*
X012594Y006691D03*
X016594Y006691D03*
X016594Y007498D03*
X020094Y007498D03*
X020094Y006691D03*
D23*
X019594Y003594D03*
X020594Y003594D03*
X017094Y003594D03*
X016094Y003594D03*
D24*
X006315Y025551D02*
X006315Y027874D01*
X006094Y028094D01*
X006844Y031594D02*
X008228Y031594D01*
D25*
X006844Y031594D02*
X006094Y031594D01*
X006094Y029594D02*
X008524Y029594D01*
X006094Y029594D02*
X006094Y028094D01*
X042449Y029819D02*
X043569Y029819D01*
X044094Y030344D01*
X043620Y030819D01*
X042449Y030819D01*
D26*
X011344Y030344D03*
X011344Y029594D03*
X011344Y028844D03*
X010594Y028844D03*
X010594Y028094D03*
X009594Y028094D03*
X010594Y029594D03*
X010594Y030344D03*
X006344Y033844D03*
D27*
X006218Y033970D01*
X006218Y035094D01*
X006218Y035844D01*
X014344Y028344D02*
X009594Y023594D01*
X009594Y020594D01*
X010594Y020594D01*
X011094Y020094D01*
X011094Y015094D01*
X010594Y014594D01*
X011094Y014094D01*
X011094Y009594D01*
X010594Y009094D01*
X009594Y009094D01*
X005594Y009094D02*
X005594Y008094D01*
X005594Y009094D02*
X004815Y009874D01*
X003594Y009874D01*
X005594Y013594D02*
X005594Y014594D01*
X004815Y015374D01*
X003594Y015374D01*
X005594Y019594D02*
X005594Y020594D01*
X005587Y020587D01*
X003594Y020587D01*
X009594Y014594D02*
X010594Y014594D01*
X014344Y028344D02*
X036844Y028344D01*
X039319Y030819D01*
X039594Y030819D01*
X040094Y030319D01*
X040094Y023094D01*
X040370Y022819D01*
X041449Y022819D01*
X041449Y030819D02*
X039594Y030819D01*
D28*
X039094Y031594D02*
X039094Y033094D01*
X041094Y035094D01*
X042594Y035094D01*
X044594Y032594D01*
X044594Y030844D01*
X044094Y030344D01*
X039094Y031594D02*
X036594Y029094D01*
X014594Y029094D01*
X012094Y031594D01*
X009961Y031594D01*
D29*
X016094Y014344D02*
X016094Y009594D01*
X016594Y009094D01*
X042449Y026819D02*
X044695Y026819D01*
X044720Y026844D01*
X045468Y026844D02*
X045468Y026720D01*
X045594Y026594D01*
X045594Y025344D01*
X045094Y024844D01*
X045344Y023844D02*
X046094Y024594D01*
X046094Y027594D01*
X045844Y027844D01*
X045468Y027844D01*
X044720Y027844D02*
X044695Y027819D01*
X042449Y027819D01*
X045094Y023844D02*
X045344Y023844D01*
D30*
X020094Y005094D02*
X019594Y004594D01*
X019594Y003594D01*
X016594Y005094D02*
X016094Y004594D01*
X016094Y003594D01*
X012594Y005094D02*
X012094Y004594D01*
X012094Y003602D01*
X012102Y003594D01*
D31*
X007094Y003594D03*
X007094Y002594D03*
X006094Y002594D03*
X005094Y002594D03*
X004094Y002594D03*
X003094Y003094D03*
X002594Y004094D03*
X007094Y004594D03*
X002344Y008094D03*
X002344Y009094D03*
X002344Y013594D03*
X002344Y014594D03*
X002344Y019594D03*
X002344Y020594D03*
X002344Y024594D03*
X002344Y025594D03*
X002344Y026594D03*
X002594Y030094D03*
X002594Y031094D03*
X002594Y032094D03*
X004844Y035094D03*
X004844Y035844D03*
X016094Y014344D03*
D32*
X002277Y002755D02*
X002489Y002489D01*
X002755Y002277D01*
X003061Y002130D01*
X003393Y002054D01*
X003563Y002044D01*
X007594Y002044D01*
X007594Y004594D01*
X007094Y005094D01*
X003594Y005094D01*
X002594Y006094D01*
X002594Y027094D01*
X003094Y027594D01*
X003094Y032594D01*
X004094Y033594D01*
X005094Y033594D01*
X005594Y034094D01*
X005594Y036577D01*
X003563Y036577D01*
X003393Y036568D01*
X003061Y036492D01*
X002755Y036345D01*
X002755Y036345D01*
X002489Y036133D01*
X002277Y035867D01*
X002130Y035561D01*
X002054Y035229D01*
X002044Y035059D01*
X002044Y003563D01*
X002054Y003393D01*
X002130Y003061D01*
X002277Y002755D01*
X002267Y002776D02*
X007594Y002776D01*
X007594Y002678D02*
X002339Y002678D01*
X002417Y002579D02*
X007594Y002579D01*
X007594Y002481D02*
X002500Y002481D01*
X002623Y002382D02*
X007594Y002382D01*
X007594Y002284D02*
X002747Y002284D01*
X002946Y002185D02*
X007594Y002185D01*
X007594Y002087D02*
X003249Y002087D01*
X002219Y002875D02*
X007594Y002875D01*
X007594Y002973D02*
X002172Y002973D01*
X002127Y003072D02*
X007594Y003072D01*
X007594Y003170D02*
X002105Y003170D01*
X002082Y003269D02*
X007594Y003269D01*
X007594Y003367D02*
X002060Y003367D01*
X002050Y003466D02*
X007594Y003466D01*
X007594Y003564D02*
X002044Y003564D01*
X002044Y003663D02*
X007594Y003663D01*
X007594Y003761D02*
X002044Y003761D01*
X002044Y003860D02*
X007594Y003860D01*
X007594Y003958D02*
X002044Y003958D01*
X002044Y004057D02*
X007594Y004057D01*
X007594Y004155D02*
X002044Y004155D01*
X002044Y004254D02*
X007594Y004254D01*
X007594Y004352D02*
X002044Y004352D01*
X002044Y004451D02*
X007594Y004451D01*
X007594Y004549D02*
X002044Y004549D01*
X002044Y004648D02*
X007541Y004648D01*
X007442Y004746D02*
X002044Y004746D01*
X002044Y004845D02*
X007344Y004845D01*
X007245Y004943D02*
X002044Y004943D01*
X002044Y005042D02*
X007147Y005042D01*
X003548Y005140D02*
X002044Y005140D01*
X002044Y005239D02*
X003450Y005239D01*
X003351Y005337D02*
X002044Y005337D01*
X002044Y005436D02*
X003253Y005436D01*
X003154Y005534D02*
X002044Y005534D01*
X002044Y005633D02*
X003056Y005633D01*
X002957Y005731D02*
X002044Y005731D01*
X002044Y005830D02*
X002859Y005830D01*
X002760Y005928D02*
X002044Y005928D01*
X002044Y006027D02*
X002662Y006027D01*
X002594Y006125D02*
X002044Y006125D01*
X002044Y006224D02*
X002594Y006224D01*
X002594Y006322D02*
X002044Y006322D01*
X002044Y006421D02*
X002594Y006421D01*
X002594Y006519D02*
X002044Y006519D01*
X002044Y006618D02*
X002594Y006618D01*
X002594Y006716D02*
X002044Y006716D01*
X002044Y006815D02*
X002594Y006815D01*
X002594Y006913D02*
X002044Y006913D01*
X002044Y007012D02*
X002594Y007012D01*
X002594Y007110D02*
X002044Y007110D01*
X002044Y007209D02*
X002594Y007209D01*
X002594Y007307D02*
X002044Y007307D01*
X002044Y007406D02*
X002594Y007406D01*
X002594Y007504D02*
X002044Y007504D01*
X002044Y007603D02*
X002594Y007603D01*
X002594Y007701D02*
X002044Y007701D01*
X002044Y007800D02*
X002594Y007800D01*
X002594Y007898D02*
X002044Y007898D01*
X002044Y007997D02*
X002594Y007997D01*
X002594Y008095D02*
X002044Y008095D01*
X002044Y008194D02*
X002594Y008194D01*
X002594Y008292D02*
X002044Y008292D01*
X002044Y008391D02*
X002594Y008391D01*
X002594Y008489D02*
X002044Y008489D01*
X002044Y008588D02*
X002594Y008588D01*
X002594Y008686D02*
X002044Y008686D01*
X002044Y008785D02*
X002594Y008785D01*
X002594Y008883D02*
X002044Y008883D01*
X002044Y008982D02*
X002594Y008982D01*
X002594Y009080D02*
X002044Y009080D01*
X002044Y009179D02*
X002594Y009179D01*
X002594Y009277D02*
X002044Y009277D01*
X002044Y009376D02*
X002594Y009376D01*
X002594Y009474D02*
X002044Y009474D01*
X002044Y009573D02*
X002594Y009573D01*
X002594Y009671D02*
X002044Y009671D01*
X002044Y009770D02*
X002594Y009770D01*
X002594Y009868D02*
X002044Y009868D01*
X002044Y009967D02*
X002594Y009967D01*
X002594Y010065D02*
X002044Y010065D01*
X002044Y010164D02*
X002594Y010164D01*
X002594Y010262D02*
X002044Y010262D01*
X002044Y010361D02*
X002594Y010361D01*
X002594Y010459D02*
X002044Y010459D01*
X002044Y010558D02*
X002594Y010558D01*
X002594Y010656D02*
X002044Y010656D01*
X002044Y010755D02*
X002594Y010755D01*
X002594Y010853D02*
X002044Y010853D01*
X002044Y010952D02*
X002594Y010952D01*
X002594Y011050D02*
X002044Y011050D01*
X002044Y011149D02*
X002594Y011149D01*
X002594Y011247D02*
X002044Y011247D01*
X002044Y011346D02*
X002594Y011346D01*
X002594Y011444D02*
X002044Y011444D01*
X002044Y011543D02*
X002594Y011543D01*
X002594Y011641D02*
X002044Y011641D01*
X002044Y011740D02*
X002594Y011740D01*
X002594Y011838D02*
X002044Y011838D01*
X002044Y011937D02*
X002594Y011937D01*
X002594Y012035D02*
X002044Y012035D01*
X002044Y012134D02*
X002594Y012134D01*
X002594Y012232D02*
X002044Y012232D01*
X002044Y012331D02*
X002594Y012331D01*
X002594Y012429D02*
X002044Y012429D01*
X002044Y012528D02*
X002594Y012528D01*
X002594Y012626D02*
X002044Y012626D01*
X002044Y012725D02*
X002594Y012725D01*
X002594Y012823D02*
X002044Y012823D01*
X002044Y012922D02*
X002594Y012922D01*
X002594Y013020D02*
X002044Y013020D01*
X002044Y013119D02*
X002594Y013119D01*
X002594Y013217D02*
X002044Y013217D01*
X002044Y013316D02*
X002594Y013316D01*
X002594Y013414D02*
X002044Y013414D01*
X002044Y013513D02*
X002594Y013513D01*
X002594Y013611D02*
X002044Y013611D01*
X002044Y013710D02*
X002594Y013710D01*
X002594Y013808D02*
X002044Y013808D01*
X002044Y013907D02*
X002594Y013907D01*
X002594Y014005D02*
X002044Y014005D01*
X002044Y014104D02*
X002594Y014104D01*
X002594Y014202D02*
X002044Y014202D01*
X002044Y014301D02*
X002594Y014301D01*
X002594Y014399D02*
X002044Y014399D01*
X002044Y014498D02*
X002594Y014498D01*
X002594Y014596D02*
X002044Y014596D01*
X002044Y014695D02*
X002594Y014695D01*
X002594Y014793D02*
X002044Y014793D01*
X002044Y014892D02*
X002594Y014892D01*
X002594Y014990D02*
X002044Y014990D01*
X002044Y015089D02*
X002594Y015089D01*
X002594Y015187D02*
X002044Y015187D01*
X002044Y015286D02*
X002594Y015286D01*
X002594Y015384D02*
X002044Y015384D01*
X002044Y015483D02*
X002594Y015483D01*
X002594Y015581D02*
X002044Y015581D01*
X002044Y015680D02*
X002594Y015680D01*
X002594Y015778D02*
X002044Y015778D01*
X002044Y015877D02*
X002594Y015877D01*
X002594Y015975D02*
X002044Y015975D01*
X002044Y016074D02*
X002594Y016074D01*
X002594Y016172D02*
X002044Y016172D01*
X002044Y016271D02*
X002594Y016271D01*
X002594Y016369D02*
X002044Y016369D01*
X002044Y016468D02*
X002594Y016468D01*
X002594Y016566D02*
X002044Y016566D01*
X002044Y016665D02*
X002594Y016665D01*
X002594Y016763D02*
X002044Y016763D01*
X002044Y016862D02*
X002594Y016862D01*
X002594Y016960D02*
X002044Y016960D01*
X002044Y017059D02*
X002594Y017059D01*
X002594Y017157D02*
X002044Y017157D01*
X002044Y017256D02*
X002594Y017256D01*
X002594Y017354D02*
X002044Y017354D01*
X002044Y017453D02*
X002594Y017453D01*
X002594Y017551D02*
X002044Y017551D01*
X002044Y017650D02*
X002594Y017650D01*
X002594Y017748D02*
X002044Y017748D01*
X002044Y017847D02*
X002594Y017847D01*
X002594Y017945D02*
X002044Y017945D01*
X002044Y018044D02*
X002594Y018044D01*
X002594Y018142D02*
X002044Y018142D01*
X002044Y018241D02*
X002594Y018241D01*
X002594Y018339D02*
X002044Y018339D01*
X002044Y018438D02*
X002594Y018438D01*
X002594Y018536D02*
X002044Y018536D01*
X002044Y018635D02*
X002594Y018635D01*
X002594Y018733D02*
X002044Y018733D01*
X002044Y018832D02*
X002594Y018832D01*
X002594Y018930D02*
X002044Y018930D01*
X002044Y019029D02*
X002594Y019029D01*
X002594Y019127D02*
X002044Y019127D01*
X002044Y019226D02*
X002594Y019226D01*
X002594Y019324D02*
X002044Y019324D01*
X002044Y019423D02*
X002594Y019423D01*
X002594Y019521D02*
X002044Y019521D01*
X002044Y019620D02*
X002594Y019620D01*
X002594Y019718D02*
X002044Y019718D01*
X002044Y019817D02*
X002594Y019817D01*
X002594Y019915D02*
X002044Y019915D01*
X002044Y020014D02*
X002594Y020014D01*
X002594Y020112D02*
X002044Y020112D01*
X002044Y020211D02*
X002594Y020211D01*
X002594Y020309D02*
X002044Y020309D01*
X002044Y020408D02*
X002594Y020408D01*
X002594Y020506D02*
X002044Y020506D01*
X002044Y020605D02*
X002594Y020605D01*
X002594Y020703D02*
X002044Y020703D01*
X002044Y020802D02*
X002594Y020802D01*
X002594Y020900D02*
X002044Y020900D01*
X002044Y020999D02*
X002594Y020999D01*
X002594Y021097D02*
X002044Y021097D01*
X002044Y021196D02*
X002594Y021196D01*
X002594Y021294D02*
X002044Y021294D01*
X002044Y021393D02*
X002594Y021393D01*
X002594Y021491D02*
X002044Y021491D01*
X002044Y021590D02*
X002594Y021590D01*
X002594Y021688D02*
X002044Y021688D01*
X002044Y021787D02*
X002594Y021787D01*
X002594Y021885D02*
X002044Y021885D01*
X002044Y021984D02*
X002594Y021984D01*
X002594Y022082D02*
X002044Y022082D01*
X002044Y022181D02*
X002594Y022181D01*
X002594Y022279D02*
X002044Y022279D01*
X002044Y022378D02*
X002594Y022378D01*
X002594Y022476D02*
X002044Y022476D01*
X002044Y022575D02*
X002594Y022575D01*
X002594Y022673D02*
X002044Y022673D01*
X002044Y022772D02*
X002594Y022772D01*
X002594Y022870D02*
X002044Y022870D01*
X002044Y022969D02*
X002594Y022969D01*
X002594Y023067D02*
X002044Y023067D01*
X002044Y023166D02*
X002594Y023166D01*
X002594Y023264D02*
X002044Y023264D01*
X002044Y023363D02*
X002594Y023363D01*
X002594Y023461D02*
X002044Y023461D01*
X002044Y023560D02*
X002594Y023560D01*
X002594Y023658D02*
X002044Y023658D01*
X002044Y023757D02*
X002594Y023757D01*
X002594Y023855D02*
X002044Y023855D01*
X002044Y023954D02*
X002594Y023954D01*
X002594Y024052D02*
X002044Y024052D01*
X002044Y024151D02*
X002594Y024151D01*
X002594Y024249D02*
X002044Y024249D01*
X002044Y024348D02*
X002594Y024348D01*
X002594Y024446D02*
X002044Y024446D01*
X002044Y024545D02*
X002594Y024545D01*
X002594Y024643D02*
X002044Y024643D01*
X002044Y024742D02*
X002594Y024742D01*
X002594Y024840D02*
X002044Y024840D01*
X002044Y024939D02*
X002594Y024939D01*
X002594Y025037D02*
X002044Y025037D01*
X002044Y025136D02*
X002594Y025136D01*
X002594Y025234D02*
X002044Y025234D01*
X002044Y025333D02*
X002594Y025333D01*
X002594Y025431D02*
X002044Y025431D01*
X002044Y025530D02*
X002594Y025530D01*
X002594Y025628D02*
X002044Y025628D01*
X002044Y025727D02*
X002594Y025727D01*
X002594Y025825D02*
X002044Y025825D01*
X002044Y025924D02*
X002594Y025924D01*
X002594Y026022D02*
X002044Y026022D01*
X002044Y026121D02*
X002594Y026121D01*
X002594Y026219D02*
X002044Y026219D01*
X002044Y026318D02*
X002594Y026318D01*
X002594Y026416D02*
X002044Y026416D01*
X002044Y026515D02*
X002594Y026515D01*
X002594Y026613D02*
X002044Y026613D01*
X002044Y026712D02*
X002594Y026712D01*
X002594Y026810D02*
X002044Y026810D01*
X002044Y026909D02*
X002594Y026909D01*
X002594Y027007D02*
X002044Y027007D01*
X002044Y027106D02*
X002606Y027106D01*
X002704Y027204D02*
X002044Y027204D01*
X002044Y027303D02*
X002803Y027303D01*
X002901Y027401D02*
X002044Y027401D01*
X002044Y027500D02*
X003000Y027500D01*
X003094Y027598D02*
X002044Y027598D01*
X002044Y027697D02*
X003094Y027697D01*
X003094Y027795D02*
X002044Y027795D01*
X002044Y027894D02*
X003094Y027894D01*
X003094Y027992D02*
X002044Y027992D01*
X002044Y028091D02*
X003094Y028091D01*
X003094Y028189D02*
X002044Y028189D01*
X002044Y028288D02*
X003094Y028288D01*
X003094Y028386D02*
X002044Y028386D01*
X002044Y028485D02*
X003094Y028485D01*
X003094Y028583D02*
X002044Y028583D01*
X002044Y028682D02*
X003094Y028682D01*
X003094Y028780D02*
X002044Y028780D01*
X002044Y028879D02*
X003094Y028879D01*
X003094Y028977D02*
X002044Y028977D01*
X002044Y029076D02*
X003094Y029076D01*
X003094Y029174D02*
X002044Y029174D01*
X002044Y029273D02*
X003094Y029273D01*
X003094Y029371D02*
X002044Y029371D01*
X002044Y029470D02*
X003094Y029470D01*
X003094Y029568D02*
X002044Y029568D01*
X002044Y029667D02*
X003094Y029667D01*
X003094Y029765D02*
X002044Y029765D01*
X002044Y029864D02*
X003094Y029864D01*
X003094Y029962D02*
X002044Y029962D01*
X002044Y030061D02*
X003094Y030061D01*
X003094Y030159D02*
X002044Y030159D01*
X002044Y030258D02*
X003094Y030258D01*
X003094Y030356D02*
X002044Y030356D01*
X002044Y030455D02*
X003094Y030455D01*
X003094Y030553D02*
X002044Y030553D01*
X002044Y030652D02*
X003094Y030652D01*
X003094Y030750D02*
X002044Y030750D01*
X002044Y030849D02*
X003094Y030849D01*
X003094Y030947D02*
X002044Y030947D01*
X002044Y031046D02*
X003094Y031046D01*
X003094Y031144D02*
X002044Y031144D01*
X002044Y031243D02*
X003094Y031243D01*
X003094Y031341D02*
X002044Y031341D01*
X002044Y031440D02*
X003094Y031440D01*
X003094Y031538D02*
X002044Y031538D01*
X002044Y031637D02*
X003094Y031637D01*
X003094Y031735D02*
X002044Y031735D01*
X002044Y031834D02*
X003094Y031834D01*
X003094Y031932D02*
X002044Y031932D01*
X002044Y032031D02*
X003094Y032031D01*
X003094Y032129D02*
X002044Y032129D01*
X002044Y032228D02*
X003094Y032228D01*
X003094Y032326D02*
X002044Y032326D01*
X002044Y032425D02*
X003094Y032425D01*
X003094Y032523D02*
X002044Y032523D01*
X002044Y032622D02*
X003122Y032622D01*
X003220Y032720D02*
X002044Y032720D01*
X002044Y032819D02*
X003319Y032819D01*
X003418Y032918D02*
X002044Y032918D01*
X002044Y033016D02*
X003516Y033016D01*
X003615Y033115D02*
X002044Y033115D01*
X002044Y033213D02*
X003713Y033213D01*
X003812Y033312D02*
X002044Y033312D01*
X002044Y033410D02*
X003910Y033410D01*
X004009Y033509D02*
X002044Y033509D01*
X002044Y033607D02*
X005107Y033607D01*
X005206Y033706D02*
X002044Y033706D01*
X002044Y033804D02*
X005304Y033804D01*
X005403Y033903D02*
X002044Y033903D01*
X002044Y034001D02*
X005501Y034001D01*
X005594Y034100D02*
X002044Y034100D01*
X002044Y034198D02*
X005594Y034198D01*
X005594Y034297D02*
X002044Y034297D01*
X002044Y034395D02*
X005594Y034395D01*
X005594Y034494D02*
X002044Y034494D01*
X002044Y034592D02*
X005594Y034592D01*
X005594Y034691D02*
X002044Y034691D01*
X002044Y034789D02*
X005594Y034789D01*
X005594Y034888D02*
X002044Y034888D01*
X002044Y034986D02*
X005594Y034986D01*
X005594Y035085D02*
X002046Y035085D01*
X002051Y035183D02*
X005594Y035183D01*
X005594Y035282D02*
X002066Y035282D01*
X002088Y035380D02*
X005594Y035380D01*
X005594Y035479D02*
X002111Y035479D01*
X002138Y035577D02*
X005594Y035577D01*
X005594Y035676D02*
X002185Y035676D01*
X002232Y035774D02*
X005594Y035774D01*
X005594Y035873D02*
X002282Y035873D01*
X002360Y035971D02*
X005594Y035971D01*
X005594Y036070D02*
X002439Y036070D01*
X002533Y036168D02*
X005594Y036168D01*
X005594Y036267D02*
X002657Y036267D01*
X002797Y036365D02*
X005594Y036365D01*
X005594Y036464D02*
X003002Y036464D01*
X003367Y036562D02*
X005594Y036562D01*
X005470Y035844D02*
X005094Y035844D01*
X005094Y035453D01*
X005094Y035094D01*
X005470Y035094D01*
X005094Y035453D02*
X003169Y035453D01*
M02*
