G75*
%MOIN*%
%OFA0B0*%
%FSLAX24Y24*%
%IPPOS*%
%LPD*%
%AMOC8*
5,1,8,0,0,1.08239X$1,22.5*
%
%ADD10C,0.0000*%
D10*
X003563Y001594D02*
X045295Y001594D01*
X045381Y001596D01*
X045467Y001601D01*
X045552Y001611D01*
X045637Y001624D01*
X045721Y001641D01*
X045805Y001661D01*
X045887Y001685D01*
X045968Y001713D01*
X046049Y001744D01*
X046127Y001778D01*
X046204Y001816D01*
X046280Y001858D01*
X046353Y001902D01*
X046424Y001950D01*
X046494Y002001D01*
X046561Y002055D01*
X046625Y002111D01*
X046687Y002171D01*
X046747Y002233D01*
X046803Y002297D01*
X046857Y002364D01*
X046908Y002434D01*
X046956Y002505D01*
X047000Y002578D01*
X047042Y002654D01*
X047080Y002731D01*
X047114Y002809D01*
X047145Y002890D01*
X047173Y002971D01*
X047197Y003053D01*
X047217Y003137D01*
X047234Y003221D01*
X047247Y003306D01*
X047257Y003391D01*
X047262Y003477D01*
X047264Y003563D01*
X047264Y035059D01*
X047262Y035145D01*
X047257Y035231D01*
X047247Y035316D01*
X047234Y035401D01*
X047217Y035485D01*
X047197Y035569D01*
X047173Y035651D01*
X047145Y035732D01*
X047114Y035813D01*
X047080Y035891D01*
X047042Y035968D01*
X047000Y036044D01*
X046956Y036117D01*
X046908Y036188D01*
X046857Y036258D01*
X046803Y036325D01*
X046747Y036389D01*
X046687Y036451D01*
X046625Y036511D01*
X046561Y036567D01*
X046494Y036621D01*
X046424Y036672D01*
X046353Y036720D01*
X046280Y036764D01*
X046204Y036806D01*
X046127Y036844D01*
X046049Y036878D01*
X045968Y036909D01*
X045887Y036937D01*
X045805Y036961D01*
X045721Y036981D01*
X045637Y036998D01*
X045552Y037011D01*
X045467Y037021D01*
X045381Y037026D01*
X045295Y037028D01*
X045295Y037027D02*
X003563Y037027D01*
X003563Y037028D02*
X003477Y037026D01*
X003391Y037021D01*
X003306Y037011D01*
X003221Y036998D01*
X003137Y036981D01*
X003053Y036961D01*
X002971Y036937D01*
X002890Y036909D01*
X002809Y036878D01*
X002731Y036844D01*
X002654Y036806D01*
X002579Y036764D01*
X002505Y036720D01*
X002434Y036672D01*
X002364Y036621D01*
X002297Y036567D01*
X002233Y036511D01*
X002171Y036451D01*
X002111Y036389D01*
X002055Y036325D01*
X002001Y036258D01*
X001950Y036188D01*
X001902Y036117D01*
X001858Y036044D01*
X001816Y035968D01*
X001778Y035891D01*
X001744Y035813D01*
X001713Y035732D01*
X001685Y035651D01*
X001661Y035569D01*
X001641Y035485D01*
X001624Y035401D01*
X001611Y035316D01*
X001601Y035231D01*
X001596Y035145D01*
X001594Y035059D01*
X001594Y003563D01*
X001596Y003477D01*
X001601Y003391D01*
X001611Y003306D01*
X001624Y003221D01*
X001641Y003137D01*
X001661Y003053D01*
X001685Y002971D01*
X001713Y002890D01*
X001744Y002809D01*
X001778Y002731D01*
X001816Y002654D01*
X001858Y002579D01*
X001902Y002505D01*
X001950Y002434D01*
X002001Y002364D01*
X002055Y002297D01*
X002111Y002233D01*
X002171Y002171D01*
X002233Y002111D01*
X002297Y002055D01*
X002364Y002001D01*
X002434Y001950D01*
X002505Y001902D01*
X002578Y001858D01*
X002654Y001816D01*
X002731Y001778D01*
X002809Y001744D01*
X002890Y001713D01*
X002971Y001685D01*
X003053Y001661D01*
X003137Y001641D01*
X003221Y001624D01*
X003306Y001611D01*
X003391Y001601D01*
X003477Y001596D01*
X003563Y001594D01*
X022027Y009902D02*
X022029Y009952D01*
X022035Y010002D01*
X022045Y010051D01*
X022059Y010099D01*
X022076Y010146D01*
X022097Y010191D01*
X022122Y010235D01*
X022150Y010276D01*
X022182Y010315D01*
X022216Y010352D01*
X022253Y010386D01*
X022293Y010416D01*
X022335Y010443D01*
X022379Y010467D01*
X022425Y010488D01*
X022472Y010504D01*
X022520Y010517D01*
X022570Y010526D01*
X022619Y010531D01*
X022670Y010532D01*
X022720Y010529D01*
X022769Y010522D01*
X022818Y010511D01*
X022866Y010496D01*
X022912Y010478D01*
X022957Y010456D01*
X023000Y010430D01*
X023041Y010401D01*
X023080Y010369D01*
X023116Y010334D01*
X023148Y010296D01*
X023178Y010256D01*
X023205Y010213D01*
X023228Y010169D01*
X023247Y010123D01*
X023263Y010075D01*
X023275Y010026D01*
X023283Y009977D01*
X023287Y009927D01*
X023287Y009877D01*
X023283Y009827D01*
X023275Y009778D01*
X023263Y009729D01*
X023247Y009681D01*
X023228Y009635D01*
X023205Y009591D01*
X023178Y009548D01*
X023148Y009508D01*
X023116Y009470D01*
X023080Y009435D01*
X023041Y009403D01*
X023000Y009374D01*
X022957Y009348D01*
X022912Y009326D01*
X022866Y009308D01*
X022818Y009293D01*
X022769Y009282D01*
X022720Y009275D01*
X022670Y009272D01*
X022619Y009273D01*
X022570Y009278D01*
X022520Y009287D01*
X022472Y009300D01*
X022425Y009316D01*
X022379Y009337D01*
X022335Y009361D01*
X022293Y009388D01*
X022253Y009418D01*
X022216Y009452D01*
X022182Y009489D01*
X022150Y009528D01*
X022122Y009569D01*
X022097Y009613D01*
X022076Y009658D01*
X022059Y009705D01*
X022045Y009753D01*
X022035Y009802D01*
X022029Y009852D01*
X022027Y009902D01*
X041319Y009902D02*
X041321Y009952D01*
X041327Y010002D01*
X041337Y010051D01*
X041351Y010099D01*
X041368Y010146D01*
X041389Y010191D01*
X041414Y010235D01*
X041442Y010276D01*
X041474Y010315D01*
X041508Y010352D01*
X041545Y010386D01*
X041585Y010416D01*
X041627Y010443D01*
X041671Y010467D01*
X041717Y010488D01*
X041764Y010504D01*
X041812Y010517D01*
X041862Y010526D01*
X041911Y010531D01*
X041962Y010532D01*
X042012Y010529D01*
X042061Y010522D01*
X042110Y010511D01*
X042158Y010496D01*
X042204Y010478D01*
X042249Y010456D01*
X042292Y010430D01*
X042333Y010401D01*
X042372Y010369D01*
X042408Y010334D01*
X042440Y010296D01*
X042470Y010256D01*
X042497Y010213D01*
X042520Y010169D01*
X042539Y010123D01*
X042555Y010075D01*
X042567Y010026D01*
X042575Y009977D01*
X042579Y009927D01*
X042579Y009877D01*
X042575Y009827D01*
X042567Y009778D01*
X042555Y009729D01*
X042539Y009681D01*
X042520Y009635D01*
X042497Y009591D01*
X042470Y009548D01*
X042440Y009508D01*
X042408Y009470D01*
X042372Y009435D01*
X042333Y009403D01*
X042292Y009374D01*
X042249Y009348D01*
X042204Y009326D01*
X042158Y009308D01*
X042110Y009293D01*
X042061Y009282D01*
X042012Y009275D01*
X041962Y009272D01*
X041911Y009273D01*
X041862Y009278D01*
X041812Y009287D01*
X041764Y009300D01*
X041717Y009316D01*
X041671Y009337D01*
X041627Y009361D01*
X041585Y009388D01*
X041545Y009418D01*
X041508Y009452D01*
X041474Y009489D01*
X041442Y009528D01*
X041414Y009569D01*
X041389Y009613D01*
X041368Y009658D01*
X041351Y009705D01*
X041337Y009753D01*
X041327Y009802D01*
X041321Y009852D01*
X041319Y009902D01*
X041319Y032736D02*
X041321Y032786D01*
X041327Y032836D01*
X041337Y032885D01*
X041351Y032933D01*
X041368Y032980D01*
X041389Y033025D01*
X041414Y033069D01*
X041442Y033110D01*
X041474Y033149D01*
X041508Y033186D01*
X041545Y033220D01*
X041585Y033250D01*
X041627Y033277D01*
X041671Y033301D01*
X041717Y033322D01*
X041764Y033338D01*
X041812Y033351D01*
X041862Y033360D01*
X041911Y033365D01*
X041962Y033366D01*
X042012Y033363D01*
X042061Y033356D01*
X042110Y033345D01*
X042158Y033330D01*
X042204Y033312D01*
X042249Y033290D01*
X042292Y033264D01*
X042333Y033235D01*
X042372Y033203D01*
X042408Y033168D01*
X042440Y033130D01*
X042470Y033090D01*
X042497Y033047D01*
X042520Y033003D01*
X042539Y032957D01*
X042555Y032909D01*
X042567Y032860D01*
X042575Y032811D01*
X042579Y032761D01*
X042579Y032711D01*
X042575Y032661D01*
X042567Y032612D01*
X042555Y032563D01*
X042539Y032515D01*
X042520Y032469D01*
X042497Y032425D01*
X042470Y032382D01*
X042440Y032342D01*
X042408Y032304D01*
X042372Y032269D01*
X042333Y032237D01*
X042292Y032208D01*
X042249Y032182D01*
X042204Y032160D01*
X042158Y032142D01*
X042110Y032127D01*
X042061Y032116D01*
X042012Y032109D01*
X041962Y032106D01*
X041911Y032107D01*
X041862Y032112D01*
X041812Y032121D01*
X041764Y032134D01*
X041717Y032150D01*
X041671Y032171D01*
X041627Y032195D01*
X041585Y032222D01*
X041545Y032252D01*
X041508Y032286D01*
X041474Y032323D01*
X041442Y032362D01*
X041414Y032403D01*
X041389Y032447D01*
X041368Y032492D01*
X041351Y032539D01*
X041337Y032587D01*
X041327Y032636D01*
X041321Y032686D01*
X041319Y032736D01*
X022027Y032736D02*
X022029Y032786D01*
X022035Y032836D01*
X022045Y032885D01*
X022059Y032933D01*
X022076Y032980D01*
X022097Y033025D01*
X022122Y033069D01*
X022150Y033110D01*
X022182Y033149D01*
X022216Y033186D01*
X022253Y033220D01*
X022293Y033250D01*
X022335Y033277D01*
X022379Y033301D01*
X022425Y033322D01*
X022472Y033338D01*
X022520Y033351D01*
X022570Y033360D01*
X022619Y033365D01*
X022670Y033366D01*
X022720Y033363D01*
X022769Y033356D01*
X022818Y033345D01*
X022866Y033330D01*
X022912Y033312D01*
X022957Y033290D01*
X023000Y033264D01*
X023041Y033235D01*
X023080Y033203D01*
X023116Y033168D01*
X023148Y033130D01*
X023178Y033090D01*
X023205Y033047D01*
X023228Y033003D01*
X023247Y032957D01*
X023263Y032909D01*
X023275Y032860D01*
X023283Y032811D01*
X023287Y032761D01*
X023287Y032711D01*
X023283Y032661D01*
X023275Y032612D01*
X023263Y032563D01*
X023247Y032515D01*
X023228Y032469D01*
X023205Y032425D01*
X023178Y032382D01*
X023148Y032342D01*
X023116Y032304D01*
X023080Y032269D01*
X023041Y032237D01*
X023000Y032208D01*
X022957Y032182D01*
X022912Y032160D01*
X022866Y032142D01*
X022818Y032127D01*
X022769Y032116D01*
X022720Y032109D01*
X022670Y032106D01*
X022619Y032107D01*
X022570Y032112D01*
X022520Y032121D01*
X022472Y032134D01*
X022425Y032150D01*
X022379Y032171D01*
X022335Y032195D01*
X022293Y032222D01*
X022253Y032252D01*
X022216Y032286D01*
X022182Y032323D01*
X022150Y032362D01*
X022122Y032403D01*
X022097Y032447D01*
X022076Y032492D01*
X022059Y032539D01*
X022045Y032587D01*
X022035Y032636D01*
X022029Y032686D01*
X022027Y032736D01*
M02*
