G75*
%MOIN*%
%OFA0B0*%
%FSLAX24Y24*%
%IPPOS*%
%LPD*%
%AMOC8*
5,1,8,0,0,1.08239X$1,22.5*
%
%ADD10C,0.1340*%
%ADD11C,0.2380*%
%ADD12OC8,0.0680*%
%ADD13C,0.1970*%
%ADD14C,0.0640*%
%ADD15R,0.0631X0.0907*%
%ADD16R,0.0611X0.0926*%
%ADD17OC8,0.0740*%
%ADD18R,0.0551X0.0630*%
%ADD19C,0.0634*%
%ADD20R,0.0356X0.0671*%
%ADD21C,0.0907*%
%ADD22R,0.0630X0.0551*%
%ADD23C,0.0820*%
%ADD24C,0.0555*%
%ADD25C,0.0476*%
D10*
X022657Y009902D03*
X041949Y009902D03*
X041949Y032736D03*
X022657Y032736D03*
D11*
X003169Y035453D03*
X009075Y003169D03*
X045689Y011831D03*
X045689Y035453D03*
D12*
X042449Y030819D03*
X041449Y030819D03*
X041449Y029819D03*
X042449Y029819D03*
X042449Y028819D03*
X041449Y028819D03*
X041449Y027819D03*
X042449Y027819D03*
X042449Y026819D03*
X042449Y025819D03*
X041449Y025819D03*
X041449Y026819D03*
X041449Y024819D03*
X042449Y024819D03*
X042449Y023819D03*
X042449Y022819D03*
X041449Y022819D03*
X041449Y023819D03*
X041449Y021819D03*
X042449Y021819D03*
X042449Y020819D03*
X042449Y019819D03*
X041449Y019819D03*
X041449Y020819D03*
X041449Y018819D03*
X042449Y018819D03*
X042449Y017819D03*
X042449Y016819D03*
X041449Y016819D03*
X041449Y017819D03*
X041449Y015819D03*
X042449Y015819D03*
X042449Y014819D03*
X042449Y013819D03*
X041449Y013819D03*
X041449Y014819D03*
X041449Y012819D03*
X042449Y012819D03*
X042449Y011819D03*
X041449Y011819D03*
D13*
X006315Y025551D03*
X003992Y025551D03*
X005134Y023701D03*
D14*
X006094Y029594D03*
X006094Y030594D03*
X006094Y031594D03*
D15*
X008228Y031594D03*
X009961Y031594D03*
D16*
X009665Y029594D03*
X008524Y029594D03*
D17*
X009594Y020594D03*
X009594Y019594D03*
X005594Y019594D03*
X005594Y020594D03*
X005594Y014594D03*
X005594Y013594D03*
X009594Y013594D03*
X009594Y014594D03*
X009594Y009094D03*
X009594Y008094D03*
X012594Y009094D03*
X016594Y009094D03*
X020094Y009094D03*
X020094Y005094D03*
X016594Y005094D03*
X012594Y005094D03*
X005594Y008094D03*
X005594Y009094D03*
D18*
X007191Y009094D03*
X007998Y009094D03*
X007998Y008094D03*
X007191Y008094D03*
X007191Y013594D03*
X007998Y013594D03*
X007998Y014594D03*
X007191Y014594D03*
X007191Y019594D03*
X007998Y019594D03*
X007998Y020594D03*
X007191Y020594D03*
D19*
X003872Y020587D02*
X003317Y020587D01*
X003317Y019602D02*
X003872Y019602D01*
X012102Y003872D02*
X012102Y003317D01*
X013087Y003317D02*
X013087Y003872D01*
X044817Y022844D02*
X045372Y022844D01*
X045372Y023844D02*
X044817Y023844D01*
X044817Y024844D02*
X045372Y024844D01*
D20*
X045468Y026844D03*
X044720Y026844D03*
X044720Y027844D03*
X045468Y027844D03*
X006218Y035094D03*
X005470Y035094D03*
X005470Y035844D03*
X006218Y035844D03*
D21*
X003594Y015374D03*
X003594Y012815D03*
X003594Y009874D03*
X003594Y007315D03*
D22*
X012594Y007498D03*
X012594Y006691D03*
X016594Y006691D03*
X016594Y007498D03*
X020094Y007498D03*
X020094Y006691D03*
D23*
X019594Y003594D03*
X020594Y003594D03*
X017094Y003594D03*
X016094Y003594D03*
D24*
X010594Y028094D03*
X010594Y028844D03*
X010594Y029594D03*
X010594Y030344D03*
X011344Y030344D03*
X011344Y029594D03*
X011344Y028844D03*
X009594Y028094D03*
X006344Y033844D03*
D25*
X003094Y003094D03*
X002594Y004094D03*
X004094Y002594D03*
X005094Y002594D03*
X006094Y002594D03*
X007094Y002594D03*
X007094Y003594D03*
X007094Y004594D03*
X002344Y008094D03*
X002344Y009094D03*
X002344Y013594D03*
X002344Y014594D03*
X002344Y019594D03*
X002344Y020594D03*
X002344Y024594D03*
X002344Y025594D03*
X002344Y026594D03*
X002594Y030094D03*
X002594Y031094D03*
X002594Y032094D03*
X004844Y035094D03*
X004844Y035844D03*
X016094Y014344D03*
M02*
