G75*
%MOIN*%
%OFA0B0*%
%FSLAX24Y24*%
%IPPOS*%
%LPD*%
%AMOC8*
5,1,8,0,0,1.08239X$1,22.5*
%
%ADD10C,0.2300*%
%ADD11OC8,0.0600*%
%ADD12C,0.1890*%
%ADD13C,0.0560*%
%ADD14OC8,0.0660*%
%ADD15C,0.0554*%
%ADD16C,0.0827*%
%ADD17C,0.0740*%
%ADD18C,0.0160*%
%ADD19C,0.0475*%
%ADD20C,0.0396*%
%ADD21C,0.0100*%
D10*
X009075Y003169D03*
X045689Y011831D03*
X045689Y035453D03*
X003169Y035453D03*
D11*
X041449Y030819D03*
X042449Y030819D03*
X042449Y029819D03*
X042449Y028819D03*
X041449Y028819D03*
X041449Y029819D03*
X041449Y027819D03*
X042449Y027819D03*
X042449Y026819D03*
X042449Y025819D03*
X041449Y025819D03*
X041449Y026819D03*
X041449Y024819D03*
X042449Y024819D03*
X042449Y023819D03*
X042449Y022819D03*
X041449Y022819D03*
X041449Y023819D03*
X041449Y021819D03*
X042449Y021819D03*
X042449Y020819D03*
X042449Y019819D03*
X041449Y019819D03*
X041449Y020819D03*
X041449Y018819D03*
X042449Y018819D03*
X042449Y017819D03*
X042449Y016819D03*
X041449Y016819D03*
X041449Y017819D03*
X041449Y015819D03*
X042449Y015819D03*
X042449Y014819D03*
X042449Y013819D03*
X041449Y013819D03*
X041449Y014819D03*
X041449Y012819D03*
X042449Y012819D03*
X042449Y011819D03*
X041449Y011819D03*
D12*
X006315Y025551D03*
X003992Y025551D03*
X005134Y023701D03*
D13*
X006094Y029594D03*
X006094Y030594D03*
X006094Y031594D03*
D14*
X005594Y020594D03*
X005594Y019594D03*
X009594Y019594D03*
X009594Y020594D03*
X009594Y014594D03*
X009594Y013594D03*
X005594Y013594D03*
X005594Y014594D03*
X005594Y009094D03*
X005594Y008094D03*
X009594Y008094D03*
X009594Y009094D03*
X012594Y009094D03*
X016594Y009094D03*
X020094Y009094D03*
X020094Y005094D03*
X016594Y005094D03*
X012594Y005094D03*
D15*
X012102Y003872D02*
X012102Y003317D01*
X013087Y003317D02*
X013087Y003872D01*
X003872Y019602D02*
X003317Y019602D01*
X003317Y020587D02*
X003872Y020587D01*
X044817Y022844D02*
X045372Y022844D01*
X045372Y023844D02*
X044817Y023844D01*
X044817Y024844D02*
X045372Y024844D01*
D16*
X003594Y015374D03*
X003594Y012815D03*
X003594Y009874D03*
X003594Y007315D03*
D17*
X016094Y003594D03*
X017094Y003594D03*
X019594Y003594D03*
X020594Y003594D03*
D18*
X020594Y003594D01*
X020594Y003044D01*
X020551Y003044D01*
X020466Y003058D01*
X020383Y003085D01*
X020306Y003124D01*
X020236Y003175D01*
X020175Y003236D01*
X020124Y003306D01*
X020106Y003341D01*
X020078Y003272D01*
X019917Y003111D01*
X019708Y003024D01*
X019481Y003024D01*
X019272Y003111D01*
X019111Y003272D01*
X019024Y003481D01*
X019024Y003708D01*
X019111Y003917D01*
X019272Y004078D01*
X019481Y004164D01*
X019708Y004164D01*
X019917Y004078D01*
X020078Y003917D01*
X020106Y003848D01*
X020124Y003883D01*
X020175Y003953D01*
X020236Y004014D01*
X020306Y004065D01*
X020383Y004104D01*
X020466Y004131D01*
X020551Y004144D01*
X020594Y004144D01*
X020594Y003594D01*
X020594Y003044D01*
X020638Y003044D01*
X020723Y003058D01*
X020806Y003085D01*
X020883Y003124D01*
X020953Y003175D01*
X021014Y003236D01*
X021065Y003306D01*
X021104Y003383D01*
X021131Y003466D01*
X021144Y003551D01*
X021144Y003594D01*
X020594Y003594D01*
X020594Y003594D01*
X020594Y003594D01*
X021144Y003594D01*
X021144Y003638D01*
X021131Y003723D01*
X021104Y003806D01*
X021065Y003883D01*
X021014Y003953D01*
X020953Y004014D01*
X020883Y004065D01*
X020806Y004104D01*
X020723Y004131D01*
X020638Y004144D01*
X020594Y004144D01*
X020594Y003594D01*
X020594Y003655D02*
X020594Y003655D01*
X020594Y003813D02*
X020594Y003813D01*
X020594Y003972D02*
X020594Y003972D01*
X020594Y004130D02*
X020594Y004130D01*
X020464Y004130D02*
X019790Y004130D01*
X020023Y003972D02*
X020194Y003972D01*
X020725Y004130D02*
X046784Y004130D01*
X046784Y003972D02*
X020995Y003972D01*
X021100Y003813D02*
X046784Y003813D01*
X046784Y003655D02*
X021142Y003655D01*
X021136Y003496D02*
X046780Y003496D01*
X046784Y003563D02*
X046774Y003396D01*
X046700Y003071D01*
X046556Y002771D01*
X046348Y002510D01*
X046087Y002303D01*
X045787Y002158D01*
X045462Y002084D01*
X045295Y002074D01*
X009878Y002074D01*
X009904Y002089D01*
X010155Y002340D01*
X010333Y002648D01*
X010425Y002991D01*
X010425Y003347D01*
X010333Y003690D01*
X010155Y003998D01*
X009904Y004249D01*
X009596Y004427D01*
X009252Y004519D01*
X008897Y004519D01*
X008554Y004427D01*
X008246Y004249D01*
X007994Y003998D01*
X007964Y003946D01*
X007964Y004668D01*
X007908Y004804D01*
X007804Y004908D01*
X007408Y005304D01*
X007304Y005408D01*
X007168Y005464D01*
X003748Y005464D01*
X002964Y006248D01*
X002964Y019310D01*
X002969Y019304D01*
X003019Y019254D01*
X003078Y019211D01*
X003142Y019179D01*
X003210Y019156D01*
X003281Y019145D01*
X003586Y019145D01*
X003586Y019594D01*
X003603Y019594D01*
X003603Y019611D01*
X003586Y019611D01*
X003586Y020059D01*
X003281Y020059D01*
X003210Y020048D01*
X003142Y020026D01*
X003078Y019993D01*
X003019Y019951D01*
X002969Y019900D01*
X002964Y019894D01*
X002964Y020265D01*
X003047Y020182D01*
X003222Y020109D01*
X003967Y020109D01*
X004142Y020182D01*
X004276Y020316D01*
X004349Y020492D01*
X004349Y020681D01*
X004276Y020857D01*
X004142Y020991D01*
X003967Y021064D01*
X003222Y021064D01*
X003047Y020991D01*
X002964Y020909D01*
X002964Y025092D01*
X003006Y025006D01*
X003073Y024899D01*
X003152Y024800D01*
X003241Y024711D01*
X003340Y024632D01*
X003447Y024565D01*
X003561Y024510D01*
X003680Y024468D01*
X003803Y024440D01*
X003912Y024428D01*
X003912Y025471D01*
X004072Y025471D01*
X004072Y024428D01*
X004181Y024440D01*
X004304Y024468D01*
X004314Y024472D01*
X004294Y024451D01*
X004215Y024353D01*
X004148Y024246D01*
X004093Y024132D01*
X004051Y024013D01*
X004023Y023889D01*
X004011Y023781D01*
X005054Y023781D01*
X005054Y024824D01*
X004945Y024811D01*
X004822Y024783D01*
X004811Y024780D01*
X004832Y024800D01*
X004911Y024899D01*
X004978Y025006D01*
X005033Y025120D01*
X005075Y025239D01*
X005103Y025362D01*
X005115Y025471D01*
X004072Y025471D01*
X004072Y025631D01*
X005115Y025631D01*
X005103Y025740D01*
X005075Y025863D01*
X005033Y025982D01*
X004978Y026096D01*
X004911Y026203D01*
X004832Y026302D01*
X004743Y026391D01*
X004644Y026470D01*
X004537Y026537D01*
X004423Y026592D01*
X004304Y026634D01*
X004181Y026662D01*
X004072Y026674D01*
X004072Y025631D01*
X003912Y025631D01*
X003912Y026674D01*
X003803Y026662D01*
X003680Y026634D01*
X003561Y026592D01*
X003447Y026537D01*
X003340Y026470D01*
X003241Y026391D01*
X003152Y026302D01*
X003073Y026203D01*
X003006Y026096D01*
X002964Y026010D01*
X002964Y026941D01*
X003408Y027385D01*
X003464Y027521D01*
X003464Y032441D01*
X004248Y033224D01*
X005168Y033224D01*
X005304Y033281D01*
X005408Y033385D01*
X005908Y033885D01*
X005964Y034021D01*
X005964Y036547D01*
X044885Y036547D01*
X044860Y036533D01*
X044609Y036282D01*
X044431Y035974D01*
X044339Y035630D01*
X044339Y035275D01*
X044431Y034932D01*
X044609Y034624D01*
X044860Y034372D01*
X045168Y034195D01*
X045511Y034103D01*
X045867Y034103D01*
X046210Y034195D01*
X046518Y034372D01*
X046769Y034624D01*
X046784Y034649D01*
X046784Y012634D01*
X046769Y012660D01*
X046518Y012911D01*
X046210Y013089D01*
X045867Y013181D01*
X045511Y013181D01*
X045168Y013089D01*
X044860Y012911D01*
X044609Y012660D01*
X044431Y012352D01*
X044339Y012008D01*
X044339Y011653D01*
X044431Y011310D01*
X044609Y011002D01*
X044860Y010750D01*
X045168Y010573D01*
X045511Y010481D01*
X045867Y010481D01*
X046210Y010573D01*
X046518Y010750D01*
X046769Y011002D01*
X046784Y011027D01*
X046784Y003563D01*
X046761Y003338D02*
X021081Y003338D01*
X020957Y003179D02*
X046725Y003179D01*
X046676Y003021D02*
X013436Y003021D01*
X013435Y003019D02*
X013478Y003078D01*
X013510Y003142D01*
X013532Y003210D01*
X013544Y003281D01*
X013544Y003586D01*
X013095Y003586D01*
X013095Y003603D01*
X013078Y003603D01*
X013078Y004329D01*
X013051Y004329D01*
X012979Y004317D01*
X012911Y004295D01*
X012847Y004263D01*
X012789Y004220D01*
X012738Y004169D01*
X012696Y004111D01*
X012663Y004047D01*
X012641Y003979D01*
X012629Y003908D01*
X012629Y003603D01*
X013078Y003603D01*
X013078Y003586D01*
X012629Y003586D01*
X012629Y003281D01*
X012641Y003210D01*
X012663Y003142D01*
X012696Y003078D01*
X012738Y003019D01*
X012789Y002969D01*
X012847Y002926D01*
X012911Y002894D01*
X012979Y002871D01*
X013051Y002860D01*
X013078Y002860D01*
X013078Y003586D01*
X013095Y003586D01*
X013095Y002860D01*
X013123Y002860D01*
X013194Y002871D01*
X013262Y002894D01*
X013326Y002926D01*
X013384Y002969D01*
X013435Y003019D01*
X013522Y003179D02*
X015703Y003179D01*
X015772Y003111D02*
X015981Y003024D01*
X016208Y003024D01*
X016417Y003111D01*
X016578Y003272D01*
X016606Y003341D01*
X016624Y003306D01*
X016675Y003236D01*
X016736Y003175D01*
X016806Y003124D01*
X016883Y003085D01*
X016966Y003058D01*
X017051Y003044D01*
X017094Y003044D01*
X017094Y003594D01*
X017094Y003594D01*
X017094Y003044D01*
X017138Y003044D01*
X017223Y003058D01*
X017306Y003085D01*
X017383Y003124D01*
X017453Y003175D01*
X017514Y003236D01*
X017565Y003306D01*
X017604Y003383D01*
X017631Y003466D01*
X017644Y003551D01*
X017644Y003594D01*
X017094Y003594D01*
X017094Y003594D01*
X017094Y004144D01*
X017051Y004144D01*
X016966Y004131D01*
X016883Y004104D01*
X016806Y004065D01*
X016736Y004014D01*
X016675Y003953D01*
X016624Y003883D01*
X016606Y003848D01*
X016578Y003917D01*
X016417Y004078D01*
X016208Y004164D01*
X015981Y004164D01*
X015772Y004078D01*
X015611Y003917D01*
X015524Y003708D01*
X015524Y003481D01*
X015611Y003272D01*
X015772Y003111D01*
X015584Y003338D02*
X013544Y003338D01*
X013544Y003496D02*
X015524Y003496D01*
X015524Y003655D02*
X013544Y003655D01*
X013544Y003603D02*
X013544Y003908D01*
X013532Y003979D01*
X013510Y004047D01*
X013478Y004111D01*
X013435Y004169D01*
X013384Y004220D01*
X013326Y004263D01*
X013262Y004295D01*
X013194Y004317D01*
X013123Y004329D01*
X013095Y004329D01*
X013095Y003603D01*
X013544Y003603D01*
X013544Y003813D02*
X015568Y003813D01*
X015666Y003972D02*
X013534Y003972D01*
X013464Y004130D02*
X015899Y004130D01*
X016290Y004130D02*
X016964Y004130D01*
X017094Y004130D02*
X017094Y004130D01*
X017094Y004144D02*
X017138Y004144D01*
X017223Y004131D01*
X017306Y004104D01*
X017383Y004065D01*
X017453Y004014D01*
X017514Y003953D01*
X017565Y003883D01*
X017604Y003806D01*
X017631Y003723D01*
X017644Y003638D01*
X017644Y003594D01*
X017094Y003594D01*
X017094Y003594D01*
X017094Y004144D01*
X017225Y004130D02*
X019399Y004130D01*
X019166Y003972D02*
X017495Y003972D01*
X017600Y003813D02*
X019068Y003813D01*
X019024Y003655D02*
X017642Y003655D01*
X017636Y003496D02*
X019024Y003496D01*
X019084Y003338D02*
X017581Y003338D01*
X017457Y003179D02*
X019203Y003179D01*
X019986Y003179D02*
X020232Y003179D01*
X020108Y003338D02*
X020105Y003338D01*
X020594Y003338D02*
X020594Y003338D01*
X020594Y003496D02*
X020594Y003496D01*
X020594Y003179D02*
X020594Y003179D01*
X020314Y004564D02*
X019875Y004564D01*
X019564Y004875D01*
X019564Y005314D01*
X019875Y005624D01*
X020314Y005624D01*
X020624Y005314D01*
X020624Y004875D01*
X020314Y004564D01*
X020355Y004606D02*
X046784Y004606D01*
X046784Y004764D02*
X020514Y004764D01*
X020624Y004923D02*
X046784Y004923D01*
X046784Y005081D02*
X020624Y005081D01*
X020624Y005240D02*
X046784Y005240D01*
X046784Y005398D02*
X020540Y005398D01*
X020381Y005557D02*
X046784Y005557D01*
X046784Y005715D02*
X003497Y005715D01*
X003655Y005557D02*
X012307Y005557D01*
X012375Y005624D02*
X012064Y005314D01*
X012064Y004875D01*
X012375Y004564D01*
X012814Y004564D01*
X013124Y004875D01*
X013124Y005314D01*
X012814Y005624D01*
X012375Y005624D01*
X012149Y005398D02*
X007314Y005398D01*
X007408Y005304D02*
X007408Y005304D01*
X007472Y005240D02*
X012064Y005240D01*
X012064Y005081D02*
X007631Y005081D01*
X007789Y004923D02*
X012064Y004923D01*
X012175Y004764D02*
X007924Y004764D01*
X007964Y004606D02*
X012333Y004606D01*
X012197Y004349D02*
X012007Y004349D01*
X011832Y004276D01*
X011698Y004142D01*
X011625Y003967D01*
X011625Y003222D01*
X011698Y003047D01*
X011832Y002913D01*
X012007Y002840D01*
X012197Y002840D01*
X012373Y002913D01*
X012507Y003047D01*
X012579Y003222D01*
X012579Y003967D01*
X012507Y004142D01*
X012373Y004276D01*
X012197Y004349D01*
X012342Y004289D02*
X012899Y004289D01*
X013078Y004289D02*
X013095Y004289D01*
X013078Y004130D02*
X013095Y004130D01*
X013078Y003972D02*
X013095Y003972D01*
X013078Y003813D02*
X013095Y003813D01*
X013078Y003655D02*
X013095Y003655D01*
X013078Y003496D02*
X013095Y003496D01*
X013078Y003338D02*
X013095Y003338D01*
X013078Y003179D02*
X013095Y003179D01*
X013078Y003021D02*
X013095Y003021D01*
X013078Y002862D02*
X013095Y002862D01*
X013137Y002862D02*
X046600Y002862D01*
X046502Y002704D02*
X010348Y002704D01*
X010390Y002862D02*
X011953Y002862D01*
X011724Y003021D02*
X010425Y003021D01*
X010425Y003179D02*
X011643Y003179D01*
X011625Y003338D02*
X010425Y003338D01*
X010385Y003496D02*
X011625Y003496D01*
X011625Y003655D02*
X010342Y003655D01*
X010262Y003813D02*
X011625Y003813D01*
X011627Y003972D02*
X010170Y003972D01*
X010023Y004130D02*
X011693Y004130D01*
X011863Y004289D02*
X009835Y004289D01*
X009520Y004447D02*
X046784Y004447D01*
X046784Y004289D02*
X013274Y004289D01*
X012855Y004606D02*
X016333Y004606D01*
X016375Y004564D02*
X016814Y004564D01*
X017124Y004875D01*
X017124Y005314D01*
X016814Y005624D01*
X016375Y005624D01*
X016064Y005314D01*
X016064Y004875D01*
X016375Y004564D01*
X016175Y004764D02*
X013014Y004764D01*
X013124Y004923D02*
X016064Y004923D01*
X016064Y005081D02*
X013124Y005081D01*
X013124Y005240D02*
X016064Y005240D01*
X016149Y005398D02*
X013040Y005398D01*
X012881Y005557D02*
X016307Y005557D01*
X016881Y005557D02*
X019807Y005557D01*
X019649Y005398D02*
X017040Y005398D01*
X017124Y005240D02*
X019564Y005240D01*
X019564Y005081D02*
X017124Y005081D01*
X017124Y004923D02*
X019564Y004923D01*
X019675Y004764D02*
X017014Y004764D01*
X016855Y004606D02*
X019833Y004606D01*
X017094Y003972D02*
X017094Y003972D01*
X017094Y003813D02*
X017094Y003813D01*
X017094Y003655D02*
X017094Y003655D01*
X017094Y003496D02*
X017094Y003496D01*
X017094Y003338D02*
X017094Y003338D01*
X017094Y003179D02*
X017094Y003179D01*
X016732Y003179D02*
X016486Y003179D01*
X016605Y003338D02*
X016608Y003338D01*
X016523Y003972D02*
X016694Y003972D01*
X013036Y002862D02*
X012251Y002862D01*
X012481Y003021D02*
X012737Y003021D01*
X012651Y003179D02*
X012562Y003179D01*
X012579Y003338D02*
X012629Y003338D01*
X012629Y003496D02*
X012579Y003496D01*
X012579Y003655D02*
X012629Y003655D01*
X012629Y003813D02*
X012579Y003813D01*
X012577Y003972D02*
X012640Y003972D01*
X012710Y004130D02*
X012512Y004130D01*
X010273Y002545D02*
X046376Y002545D01*
X046193Y002387D02*
X010182Y002387D01*
X010043Y002228D02*
X045933Y002228D01*
X046784Y005874D02*
X003338Y005874D01*
X003180Y006032D02*
X046784Y006032D01*
X046784Y006191D02*
X003021Y006191D01*
X002964Y006349D02*
X046784Y006349D01*
X046784Y006508D02*
X002964Y006508D01*
X002964Y006666D02*
X046784Y006666D01*
X046784Y006825D02*
X003930Y006825D01*
X003905Y006807D02*
X003981Y006862D01*
X004047Y006928D01*
X004102Y007004D01*
X004144Y007087D01*
X004173Y007176D01*
X004186Y007257D01*
X003652Y007257D01*
X003652Y006723D01*
X003733Y006736D01*
X003822Y006765D01*
X003905Y006807D01*
X003652Y006825D02*
X003537Y006825D01*
X003537Y006723D02*
X003537Y007257D01*
X003652Y007257D01*
X003652Y007373D01*
X003537Y007373D01*
X003537Y007907D01*
X003455Y007894D01*
X003367Y007865D01*
X003283Y007822D01*
X003208Y007768D01*
X003142Y007701D01*
X003087Y007626D01*
X003045Y007543D01*
X003016Y007454D01*
X003003Y007373D01*
X003537Y007373D01*
X003537Y007257D01*
X003003Y007257D01*
X003016Y007176D01*
X003045Y007087D01*
X003087Y007004D01*
X003142Y006928D01*
X003208Y006862D01*
X003283Y006807D01*
X003367Y006765D01*
X003455Y006736D01*
X003537Y006723D01*
X003537Y006983D02*
X003652Y006983D01*
X003652Y007142D02*
X003537Y007142D01*
X003537Y007300D02*
X002964Y007300D01*
X002964Y007142D02*
X003027Y007142D01*
X002964Y006983D02*
X003102Y006983D01*
X002964Y006825D02*
X003259Y006825D01*
X003652Y007300D02*
X046784Y007300D01*
X046784Y007142D02*
X004162Y007142D01*
X004087Y006983D02*
X046784Y006983D01*
X046784Y007459D02*
X004172Y007459D01*
X004173Y007454D02*
X004144Y007543D01*
X004102Y007626D01*
X004047Y007701D01*
X003981Y007768D01*
X003905Y007822D01*
X003822Y007865D01*
X003733Y007894D01*
X003652Y007907D01*
X003652Y007373D01*
X004186Y007373D01*
X004173Y007454D01*
X004106Y007617D02*
X005322Y007617D01*
X005375Y007564D02*
X005064Y007875D01*
X005064Y008314D01*
X005345Y008594D01*
X005064Y008875D01*
X005064Y009314D01*
X005375Y009624D01*
X005814Y009624D01*
X006124Y009314D01*
X006124Y008875D01*
X005844Y008594D01*
X006124Y008314D01*
X006124Y007875D01*
X005814Y007564D01*
X005375Y007564D01*
X005163Y007776D02*
X003969Y007776D01*
X003652Y007776D02*
X003537Y007776D01*
X003537Y007617D02*
X003652Y007617D01*
X003652Y007459D02*
X003537Y007459D01*
X003219Y007776D02*
X002964Y007776D01*
X002964Y007934D02*
X005064Y007934D01*
X005064Y008093D02*
X002964Y008093D01*
X002964Y008251D02*
X005064Y008251D01*
X005160Y008410D02*
X002964Y008410D01*
X002964Y008568D02*
X005319Y008568D01*
X005212Y008727D02*
X002964Y008727D01*
X002964Y008885D02*
X005064Y008885D01*
X005064Y009044D02*
X002964Y009044D01*
X002964Y009202D02*
X005064Y009202D01*
X005111Y009361D02*
X003949Y009361D01*
X003942Y009354D02*
X004114Y009526D01*
X004208Y009752D01*
X004208Y009996D01*
X004114Y010221D01*
X003942Y010394D01*
X003716Y010487D01*
X003472Y010487D01*
X003247Y010394D01*
X003074Y010221D01*
X002981Y009996D01*
X002981Y009752D01*
X003074Y009526D01*
X003247Y009354D01*
X003472Y009261D01*
X003716Y009261D01*
X003942Y009354D01*
X004107Y009519D02*
X005270Y009519D01*
X005919Y009519D02*
X009270Y009519D01*
X009375Y009624D02*
X009064Y009314D01*
X009064Y008875D01*
X009345Y008594D01*
X009064Y008314D01*
X009064Y007875D01*
X009375Y007564D01*
X009814Y007564D01*
X010064Y007814D01*
X010650Y007814D01*
X010753Y007857D01*
X010832Y007936D01*
X012064Y009168D01*
X012064Y008875D01*
X012375Y008564D01*
X012814Y008564D01*
X013124Y008875D01*
X013124Y009228D01*
X014082Y010186D01*
X014124Y010289D01*
X014124Y014668D01*
X019564Y009228D01*
X019564Y008875D01*
X019875Y008564D01*
X020314Y008564D01*
X020624Y008875D01*
X020624Y009314D01*
X020314Y009624D01*
X019960Y009624D01*
X014624Y014960D01*
X014624Y023728D01*
X014960Y024064D01*
X015168Y024064D01*
X014936Y023832D01*
X014857Y023753D01*
X014814Y023650D01*
X014814Y015289D01*
X014857Y015186D01*
X015696Y014347D01*
X015696Y014265D01*
X015757Y014119D01*
X015869Y014007D01*
X016015Y013946D01*
X016174Y013946D01*
X016320Y014007D01*
X016432Y014119D01*
X016493Y014265D01*
X016493Y014424D01*
X016432Y014570D01*
X016320Y014682D01*
X016174Y014743D01*
X016092Y014743D01*
X015374Y015460D01*
X015374Y023478D01*
X015460Y023564D01*
X039478Y023564D01*
X040936Y022107D01*
X041002Y022080D01*
X040949Y022026D01*
X040949Y021612D01*
X041242Y021319D01*
X041656Y021319D01*
X041949Y021612D01*
X041949Y022026D01*
X041907Y022067D01*
X042003Y022107D01*
X042082Y022186D01*
X042228Y022332D01*
X042242Y022319D01*
X042656Y022319D01*
X042949Y022612D01*
X042949Y023026D01*
X042656Y023319D01*
X042949Y023612D01*
X042949Y024026D01*
X042656Y024319D01*
X042242Y024319D01*
X041949Y024026D01*
X041949Y023624D01*
X041949Y023624D01*
X041949Y024026D01*
X041656Y024319D01*
X041949Y024612D01*
X041949Y025026D01*
X041656Y025319D01*
X041949Y025612D01*
X042242Y025319D01*
X042656Y025319D01*
X042949Y025612D01*
X042949Y026026D01*
X042656Y026319D01*
X042949Y026612D01*
X042949Y027026D01*
X042656Y027319D01*
X042949Y027612D01*
X042949Y028026D01*
X042656Y028319D01*
X042242Y028319D01*
X041949Y028026D01*
X041949Y027612D01*
X042242Y027319D01*
X042656Y027319D01*
X042242Y027319D01*
X041949Y027026D01*
X041949Y026612D01*
X042242Y026319D01*
X042656Y026319D01*
X042242Y026319D01*
X041949Y026026D01*
X041949Y025612D01*
X041949Y026026D01*
X041656Y026319D01*
X041242Y026319D01*
X041022Y026099D01*
X014263Y026099D01*
X014160Y026056D01*
X012436Y024332D01*
X012357Y024253D01*
X012314Y024150D01*
X012314Y014710D01*
X011478Y013874D01*
X010064Y013874D01*
X009844Y014094D01*
X010124Y014375D01*
X010124Y014814D01*
X009814Y015124D01*
X009375Y015124D01*
X009064Y014814D01*
X009064Y014375D01*
X009345Y014094D01*
X009064Y013814D01*
X009064Y013375D01*
X009375Y013064D01*
X009814Y013064D01*
X010064Y013314D01*
X011650Y013314D01*
X011753Y013357D01*
X011832Y013436D01*
X012832Y014436D01*
X012874Y014539D01*
X012874Y023978D01*
X013064Y024168D01*
X013064Y010960D01*
X010478Y008374D01*
X010064Y008374D01*
X009844Y008594D01*
X010124Y008875D01*
X010124Y009314D01*
X009814Y009624D01*
X009375Y009624D01*
X009111Y009361D02*
X006077Y009361D01*
X006124Y009202D02*
X009064Y009202D01*
X009064Y009044D02*
X006124Y009044D01*
X006124Y008885D02*
X009064Y008885D01*
X009212Y008727D02*
X005976Y008727D01*
X005870Y008568D02*
X009319Y008568D01*
X009160Y008410D02*
X006028Y008410D01*
X006124Y008251D02*
X009064Y008251D01*
X009064Y008093D02*
X006124Y008093D01*
X006124Y007934D02*
X009064Y007934D01*
X009163Y007776D02*
X006025Y007776D01*
X005867Y007617D02*
X009322Y007617D01*
X009867Y007617D02*
X046784Y007617D01*
X046784Y007776D02*
X010025Y007776D01*
X009594Y008094D02*
X010594Y008094D01*
X013344Y010844D01*
X013344Y024344D01*
X014344Y025344D01*
X040594Y025344D01*
X041120Y024819D01*
X041449Y024819D01*
X041129Y025206D02*
X040832Y025503D01*
X040796Y025539D01*
X041022Y025539D01*
X041242Y025319D01*
X041656Y025319D01*
X041242Y025319D01*
X041129Y025206D01*
X041124Y025211D02*
X041134Y025211D01*
X041191Y025369D02*
X040965Y025369D01*
X041033Y025528D02*
X040807Y025528D01*
X041085Y026162D02*
X013058Y026162D01*
X013216Y026320D02*
X042240Y026320D01*
X042085Y026162D02*
X041813Y026162D01*
X041949Y026003D02*
X041949Y026003D01*
X041949Y025845D02*
X041949Y025845D01*
X041949Y025686D02*
X041949Y025686D01*
X041865Y025528D02*
X042033Y025528D01*
X042191Y025369D02*
X041706Y025369D01*
X041764Y025211D02*
X042162Y025211D01*
X042250Y025299D02*
X041969Y025018D01*
X041969Y024839D01*
X042429Y024839D01*
X042429Y025299D01*
X042250Y025299D01*
X042429Y025211D02*
X042469Y025211D01*
X042469Y025299D02*
X042469Y024839D01*
X042929Y024839D01*
X042929Y025018D01*
X042648Y025299D01*
X042469Y025299D01*
X042469Y025052D02*
X042429Y025052D01*
X042429Y024894D02*
X042469Y024894D01*
X042469Y024839D02*
X042429Y024839D01*
X042429Y024799D01*
X042469Y024799D01*
X042469Y024839D01*
X042469Y024799D02*
X042929Y024799D01*
X042929Y024620D01*
X042648Y024339D01*
X042469Y024339D01*
X042469Y024799D01*
X042429Y024799D02*
X042429Y024339D01*
X042250Y024339D01*
X041969Y024620D01*
X041969Y024799D01*
X042429Y024799D01*
X042429Y024735D02*
X042469Y024735D01*
X042469Y024577D02*
X042429Y024577D01*
X042429Y024418D02*
X042469Y024418D01*
X042727Y024418D02*
X044599Y024418D01*
X044547Y024440D02*
X044722Y024367D01*
X045467Y024367D01*
X045642Y024440D01*
X045776Y024574D01*
X045849Y024750D01*
X045849Y024939D01*
X045776Y025115D01*
X045642Y025249D01*
X045467Y025322D01*
X044722Y025322D01*
X044547Y025249D01*
X044413Y025115D01*
X044340Y024939D01*
X044340Y024750D01*
X044413Y024574D01*
X044547Y024440D01*
X044574Y024260D02*
X042715Y024260D01*
X042873Y024101D02*
X044407Y024101D01*
X044413Y024115D02*
X044340Y023939D01*
X044340Y023750D01*
X044413Y023574D01*
X044547Y023440D01*
X044722Y023367D01*
X045467Y023367D01*
X045642Y023440D01*
X045776Y023574D01*
X045849Y023750D01*
X045849Y023939D01*
X045776Y024115D01*
X045642Y024249D01*
X045467Y024322D01*
X044722Y024322D01*
X044547Y024249D01*
X044413Y024115D01*
X044342Y023943D02*
X042949Y023943D01*
X042949Y023784D02*
X044340Y023784D01*
X044391Y023626D02*
X042949Y023626D01*
X042804Y023467D02*
X044519Y023467D01*
X044642Y023268D02*
X044578Y023235D01*
X044519Y023193D01*
X044469Y023142D01*
X044426Y023084D01*
X044394Y023020D01*
X044371Y022951D01*
X044360Y022880D01*
X044360Y022853D01*
X045086Y022853D01*
X045086Y023302D01*
X044781Y023302D01*
X044710Y023290D01*
X044642Y023268D01*
X044477Y023150D02*
X042824Y023150D01*
X042949Y022992D02*
X044385Y022992D01*
X044360Y022836D02*
X044360Y022808D01*
X044371Y022737D01*
X044394Y022669D01*
X044426Y022605D01*
X044469Y022547D01*
X044519Y022496D01*
X044578Y022453D01*
X044642Y022421D01*
X044710Y022399D01*
X044781Y022387D01*
X045086Y022387D01*
X045086Y022836D01*
X045103Y022836D01*
X045103Y022853D01*
X045086Y022853D01*
X045086Y022836D01*
X044360Y022836D01*
X044360Y022833D02*
X042949Y022833D01*
X042949Y022675D02*
X044392Y022675D01*
X044499Y022516D02*
X042853Y022516D01*
X042695Y022358D02*
X046784Y022358D01*
X046784Y022516D02*
X045690Y022516D01*
X045669Y022496D02*
X045720Y022547D01*
X045763Y022605D01*
X045795Y022669D01*
X045817Y022737D01*
X045829Y022808D01*
X045829Y022836D01*
X045103Y022836D01*
X045103Y022387D01*
X045408Y022387D01*
X045479Y022399D01*
X045547Y022421D01*
X045611Y022453D01*
X045669Y022496D01*
X045797Y022675D02*
X046784Y022675D01*
X046784Y022833D02*
X045829Y022833D01*
X045829Y022853D02*
X045829Y022880D01*
X045817Y022951D01*
X045795Y023020D01*
X045763Y023084D01*
X045720Y023142D01*
X045669Y023193D01*
X045611Y023235D01*
X045547Y023268D01*
X045479Y023290D01*
X045408Y023302D01*
X045103Y023302D01*
X045103Y022853D01*
X045829Y022853D01*
X045804Y022992D02*
X046784Y022992D01*
X046784Y023150D02*
X045712Y023150D01*
X045669Y023467D02*
X046784Y023467D01*
X046784Y023309D02*
X042666Y023309D01*
X042656Y023319D02*
X042465Y023319D01*
X042656Y023319D01*
X042465Y023319D02*
X042465Y023319D01*
X042094Y023344D02*
X042449Y023699D01*
X042449Y023819D01*
X041949Y023784D02*
X041949Y023784D01*
X041949Y023626D02*
X041949Y023626D01*
X042094Y023344D02*
X041094Y023344D01*
X040094Y024344D01*
X014844Y024344D01*
X014344Y023844D01*
X014344Y014844D01*
X020094Y009094D01*
X019712Y008727D02*
X016976Y008727D01*
X017124Y008875D02*
X016814Y008564D01*
X016375Y008564D01*
X016064Y008875D01*
X016064Y009314D01*
X016375Y009624D01*
X016814Y009624D01*
X017124Y009314D01*
X017124Y008875D01*
X017124Y008885D02*
X019564Y008885D01*
X019564Y009044D02*
X017124Y009044D01*
X017124Y009202D02*
X019564Y009202D01*
X019432Y009361D02*
X017077Y009361D01*
X016919Y009519D02*
X019273Y009519D01*
X019115Y009678D02*
X013574Y009678D01*
X013732Y009836D02*
X018956Y009836D01*
X018798Y009995D02*
X013891Y009995D01*
X014049Y010153D02*
X018639Y010153D01*
X018481Y010312D02*
X014124Y010312D01*
X014124Y010470D02*
X018322Y010470D01*
X018164Y010629D02*
X014124Y010629D01*
X014124Y010787D02*
X018005Y010787D01*
X017847Y010946D02*
X014124Y010946D01*
X014124Y011104D02*
X017688Y011104D01*
X017530Y011263D02*
X014124Y011263D01*
X014124Y011421D02*
X017371Y011421D01*
X017213Y011580D02*
X014124Y011580D01*
X014124Y011738D02*
X017054Y011738D01*
X016896Y011897D02*
X014124Y011897D01*
X014124Y012055D02*
X016737Y012055D01*
X016579Y012214D02*
X014124Y012214D01*
X014124Y012372D02*
X016420Y012372D01*
X016262Y012531D02*
X014124Y012531D01*
X014124Y012689D02*
X016103Y012689D01*
X015945Y012848D02*
X014124Y012848D01*
X014124Y013006D02*
X015786Y013006D01*
X015628Y013165D02*
X014124Y013165D01*
X014124Y013323D02*
X015469Y013323D01*
X015311Y013482D02*
X014124Y013482D01*
X014124Y013640D02*
X015152Y013640D01*
X014994Y013799D02*
X014124Y013799D01*
X014124Y013957D02*
X014835Y013957D01*
X014677Y014116D02*
X014124Y014116D01*
X014124Y014274D02*
X014518Y014274D01*
X014360Y014433D02*
X014124Y014433D01*
X014124Y014591D02*
X014201Y014591D01*
X014676Y014908D02*
X015134Y014908D01*
X015293Y014750D02*
X014835Y014750D01*
X014993Y014591D02*
X015451Y014591D01*
X015610Y014433D02*
X015152Y014433D01*
X015310Y014274D02*
X015696Y014274D01*
X015760Y014116D02*
X015469Y014116D01*
X015627Y013957D02*
X015988Y013957D01*
X016200Y013957D02*
X040949Y013957D01*
X040949Y014026D02*
X040949Y013612D01*
X041242Y013319D01*
X041656Y013319D01*
X041949Y013612D01*
X042242Y013319D01*
X042656Y013319D01*
X042949Y013612D01*
X042949Y014026D01*
X042656Y014319D01*
X042242Y014319D01*
X041949Y014026D01*
X041949Y013612D01*
X041949Y014026D01*
X041656Y014319D01*
X041949Y014612D01*
X041949Y015026D01*
X041656Y015319D01*
X041949Y015612D01*
X042242Y015319D01*
X042656Y015319D01*
X042949Y015612D01*
X042949Y016026D01*
X042656Y016319D01*
X042242Y016319D01*
X041949Y016026D01*
X041949Y015612D01*
X041949Y016026D01*
X041656Y016319D01*
X041949Y016612D01*
X041949Y017026D01*
X041656Y017319D01*
X041949Y017612D01*
X042242Y017319D01*
X042656Y017319D01*
X042949Y017612D01*
X042949Y018026D01*
X042656Y018319D01*
X042949Y018612D01*
X042949Y019026D01*
X042656Y019319D01*
X042949Y019612D01*
X042949Y020026D01*
X042656Y020319D01*
X042949Y020612D01*
X042949Y021026D01*
X042656Y021319D01*
X042242Y021319D01*
X041949Y021026D01*
X041949Y020612D01*
X042242Y020319D01*
X042656Y020319D01*
X042242Y020319D01*
X041949Y020026D01*
X041949Y019612D01*
X042242Y019319D01*
X042656Y019319D01*
X042242Y019319D01*
X041949Y019026D01*
X041949Y018612D01*
X042242Y018319D01*
X042656Y018319D01*
X042242Y018319D01*
X041949Y018026D01*
X041949Y017612D01*
X041949Y018026D01*
X041656Y018319D01*
X041242Y018319D01*
X040949Y018026D01*
X040949Y017612D01*
X041242Y017319D01*
X041656Y017319D01*
X041242Y017319D01*
X040949Y017026D01*
X040949Y016612D01*
X041242Y016319D01*
X041656Y016319D01*
X041242Y016319D01*
X040949Y016026D01*
X040949Y015612D01*
X041242Y015319D01*
X041656Y015319D01*
X041242Y015319D01*
X040949Y015026D01*
X040949Y014612D01*
X041242Y014319D01*
X041656Y014319D01*
X041242Y014319D01*
X040949Y014026D01*
X041039Y014116D02*
X016429Y014116D01*
X016493Y014274D02*
X041197Y014274D01*
X041128Y014433D02*
X016489Y014433D01*
X016410Y014591D02*
X040969Y014591D01*
X040949Y014750D02*
X016085Y014750D01*
X015926Y014908D02*
X040949Y014908D01*
X040990Y015067D02*
X015768Y015067D01*
X015609Y015225D02*
X041148Y015225D01*
X041177Y015384D02*
X015451Y015384D01*
X015374Y015542D02*
X041018Y015542D01*
X040949Y015701D02*
X015374Y015701D01*
X015374Y015859D02*
X040949Y015859D01*
X040949Y016018D02*
X015374Y016018D01*
X015374Y016176D02*
X041099Y016176D01*
X041226Y016335D02*
X015374Y016335D01*
X015374Y016493D02*
X041067Y016493D01*
X040949Y016652D02*
X015374Y016652D01*
X015374Y016810D02*
X040949Y016810D01*
X040949Y016969D02*
X015374Y016969D01*
X015374Y017127D02*
X041050Y017127D01*
X041209Y017286D02*
X015374Y017286D01*
X015374Y017444D02*
X041116Y017444D01*
X040958Y017603D02*
X015374Y017603D01*
X015374Y017761D02*
X040949Y017761D01*
X040949Y017920D02*
X015374Y017920D01*
X015374Y018078D02*
X041001Y018078D01*
X041160Y018237D02*
X015374Y018237D01*
X015374Y018395D02*
X041193Y018395D01*
X041250Y018339D02*
X040969Y018620D01*
X040969Y018799D01*
X041429Y018799D01*
X041469Y018799D01*
X041469Y018839D01*
X041929Y018839D01*
X041929Y019018D01*
X041648Y019299D01*
X041469Y019299D01*
X041469Y018839D01*
X041429Y018839D01*
X041429Y019299D01*
X041250Y019299D01*
X040969Y019018D01*
X040969Y018839D01*
X041429Y018839D01*
X041429Y018799D01*
X041429Y018339D01*
X041250Y018339D01*
X041429Y018395D02*
X041469Y018395D01*
X041469Y018339D02*
X041648Y018339D01*
X041929Y018620D01*
X041929Y018799D01*
X041469Y018799D01*
X041469Y018339D01*
X041469Y018554D02*
X041429Y018554D01*
X041429Y018712D02*
X041469Y018712D01*
X041469Y018871D02*
X041429Y018871D01*
X041429Y019029D02*
X041469Y019029D01*
X041469Y019188D02*
X041429Y019188D01*
X041242Y019319D02*
X041656Y019319D01*
X041949Y019612D01*
X041949Y020026D01*
X041656Y020319D01*
X041949Y020612D01*
X041949Y021026D01*
X041656Y021319D01*
X041242Y021319D01*
X040949Y021026D01*
X040949Y020612D01*
X041242Y020319D01*
X041656Y020319D01*
X041242Y020319D01*
X040949Y020026D01*
X040949Y019612D01*
X041242Y019319D01*
X041214Y019346D02*
X015374Y019346D01*
X015374Y019188D02*
X041139Y019188D01*
X040981Y019029D02*
X015374Y019029D01*
X015374Y018871D02*
X040969Y018871D01*
X040969Y018712D02*
X015374Y018712D01*
X015374Y018554D02*
X041035Y018554D01*
X041704Y018395D02*
X042165Y018395D01*
X042160Y018237D02*
X041738Y018237D01*
X041896Y018078D02*
X042001Y018078D01*
X041949Y017920D02*
X041949Y017920D01*
X041949Y017761D02*
X041949Y017761D01*
X041940Y017603D02*
X041958Y017603D01*
X042116Y017444D02*
X041781Y017444D01*
X041689Y017286D02*
X042237Y017286D01*
X042250Y017299D02*
X041969Y017018D01*
X041969Y016839D01*
X042429Y016839D01*
X042429Y017299D01*
X042250Y017299D01*
X042429Y017286D02*
X042469Y017286D01*
X042469Y017299D02*
X042469Y016839D01*
X042929Y016839D01*
X042929Y017018D01*
X042648Y017299D01*
X042469Y017299D01*
X042469Y017127D02*
X042429Y017127D01*
X042429Y016969D02*
X042469Y016969D01*
X042469Y016839D02*
X042429Y016839D01*
X042429Y016799D01*
X042469Y016799D01*
X042469Y016839D01*
X042469Y016810D02*
X046784Y016810D01*
X046784Y016652D02*
X042929Y016652D01*
X042929Y016620D02*
X042929Y016799D01*
X042469Y016799D01*
X042469Y016339D01*
X042648Y016339D01*
X042929Y016620D01*
X042802Y016493D02*
X046784Y016493D01*
X046784Y016335D02*
X041672Y016335D01*
X041798Y016176D02*
X042099Y016176D01*
X041949Y016018D02*
X041949Y016018D01*
X041949Y015859D02*
X041949Y015859D01*
X041949Y015701D02*
X041949Y015701D01*
X041879Y015542D02*
X042018Y015542D01*
X042177Y015384D02*
X041721Y015384D01*
X041749Y015225D02*
X042177Y015225D01*
X042250Y015299D02*
X041969Y015018D01*
X041969Y014839D01*
X042429Y014839D01*
X042429Y015299D01*
X042250Y015299D01*
X042429Y015225D02*
X042469Y015225D01*
X042469Y015299D02*
X042469Y014839D01*
X042929Y014839D01*
X042929Y015018D01*
X042648Y015299D01*
X042469Y015299D01*
X042469Y015067D02*
X042429Y015067D01*
X042429Y014908D02*
X042469Y014908D01*
X042469Y014839D02*
X042429Y014839D01*
X042429Y014799D01*
X042469Y014799D01*
X042469Y014839D01*
X042469Y014799D02*
X042929Y014799D01*
X042929Y014620D01*
X042648Y014339D01*
X042469Y014339D01*
X042469Y014799D01*
X042429Y014799D02*
X042429Y014339D01*
X042250Y014339D01*
X041969Y014620D01*
X041969Y014799D01*
X042429Y014799D01*
X042429Y014750D02*
X042469Y014750D01*
X042469Y014591D02*
X042429Y014591D01*
X042429Y014433D02*
X042469Y014433D01*
X042742Y014433D02*
X046784Y014433D01*
X046784Y014591D02*
X042900Y014591D01*
X042929Y014750D02*
X046784Y014750D01*
X046784Y014908D02*
X042929Y014908D01*
X042879Y015067D02*
X046784Y015067D01*
X046784Y015225D02*
X042721Y015225D01*
X042721Y015384D02*
X046784Y015384D01*
X046784Y015542D02*
X042879Y015542D01*
X042949Y015701D02*
X046784Y015701D01*
X046784Y015859D02*
X042949Y015859D01*
X042949Y016018D02*
X046784Y016018D01*
X046784Y016176D02*
X042798Y016176D01*
X042429Y016339D02*
X042429Y016799D01*
X041969Y016799D01*
X041969Y016620D01*
X042250Y016339D01*
X042429Y016339D01*
X042429Y016493D02*
X042469Y016493D01*
X042469Y016652D02*
X042429Y016652D01*
X042429Y016810D02*
X041949Y016810D01*
X041949Y016652D02*
X041969Y016652D01*
X042095Y016493D02*
X041830Y016493D01*
X041949Y016969D02*
X041969Y016969D01*
X042079Y017127D02*
X041847Y017127D01*
X042660Y017286D02*
X046784Y017286D01*
X046784Y017444D02*
X042781Y017444D01*
X042940Y017603D02*
X046784Y017603D01*
X046784Y017761D02*
X042949Y017761D01*
X042949Y017920D02*
X046784Y017920D01*
X046784Y018078D02*
X042896Y018078D01*
X042738Y018237D02*
X046784Y018237D01*
X046784Y018395D02*
X042732Y018395D01*
X042891Y018554D02*
X046784Y018554D01*
X046784Y018712D02*
X042949Y018712D01*
X042949Y018871D02*
X046784Y018871D01*
X046784Y019029D02*
X042945Y019029D01*
X042787Y019188D02*
X046784Y019188D01*
X046784Y019346D02*
X042683Y019346D01*
X042842Y019505D02*
X046784Y019505D01*
X046784Y019663D02*
X042949Y019663D01*
X042949Y019822D02*
X046784Y019822D01*
X046784Y019980D02*
X042949Y019980D01*
X042836Y020139D02*
X046784Y020139D01*
X046784Y020297D02*
X042677Y020297D01*
X042793Y020456D02*
X046784Y020456D01*
X046784Y020614D02*
X042949Y020614D01*
X042949Y020773D02*
X046784Y020773D01*
X046784Y020931D02*
X042949Y020931D01*
X042885Y021090D02*
X046784Y021090D01*
X046784Y021248D02*
X042726Y021248D01*
X042648Y021339D02*
X042929Y021620D01*
X042929Y021799D01*
X042469Y021799D01*
X042469Y021839D01*
X042929Y021839D01*
X042929Y022018D01*
X042648Y022299D01*
X042469Y022299D01*
X042469Y021839D01*
X042429Y021839D01*
X042429Y022299D01*
X042250Y022299D01*
X041969Y022018D01*
X041969Y021839D01*
X042429Y021839D01*
X042429Y021799D01*
X042469Y021799D01*
X042469Y021339D01*
X042648Y021339D01*
X042716Y021407D02*
X046784Y021407D01*
X046784Y021565D02*
X042874Y021565D01*
X042929Y021724D02*
X046784Y021724D01*
X046784Y021882D02*
X042929Y021882D01*
X042905Y022041D02*
X046784Y022041D01*
X046784Y022199D02*
X042747Y022199D01*
X042469Y022199D02*
X042429Y022199D01*
X042429Y022041D02*
X042469Y022041D01*
X042469Y021882D02*
X042429Y021882D01*
X042429Y021799D02*
X041969Y021799D01*
X041969Y021620D01*
X042250Y021339D01*
X042429Y021339D01*
X042429Y021799D01*
X042429Y021724D02*
X042469Y021724D01*
X042469Y021565D02*
X042429Y021565D01*
X042429Y021407D02*
X042469Y021407D01*
X042182Y021407D02*
X041744Y021407D01*
X041726Y021248D02*
X042171Y021248D01*
X042013Y021090D02*
X041885Y021090D01*
X041949Y020931D02*
X041949Y020931D01*
X041949Y020773D02*
X041949Y020773D01*
X041949Y020614D02*
X041949Y020614D01*
X041793Y020456D02*
X042105Y020456D01*
X042220Y020297D02*
X041677Y020297D01*
X041836Y020139D02*
X042062Y020139D01*
X041949Y019980D02*
X041949Y019980D01*
X041949Y019822D02*
X041949Y019822D01*
X041949Y019663D02*
X041949Y019663D01*
X041842Y019505D02*
X042056Y019505D01*
X042214Y019346D02*
X041683Y019346D01*
X041758Y019188D02*
X042111Y019188D01*
X041952Y019029D02*
X041917Y019029D01*
X041929Y018871D02*
X041949Y018871D01*
X041949Y018712D02*
X041929Y018712D01*
X041863Y018554D02*
X042007Y018554D01*
X041056Y019505D02*
X015374Y019505D01*
X015374Y019663D02*
X040949Y019663D01*
X040949Y019822D02*
X015374Y019822D01*
X015374Y019980D02*
X040949Y019980D01*
X041062Y020139D02*
X015374Y020139D01*
X015374Y020297D02*
X041220Y020297D01*
X041105Y020456D02*
X015374Y020456D01*
X015374Y020614D02*
X040949Y020614D01*
X040949Y020773D02*
X015374Y020773D01*
X015374Y020931D02*
X040949Y020931D01*
X041013Y021090D02*
X015374Y021090D01*
X015374Y021248D02*
X041171Y021248D01*
X041154Y021407D02*
X015374Y021407D01*
X015374Y021565D02*
X040995Y021565D01*
X040949Y021724D02*
X015374Y021724D01*
X015374Y021882D02*
X040949Y021882D01*
X040964Y022041D02*
X015374Y022041D01*
X015374Y022199D02*
X040843Y022199D01*
X040685Y022358D02*
X015374Y022358D01*
X015374Y022516D02*
X040526Y022516D01*
X040368Y022675D02*
X015374Y022675D01*
X015374Y022833D02*
X040209Y022833D01*
X040051Y022992D02*
X015374Y022992D01*
X015374Y023150D02*
X039892Y023150D01*
X039734Y023309D02*
X015374Y023309D01*
X015374Y023467D02*
X039575Y023467D01*
X039594Y023844D02*
X015344Y023844D01*
X015094Y023594D01*
X015094Y015344D01*
X016094Y014344D01*
X015786Y013799D02*
X040949Y013799D01*
X040949Y013640D02*
X015944Y013640D01*
X016103Y013482D02*
X041079Y013482D01*
X041237Y013323D02*
X016261Y013323D01*
X016420Y013165D02*
X041088Y013165D01*
X040949Y013026D02*
X041242Y013319D01*
X041656Y013319D01*
X041949Y013026D01*
X041949Y012612D01*
X042242Y012319D01*
X042656Y012319D01*
X042949Y012612D01*
X042949Y013026D01*
X042656Y013319D01*
X042242Y013319D01*
X041949Y013026D01*
X041949Y012612D01*
X041656Y012319D01*
X041242Y012319D01*
X040949Y012612D01*
X040949Y013026D01*
X040949Y013006D02*
X016578Y013006D01*
X016737Y012848D02*
X040949Y012848D01*
X040949Y012689D02*
X016895Y012689D01*
X017054Y012531D02*
X041030Y012531D01*
X041188Y012372D02*
X017212Y012372D01*
X017371Y012214D02*
X041165Y012214D01*
X041250Y012299D02*
X040969Y012018D01*
X040969Y011839D01*
X041429Y011839D01*
X041429Y012299D01*
X041250Y012299D01*
X041429Y012214D02*
X041469Y012214D01*
X041469Y012299D02*
X041469Y011839D01*
X041929Y011839D01*
X041929Y012018D01*
X041648Y012299D01*
X041469Y012299D01*
X041469Y012055D02*
X041429Y012055D01*
X041429Y011897D02*
X041469Y011897D01*
X041469Y011839D02*
X041429Y011839D01*
X041429Y011799D01*
X041469Y011799D01*
X041469Y011839D01*
X041469Y011799D02*
X041929Y011799D01*
X041929Y011620D01*
X041648Y011339D01*
X041469Y011339D01*
X041469Y011799D01*
X041429Y011799D02*
X041429Y011339D01*
X041250Y011339D01*
X040969Y011620D01*
X040969Y011799D01*
X041429Y011799D01*
X041429Y011738D02*
X041469Y011738D01*
X041469Y011580D02*
X041429Y011580D01*
X041429Y011421D02*
X041469Y011421D01*
X041730Y011421D02*
X042139Y011421D01*
X042242Y011319D02*
X042656Y011319D01*
X042949Y011612D01*
X042949Y012026D01*
X042656Y012319D01*
X042242Y012319D01*
X041949Y012026D01*
X041949Y011612D01*
X042242Y011319D01*
X042095Y011011D02*
X041803Y011011D01*
X041520Y010936D01*
X041267Y010790D01*
X041061Y010583D01*
X040914Y010330D01*
X040839Y010048D01*
X040839Y009755D01*
X040914Y009473D01*
X041061Y009220D01*
X041267Y009013D01*
X041520Y008867D01*
X041803Y008792D01*
X042095Y008792D01*
X042377Y008867D01*
X042630Y009013D01*
X042837Y009220D01*
X042983Y009473D01*
X043059Y009755D01*
X043059Y010048D01*
X042983Y010330D01*
X042837Y010583D01*
X042630Y010790D01*
X042377Y010936D01*
X042095Y011011D01*
X042339Y010946D02*
X044664Y010946D01*
X044549Y011104D02*
X018480Y011104D01*
X018639Y010946D02*
X022267Y010946D01*
X022229Y010936D02*
X021976Y010790D01*
X021769Y010583D01*
X021623Y010330D01*
X021547Y010048D01*
X021547Y009755D01*
X021623Y009473D01*
X021769Y009220D01*
X021976Y009013D01*
X022229Y008867D01*
X022511Y008792D01*
X022804Y008792D01*
X023086Y008867D01*
X023339Y009013D01*
X023546Y009220D01*
X023692Y009473D01*
X023767Y009755D01*
X023767Y010048D01*
X023692Y010330D01*
X023546Y010583D01*
X023339Y010790D01*
X023086Y010936D01*
X022804Y011011D01*
X022511Y011011D01*
X022229Y010936D01*
X021974Y010787D02*
X018797Y010787D01*
X018956Y010629D02*
X021815Y010629D01*
X021704Y010470D02*
X019114Y010470D01*
X019273Y010312D02*
X021618Y010312D01*
X021576Y010153D02*
X019431Y010153D01*
X019590Y009995D02*
X021547Y009995D01*
X021547Y009836D02*
X019748Y009836D01*
X019907Y009678D02*
X021568Y009678D01*
X021611Y009519D02*
X020419Y009519D01*
X020577Y009361D02*
X021688Y009361D01*
X021787Y009202D02*
X020624Y009202D01*
X020624Y009044D02*
X021945Y009044D01*
X022197Y008885D02*
X020624Y008885D01*
X020476Y008727D02*
X046784Y008727D01*
X046784Y008885D02*
X042409Y008885D01*
X042661Y009044D02*
X046784Y009044D01*
X046784Y009202D02*
X042819Y009202D01*
X042918Y009361D02*
X046784Y009361D01*
X046784Y009519D02*
X042995Y009519D01*
X043038Y009678D02*
X046784Y009678D01*
X046784Y009836D02*
X043059Y009836D01*
X043059Y009995D02*
X046784Y009995D01*
X046784Y010153D02*
X043030Y010153D01*
X042988Y010312D02*
X046784Y010312D01*
X046784Y010470D02*
X042902Y010470D01*
X042791Y010629D02*
X045070Y010629D01*
X044823Y010787D02*
X042632Y010787D01*
X042758Y011421D02*
X044401Y011421D01*
X044358Y011580D02*
X042917Y011580D01*
X042949Y011738D02*
X044339Y011738D01*
X044339Y011897D02*
X042949Y011897D01*
X042919Y012055D02*
X044352Y012055D01*
X044394Y012214D02*
X042761Y012214D01*
X042709Y012372D02*
X044443Y012372D01*
X044534Y012531D02*
X042868Y012531D01*
X042949Y012689D02*
X044639Y012689D01*
X044797Y012848D02*
X042949Y012848D01*
X042949Y013006D02*
X045025Y013006D01*
X045453Y013165D02*
X042810Y013165D01*
X042660Y013323D02*
X046784Y013323D01*
X046784Y013165D02*
X045925Y013165D01*
X046352Y013006D02*
X046784Y013006D01*
X046784Y012848D02*
X046581Y012848D01*
X046739Y012689D02*
X046784Y012689D01*
X046784Y013482D02*
X042819Y013482D01*
X042949Y013640D02*
X046784Y013640D01*
X046784Y013799D02*
X042949Y013799D01*
X042949Y013957D02*
X046784Y013957D01*
X046784Y014116D02*
X042859Y014116D01*
X042700Y014274D02*
X046784Y014274D01*
X046784Y016969D02*
X042929Y016969D01*
X042819Y017127D02*
X046784Y017127D01*
X042018Y015067D02*
X041908Y015067D01*
X041949Y014908D02*
X041969Y014908D01*
X041969Y014750D02*
X041949Y014750D01*
X041928Y014591D02*
X041997Y014591D01*
X042156Y014433D02*
X041770Y014433D01*
X041700Y014274D02*
X042197Y014274D01*
X042039Y014116D02*
X041859Y014116D01*
X041949Y013957D02*
X041949Y013957D01*
X041949Y013799D02*
X041949Y013799D01*
X041949Y013640D02*
X041949Y013640D01*
X041819Y013482D02*
X042079Y013482D01*
X042237Y013323D02*
X041660Y013323D01*
X041810Y013165D02*
X042088Y013165D01*
X041949Y013006D02*
X041949Y013006D01*
X041949Y012848D02*
X041949Y012848D01*
X041949Y012689D02*
X041949Y012689D01*
X041868Y012531D02*
X042030Y012531D01*
X042188Y012372D02*
X041709Y012372D01*
X041732Y012214D02*
X042137Y012214D01*
X041978Y012055D02*
X041891Y012055D01*
X041929Y011897D02*
X041949Y011897D01*
X041949Y011738D02*
X041929Y011738D01*
X041889Y011580D02*
X041981Y011580D01*
X041558Y010946D02*
X023048Y010946D01*
X023341Y010787D02*
X041265Y010787D01*
X041107Y010629D02*
X023500Y010629D01*
X023611Y010470D02*
X040996Y010470D01*
X040910Y010312D02*
X023697Y010312D01*
X023739Y010153D02*
X040867Y010153D01*
X040839Y009995D02*
X023767Y009995D01*
X023767Y009836D02*
X040839Y009836D01*
X040860Y009678D02*
X023747Y009678D01*
X023704Y009519D02*
X040902Y009519D01*
X040979Y009361D02*
X023627Y009361D01*
X023528Y009202D02*
X041078Y009202D01*
X041237Y009044D02*
X023370Y009044D01*
X023117Y008885D02*
X041489Y008885D01*
X041167Y011421D02*
X018163Y011421D01*
X018322Y011263D02*
X044458Y011263D01*
X046307Y010629D02*
X046784Y010629D01*
X046784Y010787D02*
X046555Y010787D01*
X046713Y010946D02*
X046784Y010946D01*
X046784Y008568D02*
X020318Y008568D01*
X019871Y008568D02*
X016818Y008568D01*
X016371Y008568D02*
X012818Y008568D01*
X012976Y008727D02*
X016212Y008727D01*
X016064Y008885D02*
X013124Y008885D01*
X013124Y009044D02*
X016064Y009044D01*
X016064Y009202D02*
X013124Y009202D01*
X013257Y009361D02*
X016111Y009361D01*
X016270Y009519D02*
X013415Y009519D01*
X012594Y009094D02*
X013844Y010344D01*
X013844Y024094D01*
X014594Y024844D01*
X040344Y024844D01*
X041370Y023819D01*
X041449Y023819D01*
X041873Y024101D02*
X042024Y024101D01*
X041949Y023943D02*
X041949Y023943D01*
X041715Y024260D02*
X042183Y024260D01*
X042170Y024418D02*
X041755Y024418D01*
X041656Y024319D02*
X041266Y024319D01*
X041266Y024319D01*
X041656Y024319D01*
X041914Y024577D02*
X042012Y024577D01*
X041969Y024735D02*
X041949Y024735D01*
X041949Y024894D02*
X041969Y024894D01*
X042004Y025052D02*
X041922Y025052D01*
X042735Y025211D02*
X044509Y025211D01*
X044387Y025052D02*
X042894Y025052D01*
X042929Y024894D02*
X044340Y024894D01*
X044346Y024735D02*
X042929Y024735D01*
X042886Y024577D02*
X044412Y024577D01*
X045590Y024418D02*
X046784Y024418D01*
X046784Y024260D02*
X045615Y024260D01*
X045782Y024101D02*
X046784Y024101D01*
X046784Y023943D02*
X045847Y023943D01*
X045849Y023784D02*
X046784Y023784D01*
X046784Y023626D02*
X045798Y023626D01*
X045103Y023150D02*
X045086Y023150D01*
X045086Y022992D02*
X045103Y022992D01*
X045086Y022833D02*
X045103Y022833D01*
X045086Y022675D02*
X045103Y022675D01*
X045086Y022516D02*
X045103Y022516D01*
X045777Y024577D02*
X046784Y024577D01*
X046784Y024735D02*
X045843Y024735D01*
X045849Y024894D02*
X046784Y024894D01*
X046784Y025052D02*
X045802Y025052D01*
X045680Y025211D02*
X046784Y025211D01*
X046784Y025369D02*
X042706Y025369D01*
X042865Y025528D02*
X046784Y025528D01*
X046784Y025686D02*
X042949Y025686D01*
X042949Y025845D02*
X046784Y025845D01*
X046784Y026003D02*
X042949Y026003D01*
X042813Y026162D02*
X046784Y026162D01*
X046784Y026320D02*
X042657Y026320D01*
X042816Y026479D02*
X046784Y026479D01*
X046784Y026637D02*
X042949Y026637D01*
X042949Y026796D02*
X046784Y026796D01*
X046784Y026954D02*
X042949Y026954D01*
X042862Y027113D02*
X046784Y027113D01*
X046784Y027271D02*
X042703Y027271D01*
X042767Y027430D02*
X046784Y027430D01*
X046784Y027588D02*
X042925Y027588D01*
X042949Y027747D02*
X046784Y027747D01*
X046784Y027905D02*
X042949Y027905D01*
X042911Y028064D02*
X046784Y028064D01*
X046784Y028222D02*
X042752Y028222D01*
X042648Y028339D02*
X042929Y028620D01*
X042929Y028799D01*
X042469Y028799D01*
X042469Y028839D01*
X042929Y028839D01*
X042929Y029018D01*
X042648Y029299D01*
X042469Y029299D01*
X042469Y028839D01*
X042429Y028839D01*
X042429Y029299D01*
X042250Y029299D01*
X041969Y029018D01*
X041969Y028839D01*
X042429Y028839D01*
X042429Y028799D01*
X042469Y028799D01*
X042469Y028339D01*
X042648Y028339D01*
X042690Y028381D02*
X046784Y028381D01*
X046784Y028539D02*
X042848Y028539D01*
X042929Y028698D02*
X046784Y028698D01*
X046784Y028856D02*
X042929Y028856D01*
X042929Y029015D02*
X046784Y029015D01*
X046784Y029173D02*
X042773Y029173D01*
X042656Y029319D02*
X042949Y029612D01*
X042949Y030026D01*
X042656Y030319D01*
X042949Y030612D01*
X042949Y031026D01*
X042656Y031319D01*
X042242Y031319D01*
X041949Y031026D01*
X041949Y030612D01*
X042242Y030319D01*
X042656Y030319D01*
X042242Y030319D01*
X041949Y030026D01*
X041949Y029612D01*
X042242Y029319D01*
X042656Y029319D01*
X042669Y029332D02*
X046784Y029332D01*
X046784Y029490D02*
X042827Y029490D01*
X042949Y029649D02*
X046784Y029649D01*
X046784Y029807D02*
X042949Y029807D01*
X042949Y029966D02*
X046784Y029966D01*
X046784Y030124D02*
X042850Y030124D01*
X042692Y030283D02*
X046784Y030283D01*
X046784Y030441D02*
X042778Y030441D01*
X042937Y030600D02*
X046784Y030600D01*
X046784Y030758D02*
X042949Y030758D01*
X042949Y030917D02*
X046784Y030917D01*
X046784Y031075D02*
X042899Y031075D01*
X042741Y031234D02*
X046784Y031234D01*
X046784Y031392D02*
X006530Y031392D01*
X006501Y031323D02*
X006574Y031499D01*
X006574Y031690D01*
X006501Y031866D01*
X006366Y032001D01*
X006190Y032074D01*
X005999Y032074D01*
X005823Y032001D01*
X005687Y031866D01*
X005614Y031690D01*
X005614Y031499D01*
X005687Y031323D01*
X005823Y031187D01*
X005999Y031114D01*
X006190Y031114D01*
X006366Y031187D01*
X006501Y031323D01*
X006413Y031234D02*
X041157Y031234D01*
X041242Y031319D02*
X040949Y031026D01*
X040949Y030612D01*
X041242Y030319D01*
X041656Y030319D01*
X041949Y030612D01*
X041949Y031026D01*
X041656Y031319D01*
X041242Y031319D01*
X040998Y031075D02*
X003464Y031075D01*
X003464Y030917D02*
X005766Y030917D01*
X005744Y030894D02*
X005701Y030836D01*
X005668Y030771D01*
X005646Y030702D01*
X005634Y030631D01*
X005634Y030594D01*
X005634Y030558D01*
X005646Y030487D01*
X005668Y030418D01*
X005701Y030353D01*
X005744Y030295D01*
X005795Y030244D01*
X005853Y030201D01*
X005918Y030168D01*
X005987Y030146D01*
X006058Y030134D01*
X006094Y030134D01*
X006094Y030594D01*
X005634Y030594D01*
X006094Y030594D01*
X006094Y030594D01*
X006094Y030594D01*
X006094Y030134D01*
X006131Y030134D01*
X006202Y030146D01*
X006271Y030168D01*
X006336Y030201D01*
X006394Y030244D01*
X006445Y030295D01*
X006488Y030353D01*
X006521Y030418D01*
X006543Y030487D01*
X006554Y030558D01*
X006554Y030594D01*
X006094Y030594D01*
X006094Y031054D01*
X006058Y031054D01*
X005987Y031043D01*
X005918Y031021D01*
X005853Y030988D01*
X005795Y030945D01*
X005744Y030894D01*
X005664Y030758D02*
X003464Y030758D01*
X003464Y030600D02*
X005634Y030600D01*
X005660Y030441D02*
X003464Y030441D01*
X003464Y030283D02*
X005755Y030283D01*
X005823Y030001D02*
X005687Y029866D01*
X005614Y029690D01*
X005614Y029499D01*
X005687Y029323D01*
X005823Y029187D01*
X005999Y029114D01*
X006190Y029114D01*
X006366Y029187D01*
X006501Y029323D01*
X006574Y029499D01*
X006574Y029690D01*
X006501Y029866D01*
X006366Y030001D01*
X006190Y030074D01*
X005999Y030074D01*
X005823Y030001D01*
X005787Y029966D02*
X003464Y029966D01*
X003464Y030124D02*
X041047Y030124D01*
X040949Y030026D02*
X040949Y029612D01*
X041242Y029319D01*
X041656Y029319D01*
X041949Y029612D01*
X041949Y030026D01*
X041656Y030319D01*
X041242Y030319D01*
X040949Y030026D01*
X040949Y029966D02*
X006402Y029966D01*
X006526Y029807D02*
X040949Y029807D01*
X040949Y029649D02*
X006574Y029649D01*
X006571Y029490D02*
X041070Y029490D01*
X041229Y029332D02*
X006505Y029332D01*
X006332Y029173D02*
X041096Y029173D01*
X041242Y029319D02*
X040949Y029026D01*
X040949Y028612D01*
X041242Y028319D01*
X041656Y028319D01*
X041949Y028612D01*
X041949Y029026D01*
X041656Y029319D01*
X041242Y029319D01*
X040949Y029015D02*
X003464Y029015D01*
X003464Y029173D02*
X005856Y029173D01*
X005684Y029332D02*
X003464Y029332D01*
X003464Y029490D02*
X005618Y029490D01*
X005614Y029649D02*
X003464Y029649D01*
X003464Y029807D02*
X005663Y029807D01*
X006094Y030283D02*
X006094Y030283D01*
X006094Y030441D02*
X006094Y030441D01*
X006094Y030594D02*
X006094Y030594D01*
X006094Y030594D01*
X006094Y031054D01*
X006131Y031054D01*
X006202Y031043D01*
X006271Y031021D01*
X006336Y030988D01*
X006394Y030945D01*
X006445Y030894D01*
X006488Y030836D01*
X006521Y030771D01*
X006543Y030702D01*
X006554Y030631D01*
X006554Y030594D01*
X006094Y030594D01*
X006094Y030600D02*
X006094Y030600D01*
X006094Y030758D02*
X006094Y030758D01*
X006094Y030917D02*
X006094Y030917D01*
X006422Y030917D02*
X040949Y030917D01*
X040949Y030758D02*
X006525Y030758D01*
X006554Y030600D02*
X040961Y030600D01*
X041119Y030441D02*
X006528Y030441D01*
X006434Y030283D02*
X041206Y030283D01*
X041692Y030283D02*
X042206Y030283D01*
X042119Y030441D02*
X041778Y030441D01*
X041937Y030600D02*
X041961Y030600D01*
X041949Y030758D02*
X041949Y030758D01*
X041949Y030917D02*
X041949Y030917D01*
X041899Y031075D02*
X041998Y031075D01*
X042157Y031234D02*
X041741Y031234D01*
X041803Y031626D02*
X042095Y031626D01*
X042377Y031702D01*
X042630Y031848D01*
X042837Y032055D01*
X042983Y032308D01*
X043059Y032590D01*
X043059Y032882D01*
X042983Y033165D01*
X042837Y033418D01*
X042630Y033624D01*
X042377Y033770D01*
X042095Y033846D01*
X041803Y033846D01*
X041520Y033770D01*
X023087Y033770D01*
X023086Y033770D02*
X022804Y033846D01*
X022511Y033846D01*
X022229Y033770D01*
X021976Y033624D01*
X021769Y033418D01*
X021623Y033165D01*
X021547Y032882D01*
X021547Y032590D01*
X021623Y032308D01*
X021769Y032055D01*
X021976Y031848D01*
X022229Y031702D01*
X022511Y031626D01*
X022804Y031626D01*
X023086Y031702D01*
X023339Y031848D01*
X023546Y032055D01*
X023692Y032308D01*
X023767Y032590D01*
X023767Y032882D01*
X023692Y033165D01*
X023546Y033418D01*
X023339Y033624D01*
X023086Y033770D01*
X023352Y033611D02*
X041254Y033611D01*
X041267Y033624D02*
X041061Y033418D01*
X040914Y033165D01*
X040839Y032882D01*
X040839Y032590D01*
X040914Y032308D01*
X041061Y032055D01*
X041267Y031848D01*
X041520Y031702D01*
X041803Y031626D01*
X041507Y031709D02*
X023099Y031709D01*
X023359Y031868D02*
X041247Y031868D01*
X041089Y032026D02*
X023517Y032026D01*
X023621Y032185D02*
X040985Y032185D01*
X040905Y032343D02*
X023701Y032343D01*
X023744Y032502D02*
X040862Y032502D01*
X040839Y032660D02*
X023767Y032660D01*
X023767Y032819D02*
X040839Y032819D01*
X040864Y032977D02*
X023742Y032977D01*
X023699Y033136D02*
X040907Y033136D01*
X040989Y033294D02*
X023617Y033294D01*
X023510Y033453D02*
X041096Y033453D01*
X041267Y033624D02*
X041520Y033770D01*
X042378Y033770D02*
X046784Y033770D01*
X046784Y033928D02*
X005926Y033928D01*
X005964Y034087D02*
X046784Y034087D01*
X046784Y034245D02*
X046298Y034245D01*
X046549Y034404D02*
X046784Y034404D01*
X046784Y034562D02*
X046708Y034562D01*
X046784Y033611D02*
X042643Y033611D01*
X042802Y033453D02*
X046784Y033453D01*
X046784Y033294D02*
X042908Y033294D01*
X042991Y033136D02*
X046784Y033136D01*
X046784Y032977D02*
X043033Y032977D01*
X043059Y032819D02*
X046784Y032819D01*
X046784Y032660D02*
X043059Y032660D01*
X043035Y032502D02*
X046784Y032502D01*
X046784Y032343D02*
X042993Y032343D01*
X042912Y032185D02*
X046784Y032185D01*
X046784Y032026D02*
X042809Y032026D01*
X042650Y031868D02*
X046784Y031868D01*
X046784Y031709D02*
X042390Y031709D01*
X042047Y030124D02*
X041850Y030124D01*
X041949Y029966D02*
X041949Y029966D01*
X041949Y029807D02*
X041949Y029807D01*
X041949Y029649D02*
X041949Y029649D01*
X042070Y029490D02*
X041827Y029490D01*
X041669Y029332D02*
X042229Y029332D01*
X042125Y029173D02*
X041801Y029173D01*
X041949Y029015D02*
X041969Y029015D01*
X041969Y028856D02*
X041949Y028856D01*
X041969Y028799D02*
X041969Y028620D01*
X042250Y028339D01*
X042429Y028339D01*
X042429Y028799D01*
X041969Y028799D01*
X041969Y028698D02*
X041949Y028698D01*
X041876Y028539D02*
X042049Y028539D01*
X042208Y028381D02*
X041718Y028381D01*
X041656Y028319D02*
X041242Y028319D01*
X041022Y028099D01*
X014263Y028099D01*
X014160Y028056D01*
X010936Y024832D01*
X010857Y024753D01*
X010814Y024650D01*
X010814Y020710D01*
X010021Y019917D01*
X009844Y020094D01*
X010124Y020375D01*
X010124Y020814D01*
X009814Y021124D01*
X009375Y021124D01*
X009064Y020814D01*
X009064Y020375D01*
X009345Y020094D01*
X009064Y019814D01*
X009064Y019375D01*
X009375Y019064D01*
X009814Y019064D01*
X010064Y019314D01*
X010150Y019314D01*
X010253Y019357D01*
X011253Y020357D01*
X011332Y020436D01*
X011374Y020539D01*
X011374Y024478D01*
X014435Y027539D01*
X041022Y027539D01*
X041242Y027319D01*
X041656Y027319D01*
X041949Y027612D01*
X041949Y028026D01*
X041656Y028319D01*
X041752Y028222D02*
X042145Y028222D01*
X041987Y028064D02*
X041911Y028064D01*
X041949Y027905D02*
X041949Y027905D01*
X041949Y027747D02*
X041949Y027747D01*
X041925Y027588D02*
X041972Y027588D01*
X042131Y027430D02*
X041767Y027430D01*
X041648Y027299D02*
X041469Y027299D01*
X041469Y026839D01*
X041929Y026839D01*
X041929Y027018D01*
X041648Y027299D01*
X041675Y027271D02*
X042194Y027271D01*
X042036Y027113D02*
X041833Y027113D01*
X041929Y026954D02*
X041949Y026954D01*
X041929Y026799D02*
X041469Y026799D01*
X041469Y026839D01*
X041429Y026839D01*
X041429Y027299D01*
X041250Y027299D01*
X040969Y027018D01*
X040969Y026839D01*
X041429Y026839D01*
X041429Y026799D01*
X041469Y026799D01*
X041469Y026339D01*
X041648Y026339D01*
X041929Y026620D01*
X041929Y026799D01*
X041929Y026796D02*
X041949Y026796D01*
X041949Y026637D02*
X041929Y026637D01*
X041788Y026479D02*
X042082Y026479D01*
X041469Y026479D02*
X041429Y026479D01*
X041429Y026339D02*
X041429Y026799D01*
X040969Y026799D01*
X040969Y026620D01*
X041250Y026339D01*
X041429Y026339D01*
X041429Y026637D02*
X041469Y026637D01*
X041469Y026796D02*
X041429Y026796D01*
X041429Y026954D02*
X041469Y026954D01*
X041469Y027113D02*
X041429Y027113D01*
X041429Y027271D02*
X041469Y027271D01*
X041223Y027271D02*
X014167Y027271D01*
X014009Y027113D02*
X041064Y027113D01*
X040969Y026954D02*
X013850Y026954D01*
X013692Y026796D02*
X040969Y026796D01*
X040969Y026637D02*
X013533Y026637D01*
X013375Y026479D02*
X041110Y026479D01*
X041449Y025819D02*
X014319Y025819D01*
X012594Y024094D01*
X012594Y014594D01*
X011594Y013594D01*
X009594Y013594D01*
X009208Y013957D02*
X005981Y013957D01*
X005844Y014094D02*
X006124Y014375D01*
X006124Y014814D01*
X005814Y015124D01*
X005375Y015124D01*
X005064Y014814D01*
X005064Y014375D01*
X005345Y014094D01*
X005064Y013814D01*
X005064Y013375D01*
X005375Y013064D01*
X005814Y013064D01*
X006124Y013375D01*
X006124Y013814D01*
X005844Y014094D01*
X005865Y014116D02*
X009323Y014116D01*
X009165Y014274D02*
X006024Y014274D01*
X006124Y014433D02*
X009064Y014433D01*
X009064Y014591D02*
X006124Y014591D01*
X006124Y014750D02*
X009064Y014750D01*
X009159Y014908D02*
X006030Y014908D01*
X005871Y015067D02*
X009317Y015067D01*
X009871Y015067D02*
X012314Y015067D01*
X012314Y015225D02*
X004197Y015225D01*
X004208Y015252D02*
X004114Y015026D01*
X003942Y014854D01*
X003716Y014761D01*
X003472Y014761D01*
X003247Y014854D01*
X003074Y015026D01*
X002981Y015252D01*
X002981Y015496D01*
X003074Y015721D01*
X003247Y015894D01*
X003472Y015987D01*
X003716Y015987D01*
X003942Y015894D01*
X004114Y015721D01*
X004208Y015496D01*
X004208Y015252D01*
X004208Y015384D02*
X012314Y015384D01*
X012314Y015542D02*
X004189Y015542D01*
X004123Y015701D02*
X012314Y015701D01*
X012314Y015859D02*
X003976Y015859D01*
X003212Y015859D02*
X002964Y015859D01*
X002964Y015701D02*
X003066Y015701D01*
X003000Y015542D02*
X002964Y015542D01*
X002964Y015384D02*
X002981Y015384D01*
X002964Y015225D02*
X002992Y015225D01*
X002964Y015067D02*
X003058Y015067D01*
X002964Y014908D02*
X003192Y014908D01*
X002964Y014750D02*
X005064Y014750D01*
X005064Y014591D02*
X002964Y014591D01*
X002964Y014433D02*
X005064Y014433D01*
X005165Y014274D02*
X002964Y014274D01*
X002964Y014116D02*
X005323Y014116D01*
X005208Y013957D02*
X002964Y013957D01*
X002964Y013799D02*
X005064Y013799D01*
X005064Y013640D02*
X002964Y013640D01*
X002964Y013482D02*
X005064Y013482D01*
X005116Y013323D02*
X003903Y013323D01*
X003905Y013322D02*
X003822Y013365D01*
X003733Y013394D01*
X003652Y013407D01*
X003652Y012873D01*
X003537Y012873D01*
X003537Y013407D01*
X003455Y013394D01*
X003367Y013365D01*
X003283Y013322D01*
X003208Y013268D01*
X003142Y013201D01*
X003087Y013126D01*
X003045Y013043D01*
X003016Y012954D01*
X003003Y012873D01*
X003537Y012873D01*
X003537Y012757D01*
X003652Y012757D01*
X003652Y012223D01*
X003733Y012236D01*
X003822Y012265D01*
X003905Y012307D01*
X003981Y012362D01*
X004047Y012428D01*
X004102Y012504D01*
X004144Y012587D01*
X004173Y012676D01*
X004186Y012757D01*
X003652Y012757D01*
X003652Y012873D01*
X004186Y012873D01*
X004173Y012954D01*
X004144Y013043D01*
X004102Y013126D01*
X004047Y013201D01*
X003981Y013268D01*
X003905Y013322D01*
X004074Y013165D02*
X005274Y013165D01*
X005914Y013165D02*
X009274Y013165D01*
X009116Y013323D02*
X006073Y013323D01*
X006124Y013482D02*
X009064Y013482D01*
X009064Y013640D02*
X006124Y013640D01*
X006124Y013799D02*
X009064Y013799D01*
X009865Y014116D02*
X011720Y014116D01*
X011878Y014274D02*
X010024Y014274D01*
X010124Y014433D02*
X012037Y014433D01*
X012195Y014591D02*
X010124Y014591D01*
X010124Y014750D02*
X012314Y014750D01*
X012314Y014908D02*
X010030Y014908D01*
X009981Y013957D02*
X011561Y013957D01*
X011878Y013482D02*
X013064Y013482D01*
X013064Y013640D02*
X012036Y013640D01*
X012195Y013799D02*
X013064Y013799D01*
X013064Y013957D02*
X012353Y013957D01*
X012512Y014116D02*
X013064Y014116D01*
X013064Y014274D02*
X012670Y014274D01*
X012829Y014433D02*
X013064Y014433D01*
X013064Y014591D02*
X012874Y014591D01*
X012874Y014750D02*
X013064Y014750D01*
X013064Y014908D02*
X012874Y014908D01*
X012874Y015067D02*
X013064Y015067D01*
X013064Y015225D02*
X012874Y015225D01*
X012874Y015384D02*
X013064Y015384D01*
X013064Y015542D02*
X012874Y015542D01*
X012874Y015701D02*
X013064Y015701D01*
X013064Y015859D02*
X012874Y015859D01*
X012874Y016018D02*
X013064Y016018D01*
X013064Y016176D02*
X012874Y016176D01*
X012874Y016335D02*
X013064Y016335D01*
X013064Y016493D02*
X012874Y016493D01*
X012874Y016652D02*
X013064Y016652D01*
X013064Y016810D02*
X012874Y016810D01*
X012874Y016969D02*
X013064Y016969D01*
X013064Y017127D02*
X012874Y017127D01*
X012874Y017286D02*
X013064Y017286D01*
X013064Y017444D02*
X012874Y017444D01*
X012874Y017603D02*
X013064Y017603D01*
X013064Y017761D02*
X012874Y017761D01*
X012874Y017920D02*
X013064Y017920D01*
X013064Y018078D02*
X012874Y018078D01*
X012874Y018237D02*
X013064Y018237D01*
X013064Y018395D02*
X012874Y018395D01*
X012874Y018554D02*
X013064Y018554D01*
X013064Y018712D02*
X012874Y018712D01*
X012874Y018871D02*
X013064Y018871D01*
X013064Y019029D02*
X012874Y019029D01*
X012874Y019188D02*
X013064Y019188D01*
X013064Y019346D02*
X012874Y019346D01*
X012874Y019505D02*
X013064Y019505D01*
X013064Y019663D02*
X012874Y019663D01*
X012874Y019822D02*
X013064Y019822D01*
X013064Y019980D02*
X012874Y019980D01*
X012874Y020139D02*
X013064Y020139D01*
X013064Y020297D02*
X012874Y020297D01*
X012874Y020456D02*
X013064Y020456D01*
X013064Y020614D02*
X012874Y020614D01*
X012874Y020773D02*
X013064Y020773D01*
X013064Y020931D02*
X012874Y020931D01*
X012874Y021090D02*
X013064Y021090D01*
X013064Y021248D02*
X012874Y021248D01*
X012874Y021407D02*
X013064Y021407D01*
X013064Y021565D02*
X012874Y021565D01*
X012874Y021724D02*
X013064Y021724D01*
X013064Y021882D02*
X012874Y021882D01*
X012874Y022041D02*
X013064Y022041D01*
X013064Y022199D02*
X012874Y022199D01*
X012874Y022358D02*
X013064Y022358D01*
X013064Y022516D02*
X012874Y022516D01*
X012874Y022675D02*
X013064Y022675D01*
X013064Y022833D02*
X012874Y022833D01*
X012874Y022992D02*
X013064Y022992D01*
X013064Y023150D02*
X012874Y023150D01*
X012874Y023309D02*
X013064Y023309D01*
X013064Y023467D02*
X012874Y023467D01*
X012874Y023626D02*
X013064Y023626D01*
X013064Y023784D02*
X012874Y023784D01*
X012874Y023943D02*
X013064Y023943D01*
X013064Y024101D02*
X012997Y024101D01*
X012522Y024418D02*
X011374Y024418D01*
X011374Y024260D02*
X012364Y024260D01*
X012314Y024101D02*
X011374Y024101D01*
X011374Y023943D02*
X012314Y023943D01*
X012314Y023784D02*
X011374Y023784D01*
X011374Y023626D02*
X012314Y023626D01*
X012314Y023467D02*
X011374Y023467D01*
X011374Y023309D02*
X012314Y023309D01*
X012314Y023150D02*
X011374Y023150D01*
X011374Y022992D02*
X012314Y022992D01*
X012314Y022833D02*
X011374Y022833D01*
X011374Y022675D02*
X012314Y022675D01*
X012314Y022516D02*
X011374Y022516D01*
X011374Y022358D02*
X012314Y022358D01*
X012314Y022199D02*
X011374Y022199D01*
X011374Y022041D02*
X012314Y022041D01*
X012314Y021882D02*
X011374Y021882D01*
X011374Y021724D02*
X012314Y021724D01*
X012314Y021565D02*
X011374Y021565D01*
X011374Y021407D02*
X012314Y021407D01*
X012314Y021248D02*
X011374Y021248D01*
X011374Y021090D02*
X012314Y021090D01*
X012314Y020931D02*
X011374Y020931D01*
X011374Y020773D02*
X012314Y020773D01*
X012314Y020614D02*
X011374Y020614D01*
X011340Y020456D02*
X012314Y020456D01*
X012314Y020297D02*
X011193Y020297D01*
X011035Y020139D02*
X012314Y020139D01*
X012314Y019980D02*
X010876Y019980D01*
X010718Y019822D02*
X012314Y019822D01*
X012314Y019663D02*
X010559Y019663D01*
X010401Y019505D02*
X012314Y019505D01*
X012314Y019346D02*
X010227Y019346D01*
X010094Y019594D02*
X011094Y020594D01*
X011094Y024594D01*
X014319Y027819D01*
X041449Y027819D01*
X041131Y027430D02*
X014326Y027430D01*
X013851Y027747D02*
X003464Y027747D01*
X003464Y027905D02*
X014009Y027905D01*
X014179Y028064D02*
X003464Y028064D01*
X003464Y028222D02*
X041145Y028222D01*
X041180Y028381D02*
X003464Y028381D01*
X003464Y028539D02*
X041021Y028539D01*
X040949Y028698D02*
X003464Y028698D01*
X003464Y028856D02*
X040949Y028856D01*
X042429Y028856D02*
X042469Y028856D01*
X042469Y028698D02*
X042429Y028698D01*
X042429Y028539D02*
X042469Y028539D01*
X042469Y028381D02*
X042429Y028381D01*
X042429Y029015D02*
X042469Y029015D01*
X042469Y029173D02*
X042429Y029173D01*
X046784Y031551D02*
X006574Y031551D01*
X006566Y031709D02*
X022216Y031709D01*
X021956Y031868D02*
X006500Y031868D01*
X006306Y032026D02*
X021797Y032026D01*
X021694Y032185D02*
X003464Y032185D01*
X003464Y032343D02*
X021614Y032343D01*
X021571Y032502D02*
X003525Y032502D01*
X003684Y032660D02*
X021547Y032660D01*
X021547Y032819D02*
X003842Y032819D01*
X004001Y032977D02*
X021573Y032977D01*
X021615Y033136D02*
X004159Y033136D01*
X005318Y033294D02*
X021698Y033294D01*
X021805Y033453D02*
X005476Y033453D01*
X005635Y033611D02*
X021963Y033611D01*
X022228Y033770D02*
X005793Y033770D01*
X005964Y034245D02*
X045080Y034245D01*
X044828Y034404D02*
X005964Y034404D01*
X005964Y034562D02*
X044670Y034562D01*
X044553Y034721D02*
X005964Y034721D01*
X005964Y034879D02*
X044461Y034879D01*
X044402Y035038D02*
X005964Y035038D01*
X005964Y035196D02*
X044360Y035196D01*
X044339Y035355D02*
X005964Y035355D01*
X005964Y035513D02*
X044339Y035513D01*
X044350Y035672D02*
X005964Y035672D01*
X005964Y035830D02*
X044393Y035830D01*
X044440Y035989D02*
X005964Y035989D01*
X005964Y036147D02*
X044531Y036147D01*
X044633Y036306D02*
X005964Y036306D01*
X005964Y036464D02*
X044792Y036464D01*
X039594Y023844D02*
X041094Y022344D01*
X041844Y022344D01*
X042319Y022819D01*
X042449Y022819D01*
X042151Y022199D02*
X042095Y022199D01*
X041992Y022041D02*
X041934Y022041D01*
X041949Y021882D02*
X041969Y021882D01*
X041969Y021724D02*
X041949Y021724D01*
X041902Y021565D02*
X042023Y021565D01*
X041007Y012055D02*
X017529Y012055D01*
X017688Y011897D02*
X040969Y011897D01*
X040969Y011738D02*
X017846Y011738D01*
X018005Y011580D02*
X041009Y011580D01*
X046784Y008410D02*
X011306Y008410D01*
X011464Y008568D02*
X012371Y008568D01*
X012212Y008727D02*
X011623Y008727D01*
X011781Y008885D02*
X012064Y008885D01*
X012064Y009044D02*
X011940Y009044D01*
X011465Y009361D02*
X010077Y009361D01*
X010124Y009202D02*
X011306Y009202D01*
X011148Y009044D02*
X010124Y009044D01*
X010124Y008885D02*
X010989Y008885D01*
X010831Y008727D02*
X009976Y008727D01*
X009870Y008568D02*
X010672Y008568D01*
X010514Y008410D02*
X010028Y008410D01*
X010830Y007934D02*
X046784Y007934D01*
X046784Y008093D02*
X010989Y008093D01*
X010832Y007936D02*
X010832Y007936D01*
X011147Y008251D02*
X046784Y008251D01*
X014976Y015067D02*
X014624Y015067D01*
X014624Y015225D02*
X014841Y015225D01*
X014814Y015384D02*
X014624Y015384D01*
X014624Y015542D02*
X014814Y015542D01*
X014814Y015701D02*
X014624Y015701D01*
X014624Y015859D02*
X014814Y015859D01*
X014814Y016018D02*
X014624Y016018D01*
X014624Y016176D02*
X014814Y016176D01*
X014814Y016335D02*
X014624Y016335D01*
X014624Y016493D02*
X014814Y016493D01*
X014814Y016652D02*
X014624Y016652D01*
X014624Y016810D02*
X014814Y016810D01*
X014814Y016969D02*
X014624Y016969D01*
X014624Y017127D02*
X014814Y017127D01*
X014814Y017286D02*
X014624Y017286D01*
X014624Y017444D02*
X014814Y017444D01*
X014814Y017603D02*
X014624Y017603D01*
X014624Y017761D02*
X014814Y017761D01*
X014814Y017920D02*
X014624Y017920D01*
X014624Y018078D02*
X014814Y018078D01*
X014814Y018237D02*
X014624Y018237D01*
X014624Y018395D02*
X014814Y018395D01*
X014814Y018554D02*
X014624Y018554D01*
X014624Y018712D02*
X014814Y018712D01*
X014814Y018871D02*
X014624Y018871D01*
X014624Y019029D02*
X014814Y019029D01*
X014814Y019188D02*
X014624Y019188D01*
X014624Y019346D02*
X014814Y019346D01*
X014814Y019505D02*
X014624Y019505D01*
X014624Y019663D02*
X014814Y019663D01*
X014814Y019822D02*
X014624Y019822D01*
X014624Y019980D02*
X014814Y019980D01*
X014814Y020139D02*
X014624Y020139D01*
X014624Y020297D02*
X014814Y020297D01*
X014814Y020456D02*
X014624Y020456D01*
X014624Y020614D02*
X014814Y020614D01*
X014814Y020773D02*
X014624Y020773D01*
X014624Y020931D02*
X014814Y020931D01*
X014814Y021090D02*
X014624Y021090D01*
X014624Y021248D02*
X014814Y021248D01*
X014814Y021407D02*
X014624Y021407D01*
X014624Y021565D02*
X014814Y021565D01*
X014814Y021724D02*
X014624Y021724D01*
X014624Y021882D02*
X014814Y021882D01*
X014814Y022041D02*
X014624Y022041D01*
X014624Y022199D02*
X014814Y022199D01*
X014814Y022358D02*
X014624Y022358D01*
X014624Y022516D02*
X014814Y022516D01*
X014814Y022675D02*
X014624Y022675D01*
X014624Y022833D02*
X014814Y022833D01*
X014814Y022992D02*
X014624Y022992D01*
X014624Y023150D02*
X014814Y023150D01*
X014814Y023309D02*
X014624Y023309D01*
X014624Y023467D02*
X014814Y023467D01*
X014814Y023626D02*
X014624Y023626D01*
X014680Y023784D02*
X014888Y023784D01*
X014839Y023943D02*
X015047Y023943D01*
X013315Y025211D02*
X012107Y025211D01*
X012265Y025369D02*
X013473Y025369D01*
X013632Y025528D02*
X012424Y025528D01*
X012582Y025686D02*
X013790Y025686D01*
X013949Y025845D02*
X012741Y025845D01*
X012899Y026003D02*
X014107Y026003D01*
X013156Y025052D02*
X011948Y025052D01*
X011790Y024894D02*
X012998Y024894D01*
X012839Y024735D02*
X011631Y024735D01*
X011473Y024577D02*
X012681Y024577D01*
X011632Y025528D02*
X007460Y025528D01*
X007460Y025400D02*
X007460Y025702D01*
X007382Y025993D01*
X007231Y026254D01*
X007018Y026467D01*
X006757Y026618D01*
X006466Y026696D01*
X006164Y026696D01*
X005873Y026618D01*
X005612Y026467D01*
X005399Y026254D01*
X005248Y025993D01*
X005170Y025702D01*
X005170Y025400D01*
X005248Y025109D01*
X005399Y024848D01*
X005473Y024774D01*
X005446Y024783D01*
X005323Y024811D01*
X005214Y024824D01*
X005214Y023781D01*
X005054Y023781D01*
X005054Y023621D01*
X004011Y023621D01*
X004023Y023512D01*
X004051Y023389D01*
X004093Y023270D01*
X004148Y023156D01*
X004215Y023049D01*
X004294Y022950D01*
X004383Y022861D01*
X004482Y022782D01*
X004589Y022715D01*
X004703Y022660D01*
X004822Y022618D01*
X004945Y022590D01*
X005054Y022578D01*
X005054Y023621D01*
X005214Y023621D01*
X005214Y023781D01*
X006257Y023781D01*
X006245Y023889D01*
X006216Y024013D01*
X006175Y024132D01*
X006120Y024246D01*
X006053Y024353D01*
X005974Y024451D01*
X005966Y024459D01*
X006164Y024406D01*
X006466Y024406D01*
X006757Y024484D01*
X007018Y024635D01*
X007231Y024848D01*
X007382Y025109D01*
X007460Y025400D01*
X007451Y025369D02*
X011473Y025369D01*
X011315Y025211D02*
X007409Y025211D01*
X007349Y025052D02*
X011156Y025052D01*
X010998Y024894D02*
X007257Y024894D01*
X007118Y024735D02*
X010850Y024735D01*
X010814Y024577D02*
X006917Y024577D01*
X006511Y024418D02*
X010814Y024418D01*
X010814Y024260D02*
X006111Y024260D01*
X006119Y024418D02*
X006000Y024418D01*
X006185Y024101D02*
X010814Y024101D01*
X010814Y023943D02*
X006232Y023943D01*
X006256Y023784D02*
X010814Y023784D01*
X010814Y023626D02*
X005214Y023626D01*
X005214Y023621D02*
X006257Y023621D01*
X006245Y023512D01*
X006216Y023389D01*
X006175Y023270D01*
X006120Y023156D01*
X006053Y023049D01*
X005974Y022950D01*
X005885Y022861D01*
X005786Y022782D01*
X005679Y022715D01*
X005565Y022660D01*
X005446Y022618D01*
X005323Y022590D01*
X005214Y022578D01*
X005214Y023621D01*
X005214Y023467D02*
X005054Y023467D01*
X005054Y023309D02*
X005214Y023309D01*
X005214Y023150D02*
X005054Y023150D01*
X005054Y022992D02*
X005214Y022992D01*
X005214Y022833D02*
X005054Y022833D01*
X005054Y022675D02*
X005214Y022675D01*
X005596Y022675D02*
X010814Y022675D01*
X010814Y022833D02*
X005850Y022833D01*
X006007Y022992D02*
X010814Y022992D01*
X010814Y023150D02*
X006117Y023150D01*
X006188Y023309D02*
X010814Y023309D01*
X010814Y023467D02*
X006234Y023467D01*
X005214Y023784D02*
X005054Y023784D01*
X005054Y023626D02*
X002964Y023626D01*
X002964Y023784D02*
X004011Y023784D01*
X004035Y023943D02*
X002964Y023943D01*
X002964Y024101D02*
X004082Y024101D01*
X004157Y024260D02*
X002964Y024260D01*
X002964Y024418D02*
X004267Y024418D01*
X004072Y024577D02*
X003912Y024577D01*
X003912Y024735D02*
X004072Y024735D01*
X004072Y024894D02*
X003912Y024894D01*
X003912Y025052D02*
X004072Y025052D01*
X004072Y025211D02*
X003912Y025211D01*
X003912Y025369D02*
X004072Y025369D01*
X004072Y025528D02*
X005170Y025528D01*
X005170Y025686D02*
X005109Y025686D01*
X005079Y025845D02*
X005208Y025845D01*
X005254Y026003D02*
X005023Y026003D01*
X004937Y026162D02*
X005346Y026162D01*
X005465Y026320D02*
X004814Y026320D01*
X004630Y026479D02*
X005632Y026479D01*
X005946Y026637D02*
X004288Y026637D01*
X004072Y026637D02*
X003912Y026637D01*
X003912Y026479D02*
X004072Y026479D01*
X004072Y026320D02*
X003912Y026320D01*
X003912Y026162D02*
X004072Y026162D01*
X004072Y026003D02*
X003912Y026003D01*
X003912Y025845D02*
X004072Y025845D01*
X004072Y025686D02*
X003912Y025686D01*
X003171Y026320D02*
X002964Y026320D01*
X002964Y026162D02*
X003047Y026162D01*
X002964Y026479D02*
X003354Y026479D01*
X003696Y026637D02*
X002964Y026637D01*
X002964Y026796D02*
X012900Y026796D01*
X013058Y026954D02*
X002978Y026954D01*
X003136Y027113D02*
X013217Y027113D01*
X013375Y027271D02*
X003295Y027271D01*
X003427Y027430D02*
X013534Y027430D01*
X013692Y027588D02*
X003464Y027588D01*
X005104Y025369D02*
X005178Y025369D01*
X005221Y025211D02*
X005065Y025211D01*
X005000Y025052D02*
X005281Y025052D01*
X005372Y024894D02*
X004907Y024894D01*
X005054Y024735D02*
X005214Y024735D01*
X005214Y024577D02*
X005054Y024577D01*
X005054Y024418D02*
X005214Y024418D01*
X005214Y024260D02*
X005054Y024260D01*
X005054Y024101D02*
X005214Y024101D01*
X005214Y023943D02*
X005054Y023943D01*
X004033Y023467D02*
X002964Y023467D01*
X002964Y023309D02*
X004079Y023309D01*
X004151Y023150D02*
X002964Y023150D01*
X002964Y022992D02*
X004260Y022992D01*
X004417Y022833D02*
X002964Y022833D01*
X002964Y022675D02*
X004671Y022675D01*
X002964Y022516D02*
X010814Y022516D01*
X010814Y022358D02*
X002964Y022358D01*
X002964Y022199D02*
X010814Y022199D01*
X010814Y022041D02*
X002964Y022041D01*
X002964Y021882D02*
X010814Y021882D01*
X010814Y021724D02*
X002964Y021724D01*
X002964Y021565D02*
X010814Y021565D01*
X010814Y021407D02*
X002964Y021407D01*
X002964Y021248D02*
X010814Y021248D01*
X010814Y021090D02*
X009848Y021090D01*
X010007Y020931D02*
X010814Y020931D01*
X010814Y020773D02*
X010124Y020773D01*
X010124Y020614D02*
X010718Y020614D01*
X010560Y020456D02*
X010124Y020456D01*
X010047Y020297D02*
X010401Y020297D01*
X010243Y020139D02*
X009888Y020139D01*
X009958Y019980D02*
X010084Y019980D01*
X010094Y019594D02*
X009594Y019594D01*
X009231Y019980D02*
X005958Y019980D01*
X005844Y020094D02*
X006124Y020375D01*
X006124Y020814D01*
X005814Y021124D01*
X005375Y021124D01*
X005064Y020814D01*
X005064Y020375D01*
X005345Y020094D01*
X005064Y019814D01*
X005064Y019375D01*
X005375Y019064D01*
X005814Y019064D01*
X006124Y019375D01*
X006124Y019814D01*
X005844Y020094D01*
X005888Y020139D02*
X009300Y020139D01*
X009142Y020297D02*
X006047Y020297D01*
X006124Y020456D02*
X009064Y020456D01*
X009064Y020614D02*
X006124Y020614D01*
X006124Y020773D02*
X009064Y020773D01*
X009182Y020931D02*
X006007Y020931D01*
X005848Y021090D02*
X009340Y021090D01*
X009072Y019822D02*
X006116Y019822D01*
X006124Y019663D02*
X009064Y019663D01*
X009064Y019505D02*
X006124Y019505D01*
X006096Y019346D02*
X009093Y019346D01*
X009251Y019188D02*
X005937Y019188D01*
X005251Y019188D02*
X004065Y019188D01*
X004047Y019179D02*
X004111Y019211D01*
X004169Y019254D01*
X004220Y019304D01*
X004263Y019363D01*
X004295Y019427D01*
X004317Y019495D01*
X004329Y019566D01*
X004329Y019594D01*
X003603Y019594D01*
X003603Y019145D01*
X003908Y019145D01*
X003979Y019156D01*
X004047Y019179D01*
X004251Y019346D02*
X005093Y019346D01*
X005064Y019505D02*
X004319Y019505D01*
X004329Y019611D02*
X004329Y019638D01*
X004317Y019709D01*
X004295Y019778D01*
X004263Y019842D01*
X004220Y019900D01*
X004169Y019951D01*
X004111Y019993D01*
X004047Y020026D01*
X003979Y020048D01*
X003908Y020059D01*
X003603Y020059D01*
X003603Y019611D01*
X004329Y019611D01*
X004325Y019663D02*
X005064Y019663D01*
X005072Y019822D02*
X004273Y019822D01*
X004129Y019980D02*
X005231Y019980D01*
X005300Y020139D02*
X004038Y020139D01*
X004257Y020297D02*
X005142Y020297D01*
X005064Y020456D02*
X004334Y020456D01*
X004349Y020614D02*
X005064Y020614D01*
X005064Y020773D02*
X004311Y020773D01*
X004201Y020931D02*
X005182Y020931D01*
X005340Y021090D02*
X002964Y021090D01*
X002964Y020931D02*
X002987Y020931D01*
X002964Y020139D02*
X003151Y020139D01*
X003060Y019980D02*
X002964Y019980D01*
X003586Y019980D02*
X003603Y019980D01*
X003586Y019822D02*
X003603Y019822D01*
X003586Y019663D02*
X003603Y019663D01*
X003586Y019505D02*
X003603Y019505D01*
X003586Y019346D02*
X003603Y019346D01*
X003586Y019188D02*
X003603Y019188D01*
X003123Y019188D02*
X002964Y019188D01*
X002964Y019029D02*
X012314Y019029D01*
X012314Y018871D02*
X002964Y018871D01*
X002964Y018712D02*
X012314Y018712D01*
X012314Y018554D02*
X002964Y018554D01*
X002964Y018395D02*
X012314Y018395D01*
X012314Y018237D02*
X002964Y018237D01*
X002964Y018078D02*
X012314Y018078D01*
X012314Y017920D02*
X002964Y017920D01*
X002964Y017761D02*
X012314Y017761D01*
X012314Y017603D02*
X002964Y017603D01*
X002964Y017444D02*
X012314Y017444D01*
X012314Y017286D02*
X002964Y017286D01*
X002964Y017127D02*
X012314Y017127D01*
X012314Y016969D02*
X002964Y016969D01*
X002964Y016810D02*
X012314Y016810D01*
X012314Y016652D02*
X002964Y016652D01*
X002964Y016493D02*
X012314Y016493D01*
X012314Y016335D02*
X002964Y016335D01*
X002964Y016176D02*
X012314Y016176D01*
X012314Y016018D02*
X002964Y016018D01*
X004131Y015067D02*
X005317Y015067D01*
X005159Y014908D02*
X003996Y014908D01*
X003652Y013323D02*
X003537Y013323D01*
X003537Y013165D02*
X003652Y013165D01*
X003652Y013006D02*
X003537Y013006D01*
X003537Y012848D02*
X002964Y012848D01*
X003003Y012757D02*
X003016Y012676D01*
X003045Y012587D01*
X003087Y012504D01*
X003142Y012428D01*
X003208Y012362D01*
X003283Y012307D01*
X003367Y012265D01*
X003455Y012236D01*
X003537Y012223D01*
X003537Y012757D01*
X003003Y012757D01*
X003014Y012689D02*
X002964Y012689D01*
X002964Y012531D02*
X003073Y012531D01*
X002964Y012372D02*
X003198Y012372D01*
X002964Y012214D02*
X013064Y012214D01*
X013064Y012372D02*
X003991Y012372D01*
X004116Y012531D02*
X013064Y012531D01*
X013064Y012689D02*
X004175Y012689D01*
X004156Y013006D02*
X013064Y013006D01*
X013064Y012848D02*
X003652Y012848D01*
X003652Y012689D02*
X003537Y012689D01*
X003537Y012531D02*
X003652Y012531D01*
X003652Y012372D02*
X003537Y012372D01*
X002964Y012055D02*
X013064Y012055D01*
X013064Y011897D02*
X002964Y011897D01*
X002964Y011738D02*
X013064Y011738D01*
X013064Y011580D02*
X002964Y011580D01*
X002964Y011421D02*
X013064Y011421D01*
X013064Y011263D02*
X002964Y011263D01*
X002964Y011104D02*
X013064Y011104D01*
X013050Y010946D02*
X002964Y010946D01*
X002964Y010787D02*
X012891Y010787D01*
X012733Y010629D02*
X002964Y010629D01*
X002964Y010470D02*
X003432Y010470D01*
X003165Y010312D02*
X002964Y010312D01*
X002964Y010153D02*
X003046Y010153D01*
X002981Y009995D02*
X002964Y009995D01*
X002964Y009836D02*
X002981Y009836D01*
X002964Y009678D02*
X003012Y009678D01*
X002964Y009519D02*
X003081Y009519D01*
X002964Y009361D02*
X003240Y009361D01*
X004177Y009678D02*
X011782Y009678D01*
X011940Y009836D02*
X004208Y009836D01*
X004208Y009995D02*
X012099Y009995D01*
X012257Y010153D02*
X004143Y010153D01*
X004024Y010312D02*
X012416Y010312D01*
X012574Y010470D02*
X003757Y010470D01*
X003033Y013006D02*
X002964Y013006D01*
X002964Y013165D02*
X003115Y013165D01*
X002964Y013323D02*
X003285Y013323D01*
X009914Y013165D02*
X013064Y013165D01*
X013064Y013323D02*
X011672Y013323D01*
X011623Y009519D02*
X009919Y009519D01*
X007804Y004908D02*
X007804Y004908D01*
X007964Y004447D02*
X008629Y004447D01*
X008314Y004289D02*
X007964Y004289D01*
X007964Y004130D02*
X008127Y004130D01*
X007979Y003972D02*
X007964Y003972D01*
X003017Y007459D02*
X002964Y007459D01*
X002964Y007617D02*
X003083Y007617D01*
X009937Y019188D02*
X012314Y019188D01*
X011790Y025686D02*
X007460Y025686D01*
X007421Y025845D02*
X011949Y025845D01*
X012107Y026003D02*
X007376Y026003D01*
X007284Y026162D02*
X012266Y026162D01*
X012424Y026320D02*
X007165Y026320D01*
X006998Y026479D02*
X012583Y026479D01*
X012741Y026637D02*
X006684Y026637D01*
X003428Y024577D02*
X002964Y024577D01*
X002964Y024735D02*
X003217Y024735D01*
X003077Y024894D02*
X002964Y024894D01*
X002964Y025052D02*
X002984Y025052D01*
X003464Y031234D02*
X005776Y031234D01*
X005659Y031392D02*
X003464Y031392D01*
X003464Y031551D02*
X005614Y031551D01*
X005623Y031709D02*
X003464Y031709D01*
X003464Y031868D02*
X005689Y031868D01*
X005883Y032026D02*
X003464Y032026D01*
D19*
X006344Y033844D03*
X010594Y030344D03*
X010594Y029594D03*
X010594Y028844D03*
X010594Y028094D03*
X009594Y028094D03*
X011344Y028844D03*
X011344Y029594D03*
X011344Y030344D03*
D20*
X004844Y035094D03*
X004844Y035844D03*
X002594Y032094D03*
X002594Y031094D03*
X002594Y030094D03*
X002344Y026594D03*
X002344Y025594D03*
X002344Y024594D03*
X002344Y020594D03*
X002344Y019594D03*
X002344Y014594D03*
X002344Y013594D03*
X002344Y009094D03*
X002344Y008094D03*
X007094Y004594D03*
X007094Y003594D03*
X007094Y002594D03*
X006094Y002594D03*
X005094Y002594D03*
X004094Y002594D03*
X003094Y003094D03*
X002594Y004094D03*
X016094Y014344D03*
D21*
X002277Y002755D02*
X002489Y002489D01*
X002755Y002277D01*
X003061Y002130D01*
X003393Y002054D01*
X003563Y002044D01*
X007594Y002044D01*
X007594Y004594D01*
X007094Y005094D01*
X003594Y005094D01*
X002594Y006094D01*
X002594Y027094D01*
X003094Y027594D01*
X003094Y032594D01*
X004094Y033594D01*
X005094Y033594D01*
X005594Y034094D01*
X005594Y036577D01*
X003563Y036577D01*
X003393Y036568D01*
X003061Y036492D01*
X002755Y036345D01*
X002755Y036345D01*
X002489Y036133D01*
X002277Y035867D01*
X002130Y035561D01*
X002054Y035229D01*
X002044Y035059D01*
X002044Y003563D01*
X002054Y003393D01*
X002130Y003061D01*
X002277Y002755D01*
X002267Y002776D02*
X007594Y002776D01*
X007594Y002678D02*
X002339Y002678D01*
X002417Y002579D02*
X007594Y002579D01*
X007594Y002481D02*
X002500Y002481D01*
X002623Y002382D02*
X007594Y002382D01*
X007594Y002284D02*
X002747Y002284D01*
X002946Y002185D02*
X007594Y002185D01*
X007594Y002087D02*
X003249Y002087D01*
X002219Y002875D02*
X007594Y002875D01*
X007594Y002973D02*
X002172Y002973D01*
X002127Y003072D02*
X007594Y003072D01*
X007594Y003170D02*
X002105Y003170D01*
X002082Y003269D02*
X007594Y003269D01*
X007594Y003367D02*
X002060Y003367D01*
X002050Y003466D02*
X007594Y003466D01*
X007594Y003564D02*
X002044Y003564D01*
X002044Y003663D02*
X007594Y003663D01*
X007594Y003761D02*
X002044Y003761D01*
X002044Y003860D02*
X007594Y003860D01*
X007594Y003958D02*
X002044Y003958D01*
X002044Y004057D02*
X007594Y004057D01*
X007594Y004155D02*
X002044Y004155D01*
X002044Y004254D02*
X007594Y004254D01*
X007594Y004352D02*
X002044Y004352D01*
X002044Y004451D02*
X007594Y004451D01*
X007594Y004549D02*
X002044Y004549D01*
X002044Y004648D02*
X007541Y004648D01*
X007442Y004746D02*
X002044Y004746D01*
X002044Y004845D02*
X007344Y004845D01*
X007245Y004943D02*
X002044Y004943D01*
X002044Y005042D02*
X007147Y005042D01*
X003548Y005140D02*
X002044Y005140D01*
X002044Y005239D02*
X003450Y005239D01*
X003351Y005337D02*
X002044Y005337D01*
X002044Y005436D02*
X003253Y005436D01*
X003154Y005534D02*
X002044Y005534D01*
X002044Y005633D02*
X003056Y005633D01*
X002957Y005731D02*
X002044Y005731D01*
X002044Y005830D02*
X002859Y005830D01*
X002760Y005928D02*
X002044Y005928D01*
X002044Y006027D02*
X002662Y006027D01*
X002594Y006125D02*
X002044Y006125D01*
X002044Y006224D02*
X002594Y006224D01*
X002594Y006322D02*
X002044Y006322D01*
X002044Y006421D02*
X002594Y006421D01*
X002594Y006519D02*
X002044Y006519D01*
X002044Y006618D02*
X002594Y006618D01*
X002594Y006716D02*
X002044Y006716D01*
X002044Y006815D02*
X002594Y006815D01*
X002594Y006913D02*
X002044Y006913D01*
X002044Y007012D02*
X002594Y007012D01*
X002594Y007110D02*
X002044Y007110D01*
X002044Y007209D02*
X002594Y007209D01*
X002594Y007307D02*
X002044Y007307D01*
X002044Y007406D02*
X002594Y007406D01*
X002594Y007504D02*
X002044Y007504D01*
X002044Y007603D02*
X002594Y007603D01*
X002594Y007701D02*
X002044Y007701D01*
X002044Y007800D02*
X002594Y007800D01*
X002594Y007898D02*
X002044Y007898D01*
X002044Y007997D02*
X002594Y007997D01*
X002594Y008095D02*
X002044Y008095D01*
X002044Y008194D02*
X002594Y008194D01*
X002594Y008292D02*
X002044Y008292D01*
X002044Y008391D02*
X002594Y008391D01*
X002594Y008489D02*
X002044Y008489D01*
X002044Y008588D02*
X002594Y008588D01*
X002594Y008686D02*
X002044Y008686D01*
X002044Y008785D02*
X002594Y008785D01*
X002594Y008883D02*
X002044Y008883D01*
X002044Y008982D02*
X002594Y008982D01*
X002594Y009080D02*
X002044Y009080D01*
X002044Y009179D02*
X002594Y009179D01*
X002594Y009277D02*
X002044Y009277D01*
X002044Y009376D02*
X002594Y009376D01*
X002594Y009474D02*
X002044Y009474D01*
X002044Y009573D02*
X002594Y009573D01*
X002594Y009671D02*
X002044Y009671D01*
X002044Y009770D02*
X002594Y009770D01*
X002594Y009868D02*
X002044Y009868D01*
X002044Y009967D02*
X002594Y009967D01*
X002594Y010065D02*
X002044Y010065D01*
X002044Y010164D02*
X002594Y010164D01*
X002594Y010262D02*
X002044Y010262D01*
X002044Y010361D02*
X002594Y010361D01*
X002594Y010459D02*
X002044Y010459D01*
X002044Y010558D02*
X002594Y010558D01*
X002594Y010656D02*
X002044Y010656D01*
X002044Y010755D02*
X002594Y010755D01*
X002594Y010853D02*
X002044Y010853D01*
X002044Y010952D02*
X002594Y010952D01*
X002594Y011050D02*
X002044Y011050D01*
X002044Y011149D02*
X002594Y011149D01*
X002594Y011247D02*
X002044Y011247D01*
X002044Y011346D02*
X002594Y011346D01*
X002594Y011444D02*
X002044Y011444D01*
X002044Y011543D02*
X002594Y011543D01*
X002594Y011641D02*
X002044Y011641D01*
X002044Y011740D02*
X002594Y011740D01*
X002594Y011838D02*
X002044Y011838D01*
X002044Y011937D02*
X002594Y011937D01*
X002594Y012035D02*
X002044Y012035D01*
X002044Y012134D02*
X002594Y012134D01*
X002594Y012232D02*
X002044Y012232D01*
X002044Y012331D02*
X002594Y012331D01*
X002594Y012429D02*
X002044Y012429D01*
X002044Y012528D02*
X002594Y012528D01*
X002594Y012626D02*
X002044Y012626D01*
X002044Y012725D02*
X002594Y012725D01*
X002594Y012823D02*
X002044Y012823D01*
X002044Y012922D02*
X002594Y012922D01*
X002594Y013020D02*
X002044Y013020D01*
X002044Y013119D02*
X002594Y013119D01*
X002594Y013217D02*
X002044Y013217D01*
X002044Y013316D02*
X002594Y013316D01*
X002594Y013414D02*
X002044Y013414D01*
X002044Y013513D02*
X002594Y013513D01*
X002594Y013611D02*
X002044Y013611D01*
X002044Y013710D02*
X002594Y013710D01*
X002594Y013808D02*
X002044Y013808D01*
X002044Y013907D02*
X002594Y013907D01*
X002594Y014005D02*
X002044Y014005D01*
X002044Y014104D02*
X002594Y014104D01*
X002594Y014202D02*
X002044Y014202D01*
X002044Y014301D02*
X002594Y014301D01*
X002594Y014399D02*
X002044Y014399D01*
X002044Y014498D02*
X002594Y014498D01*
X002594Y014596D02*
X002044Y014596D01*
X002044Y014695D02*
X002594Y014695D01*
X002594Y014793D02*
X002044Y014793D01*
X002044Y014892D02*
X002594Y014892D01*
X002594Y014990D02*
X002044Y014990D01*
X002044Y015089D02*
X002594Y015089D01*
X002594Y015187D02*
X002044Y015187D01*
X002044Y015286D02*
X002594Y015286D01*
X002594Y015384D02*
X002044Y015384D01*
X002044Y015483D02*
X002594Y015483D01*
X002594Y015581D02*
X002044Y015581D01*
X002044Y015680D02*
X002594Y015680D01*
X002594Y015778D02*
X002044Y015778D01*
X002044Y015877D02*
X002594Y015877D01*
X002594Y015975D02*
X002044Y015975D01*
X002044Y016074D02*
X002594Y016074D01*
X002594Y016172D02*
X002044Y016172D01*
X002044Y016271D02*
X002594Y016271D01*
X002594Y016369D02*
X002044Y016369D01*
X002044Y016468D02*
X002594Y016468D01*
X002594Y016566D02*
X002044Y016566D01*
X002044Y016665D02*
X002594Y016665D01*
X002594Y016763D02*
X002044Y016763D01*
X002044Y016862D02*
X002594Y016862D01*
X002594Y016960D02*
X002044Y016960D01*
X002044Y017059D02*
X002594Y017059D01*
X002594Y017157D02*
X002044Y017157D01*
X002044Y017256D02*
X002594Y017256D01*
X002594Y017354D02*
X002044Y017354D01*
X002044Y017453D02*
X002594Y017453D01*
X002594Y017551D02*
X002044Y017551D01*
X002044Y017650D02*
X002594Y017650D01*
X002594Y017748D02*
X002044Y017748D01*
X002044Y017847D02*
X002594Y017847D01*
X002594Y017945D02*
X002044Y017945D01*
X002044Y018044D02*
X002594Y018044D01*
X002594Y018142D02*
X002044Y018142D01*
X002044Y018241D02*
X002594Y018241D01*
X002594Y018339D02*
X002044Y018339D01*
X002044Y018438D02*
X002594Y018438D01*
X002594Y018536D02*
X002044Y018536D01*
X002044Y018635D02*
X002594Y018635D01*
X002594Y018733D02*
X002044Y018733D01*
X002044Y018832D02*
X002594Y018832D01*
X002594Y018930D02*
X002044Y018930D01*
X002044Y019029D02*
X002594Y019029D01*
X002594Y019127D02*
X002044Y019127D01*
X002044Y019226D02*
X002594Y019226D01*
X002594Y019324D02*
X002044Y019324D01*
X002044Y019423D02*
X002594Y019423D01*
X002594Y019521D02*
X002044Y019521D01*
X002044Y019620D02*
X002594Y019620D01*
X002594Y019718D02*
X002044Y019718D01*
X002044Y019817D02*
X002594Y019817D01*
X002594Y019915D02*
X002044Y019915D01*
X002044Y020014D02*
X002594Y020014D01*
X002594Y020112D02*
X002044Y020112D01*
X002044Y020211D02*
X002594Y020211D01*
X002594Y020309D02*
X002044Y020309D01*
X002044Y020408D02*
X002594Y020408D01*
X002594Y020506D02*
X002044Y020506D01*
X002044Y020605D02*
X002594Y020605D01*
X002594Y020703D02*
X002044Y020703D01*
X002044Y020802D02*
X002594Y020802D01*
X002594Y020900D02*
X002044Y020900D01*
X002044Y020999D02*
X002594Y020999D01*
X002594Y021097D02*
X002044Y021097D01*
X002044Y021196D02*
X002594Y021196D01*
X002594Y021294D02*
X002044Y021294D01*
X002044Y021393D02*
X002594Y021393D01*
X002594Y021491D02*
X002044Y021491D01*
X002044Y021590D02*
X002594Y021590D01*
X002594Y021688D02*
X002044Y021688D01*
X002044Y021787D02*
X002594Y021787D01*
X002594Y021885D02*
X002044Y021885D01*
X002044Y021984D02*
X002594Y021984D01*
X002594Y022082D02*
X002044Y022082D01*
X002044Y022181D02*
X002594Y022181D01*
X002594Y022279D02*
X002044Y022279D01*
X002044Y022378D02*
X002594Y022378D01*
X002594Y022476D02*
X002044Y022476D01*
X002044Y022575D02*
X002594Y022575D01*
X002594Y022673D02*
X002044Y022673D01*
X002044Y022772D02*
X002594Y022772D01*
X002594Y022870D02*
X002044Y022870D01*
X002044Y022969D02*
X002594Y022969D01*
X002594Y023067D02*
X002044Y023067D01*
X002044Y023166D02*
X002594Y023166D01*
X002594Y023264D02*
X002044Y023264D01*
X002044Y023363D02*
X002594Y023363D01*
X002594Y023461D02*
X002044Y023461D01*
X002044Y023560D02*
X002594Y023560D01*
X002594Y023658D02*
X002044Y023658D01*
X002044Y023757D02*
X002594Y023757D01*
X002594Y023855D02*
X002044Y023855D01*
X002044Y023954D02*
X002594Y023954D01*
X002594Y024052D02*
X002044Y024052D01*
X002044Y024151D02*
X002594Y024151D01*
X002594Y024249D02*
X002044Y024249D01*
X002044Y024348D02*
X002594Y024348D01*
X002594Y024446D02*
X002044Y024446D01*
X002044Y024545D02*
X002594Y024545D01*
X002594Y024643D02*
X002044Y024643D01*
X002044Y024742D02*
X002594Y024742D01*
X002594Y024840D02*
X002044Y024840D01*
X002044Y024939D02*
X002594Y024939D01*
X002594Y025037D02*
X002044Y025037D01*
X002044Y025136D02*
X002594Y025136D01*
X002594Y025234D02*
X002044Y025234D01*
X002044Y025333D02*
X002594Y025333D01*
X002594Y025431D02*
X002044Y025431D01*
X002044Y025530D02*
X002594Y025530D01*
X002594Y025628D02*
X002044Y025628D01*
X002044Y025727D02*
X002594Y025727D01*
X002594Y025825D02*
X002044Y025825D01*
X002044Y025924D02*
X002594Y025924D01*
X002594Y026022D02*
X002044Y026022D01*
X002044Y026121D02*
X002594Y026121D01*
X002594Y026219D02*
X002044Y026219D01*
X002044Y026318D02*
X002594Y026318D01*
X002594Y026416D02*
X002044Y026416D01*
X002044Y026515D02*
X002594Y026515D01*
X002594Y026613D02*
X002044Y026613D01*
X002044Y026712D02*
X002594Y026712D01*
X002594Y026810D02*
X002044Y026810D01*
X002044Y026909D02*
X002594Y026909D01*
X002594Y027007D02*
X002044Y027007D01*
X002044Y027106D02*
X002606Y027106D01*
X002704Y027204D02*
X002044Y027204D01*
X002044Y027303D02*
X002803Y027303D01*
X002901Y027401D02*
X002044Y027401D01*
X002044Y027500D02*
X003000Y027500D01*
X003094Y027598D02*
X002044Y027598D01*
X002044Y027697D02*
X003094Y027697D01*
X003094Y027795D02*
X002044Y027795D01*
X002044Y027894D02*
X003094Y027894D01*
X003094Y027992D02*
X002044Y027992D01*
X002044Y028091D02*
X003094Y028091D01*
X003094Y028189D02*
X002044Y028189D01*
X002044Y028288D02*
X003094Y028288D01*
X003094Y028386D02*
X002044Y028386D01*
X002044Y028485D02*
X003094Y028485D01*
X003094Y028583D02*
X002044Y028583D01*
X002044Y028682D02*
X003094Y028682D01*
X003094Y028780D02*
X002044Y028780D01*
X002044Y028879D02*
X003094Y028879D01*
X003094Y028977D02*
X002044Y028977D01*
X002044Y029076D02*
X003094Y029076D01*
X003094Y029174D02*
X002044Y029174D01*
X002044Y029273D02*
X003094Y029273D01*
X003094Y029371D02*
X002044Y029371D01*
X002044Y029470D02*
X003094Y029470D01*
X003094Y029568D02*
X002044Y029568D01*
X002044Y029667D02*
X003094Y029667D01*
X003094Y029765D02*
X002044Y029765D01*
X002044Y029864D02*
X003094Y029864D01*
X003094Y029962D02*
X002044Y029962D01*
X002044Y030061D02*
X003094Y030061D01*
X003094Y030159D02*
X002044Y030159D01*
X002044Y030258D02*
X003094Y030258D01*
X003094Y030356D02*
X002044Y030356D01*
X002044Y030455D02*
X003094Y030455D01*
X003094Y030553D02*
X002044Y030553D01*
X002044Y030652D02*
X003094Y030652D01*
X003094Y030750D02*
X002044Y030750D01*
X002044Y030849D02*
X003094Y030849D01*
X003094Y030947D02*
X002044Y030947D01*
X002044Y031046D02*
X003094Y031046D01*
X003094Y031144D02*
X002044Y031144D01*
X002044Y031243D02*
X003094Y031243D01*
X003094Y031341D02*
X002044Y031341D01*
X002044Y031440D02*
X003094Y031440D01*
X003094Y031538D02*
X002044Y031538D01*
X002044Y031637D02*
X003094Y031637D01*
X003094Y031735D02*
X002044Y031735D01*
X002044Y031834D02*
X003094Y031834D01*
X003094Y031932D02*
X002044Y031932D01*
X002044Y032031D02*
X003094Y032031D01*
X003094Y032129D02*
X002044Y032129D01*
X002044Y032228D02*
X003094Y032228D01*
X003094Y032326D02*
X002044Y032326D01*
X002044Y032425D02*
X003094Y032425D01*
X003094Y032523D02*
X002044Y032523D01*
X002044Y032622D02*
X003122Y032622D01*
X003220Y032720D02*
X002044Y032720D01*
X002044Y032819D02*
X003319Y032819D01*
X003418Y032918D02*
X002044Y032918D01*
X002044Y033016D02*
X003516Y033016D01*
X003615Y033115D02*
X002044Y033115D01*
X002044Y033213D02*
X003713Y033213D01*
X003812Y033312D02*
X002044Y033312D01*
X002044Y033410D02*
X003910Y033410D01*
X004009Y033509D02*
X002044Y033509D01*
X002044Y033607D02*
X005107Y033607D01*
X005206Y033706D02*
X002044Y033706D01*
X002044Y033804D02*
X005304Y033804D01*
X005403Y033903D02*
X002044Y033903D01*
X002044Y034001D02*
X005501Y034001D01*
X005594Y034100D02*
X002044Y034100D01*
X002044Y034198D02*
X005594Y034198D01*
X005594Y034297D02*
X002044Y034297D01*
X002044Y034395D02*
X005594Y034395D01*
X005594Y034494D02*
X002044Y034494D01*
X002044Y034592D02*
X005594Y034592D01*
X005594Y034691D02*
X002044Y034691D01*
X002044Y034789D02*
X005594Y034789D01*
X005594Y034888D02*
X002044Y034888D01*
X002044Y034986D02*
X005594Y034986D01*
X005594Y035085D02*
X002046Y035085D01*
X002051Y035183D02*
X005594Y035183D01*
X005594Y035282D02*
X002066Y035282D01*
X002088Y035380D02*
X005594Y035380D01*
X005594Y035479D02*
X002111Y035479D01*
X002138Y035577D02*
X005594Y035577D01*
X005594Y035676D02*
X002185Y035676D01*
X002232Y035774D02*
X005594Y035774D01*
X005594Y035873D02*
X002282Y035873D01*
X002360Y035971D02*
X005594Y035971D01*
X005594Y036070D02*
X002439Y036070D01*
X002533Y036168D02*
X005594Y036168D01*
X005594Y036267D02*
X002657Y036267D01*
X002797Y036365D02*
X005594Y036365D01*
X005594Y036464D02*
X003002Y036464D01*
X003367Y036562D02*
X005594Y036562D01*
M02*
