G75*
%MOIN*%
%OFA0B0*%
%FSLAX24Y24*%
%IPPOS*%
%LPD*%
%AMOC8*
5,1,8,0,0,1.08239X$1,22.5*
%
%ADD10C,0.0827*%
%ADD11C,0.0120*%
%ADD12OC8,0.0660*%
%ADD13R,0.0472X0.0551*%
%ADD14R,0.0472X0.0217*%
%ADD15R,0.0866X0.0256*%
%ADD16C,0.2300*%
%ADD17C,0.0740*%
%ADD18R,0.0551X0.0472*%
%ADD19C,0.0554*%
%ADD20R,0.0630X0.0709*%
%ADD21C,0.0660*%
%ADD22C,0.1300*%
%ADD23C,0.0594*%
%ADD24C,0.1306*%
%ADD25OC8,0.0520*%
%ADD26R,0.0276X0.0433*%
%ADD27C,0.0700*%
%ADD28R,0.0315X0.0315*%
%ADD29R,0.0433X0.0276*%
%ADD30C,0.0396*%
%ADD31C,0.0240*%
%ADD32C,0.0160*%
%ADD33C,0.0500*%
%ADD34C,0.0475*%
%ADD35C,0.0320*%
%ADD36C,0.0591*%
D10*
X006380Y026422D03*
X008940Y026422D03*
D11*
X001247Y003388D02*
X001065Y003437D01*
X000902Y003531D01*
X000769Y003664D01*
X000675Y003827D01*
X000626Y004009D01*
X000620Y004103D01*
X000620Y014422D01*
X000994Y014422D01*
X000994Y014224D01*
X001076Y014142D01*
X001210Y014142D01*
X001210Y013412D01*
X001207Y013412D01*
X000920Y013125D01*
X000920Y012942D01*
X001390Y012942D01*
X001390Y012902D01*
X001430Y012902D01*
X001430Y012432D01*
X001613Y012432D01*
X001900Y012719D01*
X001900Y012902D01*
X001430Y012902D01*
X001430Y012942D01*
X001900Y012942D01*
X001900Y013125D01*
X001613Y013412D01*
X001610Y013412D01*
X001610Y014142D01*
X001744Y014142D01*
X001826Y014224D01*
X001826Y014422D01*
X003160Y014422D01*
X003660Y013922D01*
X003660Y006922D01*
X002660Y005922D01*
X002660Y005172D01*
X003410Y004422D01*
X006160Y004422D01*
X007160Y005422D01*
X009410Y005422D01*
X010660Y004422D01*
X013410Y004422D01*
X014160Y005422D01*
X014910Y005422D01*
X015660Y004422D01*
X026022Y004422D01*
X026022Y004312D01*
X026086Y004159D01*
X026203Y004041D01*
X026357Y003978D01*
X026523Y003978D01*
X026676Y004041D01*
X026793Y004159D01*
X026857Y004312D01*
X026857Y004422D01*
X027007Y004422D01*
X027007Y004312D01*
X027070Y004159D01*
X027187Y004041D01*
X027341Y003978D01*
X027507Y003978D01*
X027660Y004041D01*
X027777Y004159D01*
X027841Y004312D01*
X027841Y004422D01*
X029172Y004422D01*
X029172Y004312D01*
X029235Y004159D01*
X029353Y004041D01*
X029506Y003978D01*
X029672Y003978D01*
X029825Y004041D01*
X029943Y004159D01*
X030006Y004312D01*
X030006Y004422D01*
X030156Y004422D01*
X030156Y004312D01*
X030220Y004159D01*
X030337Y004041D01*
X030490Y003978D01*
X030656Y003978D01*
X030810Y004041D01*
X030927Y004159D01*
X030991Y004312D01*
X030991Y004422D01*
X037910Y004422D01*
X038410Y005172D01*
X039660Y005172D01*
X040410Y004422D01*
X042660Y004422D01*
X043410Y005172D01*
X046410Y005172D01*
X047160Y004422D01*
X049660Y004422D01*
X049660Y004925D01*
X049716Y004869D01*
X049876Y004802D01*
X050050Y004802D01*
X050211Y004869D01*
X050334Y004992D01*
X050400Y005152D01*
X050400Y005326D01*
X050353Y005439D01*
X050353Y006697D01*
X050294Y006840D01*
X050184Y006950D01*
X049660Y007474D01*
X049660Y011422D01*
X050410Y012172D01*
X052850Y012172D01*
X052850Y004103D01*
X052843Y004009D01*
X052795Y003827D01*
X052701Y003664D01*
X052567Y003531D01*
X052404Y003437D01*
X052223Y003388D01*
X052129Y003382D01*
X051364Y003382D01*
X051434Y003401D01*
X051532Y003442D01*
X051624Y003495D01*
X051709Y003560D01*
X051784Y003635D01*
X051849Y003720D01*
X051902Y003812D01*
X051943Y003910D01*
X051971Y004013D01*
X051984Y004112D01*
X051232Y004112D01*
X051232Y004232D01*
X051984Y004232D01*
X051971Y004331D01*
X051943Y004434D01*
X051902Y004532D01*
X051849Y004625D01*
X051784Y004709D01*
X051709Y004785D01*
X051624Y004849D01*
X051532Y004903D01*
X051434Y004943D01*
X051331Y004971D01*
X051232Y004984D01*
X051232Y004232D01*
X051112Y004232D01*
X051112Y004112D01*
X050360Y004112D01*
X050373Y004013D01*
X050401Y003910D01*
X050441Y003812D01*
X050495Y003720D01*
X050559Y003635D01*
X050635Y003560D01*
X050719Y003495D01*
X050812Y003442D01*
X050910Y003401D01*
X050980Y003382D01*
X046191Y003382D01*
X046260Y003401D01*
X046359Y003442D01*
X046451Y003495D01*
X046536Y003560D01*
X046611Y003635D01*
X046676Y003720D01*
X046729Y003812D01*
X046770Y003910D01*
X046797Y004013D01*
X046810Y004112D01*
X046059Y004112D01*
X046059Y004232D01*
X046810Y004232D01*
X046797Y004331D01*
X046770Y004434D01*
X046729Y004532D01*
X046676Y004625D01*
X046611Y004709D01*
X046536Y004785D01*
X046451Y004849D01*
X046359Y004903D01*
X046260Y004943D01*
X046157Y004971D01*
X046059Y004984D01*
X046059Y004232D01*
X045939Y004232D01*
X045939Y004984D01*
X045840Y004971D01*
X045737Y004943D01*
X045638Y004903D01*
X045546Y004849D01*
X045462Y004785D01*
X045386Y004709D01*
X045321Y004625D01*
X045268Y004532D01*
X045227Y004434D01*
X045200Y004331D01*
X045187Y004232D01*
X045939Y004232D01*
X045939Y004112D01*
X045187Y004112D01*
X045200Y004013D01*
X045227Y003910D01*
X045268Y003812D01*
X045321Y003720D01*
X045386Y003635D01*
X045462Y003560D01*
X045546Y003495D01*
X045638Y003442D01*
X045737Y003401D01*
X045807Y003382D01*
X044050Y003382D01*
X044130Y003404D01*
X044228Y003444D01*
X044320Y003497D01*
X044404Y003562D01*
X044479Y003637D01*
X044544Y003721D01*
X044597Y003813D01*
X044637Y003911D01*
X044665Y004014D01*
X044678Y004112D01*
X043929Y004112D01*
X043929Y004232D01*
X044678Y004232D01*
X044665Y004331D01*
X044637Y004433D01*
X044597Y004531D01*
X044544Y004623D01*
X044479Y004707D01*
X044404Y004783D01*
X044320Y004847D01*
X044228Y004900D01*
X044130Y004941D01*
X044027Y004968D01*
X043929Y004981D01*
X043929Y004232D01*
X043809Y004232D01*
X043809Y004981D01*
X043710Y004968D01*
X043608Y004941D01*
X043510Y004900D01*
X043418Y004847D01*
X043333Y004783D01*
X043258Y004707D01*
X043194Y004623D01*
X043141Y004531D01*
X043100Y004433D01*
X043072Y004331D01*
X043059Y004232D01*
X043809Y004232D01*
X043809Y004112D01*
X043059Y004112D01*
X043072Y004014D01*
X043100Y003911D01*
X043141Y003813D01*
X043194Y003721D01*
X043258Y003637D01*
X043333Y003562D01*
X043418Y003497D01*
X043510Y003444D01*
X043608Y003404D01*
X043687Y003382D01*
X039310Y003382D01*
X039390Y003404D01*
X039488Y003444D01*
X039580Y003497D01*
X039664Y003562D01*
X039739Y003637D01*
X039804Y003721D01*
X039857Y003813D01*
X039897Y003911D01*
X039925Y004014D01*
X039938Y004112D01*
X039189Y004112D01*
X039189Y004232D01*
X039938Y004232D01*
X039925Y004331D01*
X039897Y004433D01*
X039857Y004531D01*
X039804Y004623D01*
X039739Y004707D01*
X039664Y004783D01*
X039580Y004847D01*
X039488Y004900D01*
X039390Y004941D01*
X039287Y004968D01*
X039189Y004981D01*
X039189Y004232D01*
X039069Y004232D01*
X039069Y004981D01*
X038970Y004968D01*
X038868Y004941D01*
X038770Y004900D01*
X038678Y004847D01*
X038593Y004783D01*
X038518Y004707D01*
X038454Y004623D01*
X038401Y004531D01*
X038360Y004433D01*
X038332Y004331D01*
X038319Y004232D01*
X039069Y004232D01*
X039069Y004112D01*
X038319Y004112D01*
X038332Y004014D01*
X038360Y003911D01*
X038401Y003813D01*
X038454Y003721D01*
X038518Y003637D01*
X038593Y003562D01*
X038678Y003497D01*
X038770Y003444D01*
X038868Y003404D01*
X038947Y003382D01*
X014750Y003382D01*
X014819Y003401D01*
X014918Y003442D01*
X015010Y003495D01*
X015095Y003560D01*
X015170Y003635D01*
X015235Y003720D01*
X015288Y003812D01*
X015329Y003910D01*
X015356Y004013D01*
X015370Y004112D01*
X014618Y004112D01*
X014618Y004232D01*
X015370Y004232D01*
X015356Y004331D01*
X015329Y004434D01*
X015288Y004532D01*
X015235Y004625D01*
X015170Y004709D01*
X015095Y004785D01*
X015010Y004849D01*
X014918Y004903D01*
X014819Y004943D01*
X014717Y004971D01*
X014618Y004984D01*
X014618Y004232D01*
X014498Y004232D01*
X014498Y004984D01*
X014399Y004971D01*
X014296Y004943D01*
X014197Y004903D01*
X014105Y004849D01*
X014021Y004785D01*
X013945Y004709D01*
X013880Y004625D01*
X013827Y004532D01*
X013786Y004434D01*
X013759Y004331D01*
X013746Y004232D01*
X014498Y004232D01*
X014498Y004112D01*
X013746Y004112D01*
X013759Y004013D01*
X013786Y003910D01*
X013827Y003812D01*
X013880Y003720D01*
X013945Y003635D01*
X014021Y003560D01*
X014105Y003495D01*
X014197Y003442D01*
X014296Y003401D01*
X014366Y003382D01*
X009576Y003382D01*
X009646Y003401D01*
X009745Y003442D01*
X009837Y003495D01*
X009921Y003560D01*
X009997Y003635D01*
X010062Y003720D01*
X010115Y003812D01*
X010156Y003910D01*
X010183Y004013D01*
X010196Y004112D01*
X009444Y004112D01*
X009444Y004232D01*
X009324Y004232D01*
X009324Y004112D01*
X008573Y004112D01*
X008586Y004013D01*
X008613Y003910D01*
X008654Y003812D01*
X008707Y003720D01*
X008772Y003635D01*
X008847Y003560D01*
X008932Y003495D01*
X009024Y003442D01*
X009123Y003401D01*
X009192Y003382D01*
X007436Y003382D01*
X007515Y003404D01*
X007613Y003444D01*
X007705Y003497D01*
X007790Y003562D01*
X007865Y003637D01*
X007929Y003721D01*
X007982Y003813D01*
X008023Y003911D01*
X008051Y004014D01*
X008063Y004112D01*
X007314Y004112D01*
X007314Y004232D01*
X007194Y004232D01*
X007194Y004112D01*
X006445Y004112D01*
X006458Y004014D01*
X006486Y003911D01*
X006526Y003813D01*
X006579Y003721D01*
X006644Y003637D01*
X006719Y003562D01*
X006803Y003497D01*
X006895Y003444D01*
X006993Y003404D01*
X007073Y003382D01*
X002696Y003382D01*
X002775Y003404D01*
X002873Y003444D01*
X002965Y003497D01*
X003050Y003562D01*
X003125Y003637D01*
X003189Y003721D01*
X003242Y003813D01*
X003283Y003911D01*
X003311Y004014D01*
X003323Y004112D01*
X002574Y004112D01*
X002574Y004232D01*
X002454Y004232D01*
X002454Y004112D01*
X001705Y004112D01*
X001718Y004014D01*
X001746Y003911D01*
X001786Y003813D01*
X001839Y003721D01*
X001904Y003637D01*
X001979Y003562D01*
X002063Y003497D01*
X002155Y003444D01*
X002253Y003404D01*
X002333Y003382D01*
X001341Y003382D01*
X001247Y003388D01*
X001218Y003396D02*
X002281Y003396D01*
X002041Y003515D02*
X000931Y003515D01*
X000800Y003633D02*
X001908Y003633D01*
X001822Y003752D02*
X000719Y003752D01*
X000663Y003870D02*
X001763Y003870D01*
X001725Y003989D02*
X000632Y003989D01*
X000620Y004107D02*
X001706Y004107D01*
X001705Y004232D02*
X002454Y004232D01*
X002454Y004981D01*
X002356Y004968D01*
X002253Y004941D01*
X002155Y004900D01*
X002063Y004847D01*
X001979Y004783D01*
X001904Y004707D01*
X001839Y004623D01*
X001786Y004531D01*
X001746Y004433D01*
X001718Y004331D01*
X001705Y004232D01*
X001722Y004344D02*
X000620Y004344D01*
X000620Y004226D02*
X002454Y004226D01*
X002454Y004344D02*
X002574Y004344D01*
X002574Y004232D02*
X002574Y004981D01*
X002673Y004968D01*
X002775Y004941D01*
X002873Y004900D01*
X002965Y004847D01*
X003050Y004783D01*
X003125Y004707D01*
X003189Y004623D01*
X003242Y004531D01*
X003283Y004433D01*
X003311Y004331D01*
X003323Y004232D01*
X002574Y004232D01*
X002574Y004226D02*
X007194Y004226D01*
X007194Y004232D02*
X006445Y004232D01*
X006458Y004331D01*
X006486Y004433D01*
X006526Y004531D01*
X006579Y004623D01*
X006644Y004707D01*
X006719Y004783D01*
X006803Y004847D01*
X006895Y004900D01*
X006993Y004941D01*
X007096Y004968D01*
X007194Y004981D01*
X007194Y004232D01*
X007194Y004344D02*
X007314Y004344D01*
X007314Y004232D02*
X007314Y004981D01*
X007413Y004968D01*
X007515Y004941D01*
X007613Y004900D01*
X007705Y004847D01*
X007790Y004783D01*
X007865Y004707D01*
X007929Y004623D01*
X007982Y004531D01*
X008023Y004433D01*
X008051Y004331D01*
X008063Y004232D01*
X007314Y004232D01*
X007314Y004226D02*
X009324Y004226D01*
X009324Y004232D02*
X008573Y004232D01*
X008586Y004331D01*
X008613Y004434D01*
X008654Y004532D01*
X008707Y004625D01*
X008772Y004709D01*
X008847Y004785D01*
X008932Y004849D01*
X009024Y004903D01*
X009123Y004943D01*
X009226Y004971D01*
X009324Y004984D01*
X009324Y004232D01*
X009324Y004344D02*
X009444Y004344D01*
X009444Y004232D02*
X009444Y004984D01*
X009543Y004971D01*
X009646Y004943D01*
X009745Y004903D01*
X009837Y004849D01*
X009921Y004785D01*
X009997Y004709D01*
X010062Y004625D01*
X010115Y004532D01*
X010156Y004434D01*
X010183Y004331D01*
X010196Y004232D01*
X009444Y004232D01*
X009444Y004226D02*
X014498Y004226D01*
X014498Y004344D02*
X014618Y004344D01*
X014618Y004226D02*
X026058Y004226D01*
X026022Y004344D02*
X015353Y004344D01*
X015317Y004463D02*
X015630Y004463D01*
X015541Y004581D02*
X015260Y004581D01*
X015177Y004700D02*
X015452Y004700D01*
X015363Y004818D02*
X015051Y004818D01*
X014836Y004937D02*
X015274Y004937D01*
X015185Y005055D02*
X013885Y005055D01*
X013796Y004937D02*
X014279Y004937D01*
X014498Y004937D02*
X014618Y004937D01*
X014618Y004818D02*
X014498Y004818D01*
X014498Y004700D02*
X014618Y004700D01*
X014618Y004581D02*
X014498Y004581D01*
X014498Y004463D02*
X014618Y004463D01*
X014064Y004818D02*
X013707Y004818D01*
X013618Y004700D02*
X013938Y004700D01*
X013855Y004581D02*
X013529Y004581D01*
X013440Y004463D02*
X013798Y004463D01*
X013762Y004344D02*
X010180Y004344D01*
X010144Y004463D02*
X010609Y004463D01*
X010461Y004581D02*
X010087Y004581D01*
X010004Y004700D02*
X010313Y004700D01*
X010165Y004818D02*
X009878Y004818D01*
X010017Y004937D02*
X009663Y004937D01*
X009444Y004937D02*
X009324Y004937D01*
X009324Y004818D02*
X009444Y004818D01*
X009444Y004700D02*
X009324Y004700D01*
X009324Y004581D02*
X009444Y004581D01*
X009444Y004463D02*
X009324Y004463D01*
X009106Y004937D02*
X007525Y004937D01*
X007314Y004937D02*
X007194Y004937D01*
X007194Y004818D02*
X007314Y004818D01*
X007314Y004700D02*
X007194Y004700D01*
X007194Y004581D02*
X007314Y004581D01*
X007314Y004463D02*
X007194Y004463D01*
X006983Y004937D02*
X006675Y004937D01*
X006766Y004818D02*
X006556Y004818D01*
X006638Y004700D02*
X006438Y004700D01*
X006555Y004581D02*
X006319Y004581D01*
X006201Y004463D02*
X006498Y004463D01*
X006462Y004344D02*
X003307Y004344D01*
X003271Y004463D02*
X003369Y004463D01*
X003251Y004581D02*
X003214Y004581D01*
X003132Y004700D02*
X003131Y004700D01*
X003014Y004818D02*
X003003Y004818D01*
X002895Y004937D02*
X002785Y004937D01*
X002777Y005055D02*
X000620Y005055D01*
X000620Y004937D02*
X002243Y004937D01*
X002454Y004937D02*
X002574Y004937D01*
X002574Y004818D02*
X002454Y004818D01*
X002454Y004700D02*
X002574Y004700D01*
X002574Y004581D02*
X002454Y004581D01*
X002454Y004463D02*
X002574Y004463D01*
X002026Y004818D02*
X000620Y004818D01*
X000620Y004700D02*
X001898Y004700D01*
X001815Y004581D02*
X000620Y004581D01*
X000620Y004463D02*
X001758Y004463D01*
X002660Y005174D02*
X000620Y005174D01*
X000620Y005292D02*
X002660Y005292D01*
X002660Y005411D02*
X000620Y005411D01*
X000620Y005529D02*
X002660Y005529D01*
X002660Y005648D02*
X000620Y005648D01*
X000620Y005766D02*
X002660Y005766D01*
X002660Y005885D02*
X000620Y005885D01*
X000620Y006003D02*
X002741Y006003D01*
X002860Y006122D02*
X000620Y006122D01*
X000620Y006240D02*
X002978Y006240D01*
X003097Y006359D02*
X000620Y006359D01*
X000620Y006477D02*
X003215Y006477D01*
X003334Y006596D02*
X000620Y006596D01*
X000620Y006714D02*
X003452Y006714D01*
X003571Y006833D02*
X000620Y006833D01*
X000620Y006951D02*
X003660Y006951D01*
X003660Y007070D02*
X000620Y007070D01*
X000620Y007188D02*
X003660Y007188D01*
X003660Y007307D02*
X000620Y007307D01*
X000620Y007425D02*
X003660Y007425D01*
X003660Y007544D02*
X000620Y007544D01*
X000620Y007662D02*
X003660Y007662D01*
X003660Y007781D02*
X000620Y007781D01*
X000620Y007899D02*
X003660Y007899D01*
X003660Y008018D02*
X000620Y008018D01*
X000620Y008136D02*
X003660Y008136D01*
X003660Y008255D02*
X000620Y008255D01*
X000620Y008373D02*
X003660Y008373D01*
X003660Y008492D02*
X000620Y008492D01*
X000620Y008610D02*
X003660Y008610D01*
X003660Y008729D02*
X000620Y008729D01*
X000620Y008847D02*
X003660Y008847D01*
X003660Y008966D02*
X000620Y008966D01*
X000620Y009084D02*
X003660Y009084D01*
X003660Y009203D02*
X000620Y009203D01*
X000620Y009321D02*
X003660Y009321D01*
X003660Y009440D02*
X000620Y009440D01*
X000620Y009558D02*
X001697Y009558D01*
X001687Y009561D02*
X001810Y009524D01*
X001936Y009499D01*
X002064Y009486D01*
X002069Y009486D01*
X002069Y010736D01*
X002189Y010736D01*
X002189Y010856D01*
X003439Y010856D01*
X003439Y010861D01*
X003426Y010989D01*
X003401Y011115D01*
X003363Y011238D01*
X003314Y011357D01*
X003253Y011471D01*
X003182Y011578D01*
X003100Y011677D01*
X003009Y011768D01*
X002910Y011850D01*
X002803Y011921D01*
X002689Y011982D01*
X002570Y012031D01*
X002447Y012068D01*
X002321Y012094D01*
X002193Y012106D01*
X002189Y012106D01*
X002189Y010856D01*
X002069Y010856D01*
X002069Y012106D01*
X002064Y012106D01*
X001936Y012094D01*
X001810Y012068D01*
X001687Y012031D01*
X001568Y011982D01*
X001454Y011921D01*
X001347Y011850D01*
X001248Y011768D01*
X001157Y011677D01*
X001075Y011578D01*
X001004Y011471D01*
X000943Y011357D01*
X000894Y011238D01*
X000856Y011115D01*
X000831Y010989D01*
X000819Y010861D01*
X000819Y010856D01*
X002068Y010856D01*
X002068Y010736D01*
X000819Y010736D01*
X000819Y010732D01*
X000831Y010604D01*
X000856Y010478D01*
X000894Y010354D01*
X000943Y010235D01*
X001004Y010122D01*
X001075Y010015D01*
X001157Y009915D01*
X001248Y009824D01*
X001347Y009743D01*
X001454Y009671D01*
X001568Y009611D01*
X001687Y009561D01*
X001446Y009677D02*
X000620Y009677D01*
X000620Y009795D02*
X001283Y009795D01*
X001158Y009914D02*
X000620Y009914D01*
X000620Y010032D02*
X001063Y010032D01*
X000988Y010151D02*
X000620Y010151D01*
X000620Y010269D02*
X000929Y010269D01*
X000883Y010388D02*
X000620Y010388D01*
X000620Y010506D02*
X000851Y010506D01*
X000829Y010625D02*
X000620Y010625D01*
X000620Y010743D02*
X002068Y010743D01*
X002069Y010625D02*
X002189Y010625D01*
X002189Y010736D02*
X002189Y009486D01*
X002193Y009486D01*
X002321Y009499D01*
X002447Y009524D01*
X002570Y009561D01*
X002689Y009611D01*
X002803Y009671D01*
X002910Y009743D01*
X003009Y009824D01*
X003100Y009915D01*
X003182Y010015D01*
X003253Y010122D01*
X003314Y010235D01*
X003363Y010354D01*
X003401Y010478D01*
X003426Y010604D01*
X003439Y010732D01*
X003439Y010736D01*
X002189Y010736D01*
X002189Y010743D02*
X003660Y010743D01*
X003660Y010625D02*
X003428Y010625D01*
X003406Y010506D02*
X003660Y010506D01*
X003660Y010388D02*
X003374Y010388D01*
X003328Y010269D02*
X003660Y010269D01*
X003660Y010151D02*
X003269Y010151D01*
X003194Y010032D02*
X003660Y010032D01*
X003660Y009914D02*
X003099Y009914D01*
X002974Y009795D02*
X003660Y009795D01*
X003660Y009677D02*
X002811Y009677D01*
X002560Y009558D02*
X003660Y009558D01*
X002189Y009558D02*
X002069Y009558D01*
X002069Y009677D02*
X002189Y009677D01*
X002189Y009795D02*
X002069Y009795D01*
X002069Y009914D02*
X002189Y009914D01*
X002189Y010032D02*
X002069Y010032D01*
X002069Y010151D02*
X002189Y010151D01*
X002189Y010269D02*
X002069Y010269D01*
X002069Y010388D02*
X002189Y010388D01*
X002189Y010506D02*
X002069Y010506D01*
X002069Y010862D02*
X002189Y010862D01*
X002189Y010980D02*
X002069Y010980D01*
X002069Y011099D02*
X002189Y011099D01*
X002189Y011217D02*
X002069Y011217D01*
X002069Y011336D02*
X002189Y011336D01*
X002189Y011454D02*
X002069Y011454D01*
X002069Y011573D02*
X002189Y011573D01*
X002189Y011691D02*
X002069Y011691D01*
X002069Y011810D02*
X002189Y011810D01*
X002189Y011928D02*
X002069Y011928D01*
X002069Y012047D02*
X002189Y012047D01*
X002519Y012047D02*
X003660Y012047D01*
X003660Y012165D02*
X000620Y012165D01*
X000620Y012047D02*
X001738Y012047D01*
X001467Y011928D02*
X000620Y011928D01*
X000620Y011810D02*
X001298Y011810D01*
X001171Y011691D02*
X000620Y011691D01*
X000620Y011573D02*
X001072Y011573D01*
X000995Y011454D02*
X000620Y011454D01*
X000620Y011336D02*
X000934Y011336D01*
X000887Y011217D02*
X000620Y011217D01*
X000620Y011099D02*
X000853Y011099D01*
X000830Y010980D02*
X000620Y010980D01*
X000620Y010862D02*
X000819Y010862D01*
X002790Y011928D02*
X003660Y011928D01*
X003660Y011810D02*
X002959Y011810D01*
X003086Y011691D02*
X003660Y011691D01*
X003660Y011573D02*
X003185Y011573D01*
X003262Y011454D02*
X003660Y011454D01*
X003660Y011336D02*
X003323Y011336D01*
X003370Y011217D02*
X003660Y011217D01*
X003660Y011099D02*
X003404Y011099D01*
X003427Y010980D02*
X003660Y010980D01*
X003660Y010862D02*
X003438Y010862D01*
X003660Y012284D02*
X000620Y012284D01*
X000620Y012402D02*
X003660Y012402D01*
X003660Y012521D02*
X001701Y012521D01*
X001820Y012639D02*
X003660Y012639D01*
X003660Y012758D02*
X001900Y012758D01*
X001900Y012876D02*
X003660Y012876D01*
X003660Y012995D02*
X001900Y012995D01*
X001900Y013113D02*
X003660Y013113D01*
X003660Y013232D02*
X001793Y013232D01*
X001675Y013350D02*
X003660Y013350D01*
X003660Y013469D02*
X001610Y013469D01*
X001610Y013587D02*
X002401Y013587D01*
X002486Y013502D02*
X002240Y013748D01*
X002240Y013902D01*
X002640Y013902D01*
X002680Y013902D01*
X002680Y013502D01*
X002834Y013502D01*
X003080Y013748D01*
X003080Y013902D01*
X002680Y013902D01*
X002680Y013942D01*
X003080Y013942D01*
X003080Y014096D01*
X002834Y014342D01*
X002680Y014342D01*
X002680Y013942D01*
X002640Y013942D01*
X002640Y013902D01*
X002640Y013502D01*
X002486Y013502D01*
X002640Y013587D02*
X002680Y013587D01*
X002680Y013706D02*
X002640Y013706D01*
X002640Y013824D02*
X002680Y013824D01*
X002680Y013943D02*
X002640Y013943D01*
X002640Y013942D02*
X002640Y014342D01*
X002486Y014342D01*
X002240Y014096D01*
X002240Y013942D01*
X002640Y013942D01*
X002640Y014061D02*
X002680Y014061D01*
X002680Y014180D02*
X002640Y014180D01*
X002640Y014298D02*
X002680Y014298D01*
X002878Y014298D02*
X003284Y014298D01*
X003402Y014180D02*
X002996Y014180D01*
X003080Y014061D02*
X003521Y014061D01*
X003639Y013943D02*
X003080Y013943D01*
X003080Y013824D02*
X003660Y013824D01*
X003660Y013706D02*
X003037Y013706D01*
X002919Y013587D02*
X003660Y013587D01*
X002283Y013706D02*
X001610Y013706D01*
X001610Y013824D02*
X002240Y013824D01*
X002240Y013943D02*
X001610Y013943D01*
X001610Y014061D02*
X002240Y014061D01*
X002324Y014180D02*
X001781Y014180D01*
X001826Y014298D02*
X002442Y014298D01*
X001826Y014417D02*
X003165Y014417D01*
X001410Y014489D02*
X001410Y013151D01*
X001390Y012902D02*
X000920Y012902D01*
X000920Y012719D01*
X001207Y012432D01*
X001390Y012432D01*
X001390Y012902D01*
X001390Y012876D02*
X001430Y012876D01*
X001430Y012758D02*
X001390Y012758D01*
X001390Y012639D02*
X001430Y012639D01*
X001430Y012521D02*
X001390Y012521D01*
X001119Y012521D02*
X000620Y012521D01*
X000620Y012639D02*
X001000Y012639D01*
X000920Y012758D02*
X000620Y012758D01*
X000620Y012876D02*
X000920Y012876D01*
X000920Y012995D02*
X000620Y012995D01*
X000620Y013113D02*
X000920Y013113D01*
X001027Y013232D02*
X000620Y013232D01*
X000620Y013350D02*
X001145Y013350D01*
X001210Y013469D02*
X000620Y013469D01*
X000620Y013587D02*
X001210Y013587D01*
X001210Y013706D02*
X000620Y013706D01*
X000620Y013824D02*
X001210Y013824D01*
X001210Y013943D02*
X000620Y013943D01*
X000620Y014061D02*
X001210Y014061D01*
X001039Y014180D02*
X000620Y014180D01*
X000620Y014298D02*
X000994Y014298D01*
X000994Y014417D02*
X000620Y014417D01*
X001410Y015316D02*
X001410Y016930D01*
X007152Y011922D02*
X008766Y011922D01*
X009593Y011922D02*
X010932Y011922D01*
X009424Y005411D02*
X007149Y005411D01*
X007030Y005292D02*
X009572Y005292D01*
X009721Y005174D02*
X006912Y005174D01*
X006793Y005055D02*
X009869Y005055D01*
X008891Y004818D02*
X007743Y004818D01*
X007871Y004700D02*
X008765Y004700D01*
X008682Y004581D02*
X007954Y004581D01*
X008011Y004463D02*
X008625Y004463D01*
X008589Y004344D02*
X008047Y004344D01*
X008063Y004107D02*
X008573Y004107D01*
X008592Y003989D02*
X008044Y003989D01*
X008006Y003870D02*
X008630Y003870D01*
X008689Y003752D02*
X007947Y003752D01*
X007861Y003633D02*
X008774Y003633D01*
X008906Y003515D02*
X007728Y003515D01*
X007488Y003396D02*
X009140Y003396D01*
X009629Y003396D02*
X014313Y003396D01*
X014079Y003515D02*
X009863Y003515D01*
X009995Y003633D02*
X013947Y003633D01*
X013862Y003752D02*
X010080Y003752D01*
X010139Y003870D02*
X013803Y003870D01*
X013765Y003989D02*
X010177Y003989D01*
X010196Y004107D02*
X013746Y004107D01*
X015036Y003515D02*
X038655Y003515D01*
X038522Y003633D02*
X015168Y003633D01*
X015253Y003752D02*
X038436Y003752D01*
X038377Y003870D02*
X015312Y003870D01*
X015350Y003989D02*
X026330Y003989D01*
X026549Y003989D02*
X027315Y003989D01*
X027533Y003989D02*
X029480Y003989D01*
X029698Y003989D02*
X030464Y003989D01*
X030683Y003989D02*
X038339Y003989D01*
X038320Y004107D02*
X030876Y004107D01*
X030955Y004226D02*
X039069Y004226D01*
X039069Y004344D02*
X039189Y004344D01*
X039189Y004226D02*
X043809Y004226D01*
X043809Y004344D02*
X043929Y004344D01*
X043929Y004226D02*
X045939Y004226D01*
X045939Y004344D02*
X046059Y004344D01*
X046059Y004226D02*
X051112Y004226D01*
X051112Y004232D02*
X050360Y004232D01*
X050373Y004331D01*
X050401Y004434D01*
X050441Y004532D01*
X050495Y004625D01*
X050559Y004709D01*
X050635Y004785D01*
X050719Y004849D01*
X050812Y004903D01*
X050910Y004943D01*
X051013Y004971D01*
X051112Y004984D01*
X051112Y004232D01*
X051112Y004344D02*
X051232Y004344D01*
X051232Y004226D02*
X052850Y004226D01*
X052850Y004344D02*
X051967Y004344D01*
X051931Y004463D02*
X052850Y004463D01*
X052850Y004581D02*
X051874Y004581D01*
X051791Y004700D02*
X052850Y004700D01*
X052850Y004818D02*
X051665Y004818D01*
X051450Y004937D02*
X052850Y004937D01*
X052850Y005055D02*
X050360Y005055D01*
X050400Y005174D02*
X052850Y005174D01*
X052850Y005292D02*
X050400Y005292D01*
X050365Y005411D02*
X052850Y005411D01*
X052850Y005529D02*
X050353Y005529D01*
X050353Y005648D02*
X052850Y005648D01*
X052850Y005766D02*
X050353Y005766D01*
X050353Y005885D02*
X052850Y005885D01*
X052850Y006003D02*
X050353Y006003D01*
X050353Y006122D02*
X052850Y006122D01*
X052850Y006240D02*
X050353Y006240D01*
X050353Y006359D02*
X052850Y006359D01*
X052850Y006477D02*
X050353Y006477D01*
X050353Y006596D02*
X052850Y006596D01*
X052850Y006714D02*
X050346Y006714D01*
X050297Y006833D02*
X052850Y006833D01*
X052850Y006951D02*
X050183Y006951D01*
X050064Y007070D02*
X052850Y007070D01*
X052850Y007188D02*
X049946Y007188D01*
X049827Y007307D02*
X052850Y007307D01*
X052850Y007425D02*
X049709Y007425D01*
X049660Y007544D02*
X052850Y007544D01*
X052850Y007662D02*
X049660Y007662D01*
X049660Y007781D02*
X052850Y007781D01*
X052850Y007899D02*
X049660Y007899D01*
X049660Y008018D02*
X052850Y008018D01*
X052850Y008136D02*
X049660Y008136D01*
X049660Y008255D02*
X052850Y008255D01*
X052850Y008373D02*
X049660Y008373D01*
X049660Y008492D02*
X052850Y008492D01*
X052850Y008610D02*
X049660Y008610D01*
X049660Y008729D02*
X052850Y008729D01*
X052850Y008847D02*
X049660Y008847D01*
X049660Y008966D02*
X052850Y008966D01*
X052850Y009084D02*
X049660Y009084D01*
X049660Y009203D02*
X052850Y009203D01*
X052850Y009321D02*
X049660Y009321D01*
X049660Y009440D02*
X052850Y009440D01*
X052850Y009558D02*
X051705Y009558D01*
X051839Y009594D02*
X052133Y009764D01*
X052373Y010004D01*
X052543Y010298D01*
X052631Y010626D01*
X052631Y010966D01*
X052543Y011294D01*
X052373Y011588D01*
X052133Y011828D01*
X051839Y011998D01*
X051511Y012086D01*
X051171Y012086D01*
X050843Y011998D01*
X050549Y011828D01*
X050309Y011588D01*
X050139Y011294D01*
X050051Y010966D01*
X050051Y010626D01*
X050139Y010298D01*
X050309Y010004D01*
X050549Y009764D01*
X050843Y009594D01*
X051171Y009506D01*
X051511Y009506D01*
X051839Y009594D01*
X051982Y009677D02*
X052850Y009677D01*
X052850Y009795D02*
X052164Y009795D01*
X052283Y009914D02*
X052850Y009914D01*
X052850Y010032D02*
X052390Y010032D01*
X052458Y010151D02*
X052850Y010151D01*
X052850Y010269D02*
X052526Y010269D01*
X052567Y010388D02*
X052850Y010388D01*
X052850Y010506D02*
X052599Y010506D01*
X052631Y010625D02*
X052850Y010625D01*
X052850Y010743D02*
X052631Y010743D01*
X052631Y010862D02*
X052850Y010862D01*
X052850Y010980D02*
X052627Y010980D01*
X052596Y011099D02*
X052850Y011099D01*
X052850Y011217D02*
X052564Y011217D01*
X052519Y011336D02*
X052850Y011336D01*
X052850Y011454D02*
X052451Y011454D01*
X052382Y011573D02*
X052850Y011573D01*
X052850Y011691D02*
X052270Y011691D01*
X052152Y011810D02*
X052850Y011810D01*
X052850Y011928D02*
X051960Y011928D01*
X051658Y012047D02*
X052850Y012047D01*
X052850Y012165D02*
X050403Y012165D01*
X050285Y012047D02*
X051024Y012047D01*
X050722Y011928D02*
X050166Y011928D01*
X050048Y011810D02*
X050530Y011810D01*
X050412Y011691D02*
X049929Y011691D01*
X049811Y011573D02*
X050300Y011573D01*
X050231Y011454D02*
X049692Y011454D01*
X049660Y011336D02*
X050163Y011336D01*
X050118Y011217D02*
X049660Y011217D01*
X049660Y011099D02*
X050087Y011099D01*
X050055Y010980D02*
X049660Y010980D01*
X049660Y010862D02*
X050051Y010862D01*
X050051Y010743D02*
X049660Y010743D01*
X049660Y010625D02*
X050052Y010625D01*
X050083Y010506D02*
X049660Y010506D01*
X049660Y010388D02*
X050115Y010388D01*
X050156Y010269D02*
X049660Y010269D01*
X049660Y010151D02*
X050224Y010151D01*
X050293Y010032D02*
X049660Y010032D01*
X049660Y009914D02*
X050399Y009914D01*
X050518Y009795D02*
X049660Y009795D01*
X049660Y009677D02*
X050700Y009677D01*
X050977Y009558D02*
X049660Y009558D01*
X047432Y011922D02*
X046093Y011922D01*
X045266Y011922D02*
X043652Y011922D01*
X043293Y005055D02*
X046527Y005055D01*
X046645Y004937D02*
X046277Y004937D01*
X046059Y004937D02*
X045939Y004937D01*
X045939Y004818D02*
X046059Y004818D01*
X046059Y004700D02*
X045939Y004700D01*
X045939Y004581D02*
X046059Y004581D01*
X046059Y004463D02*
X045939Y004463D01*
X045720Y004937D02*
X044140Y004937D01*
X043929Y004937D02*
X043809Y004937D01*
X043809Y004818D02*
X043929Y004818D01*
X043929Y004700D02*
X043809Y004700D01*
X043809Y004581D02*
X043929Y004581D01*
X043929Y004463D02*
X043809Y004463D01*
X043598Y004937D02*
X043175Y004937D01*
X043056Y004818D02*
X043380Y004818D01*
X043252Y004700D02*
X042938Y004700D01*
X042819Y004581D02*
X043169Y004581D01*
X043112Y004463D02*
X042701Y004463D01*
X043076Y004344D02*
X039921Y004344D01*
X039885Y004463D02*
X040369Y004463D01*
X040251Y004581D02*
X039828Y004581D01*
X039745Y004700D02*
X040132Y004700D01*
X040014Y004818D02*
X039617Y004818D01*
X039400Y004937D02*
X039895Y004937D01*
X039777Y005055D02*
X038332Y005055D01*
X038253Y004937D02*
X038858Y004937D01*
X039069Y004937D02*
X039189Y004937D01*
X039189Y004818D02*
X039069Y004818D01*
X039069Y004700D02*
X039189Y004700D01*
X039189Y004581D02*
X039069Y004581D01*
X039069Y004463D02*
X039189Y004463D01*
X038640Y004818D02*
X038174Y004818D01*
X038095Y004700D02*
X038512Y004700D01*
X038429Y004581D02*
X038016Y004581D01*
X037937Y004463D02*
X038372Y004463D01*
X038336Y004344D02*
X030991Y004344D01*
X030271Y004107D02*
X029891Y004107D01*
X029971Y004226D02*
X030192Y004226D01*
X030156Y004344D02*
X030006Y004344D01*
X029287Y004107D02*
X027726Y004107D01*
X027805Y004226D02*
X029208Y004226D01*
X029172Y004344D02*
X027841Y004344D01*
X027122Y004107D02*
X026742Y004107D01*
X026821Y004226D02*
X027042Y004226D01*
X027007Y004344D02*
X026857Y004344D01*
X026137Y004107D02*
X015369Y004107D01*
X014802Y003396D02*
X038895Y003396D01*
X039362Y003396D02*
X043635Y003396D01*
X043395Y003515D02*
X039602Y003515D01*
X039735Y003633D02*
X043262Y003633D01*
X043176Y003752D02*
X039821Y003752D01*
X039880Y003870D02*
X043117Y003870D01*
X043079Y003989D02*
X039918Y003989D01*
X039937Y004107D02*
X043060Y004107D01*
X044342Y003515D02*
X045520Y003515D01*
X045388Y003633D02*
X044475Y003633D01*
X044561Y003752D02*
X045303Y003752D01*
X045244Y003870D02*
X044620Y003870D01*
X044658Y003989D02*
X045206Y003989D01*
X045187Y004107D02*
X044677Y004107D01*
X044661Y004344D02*
X045203Y004344D01*
X045239Y004463D02*
X044625Y004463D01*
X044568Y004581D02*
X045296Y004581D01*
X045379Y004700D02*
X044485Y004700D01*
X044357Y004818D02*
X045505Y004818D01*
X046492Y004818D02*
X046764Y004818D01*
X046882Y004700D02*
X046618Y004700D01*
X046701Y004581D02*
X047001Y004581D01*
X047119Y004463D02*
X046758Y004463D01*
X046794Y004344D02*
X050376Y004344D01*
X050412Y004463D02*
X049660Y004463D01*
X049660Y004581D02*
X050469Y004581D01*
X050552Y004700D02*
X049660Y004700D01*
X049660Y004818D02*
X049838Y004818D01*
X050088Y004818D02*
X050679Y004818D01*
X050894Y004937D02*
X050278Y004937D01*
X051112Y004937D02*
X051232Y004937D01*
X051232Y004818D02*
X051112Y004818D01*
X051112Y004700D02*
X051232Y004700D01*
X051232Y004581D02*
X051112Y004581D01*
X051112Y004463D02*
X051232Y004463D01*
X051983Y004107D02*
X052850Y004107D01*
X052838Y003989D02*
X051964Y003989D01*
X051926Y003870D02*
X052806Y003870D01*
X052751Y003752D02*
X051868Y003752D01*
X051782Y003633D02*
X052669Y003633D01*
X052539Y003515D02*
X051650Y003515D01*
X051416Y003396D02*
X052252Y003396D01*
X050928Y003396D02*
X046243Y003396D01*
X046477Y003515D02*
X050694Y003515D01*
X050561Y003633D02*
X046609Y003633D01*
X046694Y003752D02*
X050476Y003752D01*
X050417Y003870D02*
X046753Y003870D01*
X046791Y003989D02*
X050380Y003989D01*
X050361Y004107D02*
X046810Y004107D01*
X045754Y003396D02*
X044102Y003396D01*
X030660Y006414D02*
X030660Y008029D01*
X029660Y007989D02*
X029660Y006651D01*
X027160Y006414D02*
X027160Y008029D01*
X026160Y007989D02*
X026160Y006651D01*
X026160Y008816D02*
X026160Y010430D01*
X027160Y010194D02*
X027160Y008855D01*
X029660Y008816D02*
X029660Y010430D01*
X030660Y010194D02*
X030660Y008855D01*
X030660Y011414D02*
X030660Y013029D01*
X030660Y013855D02*
X030660Y015194D01*
X027160Y015194D02*
X027160Y013855D01*
X027160Y013029D02*
X027160Y011414D01*
X022160Y011414D02*
X022160Y013029D01*
X022160Y013855D02*
X022160Y015194D01*
X014668Y022422D02*
X013054Y022422D01*
X012227Y022422D02*
X010888Y022422D01*
X010888Y023422D02*
X012227Y023422D01*
X013054Y023422D02*
X014668Y023422D01*
X014668Y025922D02*
X013054Y025922D01*
X012227Y025922D02*
X010888Y025922D01*
X010888Y026922D02*
X012227Y026922D01*
X013054Y026922D02*
X014668Y026922D01*
X014919Y005411D02*
X014151Y005411D01*
X014063Y005292D02*
X015007Y005292D01*
X015096Y005174D02*
X013974Y005174D01*
X007021Y003396D02*
X002748Y003396D01*
X002988Y003515D02*
X006781Y003515D01*
X006648Y003633D02*
X003121Y003633D01*
X003207Y003752D02*
X006562Y003752D01*
X006503Y003870D02*
X003266Y003870D01*
X003304Y003989D02*
X006465Y003989D01*
X006446Y004107D02*
X003323Y004107D01*
D12*
X007160Y011922D03*
X011160Y011922D03*
X017160Y012322D03*
X017160Y011322D03*
X017160Y010322D03*
X017160Y013322D03*
X017160Y014322D03*
X017160Y015322D03*
X017160Y016322D03*
X017160Y017322D03*
X017160Y018322D03*
X017160Y019322D03*
X017160Y020922D03*
X017160Y021922D03*
X017160Y022922D03*
X017160Y023922D03*
X017160Y024922D03*
X017160Y025922D03*
X017160Y026922D03*
X017160Y027922D03*
X014660Y026922D03*
X014660Y025922D03*
X014660Y023422D03*
X014660Y022422D03*
X010660Y022422D03*
X010660Y023422D03*
X010660Y025922D03*
X010660Y026922D03*
X001410Y016922D03*
X001410Y012922D03*
X022160Y011422D03*
X026160Y010422D03*
X027160Y010422D03*
X027160Y011422D03*
X029660Y010422D03*
X030660Y010422D03*
X030660Y011422D03*
X036160Y013922D03*
X036160Y014922D03*
X036160Y015922D03*
X036160Y016922D03*
X036160Y017922D03*
X036160Y018922D03*
X036160Y019922D03*
X036160Y020922D03*
X036160Y022922D03*
X036160Y023922D03*
X036160Y024922D03*
X036160Y025922D03*
X036160Y026922D03*
X036160Y027922D03*
X030660Y015422D03*
X027160Y015422D03*
X022160Y015422D03*
X026160Y006422D03*
X027160Y006422D03*
X029660Y006422D03*
X030660Y006422D03*
X043660Y011922D03*
X047660Y011922D03*
D13*
X046064Y011922D03*
X045256Y011922D03*
X013064Y022422D03*
X012256Y022422D03*
X012256Y023422D03*
X013064Y023422D03*
X013064Y025922D03*
X012256Y025922D03*
X012256Y026922D03*
X013064Y026922D03*
X009564Y011922D03*
X008756Y011922D03*
D14*
X008648Y010296D03*
X009672Y010296D03*
X008648Y009922D03*
X008648Y009548D03*
X009672Y009548D03*
X045144Y009548D03*
X045144Y009922D03*
X045144Y010296D03*
X046168Y010296D03*
X046168Y009548D03*
D15*
X027684Y022172D03*
X027684Y022672D03*
X027684Y023172D03*
X027684Y023672D03*
X025636Y023672D03*
X025636Y023172D03*
X025636Y022672D03*
X025636Y022172D03*
D16*
X039530Y028513D03*
X051341Y022607D03*
X051341Y010796D03*
X002129Y010796D03*
X002129Y022607D03*
D17*
X022160Y017922D03*
X022160Y016922D03*
X027160Y016922D03*
X027160Y017922D03*
X030660Y017922D03*
X030660Y016922D03*
D18*
X030660Y013826D03*
X030660Y013019D03*
X027160Y013019D03*
X027160Y013826D03*
X022160Y013826D03*
X022160Y013019D03*
X026160Y008826D03*
X027160Y008826D03*
X027160Y008019D03*
X026160Y008019D03*
X029660Y008019D03*
X030660Y008019D03*
X030660Y008826D03*
X029660Y008826D03*
X001410Y014519D03*
X001410Y015326D03*
D19*
X007168Y023145D02*
X007168Y023699D01*
X008152Y023699D02*
X008152Y023145D01*
X026440Y004949D02*
X026440Y004395D01*
X027424Y004395D02*
X027424Y004949D01*
X029589Y004949D02*
X029589Y004395D01*
X030573Y004395D02*
X030573Y004949D01*
D20*
X045109Y007922D03*
X046211Y007922D03*
X009711Y007922D03*
X008609Y007922D03*
D21*
X005377Y006022D03*
X004392Y006022D03*
X004392Y005242D03*
X005377Y005242D03*
X041006Y005242D03*
X041991Y005242D03*
X041991Y006022D03*
X041006Y006022D03*
D22*
X039129Y004172D03*
X043869Y004172D03*
X007254Y004172D03*
X002514Y004172D03*
D23*
X010593Y005239D03*
X011577Y005239D03*
X012365Y005239D03*
X013349Y005239D03*
X047207Y005239D03*
X048191Y005239D03*
X048979Y005239D03*
X049963Y005239D03*
D24*
X051172Y004172D03*
X045999Y004172D03*
X014558Y004172D03*
X009384Y004172D03*
D25*
X002660Y013922D03*
X002660Y015922D03*
X025660Y025422D03*
X027660Y025422D03*
D26*
X045365Y013422D03*
X045955Y013422D03*
X045955Y010922D03*
X045365Y010922D03*
X009455Y010922D03*
X008865Y010922D03*
X008865Y013422D03*
X009455Y013422D03*
D27*
X007160Y013422D03*
X043660Y013422D03*
D28*
X043160Y008615D03*
X043160Y007729D03*
X006660Y007729D03*
X006660Y008615D03*
D29*
X007660Y008467D03*
X007660Y007877D03*
X044160Y007877D03*
X044160Y008467D03*
D30*
X044660Y009922D03*
X044660Y010922D03*
X046660Y013422D03*
X026160Y021422D03*
X025660Y021422D03*
X025160Y021422D03*
X010160Y013422D03*
X008160Y010922D03*
X008160Y009922D03*
D31*
X007660Y009422D02*
X007660Y008467D01*
X007660Y007877D02*
X007660Y007422D01*
X006660Y007422D02*
X006660Y007729D01*
X006660Y008615D02*
X006660Y009422D01*
X008160Y010922D02*
X008865Y010922D01*
X008865Y013422D02*
X008865Y014127D01*
X009160Y014422D01*
X009455Y013422D02*
X010160Y013422D01*
X016160Y020172D02*
X016160Y021422D01*
X015160Y022422D01*
X014660Y022422D01*
X023910Y022672D02*
X025636Y022672D01*
X025636Y022172D02*
X025410Y022172D01*
X025160Y021922D01*
X025160Y021422D01*
X027684Y022172D02*
X030410Y022172D01*
X031160Y021422D01*
X032910Y021172D02*
X032910Y020172D01*
X032910Y021172D02*
X030410Y023672D01*
X027684Y023672D01*
X027660Y023696D01*
X027660Y025422D01*
X033160Y018922D02*
X033160Y013922D01*
X035160Y011922D01*
X043660Y011922D01*
X044660Y010922D02*
X045365Y010922D01*
X044160Y009422D02*
X044160Y008467D01*
X044160Y007877D02*
X044160Y007422D01*
X043160Y007422D02*
X043160Y007729D01*
X043160Y008615D02*
X043160Y009422D01*
X042660Y006422D02*
X048160Y006422D01*
X048979Y005603D01*
X048979Y005239D01*
X048191Y005239D02*
X048191Y005391D01*
X047660Y005922D01*
X043160Y005922D01*
X042480Y005242D01*
X041991Y005242D01*
X041991Y006022D02*
X042260Y006022D01*
X042660Y006422D01*
X045955Y013422D02*
X046660Y013422D01*
X012365Y005717D02*
X012365Y005239D01*
X011577Y005239D02*
X011577Y005505D01*
X011160Y005922D01*
X006660Y005922D01*
X005980Y005242D01*
X005377Y005242D01*
X005377Y006022D02*
X005760Y006022D01*
X006160Y006422D01*
X011660Y006422D01*
X012365Y005717D01*
D32*
X009711Y007922D02*
X009672Y007962D01*
X009672Y009548D01*
X008648Y009548D02*
X008648Y007962D01*
X008609Y007922D01*
X008648Y009922D02*
X008160Y009922D01*
X007786Y010296D02*
X007160Y010922D01*
X007160Y011922D01*
X008660Y013422D01*
X008865Y013422D01*
X007160Y013422D02*
X007160Y011922D01*
X009455Y010922D02*
X009672Y010706D01*
X009672Y010296D01*
X009798Y010422D01*
X013160Y010422D01*
X013410Y010672D01*
X008648Y010296D02*
X007786Y010296D01*
X017160Y015322D02*
X020510Y015322D01*
X021410Y014422D01*
X021410Y011922D01*
X021910Y011422D01*
X022160Y011422D01*
X019410Y012672D02*
X023660Y008422D01*
X025160Y008422D01*
X027160Y010422D02*
X027160Y011422D01*
X026660Y011422D01*
X025660Y012422D01*
X025660Y014422D01*
X023910Y016172D01*
X023160Y016172D01*
X022160Y015422D02*
X022160Y016922D01*
X021160Y016172D02*
X019910Y016172D01*
X017760Y018322D01*
X017160Y018322D01*
X017160Y017322D02*
X017760Y017322D01*
X019160Y015922D01*
X019410Y014672D02*
X019410Y012672D01*
X027160Y015422D02*
X027160Y016922D01*
X030660Y016922D02*
X030660Y015422D01*
X030660Y011422D02*
X029160Y011422D01*
X028160Y010422D01*
X028160Y008922D01*
X030660Y010422D02*
X030660Y011422D01*
X030660Y006422D02*
X029660Y006422D01*
X030660Y006422D02*
X030660Y004759D01*
X030573Y004672D01*
X027424Y004672D02*
X027424Y006158D01*
X027160Y006422D01*
X026160Y006422D01*
X043660Y010922D02*
X043660Y011922D01*
X045160Y013422D01*
X045365Y013422D01*
X043660Y013422D02*
X043660Y011922D01*
X043660Y010922D02*
X044286Y010296D01*
X045144Y010296D01*
X045144Y009922D02*
X044660Y009922D01*
X045144Y009548D02*
X045144Y007958D01*
X045109Y007922D01*
X046168Y007965D02*
X046211Y007922D01*
X046168Y007965D02*
X046168Y009548D01*
X046168Y010296D02*
X048034Y010296D01*
X048660Y010922D01*
X046168Y010710D02*
X046168Y010296D01*
X046168Y010710D02*
X045955Y010922D01*
X029910Y021422D02*
X027160Y021422D01*
X026660Y021922D01*
X026660Y022922D01*
X026410Y023172D01*
X025636Y023172D01*
X024660Y023172D01*
X024660Y023422D01*
X024910Y023672D01*
X025636Y023672D01*
X027684Y023172D02*
X029410Y023172D01*
X029660Y022922D01*
X028910Y022922D02*
X028660Y022672D01*
X027684Y022672D01*
X027684Y023172D02*
X028910Y023172D01*
X028910Y022922D01*
X031160Y023922D02*
X036160Y023922D01*
X036160Y022922D02*
X032410Y022922D01*
X017160Y024922D02*
X015160Y024922D01*
X014660Y024422D01*
X014660Y023422D01*
X014660Y025922D02*
X017160Y025922D01*
X010660Y025922D02*
X010660Y026922D01*
X009660Y026922D01*
X009160Y026422D01*
X008940Y026422D01*
X009660Y024422D02*
X007660Y024422D01*
X007168Y023930D01*
X007168Y023422D01*
X009660Y024422D02*
X010660Y023422D01*
X010660Y022422D01*
D33*
X002660Y013922D02*
X002660Y012922D01*
X001410Y012922D01*
X008109Y007422D02*
X008609Y007922D01*
X008109Y007422D02*
X007660Y007422D01*
X006660Y007422D01*
X005160Y007422D01*
X004392Y006654D01*
X004392Y006022D01*
X009711Y007871D02*
X010160Y007422D01*
X012660Y007422D01*
X013349Y006733D01*
X013349Y005239D01*
X009711Y007871D02*
X009711Y007922D01*
X041006Y006769D02*
X041006Y006022D01*
X041006Y006769D02*
X041660Y007422D01*
X043160Y007422D01*
X044160Y007422D01*
X044609Y007422D01*
X045109Y007922D01*
X046211Y007922D02*
X046211Y007871D01*
X046660Y007422D01*
X049160Y007422D01*
X049963Y006619D01*
X049963Y005239D01*
D34*
X028160Y008922D03*
X025160Y008422D03*
X019410Y014672D03*
X019160Y015922D03*
X021160Y016172D03*
X023160Y016172D03*
X029910Y021422D03*
X031160Y021422D03*
X032410Y022922D03*
X031160Y023922D03*
X029660Y022922D03*
X023910Y022672D03*
X033160Y018922D03*
X009160Y014422D03*
D35*
X013410Y010672D02*
X014660Y011922D01*
X014660Y018672D01*
X016160Y020172D01*
X032910Y020172D01*
X035160Y017922D01*
X036160Y017922D01*
X044160Y017922D01*
X048660Y013422D01*
X048660Y010922D01*
D36*
X044160Y009422D03*
X043160Y009422D03*
X007660Y009422D03*
X006660Y009422D03*
M02*
