G75*
%MOIN*%
%OFA0B0*%
%FSLAX24Y24*%
%IPPOS*%
%LPD*%
%AMOC8*
5,1,8,0,0,1.08239X$1,22.5*
%
%ADD10C,0.0827*%
%ADD11OC8,0.0660*%
%ADD12C,0.2300*%
%ADD13C,0.0740*%
%ADD14C,0.0554*%
%ADD15C,0.0660*%
%ADD16C,0.1300*%
%ADD17C,0.0594*%
%ADD18C,0.1306*%
%ADD19OC8,0.0520*%
%ADD20C,0.0700*%
%ADD21C,0.0120*%
%ADD22C,0.0396*%
%ADD23C,0.0475*%
%ADD24C,0.0240*%
%ADD25C,0.0160*%
%ADD26C,0.0500*%
%ADD27C,0.0591*%
%ADD28C,0.0400*%
D10*
X006380Y026422D03*
X008940Y026422D03*
D11*
X010660Y025922D03*
X010660Y026922D03*
X014660Y026922D03*
X014660Y025922D03*
X017160Y025922D03*
X017160Y024922D03*
X017160Y023922D03*
X017160Y022922D03*
X017160Y021922D03*
X017160Y020922D03*
X017160Y019322D03*
X017160Y018322D03*
X017160Y017322D03*
X017160Y016322D03*
X017160Y015322D03*
X017160Y014322D03*
X017160Y013322D03*
X017160Y012322D03*
X017160Y011322D03*
X017160Y010322D03*
X022160Y011422D03*
X026160Y010422D03*
X027160Y010422D03*
X027160Y011422D03*
X029660Y010422D03*
X030660Y010422D03*
X030660Y011422D03*
X036160Y013922D03*
X036160Y014922D03*
X036160Y015922D03*
X036160Y016922D03*
X036160Y017922D03*
X036160Y018922D03*
X036160Y019922D03*
X036160Y020922D03*
X036160Y022922D03*
X036160Y023922D03*
X036160Y024922D03*
X036160Y025922D03*
X036160Y026922D03*
X036160Y027922D03*
X017160Y027922D03*
X017160Y026922D03*
X014660Y023422D03*
X014660Y022422D03*
X010660Y022422D03*
X010660Y023422D03*
X001410Y016922D03*
X001410Y012922D03*
X007160Y011922D03*
X011160Y011922D03*
X022160Y015422D03*
X027160Y015422D03*
X030660Y015422D03*
X043660Y011922D03*
X047660Y011922D03*
X030660Y006422D03*
X029660Y006422D03*
X027160Y006422D03*
X026160Y006422D03*
D12*
X002129Y010796D03*
X002129Y022607D03*
X039530Y028513D03*
X051341Y022607D03*
X051341Y010796D03*
D13*
X030660Y016922D03*
X030660Y017922D03*
X027160Y017922D03*
X027160Y016922D03*
X022160Y016922D03*
X022160Y017922D03*
D14*
X008152Y023145D02*
X008152Y023699D01*
X007168Y023699D02*
X007168Y023145D01*
X026440Y004949D02*
X026440Y004395D01*
X027424Y004395D02*
X027424Y004949D01*
X029589Y004949D02*
X029589Y004395D01*
X030573Y004395D02*
X030573Y004949D01*
D15*
X041006Y005242D03*
X041991Y005242D03*
X041991Y006022D03*
X041006Y006022D03*
X005377Y006022D03*
X004392Y006022D03*
X004392Y005242D03*
X005377Y005242D03*
D16*
X007254Y004172D03*
X002514Y004172D03*
X039129Y004172D03*
X043869Y004172D03*
D17*
X047207Y005239D03*
X048191Y005239D03*
X048979Y005239D03*
X049963Y005239D03*
X013349Y005239D03*
X012365Y005239D03*
X011577Y005239D03*
X010593Y005239D03*
D18*
X009384Y004172D03*
X014558Y004172D03*
X045999Y004172D03*
X051172Y004172D03*
D19*
X027660Y025422D03*
X025660Y025422D03*
X002660Y015922D03*
X002660Y013922D03*
D20*
X007160Y013422D03*
X043660Y013422D03*
D21*
X001247Y003388D02*
X001065Y003437D01*
X000902Y003531D01*
X000769Y003664D01*
X000675Y003827D01*
X000626Y004009D01*
X000620Y004103D01*
X000620Y014422D01*
X003160Y014422D01*
X003660Y013922D01*
X003660Y007474D01*
X002829Y006643D01*
X002770Y006500D01*
X002770Y006032D01*
X002660Y005922D01*
X002660Y005172D01*
X003410Y004422D01*
X006160Y004422D01*
X007160Y005422D01*
X009410Y005422D01*
X010410Y004422D01*
X013410Y004422D01*
X014160Y005422D01*
X014910Y005422D01*
X015660Y004422D01*
X026022Y004422D01*
X026022Y004312D01*
X026086Y004159D01*
X026203Y004041D01*
X026357Y003978D01*
X026523Y003978D01*
X026676Y004041D01*
X026793Y004159D01*
X026857Y004312D01*
X026857Y004422D01*
X027007Y004422D01*
X027007Y004312D01*
X027070Y004159D01*
X027187Y004041D01*
X027341Y003978D01*
X027507Y003978D01*
X027660Y004041D01*
X027777Y004159D01*
X027841Y004312D01*
X027841Y004422D01*
X029172Y004422D01*
X029172Y004312D01*
X029235Y004159D01*
X029353Y004041D01*
X029506Y003978D01*
X029672Y003978D01*
X029825Y004041D01*
X029943Y004159D01*
X030006Y004312D01*
X030006Y004422D01*
X030156Y004422D01*
X030156Y004312D01*
X030220Y004159D01*
X030337Y004041D01*
X030490Y003978D01*
X030656Y003978D01*
X030810Y004041D01*
X030927Y004159D01*
X030991Y004312D01*
X030991Y004422D01*
X037910Y004422D01*
X038660Y005172D01*
X039660Y005172D01*
X040410Y004422D01*
X042660Y004422D01*
X043410Y005172D01*
X046410Y005172D01*
X047160Y004422D01*
X049660Y004422D01*
X049660Y004925D01*
X049716Y004869D01*
X049876Y004802D01*
X050050Y004802D01*
X050211Y004869D01*
X050334Y004992D01*
X050400Y005152D01*
X050400Y005326D01*
X050334Y005487D01*
X050211Y005610D01*
X050050Y005676D01*
X049876Y005676D01*
X049716Y005610D01*
X049660Y005554D01*
X049660Y011422D01*
X050410Y012172D01*
X052850Y012172D01*
X052850Y004103D01*
X052843Y004009D01*
X052795Y003827D01*
X052701Y003664D01*
X052567Y003531D01*
X052404Y003437D01*
X052223Y003388D01*
X052129Y003382D01*
X051364Y003382D01*
X051434Y003401D01*
X051532Y003442D01*
X051624Y003495D01*
X051709Y003560D01*
X051784Y003635D01*
X051849Y003720D01*
X051902Y003812D01*
X051943Y003910D01*
X051971Y004013D01*
X051984Y004112D01*
X051232Y004112D01*
X051232Y004232D01*
X051984Y004232D01*
X051971Y004331D01*
X051943Y004434D01*
X051902Y004532D01*
X051849Y004625D01*
X051784Y004709D01*
X051709Y004785D01*
X051624Y004849D01*
X051532Y004903D01*
X051434Y004943D01*
X051331Y004971D01*
X051232Y004984D01*
X051232Y004232D01*
X051112Y004232D01*
X051112Y004112D01*
X050360Y004112D01*
X050373Y004013D01*
X050401Y003910D01*
X050441Y003812D01*
X050495Y003720D01*
X050559Y003635D01*
X050635Y003560D01*
X050719Y003495D01*
X050812Y003442D01*
X050910Y003401D01*
X050980Y003382D01*
X046191Y003382D01*
X046260Y003401D01*
X046359Y003442D01*
X046451Y003495D01*
X046536Y003560D01*
X046611Y003635D01*
X046676Y003720D01*
X046729Y003812D01*
X046770Y003910D01*
X046797Y004013D01*
X046810Y004112D01*
X046059Y004112D01*
X046059Y004232D01*
X046810Y004232D01*
X046797Y004331D01*
X046770Y004434D01*
X046729Y004532D01*
X046676Y004625D01*
X046611Y004709D01*
X046536Y004785D01*
X046451Y004849D01*
X046359Y004903D01*
X046260Y004943D01*
X046157Y004971D01*
X046059Y004984D01*
X046059Y004232D01*
X045939Y004232D01*
X045939Y004984D01*
X045840Y004971D01*
X045737Y004943D01*
X045638Y004903D01*
X045546Y004849D01*
X045462Y004785D01*
X045386Y004709D01*
X045321Y004625D01*
X045268Y004532D01*
X045227Y004434D01*
X045200Y004331D01*
X045187Y004232D01*
X045939Y004232D01*
X045939Y004112D01*
X045187Y004112D01*
X045200Y004013D01*
X045227Y003910D01*
X045268Y003812D01*
X045321Y003720D01*
X045386Y003635D01*
X045462Y003560D01*
X045546Y003495D01*
X045638Y003442D01*
X045737Y003401D01*
X045807Y003382D01*
X044050Y003382D01*
X044130Y003404D01*
X044228Y003444D01*
X044320Y003497D01*
X044404Y003562D01*
X044479Y003637D01*
X044544Y003721D01*
X044597Y003813D01*
X044637Y003911D01*
X044665Y004014D01*
X044678Y004112D01*
X043929Y004112D01*
X043929Y004232D01*
X044678Y004232D01*
X044665Y004331D01*
X044637Y004433D01*
X044597Y004531D01*
X044544Y004623D01*
X044479Y004707D01*
X044404Y004783D01*
X044320Y004847D01*
X044228Y004900D01*
X044130Y004941D01*
X044027Y004968D01*
X043929Y004981D01*
X043929Y004232D01*
X043809Y004232D01*
X043809Y004981D01*
X043710Y004968D01*
X043608Y004941D01*
X043510Y004900D01*
X043418Y004847D01*
X043333Y004783D01*
X043258Y004707D01*
X043194Y004623D01*
X043141Y004531D01*
X043100Y004433D01*
X043072Y004331D01*
X043059Y004232D01*
X043809Y004232D01*
X043809Y004112D01*
X043059Y004112D01*
X043072Y004014D01*
X043100Y003911D01*
X043141Y003813D01*
X043194Y003721D01*
X043258Y003637D01*
X043333Y003562D01*
X043418Y003497D01*
X043510Y003444D01*
X043608Y003404D01*
X043687Y003382D01*
X039310Y003382D01*
X039390Y003404D01*
X039488Y003444D01*
X039580Y003497D01*
X039664Y003562D01*
X039739Y003637D01*
X039804Y003721D01*
X039857Y003813D01*
X039897Y003911D01*
X039925Y004014D01*
X039938Y004112D01*
X039189Y004112D01*
X039189Y004232D01*
X039938Y004232D01*
X039925Y004331D01*
X039897Y004433D01*
X039857Y004531D01*
X039804Y004623D01*
X039739Y004707D01*
X039664Y004783D01*
X039580Y004847D01*
X039488Y004900D01*
X039390Y004941D01*
X039287Y004968D01*
X039189Y004981D01*
X039189Y004232D01*
X039069Y004232D01*
X039069Y004981D01*
X038970Y004968D01*
X038868Y004941D01*
X038770Y004900D01*
X038678Y004847D01*
X038593Y004783D01*
X038518Y004707D01*
X038454Y004623D01*
X038401Y004531D01*
X038360Y004433D01*
X038332Y004331D01*
X038319Y004232D01*
X039069Y004232D01*
X039069Y004112D01*
X038319Y004112D01*
X038332Y004014D01*
X038360Y003911D01*
X038401Y003813D01*
X038454Y003721D01*
X038518Y003637D01*
X038593Y003562D01*
X038678Y003497D01*
X038770Y003444D01*
X038868Y003404D01*
X038947Y003382D01*
X014750Y003382D01*
X014819Y003401D01*
X014918Y003442D01*
X015010Y003495D01*
X015095Y003560D01*
X015170Y003635D01*
X015235Y003720D01*
X015288Y003812D01*
X015329Y003910D01*
X015356Y004013D01*
X015370Y004112D01*
X014618Y004112D01*
X014618Y004232D01*
X015370Y004232D01*
X015356Y004331D01*
X015329Y004434D01*
X015288Y004532D01*
X015235Y004625D01*
X015170Y004709D01*
X015095Y004785D01*
X015010Y004849D01*
X014918Y004903D01*
X014819Y004943D01*
X014717Y004971D01*
X014618Y004984D01*
X014618Y004232D01*
X014498Y004232D01*
X014498Y004984D01*
X014399Y004971D01*
X014296Y004943D01*
X014197Y004903D01*
X014105Y004849D01*
X014021Y004785D01*
X013945Y004709D01*
X013880Y004625D01*
X013827Y004532D01*
X013786Y004434D01*
X013759Y004331D01*
X013746Y004232D01*
X014498Y004232D01*
X014498Y004112D01*
X013746Y004112D01*
X013759Y004013D01*
X013786Y003910D01*
X013827Y003812D01*
X013880Y003720D01*
X013945Y003635D01*
X014021Y003560D01*
X014105Y003495D01*
X014197Y003442D01*
X014296Y003401D01*
X014366Y003382D01*
X009576Y003382D01*
X009646Y003401D01*
X009745Y003442D01*
X009837Y003495D01*
X009921Y003560D01*
X009997Y003635D01*
X010062Y003720D01*
X010115Y003812D01*
X010156Y003910D01*
X010183Y004013D01*
X010196Y004112D01*
X009444Y004112D01*
X009444Y004232D01*
X009324Y004232D01*
X009324Y004112D01*
X008573Y004112D01*
X008586Y004013D01*
X008613Y003910D01*
X008654Y003812D01*
X008707Y003720D01*
X008772Y003635D01*
X008847Y003560D01*
X008932Y003495D01*
X009024Y003442D01*
X009123Y003401D01*
X009192Y003382D01*
X007436Y003382D01*
X007515Y003404D01*
X007613Y003444D01*
X007705Y003497D01*
X007790Y003562D01*
X007865Y003637D01*
X007929Y003721D01*
X007982Y003813D01*
X008023Y003911D01*
X008051Y004014D01*
X008063Y004112D01*
X007314Y004112D01*
X007314Y004232D01*
X007194Y004232D01*
X007194Y004112D01*
X006445Y004112D01*
X006458Y004014D01*
X006486Y003911D01*
X006526Y003813D01*
X006579Y003721D01*
X006644Y003637D01*
X006719Y003562D01*
X006803Y003497D01*
X006895Y003444D01*
X006993Y003404D01*
X007073Y003382D01*
X002696Y003382D01*
X002775Y003404D01*
X002873Y003444D01*
X002965Y003497D01*
X003050Y003562D01*
X003125Y003637D01*
X003189Y003721D01*
X003242Y003813D01*
X003283Y003911D01*
X003311Y004014D01*
X003323Y004112D01*
X002574Y004112D01*
X002574Y004232D01*
X002454Y004232D01*
X002454Y004112D01*
X001705Y004112D01*
X001718Y004014D01*
X001746Y003911D01*
X001786Y003813D01*
X001839Y003721D01*
X001904Y003637D01*
X001979Y003562D01*
X002063Y003497D01*
X002155Y003444D01*
X002253Y003404D01*
X002333Y003382D01*
X001341Y003382D01*
X001247Y003388D01*
X001218Y003396D02*
X002281Y003396D01*
X002041Y003515D02*
X000931Y003515D01*
X000800Y003633D02*
X001908Y003633D01*
X001822Y003752D02*
X000719Y003752D01*
X000663Y003870D02*
X001763Y003870D01*
X001725Y003989D02*
X000632Y003989D01*
X000620Y004107D02*
X001706Y004107D01*
X001705Y004232D02*
X002454Y004232D01*
X002454Y004981D01*
X002356Y004968D01*
X002253Y004941D01*
X002155Y004900D01*
X002063Y004847D01*
X001979Y004783D01*
X001904Y004707D01*
X001839Y004623D01*
X001786Y004531D01*
X001746Y004433D01*
X001718Y004331D01*
X001705Y004232D01*
X001722Y004344D02*
X000620Y004344D01*
X000620Y004226D02*
X002454Y004226D01*
X002454Y004344D02*
X002574Y004344D01*
X002574Y004232D02*
X002574Y004981D01*
X002673Y004968D01*
X002775Y004941D01*
X002873Y004900D01*
X002965Y004847D01*
X003050Y004783D01*
X003125Y004707D01*
X003189Y004623D01*
X003242Y004531D01*
X003283Y004433D01*
X003311Y004331D01*
X003323Y004232D01*
X002574Y004232D01*
X002574Y004226D02*
X007194Y004226D01*
X007194Y004232D02*
X006445Y004232D01*
X006458Y004331D01*
X006486Y004433D01*
X006526Y004531D01*
X006579Y004623D01*
X006644Y004707D01*
X006719Y004783D01*
X006803Y004847D01*
X006895Y004900D01*
X006993Y004941D01*
X007096Y004968D01*
X007194Y004981D01*
X007194Y004232D01*
X007194Y004344D02*
X007314Y004344D01*
X007314Y004232D02*
X007314Y004981D01*
X007413Y004968D01*
X007515Y004941D01*
X007613Y004900D01*
X007705Y004847D01*
X007790Y004783D01*
X007865Y004707D01*
X007929Y004623D01*
X007982Y004531D01*
X008023Y004433D01*
X008051Y004331D01*
X008063Y004232D01*
X007314Y004232D01*
X007314Y004226D02*
X009324Y004226D01*
X009324Y004232D02*
X008573Y004232D01*
X008586Y004331D01*
X008613Y004434D01*
X008654Y004532D01*
X008707Y004625D01*
X008772Y004709D01*
X008847Y004785D01*
X008932Y004849D01*
X009024Y004903D01*
X009123Y004943D01*
X009226Y004971D01*
X009324Y004984D01*
X009324Y004232D01*
X009324Y004344D02*
X009444Y004344D01*
X009444Y004232D02*
X009444Y004984D01*
X009543Y004971D01*
X009646Y004943D01*
X009745Y004903D01*
X009837Y004849D01*
X009921Y004785D01*
X009997Y004709D01*
X010062Y004625D01*
X010115Y004532D01*
X010156Y004434D01*
X010183Y004331D01*
X010196Y004232D01*
X009444Y004232D01*
X009444Y004226D02*
X014498Y004226D01*
X014498Y004344D02*
X014618Y004344D01*
X014618Y004226D02*
X026058Y004226D01*
X026022Y004344D02*
X015353Y004344D01*
X015317Y004463D02*
X015630Y004463D01*
X015541Y004581D02*
X015260Y004581D01*
X015177Y004700D02*
X015452Y004700D01*
X015363Y004818D02*
X015051Y004818D01*
X014836Y004937D02*
X015274Y004937D01*
X015185Y005055D02*
X013885Y005055D01*
X013796Y004937D02*
X014279Y004937D01*
X014498Y004937D02*
X014618Y004937D01*
X014618Y004818D02*
X014498Y004818D01*
X014498Y004700D02*
X014618Y004700D01*
X014618Y004581D02*
X014498Y004581D01*
X014498Y004463D02*
X014618Y004463D01*
X014064Y004818D02*
X013707Y004818D01*
X013618Y004700D02*
X013938Y004700D01*
X013855Y004581D02*
X013529Y004581D01*
X013440Y004463D02*
X013798Y004463D01*
X013762Y004344D02*
X010180Y004344D01*
X010144Y004463D02*
X010369Y004463D01*
X010251Y004581D02*
X010087Y004581D01*
X010132Y004700D02*
X010004Y004700D01*
X010014Y004818D02*
X009878Y004818D01*
X009895Y004937D02*
X009663Y004937D01*
X009777Y005055D02*
X006793Y005055D01*
X006675Y004937D02*
X006983Y004937D01*
X007194Y004937D02*
X007314Y004937D01*
X007314Y004818D02*
X007194Y004818D01*
X007194Y004700D02*
X007314Y004700D01*
X007314Y004581D02*
X007194Y004581D01*
X007194Y004463D02*
X007314Y004463D01*
X007525Y004937D02*
X009106Y004937D01*
X009324Y004937D02*
X009444Y004937D01*
X009444Y004818D02*
X009324Y004818D01*
X009324Y004700D02*
X009444Y004700D01*
X009444Y004581D02*
X009324Y004581D01*
X009324Y004463D02*
X009444Y004463D01*
X008891Y004818D02*
X007743Y004818D01*
X007871Y004700D02*
X008765Y004700D01*
X008682Y004581D02*
X007954Y004581D01*
X008011Y004463D02*
X008625Y004463D01*
X008589Y004344D02*
X008047Y004344D01*
X008063Y004107D02*
X008573Y004107D01*
X008592Y003989D02*
X008044Y003989D01*
X008006Y003870D02*
X008630Y003870D01*
X008689Y003752D02*
X007947Y003752D01*
X007861Y003633D02*
X008774Y003633D01*
X008906Y003515D02*
X007728Y003515D01*
X007488Y003396D02*
X009140Y003396D01*
X009629Y003396D02*
X014313Y003396D01*
X014079Y003515D02*
X009863Y003515D01*
X009995Y003633D02*
X013947Y003633D01*
X013862Y003752D02*
X010080Y003752D01*
X010139Y003870D02*
X013803Y003870D01*
X013765Y003989D02*
X010177Y003989D01*
X010196Y004107D02*
X013746Y004107D01*
X013300Y004642D02*
X010501Y004642D01*
X009501Y005642D01*
X007069Y005642D01*
X006940Y005513D01*
X006069Y004642D01*
X003501Y004642D01*
X002880Y005263D01*
X002880Y005622D01*
X002928Y005575D01*
X003608Y004895D01*
X003758Y004832D01*
X004109Y004832D01*
X004115Y004827D01*
X004295Y004752D01*
X004490Y004752D01*
X004670Y004827D01*
X004808Y004965D01*
X004882Y005145D01*
X004882Y005340D01*
X004808Y005520D01*
X004695Y005632D01*
X004808Y005745D01*
X004882Y005925D01*
X004882Y006120D01*
X004808Y006300D01*
X004670Y006438D01*
X004490Y006512D01*
X004295Y006512D01*
X004115Y006438D01*
X003977Y006300D01*
X003902Y006120D01*
X003902Y005925D01*
X003977Y005745D01*
X004069Y005652D01*
X004010Y005652D01*
X003570Y006092D01*
X003570Y006252D01*
X005330Y008012D01*
X007490Y008012D01*
X010147Y005356D01*
X010136Y005330D01*
X010136Y005148D01*
X010206Y004980D01*
X010334Y004852D01*
X010502Y004782D01*
X010684Y004782D01*
X010852Y004852D01*
X010980Y004980D01*
X011050Y005148D01*
X011050Y005330D01*
X011003Y005443D01*
X011003Y005571D01*
X010941Y005721D01*
X010825Y005837D01*
X007954Y008708D01*
X007965Y008718D01*
X008020Y008851D01*
X008020Y009138D01*
X008046Y009164D01*
X008115Y009332D01*
X008115Y009513D01*
X008046Y009680D01*
X007918Y009808D01*
X007751Y009877D01*
X007569Y009877D01*
X007402Y009808D01*
X007274Y009680D01*
X007205Y009513D01*
X007205Y009332D01*
X007274Y009164D01*
X007300Y009138D01*
X007300Y009071D01*
X007061Y008832D01*
X007020Y008832D01*
X007020Y009138D01*
X007046Y009164D01*
X007115Y009332D01*
X007115Y009513D01*
X007046Y009680D01*
X006918Y009808D01*
X006751Y009877D01*
X006569Y009877D01*
X006402Y009808D01*
X006274Y009680D01*
X006205Y009513D01*
X006205Y009332D01*
X006274Y009164D01*
X006300Y009138D01*
X006300Y008832D01*
X005078Y008832D01*
X004928Y008770D01*
X004812Y008654D01*
X003880Y007722D01*
X003880Y014013D01*
X003751Y014142D01*
X003251Y014642D01*
X000620Y014642D01*
X000620Y029300D01*
X000626Y029394D01*
X000675Y029576D01*
X000769Y029739D01*
X000902Y029872D01*
X001065Y029966D01*
X001247Y030015D01*
X001341Y030021D01*
X052129Y030021D01*
X052223Y030015D01*
X052404Y029966D01*
X052567Y029872D01*
X052701Y029739D01*
X052795Y029576D01*
X052843Y029394D01*
X052850Y029300D01*
X052850Y012392D01*
X050319Y012392D01*
X050190Y012263D01*
X049440Y011513D01*
X049440Y004642D01*
X047251Y004642D01*
X047107Y004786D01*
X047116Y004782D01*
X047298Y004782D01*
X047466Y004852D01*
X047595Y004980D01*
X047664Y005148D01*
X047664Y005330D01*
X047617Y005443D01*
X047617Y005457D01*
X047555Y005607D01*
X047439Y005723D01*
X044454Y008708D01*
X044465Y008718D01*
X044520Y008851D01*
X044520Y009138D01*
X044546Y009164D01*
X044615Y009332D01*
X044615Y009513D01*
X044546Y009680D01*
X044418Y009808D01*
X044251Y009877D01*
X044069Y009877D01*
X043902Y009808D01*
X043774Y009680D01*
X043705Y009513D01*
X043705Y009332D01*
X043774Y009164D01*
X043800Y009138D01*
X043800Y009071D01*
X043561Y008832D01*
X043520Y008832D01*
X043520Y009138D01*
X043546Y009164D01*
X043615Y009332D01*
X043615Y009513D01*
X043546Y009680D01*
X043418Y009808D01*
X043251Y009877D01*
X043069Y009877D01*
X042902Y009808D01*
X042774Y009680D01*
X042705Y009513D01*
X042705Y009332D01*
X042774Y009164D01*
X042800Y009138D01*
X042800Y008832D01*
X041578Y008832D01*
X041428Y008770D01*
X041312Y008654D01*
X039312Y006654D01*
X039250Y006504D01*
X039250Y005841D01*
X039312Y005690D01*
X039428Y005575D01*
X039610Y005392D01*
X038569Y005392D01*
X038440Y005263D01*
X037819Y004642D01*
X031011Y004642D01*
X031011Y005036D01*
X030944Y005197D01*
X030821Y005320D01*
X030660Y005387D01*
X030486Y005387D01*
X030326Y005320D01*
X030203Y005197D01*
X030136Y005036D01*
X030136Y004642D01*
X030026Y004642D01*
X030026Y004644D01*
X029618Y004644D01*
X029618Y004701D01*
X030026Y004701D01*
X030026Y004984D01*
X030016Y005052D01*
X029994Y005117D01*
X029963Y005178D01*
X029923Y005234D01*
X029874Y005283D01*
X029818Y005323D01*
X029757Y005355D01*
X029692Y005376D01*
X029624Y005387D01*
X029618Y005387D01*
X029618Y004701D01*
X029561Y004701D01*
X029561Y005387D01*
X029555Y005387D01*
X029487Y005376D01*
X029421Y005355D01*
X029360Y005323D01*
X029304Y005283D01*
X029256Y005234D01*
X029215Y005178D01*
X029184Y005117D01*
X029163Y005052D01*
X029152Y004984D01*
X029152Y004701D01*
X029561Y004701D01*
X029561Y004644D01*
X029152Y004644D01*
X029152Y004642D01*
X027861Y004642D01*
X027861Y005036D01*
X027794Y005197D01*
X027671Y005320D01*
X027511Y005387D01*
X027337Y005387D01*
X027176Y005320D01*
X027053Y005197D01*
X026987Y005036D01*
X026987Y004642D01*
X026877Y004642D01*
X026877Y004644D01*
X026468Y004644D01*
X026468Y004701D01*
X026411Y004701D01*
X026411Y005387D01*
X026405Y005387D01*
X026337Y005376D01*
X026272Y005355D01*
X026210Y005323D01*
X026155Y005283D01*
X026106Y005234D01*
X026066Y005178D01*
X026034Y005117D01*
X026013Y005052D01*
X026002Y004984D01*
X026002Y004701D01*
X026411Y004701D01*
X026411Y004644D01*
X026002Y004644D01*
X026002Y004642D01*
X015770Y004642D01*
X015130Y005496D01*
X015130Y005513D01*
X015077Y005567D01*
X015031Y005627D01*
X015014Y005630D01*
X015001Y005642D01*
X014926Y005642D01*
X014851Y005653D01*
X014837Y005642D01*
X014233Y005642D01*
X014219Y005653D01*
X014144Y005642D01*
X014069Y005642D01*
X014056Y005630D01*
X014039Y005627D01*
X013993Y005567D01*
X013940Y005513D01*
X013940Y005496D01*
X013806Y005317D01*
X013806Y005330D01*
X013736Y005498D01*
X013608Y005627D01*
X013440Y005696D01*
X013258Y005696D01*
X013090Y005627D01*
X012962Y005498D01*
X012892Y005330D01*
X012892Y005148D01*
X012962Y004980D01*
X013090Y004852D01*
X013258Y004782D01*
X013405Y004782D01*
X013300Y004642D01*
X013343Y004700D02*
X010444Y004700D01*
X010416Y004818D02*
X010325Y004818D01*
X010249Y004937D02*
X010207Y004937D01*
X010175Y005055D02*
X010088Y005055D01*
X010136Y005174D02*
X009970Y005174D01*
X009851Y005292D02*
X010136Y005292D01*
X010092Y005411D02*
X009733Y005411D01*
X009614Y005529D02*
X009973Y005529D01*
X009855Y005648D02*
X005695Y005648D01*
X005679Y005632D02*
X005792Y005745D01*
X005867Y005925D01*
X005867Y006120D01*
X005792Y006300D01*
X005654Y006438D01*
X005474Y006512D01*
X005279Y006512D01*
X005099Y006438D01*
X004961Y006300D01*
X004887Y006120D01*
X004887Y005925D01*
X004961Y005745D01*
X005074Y005632D01*
X004961Y005520D01*
X004887Y005340D01*
X004887Y005145D01*
X004961Y004965D01*
X005099Y004827D01*
X005279Y004752D01*
X005474Y004752D01*
X005654Y004827D01*
X005792Y004965D01*
X005867Y005145D01*
X005867Y005340D01*
X005792Y005520D01*
X005679Y005632D01*
X005782Y005529D02*
X006956Y005529D01*
X006837Y005411D02*
X005837Y005411D01*
X005867Y005292D02*
X006719Y005292D01*
X006600Y005174D02*
X005867Y005174D01*
X005829Y005055D02*
X006482Y005055D01*
X006363Y004937D02*
X005764Y004937D01*
X005633Y004818D02*
X006245Y004818D01*
X006126Y004700D02*
X003444Y004700D01*
X003325Y004818D02*
X004135Y004818D01*
X004649Y004818D02*
X005120Y004818D01*
X004989Y004937D02*
X004780Y004937D01*
X004845Y005055D02*
X004924Y005055D01*
X004887Y005174D02*
X004882Y005174D01*
X004882Y005292D02*
X004887Y005292D01*
X004916Y005411D02*
X004853Y005411D01*
X004798Y005529D02*
X004971Y005529D01*
X005058Y005648D02*
X004711Y005648D01*
X004817Y005766D02*
X004952Y005766D01*
X004903Y005885D02*
X004866Y005885D01*
X004882Y006003D02*
X004887Y006003D01*
X004881Y006122D02*
X004887Y006122D01*
X004936Y006240D02*
X004832Y006240D01*
X004749Y006359D02*
X005020Y006359D01*
X005195Y006477D02*
X004574Y006477D01*
X004210Y006477D02*
X003795Y006477D01*
X003676Y006359D02*
X004036Y006359D01*
X003952Y006240D02*
X003570Y006240D01*
X003570Y006122D02*
X003903Y006122D01*
X003902Y006003D02*
X003659Y006003D01*
X003777Y005885D02*
X003919Y005885D01*
X003896Y005766D02*
X003968Y005766D01*
X003329Y005174D02*
X002970Y005174D01*
X002880Y005292D02*
X003210Y005292D01*
X003092Y005411D02*
X002880Y005411D01*
X002880Y005529D02*
X002973Y005529D01*
X002660Y005529D02*
X000620Y005529D01*
X000620Y005411D02*
X002660Y005411D01*
X002660Y005292D02*
X000620Y005292D01*
X000620Y005174D02*
X002660Y005174D01*
X002777Y005055D02*
X000620Y005055D01*
X000620Y004937D02*
X002243Y004937D01*
X002454Y004937D02*
X002574Y004937D01*
X002574Y004818D02*
X002454Y004818D01*
X002454Y004700D02*
X002574Y004700D01*
X002574Y004581D02*
X002454Y004581D01*
X002454Y004463D02*
X002574Y004463D01*
X002785Y004937D02*
X002895Y004937D01*
X003003Y004818D02*
X003014Y004818D01*
X003131Y004700D02*
X003132Y004700D01*
X003214Y004581D02*
X003251Y004581D01*
X003271Y004463D02*
X003369Y004463D01*
X003307Y004344D02*
X006462Y004344D01*
X006498Y004463D02*
X006201Y004463D01*
X006319Y004581D02*
X006555Y004581D01*
X006638Y004700D02*
X006438Y004700D01*
X006556Y004818D02*
X006766Y004818D01*
X006912Y005174D02*
X009658Y005174D01*
X009540Y005292D02*
X007030Y005292D01*
X007149Y005411D02*
X009421Y005411D01*
X009736Y005766D02*
X005801Y005766D01*
X005850Y005885D02*
X009618Y005885D01*
X009499Y006003D02*
X005867Y006003D01*
X005866Y006122D02*
X009381Y006122D01*
X009262Y006240D02*
X005817Y006240D01*
X005733Y006359D02*
X009144Y006359D01*
X009025Y006477D02*
X005558Y006477D01*
X004387Y007070D02*
X008433Y007070D01*
X008551Y006951D02*
X004269Y006951D01*
X004150Y006833D02*
X008670Y006833D01*
X008788Y006714D02*
X004032Y006714D01*
X003913Y006596D02*
X008907Y006596D01*
X009592Y007070D02*
X039728Y007070D01*
X039846Y007188D02*
X009474Y007188D01*
X009355Y007307D02*
X039965Y007307D01*
X040083Y007425D02*
X036613Y007425D01*
X036581Y007407D02*
X036829Y007550D01*
X037032Y007753D01*
X037176Y008002D01*
X037250Y008279D01*
X037250Y008566D01*
X037176Y008843D01*
X037032Y009091D01*
X036829Y009294D01*
X036581Y009438D01*
X036303Y009512D01*
X036017Y009512D01*
X035739Y009438D01*
X035491Y009294D01*
X035288Y009091D01*
X035144Y008843D01*
X035070Y008566D01*
X035070Y008279D01*
X035144Y008002D01*
X035288Y007753D01*
X035491Y007550D01*
X035739Y007407D01*
X036017Y007332D01*
X036303Y007332D01*
X036581Y007407D01*
X036818Y007544D02*
X040202Y007544D01*
X040320Y007662D02*
X036941Y007662D01*
X037048Y007781D02*
X040439Y007781D01*
X040557Y007899D02*
X037117Y007899D01*
X037180Y008018D02*
X040676Y008018D01*
X040794Y008136D02*
X037212Y008136D01*
X037243Y008255D02*
X040913Y008255D01*
X041031Y008373D02*
X037250Y008373D01*
X037250Y008492D02*
X041150Y008492D01*
X041268Y008610D02*
X037238Y008610D01*
X037206Y008729D02*
X041387Y008729D01*
X042800Y008847D02*
X037173Y008847D01*
X037105Y008966D02*
X042800Y008966D01*
X042800Y009084D02*
X037036Y009084D01*
X036921Y009203D02*
X042758Y009203D01*
X042709Y009321D02*
X036783Y009321D01*
X036574Y009440D02*
X042705Y009440D01*
X042724Y009558D02*
X018051Y009558D01*
X018032Y009591D02*
X017829Y009794D01*
X017581Y009938D01*
X017492Y009962D01*
X017650Y010119D01*
X017650Y010525D01*
X017363Y010812D01*
X016957Y010812D01*
X016670Y010525D01*
X016670Y010119D01*
X016828Y009962D01*
X016739Y009938D01*
X016491Y009794D01*
X016288Y009591D01*
X016144Y009343D01*
X016070Y009066D01*
X016070Y008779D01*
X016144Y008502D01*
X016288Y008253D01*
X016491Y008050D01*
X016739Y007907D01*
X017017Y007832D01*
X017303Y007832D01*
X017581Y007907D01*
X017829Y008050D01*
X018032Y008253D01*
X018176Y008502D01*
X018250Y008779D01*
X018250Y009066D01*
X018176Y009343D01*
X018032Y009591D01*
X017947Y009677D02*
X042773Y009677D01*
X042889Y009795D02*
X017828Y009795D01*
X017622Y009914D02*
X049440Y009914D01*
X049440Y010032D02*
X030963Y010032D01*
X030863Y009932D02*
X031150Y010219D01*
X031150Y010625D01*
X030863Y010912D01*
X030457Y010912D01*
X030170Y010625D01*
X030170Y010219D01*
X030457Y009932D01*
X030863Y009932D01*
X031081Y010151D02*
X049440Y010151D01*
X049440Y010269D02*
X031150Y010269D01*
X031150Y010388D02*
X049440Y010388D01*
X049440Y010506D02*
X031150Y010506D01*
X031150Y010625D02*
X049440Y010625D01*
X049440Y010743D02*
X031032Y010743D01*
X030913Y010862D02*
X049440Y010862D01*
X049440Y010980D02*
X030911Y010980D01*
X030863Y010932D02*
X031150Y011219D01*
X031150Y011625D01*
X030863Y011912D01*
X030457Y011912D01*
X030170Y011625D01*
X030170Y011219D01*
X030457Y010932D01*
X030863Y010932D01*
X031029Y011099D02*
X049440Y011099D01*
X049440Y011217D02*
X031148Y011217D01*
X031150Y011336D02*
X049440Y011336D01*
X049440Y011454D02*
X047885Y011454D01*
X047863Y011432D02*
X048150Y011719D01*
X048150Y011902D01*
X047680Y011902D01*
X047680Y011432D01*
X047863Y011432D01*
X047680Y011454D02*
X047640Y011454D01*
X047640Y011432D02*
X047640Y011902D01*
X047680Y011902D01*
X047680Y011942D01*
X048150Y011942D01*
X048150Y012125D01*
X047863Y012412D01*
X047680Y012412D01*
X047680Y011942D01*
X047640Y011942D01*
X047640Y011902D01*
X047170Y011902D01*
X047170Y011719D01*
X047457Y011432D01*
X047640Y011432D01*
X047640Y011573D02*
X047680Y011573D01*
X047680Y011691D02*
X047640Y011691D01*
X047640Y011810D02*
X047680Y011810D01*
X047680Y011928D02*
X049855Y011928D01*
X049736Y011810D02*
X048150Y011810D01*
X048122Y011691D02*
X049618Y011691D01*
X049499Y011573D02*
X048003Y011573D01*
X048150Y012047D02*
X049973Y012047D01*
X050092Y012165D02*
X048110Y012165D01*
X047991Y012284D02*
X050210Y012284D01*
X050403Y012165D02*
X052850Y012165D01*
X052850Y012047D02*
X051658Y012047D01*
X051511Y012086D02*
X051171Y012086D01*
X050843Y011998D01*
X050549Y011828D01*
X050309Y011588D01*
X050139Y011294D01*
X050051Y010966D01*
X050051Y010626D01*
X050139Y010298D01*
X050309Y010004D01*
X050549Y009764D01*
X050843Y009594D01*
X051171Y009506D01*
X051511Y009506D01*
X051839Y009594D01*
X052133Y009764D01*
X052373Y010004D01*
X052543Y010298D01*
X052631Y010626D01*
X052631Y010966D01*
X052543Y011294D01*
X052373Y011588D01*
X052133Y011828D01*
X051839Y011998D01*
X051511Y012086D01*
X051960Y011928D02*
X052850Y011928D01*
X052850Y011810D02*
X052152Y011810D01*
X052270Y011691D02*
X052850Y011691D01*
X052850Y011573D02*
X052382Y011573D01*
X052451Y011454D02*
X052850Y011454D01*
X052850Y011336D02*
X052519Y011336D01*
X052564Y011217D02*
X052850Y011217D01*
X052850Y011099D02*
X052596Y011099D01*
X052627Y010980D02*
X052850Y010980D01*
X052850Y010862D02*
X052631Y010862D01*
X052631Y010743D02*
X052850Y010743D01*
X052850Y010625D02*
X052631Y010625D01*
X052599Y010506D02*
X052850Y010506D01*
X052850Y010388D02*
X052567Y010388D01*
X052526Y010269D02*
X052850Y010269D01*
X052850Y010151D02*
X052458Y010151D01*
X052390Y010032D02*
X052850Y010032D01*
X052850Y009914D02*
X052283Y009914D01*
X052164Y009795D02*
X052850Y009795D01*
X052850Y009677D02*
X051982Y009677D01*
X051705Y009558D02*
X052850Y009558D01*
X052850Y009440D02*
X049660Y009440D01*
X049660Y009558D02*
X050977Y009558D01*
X050700Y009677D02*
X049660Y009677D01*
X049660Y009795D02*
X050518Y009795D01*
X050399Y009914D02*
X049660Y009914D01*
X049660Y010032D02*
X050293Y010032D01*
X050224Y010151D02*
X049660Y010151D01*
X049660Y010269D02*
X050156Y010269D01*
X050115Y010388D02*
X049660Y010388D01*
X049660Y010506D02*
X050083Y010506D01*
X050052Y010625D02*
X049660Y010625D01*
X049660Y010743D02*
X050051Y010743D01*
X050051Y010862D02*
X049660Y010862D01*
X049660Y010980D02*
X050055Y010980D01*
X050087Y011099D02*
X049660Y011099D01*
X049660Y011217D02*
X050118Y011217D01*
X050163Y011336D02*
X049660Y011336D01*
X049692Y011454D02*
X050231Y011454D01*
X050300Y011573D02*
X049811Y011573D01*
X049929Y011691D02*
X050412Y011691D01*
X050530Y011810D02*
X050048Y011810D01*
X050166Y011928D02*
X050722Y011928D01*
X051024Y012047D02*
X050285Y012047D01*
X047873Y012402D02*
X052850Y012402D01*
X052850Y012521D02*
X017650Y012521D01*
X017650Y012525D02*
X017363Y012812D01*
X016957Y012812D01*
X016670Y012525D01*
X016670Y012119D01*
X016957Y011832D01*
X017363Y011832D01*
X017650Y012119D01*
X017650Y012525D01*
X017650Y012402D02*
X043447Y012402D01*
X043457Y012412D02*
X043170Y012125D01*
X043170Y011719D01*
X043457Y011432D01*
X043863Y011432D01*
X044150Y011719D01*
X044150Y012125D01*
X043863Y012412D01*
X043457Y012412D01*
X043329Y012284D02*
X017650Y012284D01*
X017650Y012165D02*
X043210Y012165D01*
X043170Y012047D02*
X017577Y012047D01*
X017459Y011928D02*
X043170Y011928D01*
X043170Y011810D02*
X030965Y011810D01*
X031084Y011691D02*
X043198Y011691D01*
X043317Y011573D02*
X031150Y011573D01*
X031150Y011454D02*
X043435Y011454D01*
X043885Y011454D02*
X047435Y011454D01*
X047317Y011573D02*
X044003Y011573D01*
X044122Y011691D02*
X047198Y011691D01*
X047170Y011810D02*
X044150Y011810D01*
X044150Y011928D02*
X047640Y011928D01*
X047640Y011942D02*
X047170Y011942D01*
X047170Y012125D01*
X047457Y012412D01*
X047640Y012412D01*
X047640Y011942D01*
X047640Y012047D02*
X047680Y012047D01*
X047680Y012165D02*
X047640Y012165D01*
X047640Y012284D02*
X047680Y012284D01*
X047680Y012402D02*
X047640Y012402D01*
X047447Y012402D02*
X043873Y012402D01*
X043991Y012284D02*
X047329Y012284D01*
X047210Y012165D02*
X044110Y012165D01*
X044150Y012047D02*
X047170Y012047D01*
X044170Y013321D02*
X044170Y013524D01*
X044092Y013711D01*
X043949Y013855D01*
X043761Y013932D01*
X043559Y013932D01*
X043371Y013855D01*
X043228Y013711D01*
X043150Y013524D01*
X043150Y013321D01*
X043228Y013133D01*
X043371Y012990D01*
X043559Y012912D01*
X043761Y012912D01*
X043949Y012990D01*
X044092Y013133D01*
X044170Y013321D01*
X044170Y013350D02*
X052850Y013350D01*
X052850Y013232D02*
X044133Y013232D01*
X044072Y013113D02*
X052850Y013113D01*
X052850Y012995D02*
X043954Y012995D01*
X043366Y012995D02*
X017525Y012995D01*
X017407Y012876D02*
X052850Y012876D01*
X052850Y012758D02*
X017417Y012758D01*
X017363Y012832D02*
X017650Y013119D01*
X017650Y013284D01*
X017198Y013284D01*
X017198Y012832D01*
X017363Y012832D01*
X017198Y012876D02*
X017122Y012876D01*
X017122Y012832D02*
X017122Y013284D01*
X017198Y013284D01*
X017198Y013361D01*
X017122Y013361D01*
X017122Y013812D01*
X016957Y013812D01*
X016670Y013525D01*
X016670Y013361D01*
X017122Y013361D01*
X017122Y013284D01*
X016670Y013284D01*
X016670Y013119D01*
X016957Y012832D01*
X017122Y012832D01*
X017122Y012995D02*
X017198Y012995D01*
X017198Y013113D02*
X017122Y013113D01*
X017122Y013232D02*
X017198Y013232D01*
X017198Y013350D02*
X043150Y013350D01*
X043150Y013469D02*
X036399Y013469D01*
X036363Y013432D02*
X036650Y013719D01*
X036650Y014125D01*
X036363Y014412D01*
X035957Y014412D01*
X035670Y014125D01*
X035670Y013719D01*
X035957Y013432D01*
X036363Y013432D01*
X036518Y013587D02*
X043176Y013587D01*
X043225Y013706D02*
X036636Y013706D01*
X036650Y013824D02*
X043341Y013824D01*
X043979Y013824D02*
X052850Y013824D01*
X052850Y013706D02*
X044095Y013706D01*
X044144Y013587D02*
X052850Y013587D01*
X052850Y013469D02*
X044170Y013469D01*
X043248Y013113D02*
X017644Y013113D01*
X017650Y013232D02*
X043187Y013232D01*
X043431Y009795D02*
X043889Y009795D01*
X043773Y009677D02*
X043547Y009677D01*
X043596Y009558D02*
X043724Y009558D01*
X043705Y009440D02*
X043615Y009440D01*
X043611Y009321D02*
X043709Y009321D01*
X043758Y009203D02*
X043562Y009203D01*
X043520Y009084D02*
X043800Y009084D01*
X043694Y008966D02*
X043520Y008966D01*
X043520Y008847D02*
X043576Y008847D01*
X044470Y008729D02*
X049440Y008729D01*
X049440Y008847D02*
X044519Y008847D01*
X044520Y008966D02*
X049440Y008966D01*
X049440Y009084D02*
X044520Y009084D01*
X044562Y009203D02*
X049440Y009203D01*
X049440Y009321D02*
X044611Y009321D01*
X044615Y009440D02*
X049440Y009440D01*
X049440Y009558D02*
X044596Y009558D01*
X044547Y009677D02*
X049440Y009677D01*
X049440Y009795D02*
X044431Y009795D01*
X044552Y008610D02*
X049440Y008610D01*
X049440Y008492D02*
X044670Y008492D01*
X044789Y008373D02*
X049440Y008373D01*
X049440Y008255D02*
X044907Y008255D01*
X045026Y008136D02*
X049440Y008136D01*
X049440Y008018D02*
X045144Y008018D01*
X045263Y007899D02*
X049440Y007899D01*
X049440Y007781D02*
X045381Y007781D01*
X045500Y007662D02*
X049440Y007662D01*
X049440Y007544D02*
X045618Y007544D01*
X045737Y007425D02*
X049440Y007425D01*
X049440Y007307D02*
X045855Y007307D01*
X045974Y007188D02*
X049440Y007188D01*
X049440Y007070D02*
X046092Y007070D01*
X046211Y006951D02*
X049440Y006951D01*
X049440Y006833D02*
X046329Y006833D01*
X046448Y006714D02*
X049440Y006714D01*
X049440Y006596D02*
X046566Y006596D01*
X046685Y006477D02*
X049440Y006477D01*
X049440Y006359D02*
X046803Y006359D01*
X046922Y006240D02*
X049440Y006240D01*
X049440Y006122D02*
X047040Y006122D01*
X047159Y006003D02*
X049440Y006003D01*
X049440Y005885D02*
X047277Y005885D01*
X047396Y005766D02*
X049440Y005766D01*
X049440Y005648D02*
X049187Y005648D01*
X049238Y005627D02*
X049070Y005696D01*
X048888Y005696D01*
X048720Y005627D01*
X048592Y005498D01*
X048585Y005483D01*
X048579Y005498D01*
X048450Y005627D01*
X048282Y005696D01*
X048101Y005696D01*
X047933Y005627D01*
X047804Y005498D01*
X047735Y005330D01*
X047735Y005148D01*
X047804Y004980D01*
X047933Y004852D01*
X048101Y004782D01*
X048282Y004782D01*
X048450Y004852D01*
X048579Y004980D01*
X048585Y004996D01*
X048592Y004980D01*
X048720Y004852D01*
X048888Y004782D01*
X049070Y004782D01*
X049238Y004852D01*
X049366Y004980D01*
X049436Y005148D01*
X049436Y005330D01*
X049366Y005498D01*
X049238Y005627D01*
X049335Y005529D02*
X049440Y005529D01*
X049440Y005411D02*
X049402Y005411D01*
X049436Y005292D02*
X049440Y005292D01*
X049436Y005174D02*
X049440Y005174D01*
X049440Y005055D02*
X049397Y005055D01*
X049440Y004937D02*
X049322Y004937D01*
X049440Y004818D02*
X049156Y004818D01*
X049440Y004700D02*
X047194Y004700D01*
X047385Y004818D02*
X048014Y004818D01*
X047848Y004937D02*
X047551Y004937D01*
X047625Y005055D02*
X047773Y005055D01*
X047735Y005174D02*
X047664Y005174D01*
X047664Y005292D02*
X047735Y005292D01*
X047768Y005411D02*
X047631Y005411D01*
X047587Y005529D02*
X047835Y005529D01*
X047984Y005648D02*
X047514Y005648D01*
X048399Y005648D02*
X048771Y005648D01*
X048623Y005529D02*
X048548Y005529D01*
X048535Y004937D02*
X048635Y004937D01*
X048801Y004818D02*
X048369Y004818D01*
X047119Y004463D02*
X046758Y004463D01*
X046794Y004344D02*
X050376Y004344D01*
X050373Y004331D02*
X050360Y004232D01*
X051112Y004232D01*
X051112Y004984D01*
X051013Y004971D01*
X050910Y004943D01*
X050812Y004903D01*
X050719Y004849D01*
X050635Y004785D01*
X050559Y004709D01*
X050495Y004625D01*
X050441Y004532D01*
X050401Y004434D01*
X050373Y004331D01*
X050412Y004463D02*
X049660Y004463D01*
X049660Y004581D02*
X050469Y004581D01*
X050552Y004700D02*
X049660Y004700D01*
X049660Y004818D02*
X049838Y004818D01*
X050088Y004818D02*
X050679Y004818D01*
X050894Y004937D02*
X050278Y004937D01*
X050360Y005055D02*
X052850Y005055D01*
X052850Y004937D02*
X051450Y004937D01*
X051232Y004937D02*
X051112Y004937D01*
X051112Y004818D02*
X051232Y004818D01*
X051232Y004700D02*
X051112Y004700D01*
X051112Y004581D02*
X051232Y004581D01*
X051232Y004463D02*
X051112Y004463D01*
X051112Y004344D02*
X051232Y004344D01*
X051232Y004226D02*
X052850Y004226D01*
X052850Y004344D02*
X051967Y004344D01*
X051931Y004463D02*
X052850Y004463D01*
X052850Y004581D02*
X051874Y004581D01*
X051791Y004700D02*
X052850Y004700D01*
X052850Y004818D02*
X051665Y004818D01*
X051983Y004107D02*
X052850Y004107D01*
X052838Y003989D02*
X051964Y003989D01*
X051926Y003870D02*
X052806Y003870D01*
X052751Y003752D02*
X051868Y003752D01*
X051782Y003633D02*
X052669Y003633D01*
X052539Y003515D02*
X051650Y003515D01*
X051416Y003396D02*
X052252Y003396D01*
X050928Y003396D02*
X046243Y003396D01*
X046477Y003515D02*
X050694Y003515D01*
X050561Y003633D02*
X046609Y003633D01*
X046694Y003752D02*
X050476Y003752D01*
X050417Y003870D02*
X046753Y003870D01*
X046791Y003989D02*
X050380Y003989D01*
X050361Y004107D02*
X046810Y004107D01*
X046701Y004581D02*
X047001Y004581D01*
X046882Y004700D02*
X046618Y004700D01*
X046492Y004818D02*
X046764Y004818D01*
X046645Y004937D02*
X046277Y004937D01*
X046059Y004937D02*
X045939Y004937D01*
X045939Y004818D02*
X046059Y004818D01*
X046059Y004700D02*
X045939Y004700D01*
X045939Y004581D02*
X046059Y004581D01*
X046059Y004463D02*
X045939Y004463D01*
X045939Y004344D02*
X046059Y004344D01*
X046059Y004226D02*
X051112Y004226D01*
X050400Y005174D02*
X052850Y005174D01*
X052850Y005292D02*
X050400Y005292D01*
X050365Y005411D02*
X052850Y005411D01*
X052850Y005529D02*
X050291Y005529D01*
X050119Y005648D02*
X052850Y005648D01*
X052850Y005766D02*
X049660Y005766D01*
X049660Y005648D02*
X049808Y005648D01*
X049660Y005885D02*
X052850Y005885D01*
X052850Y006003D02*
X049660Y006003D01*
X049660Y006122D02*
X052850Y006122D01*
X052850Y006240D02*
X049660Y006240D01*
X049660Y006359D02*
X052850Y006359D01*
X052850Y006477D02*
X049660Y006477D01*
X049660Y006596D02*
X052850Y006596D01*
X052850Y006714D02*
X049660Y006714D01*
X049660Y006833D02*
X052850Y006833D01*
X052850Y006951D02*
X049660Y006951D01*
X049660Y007070D02*
X052850Y007070D01*
X052850Y007188D02*
X049660Y007188D01*
X049660Y007307D02*
X052850Y007307D01*
X052850Y007425D02*
X049660Y007425D01*
X049660Y007544D02*
X052850Y007544D01*
X052850Y007662D02*
X049660Y007662D01*
X049660Y007781D02*
X052850Y007781D01*
X052850Y007899D02*
X049660Y007899D01*
X049660Y008018D02*
X052850Y008018D01*
X052850Y008136D02*
X049660Y008136D01*
X049660Y008255D02*
X052850Y008255D01*
X052850Y008373D02*
X049660Y008373D01*
X049660Y008492D02*
X052850Y008492D01*
X052850Y008610D02*
X049660Y008610D01*
X049660Y008729D02*
X052850Y008729D01*
X052850Y008847D02*
X049660Y008847D01*
X049660Y008966D02*
X052850Y008966D01*
X052850Y009084D02*
X049660Y009084D01*
X049660Y009203D02*
X052850Y009203D01*
X052850Y009321D02*
X049660Y009321D01*
X052850Y012639D02*
X017536Y012639D01*
X016903Y012758D02*
X003880Y012758D01*
X003880Y012876D02*
X016913Y012876D01*
X016795Y012995D02*
X007454Y012995D01*
X007449Y012990D02*
X007592Y013133D01*
X007670Y013321D01*
X007670Y013524D01*
X007592Y013711D01*
X007449Y013855D01*
X007261Y013932D01*
X007059Y013932D01*
X006871Y013855D01*
X006728Y013711D01*
X006650Y013524D01*
X006650Y013321D01*
X006728Y013133D01*
X006871Y012990D01*
X007059Y012912D01*
X007261Y012912D01*
X007449Y012990D01*
X007572Y013113D02*
X016676Y013113D01*
X016670Y013232D02*
X007633Y013232D01*
X007670Y013350D02*
X017122Y013350D01*
X017198Y013361D02*
X017198Y013812D01*
X017363Y013812D01*
X017650Y013525D01*
X017650Y013361D01*
X017198Y013361D01*
X017198Y013469D02*
X017122Y013469D01*
X017122Y013587D02*
X017198Y013587D01*
X017198Y013706D02*
X017122Y013706D01*
X016957Y013832D02*
X017363Y013832D01*
X017650Y014119D01*
X017650Y014525D01*
X017363Y014812D01*
X016957Y014812D01*
X016670Y014525D01*
X016670Y014119D01*
X016957Y013832D01*
X016847Y013943D02*
X003880Y013943D01*
X003880Y013824D02*
X006841Y013824D01*
X006725Y013706D02*
X003880Y013706D01*
X003880Y013587D02*
X006676Y013587D01*
X006650Y013469D02*
X003880Y013469D01*
X003880Y013350D02*
X006650Y013350D01*
X006687Y013232D02*
X003880Y013232D01*
X003880Y013113D02*
X006748Y013113D01*
X006866Y012995D02*
X003880Y012995D01*
X003660Y012995D02*
X001900Y012995D01*
X001900Y012942D02*
X001900Y013125D01*
X001613Y013412D01*
X001430Y013412D01*
X001430Y012942D01*
X001900Y012942D01*
X001900Y012902D02*
X001430Y012902D01*
X001430Y012432D01*
X001613Y012432D01*
X001900Y012719D01*
X001900Y012902D01*
X001900Y012876D02*
X003660Y012876D01*
X003660Y012758D02*
X001900Y012758D01*
X001820Y012639D02*
X003660Y012639D01*
X003660Y012521D02*
X001701Y012521D01*
X001430Y012521D02*
X001390Y012521D01*
X001390Y012432D02*
X001390Y012902D01*
X001430Y012902D01*
X001430Y012942D01*
X001390Y012942D01*
X001390Y012902D01*
X000920Y012902D01*
X000920Y012719D01*
X001207Y012432D01*
X001390Y012432D01*
X001390Y012639D02*
X001430Y012639D01*
X001430Y012758D02*
X001390Y012758D01*
X001390Y012876D02*
X001430Y012876D01*
X001390Y012942D02*
X000920Y012942D01*
X000920Y013125D01*
X001207Y013412D01*
X001390Y013412D01*
X001390Y012942D01*
X001390Y012995D02*
X001430Y012995D01*
X001430Y013113D02*
X001390Y013113D01*
X001390Y013232D02*
X001430Y013232D01*
X001430Y013350D02*
X001390Y013350D01*
X001145Y013350D02*
X000620Y013350D01*
X000620Y013232D02*
X001027Y013232D01*
X000920Y013113D02*
X000620Y013113D01*
X000620Y012995D02*
X000920Y012995D01*
X000920Y012876D02*
X000620Y012876D01*
X000620Y012758D02*
X000920Y012758D01*
X001000Y012639D02*
X000620Y012639D01*
X000620Y012521D02*
X001119Y012521D01*
X000620Y012402D02*
X003660Y012402D01*
X003660Y012284D02*
X000620Y012284D01*
X000620Y012165D02*
X003660Y012165D01*
X003660Y012047D02*
X002519Y012047D01*
X002570Y012031D02*
X002447Y012068D01*
X002321Y012094D01*
X002193Y012106D01*
X002189Y012106D01*
X002189Y010856D01*
X003439Y010856D01*
X003439Y010861D01*
X003426Y010989D01*
X003401Y011115D01*
X003363Y011238D01*
X003314Y011357D01*
X003253Y011471D01*
X003182Y011578D01*
X003100Y011677D01*
X003009Y011768D01*
X002910Y011850D01*
X002803Y011921D01*
X002689Y011982D01*
X002570Y012031D01*
X002790Y011928D02*
X003660Y011928D01*
X003660Y011810D02*
X002959Y011810D01*
X003086Y011691D02*
X003660Y011691D01*
X003660Y011573D02*
X003185Y011573D01*
X003262Y011454D02*
X003660Y011454D01*
X003660Y011336D02*
X003323Y011336D01*
X003370Y011217D02*
X003660Y011217D01*
X003660Y011099D02*
X003404Y011099D01*
X003427Y010980D02*
X003660Y010980D01*
X003660Y010862D02*
X003438Y010862D01*
X003439Y010736D02*
X002189Y010736D01*
X002189Y010856D01*
X002069Y010856D01*
X002069Y012106D01*
X002064Y012106D01*
X001936Y012094D01*
X001810Y012068D01*
X001687Y012031D01*
X001568Y011982D01*
X001454Y011921D01*
X001347Y011850D01*
X001248Y011768D01*
X001157Y011677D01*
X001075Y011578D01*
X001004Y011471D01*
X000943Y011357D01*
X000894Y011238D01*
X000856Y011115D01*
X000831Y010989D01*
X000819Y010861D01*
X000819Y010856D01*
X002068Y010856D01*
X002068Y010736D01*
X000819Y010736D01*
X000819Y010732D01*
X000831Y010604D01*
X000856Y010478D01*
X000894Y010354D01*
X000943Y010235D01*
X001004Y010122D01*
X001075Y010015D01*
X001157Y009915D01*
X001248Y009824D01*
X001347Y009743D01*
X001454Y009671D01*
X001568Y009611D01*
X001687Y009561D01*
X001810Y009524D01*
X001936Y009499D01*
X002064Y009486D01*
X002069Y009486D01*
X002069Y010736D01*
X002189Y010736D01*
X002189Y009486D01*
X002193Y009486D01*
X002321Y009499D01*
X002447Y009524D01*
X002570Y009561D01*
X002689Y009611D01*
X002803Y009671D01*
X002910Y009743D01*
X003009Y009824D01*
X003100Y009915D01*
X003182Y010015D01*
X003253Y010122D01*
X003314Y010235D01*
X003363Y010354D01*
X003401Y010478D01*
X003426Y010604D01*
X003439Y010732D01*
X003439Y010736D01*
X003428Y010625D02*
X003660Y010625D01*
X003660Y010743D02*
X002189Y010743D01*
X002189Y010625D02*
X002069Y010625D01*
X002068Y010743D02*
X000620Y010743D01*
X000620Y010625D02*
X000829Y010625D01*
X000851Y010506D02*
X000620Y010506D01*
X000620Y010388D02*
X000883Y010388D01*
X000929Y010269D02*
X000620Y010269D01*
X000620Y010151D02*
X000988Y010151D01*
X001063Y010032D02*
X000620Y010032D01*
X000620Y009914D02*
X001158Y009914D01*
X001283Y009795D02*
X000620Y009795D01*
X000620Y009677D02*
X001446Y009677D01*
X001697Y009558D02*
X000620Y009558D01*
X000620Y009440D02*
X003660Y009440D01*
X003660Y009558D02*
X002560Y009558D01*
X002811Y009677D02*
X003660Y009677D01*
X003660Y009795D02*
X002974Y009795D01*
X003099Y009914D02*
X003660Y009914D01*
X003660Y010032D02*
X003194Y010032D01*
X003269Y010151D02*
X003660Y010151D01*
X003660Y010269D02*
X003328Y010269D01*
X003374Y010388D02*
X003660Y010388D01*
X003660Y010506D02*
X003406Y010506D01*
X003880Y010506D02*
X016670Y010506D01*
X016670Y010388D02*
X003880Y010388D01*
X003880Y010269D02*
X016670Y010269D01*
X016670Y010151D02*
X003880Y010151D01*
X003880Y010032D02*
X016757Y010032D01*
X016698Y009914D02*
X003880Y009914D01*
X003880Y009795D02*
X006389Y009795D01*
X006273Y009677D02*
X003880Y009677D01*
X003880Y009558D02*
X006224Y009558D01*
X006205Y009440D02*
X003880Y009440D01*
X003880Y009321D02*
X006209Y009321D01*
X006258Y009203D02*
X003880Y009203D01*
X003880Y009084D02*
X006300Y009084D01*
X006300Y008966D02*
X003880Y008966D01*
X003880Y008847D02*
X006300Y008847D01*
X007020Y008847D02*
X007076Y008847D01*
X007020Y008966D02*
X007194Y008966D01*
X007300Y009084D02*
X007020Y009084D01*
X007062Y009203D02*
X007258Y009203D01*
X007209Y009321D02*
X007111Y009321D01*
X007115Y009440D02*
X007205Y009440D01*
X007224Y009558D02*
X007096Y009558D01*
X007047Y009677D02*
X007273Y009677D01*
X007389Y009795D02*
X006931Y009795D01*
X007931Y009795D02*
X016492Y009795D01*
X016373Y009677D02*
X008047Y009677D01*
X008096Y009558D02*
X016269Y009558D01*
X016200Y009440D02*
X008115Y009440D01*
X008111Y009321D02*
X016139Y009321D01*
X016107Y009203D02*
X008062Y009203D01*
X008020Y009084D02*
X016075Y009084D01*
X016070Y008966D02*
X008020Y008966D01*
X008019Y008847D02*
X016070Y008847D01*
X016083Y008729D02*
X007970Y008729D01*
X008052Y008610D02*
X016115Y008610D01*
X016150Y008492D02*
X008170Y008492D01*
X008289Y008373D02*
X016218Y008373D01*
X016287Y008255D02*
X008407Y008255D01*
X008526Y008136D02*
X016405Y008136D01*
X016547Y008018D02*
X008644Y008018D01*
X008763Y007899D02*
X016767Y007899D01*
X017553Y007899D02*
X035203Y007899D01*
X035140Y008018D02*
X017773Y008018D01*
X017915Y008136D02*
X024884Y008136D01*
X024935Y008085D02*
X025081Y008025D01*
X025239Y008025D01*
X025385Y008085D01*
X025482Y008182D01*
X027708Y008182D01*
X027796Y008219D01*
X028102Y008525D01*
X028239Y008525D01*
X028385Y008585D01*
X028497Y008697D01*
X028557Y008843D01*
X028557Y009001D01*
X028497Y009147D01*
X028385Y009259D01*
X028239Y009320D01*
X028081Y009320D01*
X027935Y009259D01*
X027823Y009147D01*
X027763Y009001D01*
X027763Y008864D01*
X027561Y008662D01*
X025482Y008662D01*
X025385Y008759D01*
X025239Y008820D01*
X025081Y008820D01*
X024935Y008759D01*
X024823Y008647D01*
X024763Y008501D01*
X024763Y008343D01*
X024823Y008197D01*
X024935Y008085D01*
X024799Y008255D02*
X018033Y008255D01*
X018102Y008373D02*
X024763Y008373D01*
X024763Y008492D02*
X018170Y008492D01*
X018205Y008610D02*
X024808Y008610D01*
X024904Y008729D02*
X018237Y008729D01*
X018250Y008847D02*
X027746Y008847D01*
X027763Y008966D02*
X018250Y008966D01*
X018245Y009084D02*
X027797Y009084D01*
X027878Y009203D02*
X018213Y009203D01*
X018181Y009321D02*
X035537Y009321D01*
X035399Y009203D02*
X028442Y009203D01*
X028523Y009084D02*
X035284Y009084D01*
X035215Y008966D02*
X028557Y008966D01*
X028557Y008847D02*
X035147Y008847D01*
X035114Y008729D02*
X028510Y008729D01*
X028410Y008610D02*
X035082Y008610D01*
X035070Y008492D02*
X028069Y008492D01*
X027950Y008373D02*
X035070Y008373D01*
X035077Y008255D02*
X027832Y008255D01*
X027627Y008729D02*
X025416Y008729D01*
X025436Y008136D02*
X035108Y008136D01*
X035272Y007781D02*
X008881Y007781D01*
X009000Y007662D02*
X035379Y007662D01*
X035502Y007544D02*
X009118Y007544D01*
X009237Y007425D02*
X035707Y007425D01*
X038469Y005292D02*
X030849Y005292D01*
X030954Y005174D02*
X038350Y005174D01*
X038232Y005055D02*
X031003Y005055D01*
X031011Y004937D02*
X038113Y004937D01*
X037995Y004818D02*
X031011Y004818D01*
X031011Y004700D02*
X037876Y004700D01*
X038069Y004581D02*
X038429Y004581D01*
X038372Y004463D02*
X037951Y004463D01*
X038188Y004700D02*
X038512Y004700D01*
X038640Y004818D02*
X038306Y004818D01*
X038425Y004937D02*
X038858Y004937D01*
X039069Y004937D02*
X039189Y004937D01*
X039189Y004818D02*
X039069Y004818D01*
X039069Y004700D02*
X039189Y004700D01*
X039189Y004581D02*
X039069Y004581D01*
X039069Y004463D02*
X039189Y004463D01*
X039189Y004344D02*
X039069Y004344D01*
X039069Y004226D02*
X030955Y004226D01*
X030991Y004344D02*
X038336Y004344D01*
X038320Y004107D02*
X030876Y004107D01*
X030683Y003989D02*
X038339Y003989D01*
X038377Y003870D02*
X015312Y003870D01*
X015350Y003989D02*
X026330Y003989D01*
X026549Y003989D02*
X027315Y003989D01*
X027533Y003989D02*
X029480Y003989D01*
X029698Y003989D02*
X030464Y003989D01*
X030271Y004107D02*
X029891Y004107D01*
X029971Y004226D02*
X030192Y004226D01*
X030156Y004344D02*
X030006Y004344D01*
X029287Y004107D02*
X027726Y004107D01*
X027805Y004226D02*
X029208Y004226D01*
X029172Y004344D02*
X027841Y004344D01*
X027122Y004107D02*
X026742Y004107D01*
X026821Y004226D02*
X027042Y004226D01*
X027007Y004344D02*
X026857Y004344D01*
X026137Y004107D02*
X015369Y004107D01*
X015253Y003752D02*
X038436Y003752D01*
X038522Y003633D02*
X015168Y003633D01*
X015036Y003515D02*
X038655Y003515D01*
X038895Y003396D02*
X014802Y003396D01*
X015727Y004700D02*
X026411Y004700D01*
X026468Y004701D02*
X026468Y005387D01*
X026474Y005387D01*
X026542Y005376D01*
X026607Y005355D01*
X026669Y005323D01*
X026724Y005283D01*
X026773Y005234D01*
X026813Y005178D01*
X026845Y005117D01*
X026866Y005052D01*
X026877Y004984D01*
X026877Y004701D01*
X026468Y004701D01*
X026468Y004700D02*
X026987Y004700D01*
X026987Y004818D02*
X026877Y004818D01*
X026877Y004937D02*
X026987Y004937D01*
X026994Y005055D02*
X026865Y005055D01*
X026816Y005174D02*
X027044Y005174D01*
X027148Y005292D02*
X026711Y005292D01*
X026468Y005292D02*
X026411Y005292D01*
X026411Y005174D02*
X026468Y005174D01*
X026468Y005055D02*
X026411Y005055D01*
X026411Y004937D02*
X026468Y004937D01*
X026468Y004818D02*
X026411Y004818D01*
X026002Y004818D02*
X015638Y004818D01*
X015549Y004937D02*
X026002Y004937D01*
X026014Y005055D02*
X015460Y005055D01*
X015371Y005174D02*
X026063Y005174D01*
X026168Y005292D02*
X015282Y005292D01*
X015194Y005411D02*
X039592Y005411D01*
X039473Y005529D02*
X015114Y005529D01*
X014919Y005411D02*
X014151Y005411D01*
X014063Y005292D02*
X015007Y005292D01*
X015096Y005174D02*
X013974Y005174D01*
X013876Y005411D02*
X013772Y005411D01*
X013705Y005529D02*
X013956Y005529D01*
X014183Y005648D02*
X013557Y005648D01*
X013141Y005648D02*
X012572Y005648D01*
X012624Y005627D02*
X012456Y005696D01*
X012274Y005696D01*
X012106Y005627D01*
X011977Y005498D01*
X011971Y005483D01*
X011965Y005498D01*
X011836Y005627D01*
X011668Y005696D01*
X011486Y005696D01*
X011319Y005627D01*
X011190Y005498D01*
X011120Y005330D01*
X011120Y005148D01*
X011190Y004980D01*
X011319Y004852D01*
X011486Y004782D01*
X011668Y004782D01*
X011836Y004852D01*
X011965Y004980D01*
X011971Y004996D01*
X011977Y004980D01*
X012106Y004852D01*
X012274Y004782D01*
X012456Y004782D01*
X012624Y004852D01*
X012752Y004980D01*
X012822Y005148D01*
X012822Y005330D01*
X012752Y005498D01*
X012624Y005627D01*
X012721Y005529D02*
X012993Y005529D01*
X012926Y005411D02*
X012788Y005411D01*
X012822Y005292D02*
X012892Y005292D01*
X012892Y005174D02*
X012822Y005174D01*
X012783Y005055D02*
X012931Y005055D01*
X013005Y004937D02*
X012708Y004937D01*
X012542Y004818D02*
X013172Y004818D01*
X012187Y004818D02*
X011755Y004818D01*
X011921Y004937D02*
X012021Y004937D01*
X011400Y004818D02*
X010770Y004818D01*
X010937Y004937D02*
X011234Y004937D01*
X011159Y005055D02*
X011011Y005055D01*
X011050Y005174D02*
X011120Y005174D01*
X011120Y005292D02*
X011050Y005292D01*
X011016Y005411D02*
X011154Y005411D01*
X011221Y005529D02*
X011003Y005529D01*
X010971Y005648D02*
X011370Y005648D01*
X011785Y005648D02*
X012157Y005648D01*
X012009Y005529D02*
X011933Y005529D01*
X010896Y005766D02*
X039281Y005766D01*
X039250Y005885D02*
X010777Y005885D01*
X010825Y005837D02*
X010825Y005837D01*
X010659Y006003D02*
X025886Y006003D01*
X025957Y005932D02*
X026363Y005932D01*
X026650Y006219D01*
X026650Y006625D01*
X026363Y006912D01*
X025957Y006912D01*
X025670Y006625D01*
X025670Y006219D01*
X025957Y005932D01*
X025768Y006122D02*
X010540Y006122D01*
X010422Y006240D02*
X025670Y006240D01*
X025670Y006359D02*
X010303Y006359D01*
X010185Y006477D02*
X025670Y006477D01*
X025670Y006596D02*
X010066Y006596D01*
X009948Y006714D02*
X025759Y006714D01*
X025878Y006833D02*
X009829Y006833D01*
X009711Y006951D02*
X039609Y006951D01*
X039491Y006833D02*
X030942Y006833D01*
X030863Y006912D02*
X031150Y006625D01*
X031150Y006219D01*
X030863Y005932D01*
X030457Y005932D01*
X030170Y006219D01*
X030170Y006625D01*
X030457Y006912D01*
X030863Y006912D01*
X031061Y006714D02*
X039372Y006714D01*
X039288Y006596D02*
X031150Y006596D01*
X031150Y006477D02*
X039250Y006477D01*
X039250Y006359D02*
X031150Y006359D01*
X031150Y006240D02*
X039250Y006240D01*
X039250Y006122D02*
X031052Y006122D01*
X030934Y006003D02*
X039250Y006003D01*
X039355Y005648D02*
X014887Y005648D01*
X014844Y005648D02*
X014226Y005648D01*
X008314Y007188D02*
X004506Y007188D01*
X004624Y007307D02*
X008196Y007307D01*
X008077Y007425D02*
X004743Y007425D01*
X004861Y007544D02*
X007959Y007544D01*
X007840Y007662D02*
X004980Y007662D01*
X005098Y007781D02*
X007722Y007781D01*
X007603Y007899D02*
X005217Y007899D01*
X004531Y008373D02*
X003880Y008373D01*
X003880Y008255D02*
X004413Y008255D01*
X004294Y008136D02*
X003880Y008136D01*
X003880Y008018D02*
X004176Y008018D01*
X004057Y007899D02*
X003880Y007899D01*
X003880Y007781D02*
X003939Y007781D01*
X003660Y007781D02*
X000620Y007781D01*
X000620Y007899D02*
X003660Y007899D01*
X003660Y008018D02*
X000620Y008018D01*
X000620Y008136D02*
X003660Y008136D01*
X003660Y008255D02*
X000620Y008255D01*
X000620Y008373D02*
X003660Y008373D01*
X003660Y008492D02*
X000620Y008492D01*
X000620Y008610D02*
X003660Y008610D01*
X003660Y008729D02*
X000620Y008729D01*
X000620Y008847D02*
X003660Y008847D01*
X003660Y008966D02*
X000620Y008966D01*
X000620Y009084D02*
X003660Y009084D01*
X003660Y009203D02*
X000620Y009203D01*
X000620Y009321D02*
X003660Y009321D01*
X003880Y008729D02*
X004887Y008729D01*
X004768Y008610D02*
X003880Y008610D01*
X003880Y008492D02*
X004650Y008492D01*
X003660Y007662D02*
X000620Y007662D01*
X000620Y007544D02*
X003660Y007544D01*
X003611Y007425D02*
X000620Y007425D01*
X000620Y007307D02*
X003493Y007307D01*
X003374Y007188D02*
X000620Y007188D01*
X000620Y007070D02*
X003256Y007070D01*
X003137Y006951D02*
X000620Y006951D01*
X000620Y006833D02*
X003019Y006833D01*
X002900Y006714D02*
X000620Y006714D01*
X000620Y006596D02*
X002810Y006596D01*
X002770Y006477D02*
X000620Y006477D01*
X000620Y006359D02*
X002770Y006359D01*
X002770Y006240D02*
X000620Y006240D01*
X000620Y006122D02*
X002770Y006122D01*
X002741Y006003D02*
X000620Y006003D01*
X000620Y005885D02*
X002660Y005885D01*
X002660Y005766D02*
X000620Y005766D01*
X000620Y005648D02*
X002660Y005648D01*
X003088Y005055D02*
X003447Y005055D01*
X003566Y004937D02*
X003207Y004937D01*
X003323Y004107D02*
X006446Y004107D01*
X006465Y003989D02*
X003304Y003989D01*
X003266Y003870D02*
X006503Y003870D01*
X006562Y003752D02*
X003207Y003752D01*
X003121Y003633D02*
X006648Y003633D01*
X006781Y003515D02*
X002988Y003515D01*
X002748Y003396D02*
X007021Y003396D01*
X002026Y004818D02*
X000620Y004818D01*
X000620Y004700D02*
X001898Y004700D01*
X001815Y004581D02*
X000620Y004581D01*
X000620Y004463D02*
X001758Y004463D01*
X002069Y009558D02*
X002189Y009558D01*
X002189Y009677D02*
X002069Y009677D01*
X002069Y009795D02*
X002189Y009795D01*
X002189Y009914D02*
X002069Y009914D01*
X002069Y010032D02*
X002189Y010032D01*
X002189Y010151D02*
X002069Y010151D01*
X002069Y010269D02*
X002189Y010269D01*
X002189Y010388D02*
X002069Y010388D01*
X002069Y010506D02*
X002189Y010506D01*
X002189Y010862D02*
X002069Y010862D01*
X002069Y010980D02*
X002189Y010980D01*
X002189Y011099D02*
X002069Y011099D01*
X002069Y011217D02*
X002189Y011217D01*
X002189Y011336D02*
X002069Y011336D01*
X002069Y011454D02*
X002189Y011454D01*
X002189Y011573D02*
X002069Y011573D01*
X002069Y011691D02*
X002189Y011691D01*
X002189Y011810D02*
X002069Y011810D01*
X002069Y011928D02*
X002189Y011928D01*
X002189Y012047D02*
X002069Y012047D01*
X001738Y012047D02*
X000620Y012047D01*
X000620Y011928D02*
X001467Y011928D01*
X001298Y011810D02*
X000620Y011810D01*
X000620Y011691D02*
X001171Y011691D01*
X001072Y011573D02*
X000620Y011573D01*
X000620Y011454D02*
X000995Y011454D01*
X000934Y011336D02*
X000620Y011336D01*
X000620Y011217D02*
X000887Y011217D01*
X000853Y011099D02*
X000620Y011099D01*
X000620Y010980D02*
X000830Y010980D01*
X000819Y010862D02*
X000620Y010862D01*
X003880Y010862D02*
X016928Y010862D01*
X016957Y010832D02*
X017363Y010832D01*
X017650Y011119D01*
X017650Y011525D01*
X017363Y011812D01*
X016957Y011812D01*
X016670Y011525D01*
X016670Y011119D01*
X016957Y010832D01*
X016888Y010743D02*
X003880Y010743D01*
X003880Y010625D02*
X016770Y010625D01*
X016809Y010980D02*
X003880Y010980D01*
X003880Y011099D02*
X016691Y011099D01*
X016670Y011217D02*
X003880Y011217D01*
X003880Y011336D02*
X016670Y011336D01*
X016670Y011454D02*
X011385Y011454D01*
X011363Y011432D02*
X011650Y011719D01*
X011650Y011902D01*
X011180Y011902D01*
X011180Y011432D01*
X011363Y011432D01*
X011180Y011454D02*
X011140Y011454D01*
X011140Y011432D02*
X011140Y011902D01*
X011180Y011902D01*
X011180Y011942D01*
X011650Y011942D01*
X011650Y012125D01*
X011363Y012412D01*
X011180Y012412D01*
X011180Y011942D01*
X011140Y011942D01*
X011140Y011902D01*
X010670Y011902D01*
X010670Y011719D01*
X010957Y011432D01*
X011140Y011432D01*
X011140Y011573D02*
X011180Y011573D01*
X011180Y011691D02*
X011140Y011691D01*
X011140Y011810D02*
X011180Y011810D01*
X011180Y011928D02*
X016861Y011928D01*
X016955Y011810D02*
X011650Y011810D01*
X011622Y011691D02*
X016836Y011691D01*
X016718Y011573D02*
X011503Y011573D01*
X011650Y012047D02*
X016743Y012047D01*
X016670Y012165D02*
X011610Y012165D01*
X011491Y012284D02*
X016670Y012284D01*
X016670Y012402D02*
X011373Y012402D01*
X011180Y012402D02*
X011140Y012402D01*
X011140Y012412D02*
X010957Y012412D01*
X010670Y012125D01*
X010670Y011942D01*
X011140Y011942D01*
X011140Y012412D01*
X011140Y012284D02*
X011180Y012284D01*
X011180Y012165D02*
X011140Y012165D01*
X011140Y012047D02*
X011180Y012047D01*
X011140Y011928D02*
X007650Y011928D01*
X007650Y011810D02*
X010670Y011810D01*
X010698Y011691D02*
X007622Y011691D01*
X007650Y011719D02*
X007363Y011432D01*
X006957Y011432D01*
X006670Y011719D01*
X006670Y012125D01*
X006957Y012412D01*
X007363Y012412D01*
X007650Y012125D01*
X007650Y011719D01*
X007503Y011573D02*
X010817Y011573D01*
X010935Y011454D02*
X007385Y011454D01*
X006935Y011454D02*
X003880Y011454D01*
X003880Y011573D02*
X006817Y011573D01*
X006698Y011691D02*
X003880Y011691D01*
X003880Y011810D02*
X006670Y011810D01*
X006670Y011928D02*
X003880Y011928D01*
X003880Y012047D02*
X006670Y012047D01*
X006710Y012165D02*
X003880Y012165D01*
X003880Y012284D02*
X006829Y012284D01*
X006947Y012402D02*
X003880Y012402D01*
X003880Y012521D02*
X016670Y012521D01*
X016784Y012639D02*
X003880Y012639D01*
X003660Y013113D02*
X001900Y013113D01*
X001793Y013232D02*
X003660Y013232D01*
X003660Y013350D02*
X001675Y013350D01*
X002240Y013748D02*
X002486Y013502D01*
X002640Y013502D01*
X002640Y013902D01*
X002680Y013902D01*
X002680Y013502D01*
X002834Y013502D01*
X003080Y013748D01*
X003080Y013902D01*
X002680Y013902D01*
X002680Y013942D01*
X003080Y013942D01*
X003080Y014096D01*
X002834Y014342D01*
X002680Y014342D01*
X002680Y013942D01*
X002640Y013942D01*
X002640Y013902D01*
X002240Y013902D01*
X002240Y013748D01*
X002283Y013706D02*
X000620Y013706D01*
X000620Y013824D02*
X002240Y013824D01*
X002240Y013942D02*
X002640Y013942D01*
X002640Y014342D01*
X002486Y014342D01*
X002240Y014096D01*
X002240Y013942D01*
X002240Y013943D02*
X000620Y013943D01*
X000620Y014061D02*
X002240Y014061D01*
X002324Y014180D02*
X000620Y014180D01*
X000620Y014298D02*
X002442Y014298D01*
X002640Y014298D02*
X002680Y014298D01*
X002680Y014180D02*
X002640Y014180D01*
X002640Y014061D02*
X002680Y014061D01*
X002680Y013943D02*
X002640Y013943D01*
X002640Y013824D02*
X002680Y013824D01*
X002680Y013706D02*
X002640Y013706D01*
X002640Y013587D02*
X002680Y013587D01*
X002919Y013587D02*
X003660Y013587D01*
X003660Y013469D02*
X000620Y013469D01*
X000620Y013587D02*
X002401Y013587D01*
X003037Y013706D02*
X003660Y013706D01*
X003660Y013824D02*
X003080Y013824D01*
X003080Y013943D02*
X003639Y013943D01*
X003521Y014061D02*
X003080Y014061D01*
X002996Y014180D02*
X003402Y014180D01*
X003284Y014298D02*
X002878Y014298D01*
X003165Y014417D02*
X000620Y014417D01*
X000620Y014654D02*
X008829Y014654D01*
X008823Y014647D02*
X008763Y014501D01*
X008763Y014343D01*
X008823Y014197D01*
X008935Y014085D01*
X009081Y014025D01*
X009239Y014025D01*
X009385Y014085D01*
X009497Y014197D01*
X009557Y014343D01*
X009557Y014424D01*
X015026Y019892D01*
X021466Y019892D01*
X021569Y019935D01*
X021647Y020014D01*
X023908Y022275D01*
X023989Y022275D01*
X024135Y022335D01*
X024247Y022447D01*
X024307Y022593D01*
X024307Y022751D01*
X024247Y022897D01*
X024135Y023009D01*
X023989Y023070D01*
X023831Y023070D01*
X023685Y023009D01*
X023573Y022897D01*
X023513Y022751D01*
X023513Y022671D01*
X021294Y020452D01*
X017383Y020452D01*
X017650Y020719D01*
X017650Y021125D01*
X017363Y021412D01*
X016957Y021412D01*
X016670Y021125D01*
X016670Y020719D01*
X016937Y020452D01*
X014854Y020452D01*
X014751Y020410D01*
X014673Y020331D01*
X009161Y014820D01*
X009081Y014820D01*
X008935Y014759D01*
X008823Y014647D01*
X008777Y014535D02*
X003358Y014535D01*
X003477Y014417D02*
X008763Y014417D01*
X008781Y014298D02*
X003595Y014298D01*
X003714Y014180D02*
X008840Y014180D01*
X008993Y014061D02*
X003832Y014061D01*
X002834Y015502D02*
X002680Y015502D01*
X002680Y015902D01*
X002640Y015902D01*
X002640Y015502D01*
X002486Y015502D01*
X002240Y015748D01*
X002240Y015902D01*
X002640Y015902D01*
X002640Y015942D01*
X002240Y015942D01*
X002240Y016096D01*
X002486Y016342D01*
X002640Y016342D01*
X002640Y015942D01*
X002680Y015942D01*
X003080Y015942D01*
X003080Y016096D01*
X002834Y016342D01*
X002680Y016342D01*
X002680Y015942D01*
X002680Y015902D01*
X003080Y015902D01*
X003080Y015748D01*
X002834Y015502D01*
X002933Y015602D02*
X009944Y015602D01*
X010062Y015720D02*
X003052Y015720D01*
X003080Y015839D02*
X010181Y015839D01*
X010299Y015957D02*
X003080Y015957D01*
X003080Y016076D02*
X010418Y016076D01*
X010536Y016194D02*
X002982Y016194D01*
X002863Y016313D02*
X010655Y016313D01*
X010773Y016431D02*
X000620Y016431D01*
X000620Y016313D02*
X002457Y016313D01*
X002338Y016194D02*
X000620Y016194D01*
X000620Y016076D02*
X002240Y016076D01*
X002240Y015957D02*
X000620Y015957D01*
X000620Y015839D02*
X002240Y015839D01*
X002268Y015720D02*
X000620Y015720D01*
X000620Y015602D02*
X002387Y015602D01*
X002640Y015602D02*
X002680Y015602D01*
X002680Y015720D02*
X002640Y015720D01*
X002640Y015839D02*
X002680Y015839D01*
X002680Y015957D02*
X002640Y015957D01*
X002640Y016076D02*
X002680Y016076D01*
X002680Y016194D02*
X002640Y016194D01*
X002640Y016313D02*
X002680Y016313D01*
X001900Y016719D02*
X001900Y016902D01*
X001430Y016902D01*
X001430Y016432D01*
X001613Y016432D01*
X001900Y016719D01*
X001900Y016787D02*
X011129Y016787D01*
X011247Y016905D02*
X001430Y016905D01*
X001430Y016902D02*
X001430Y016942D01*
X001900Y016942D01*
X001900Y017125D01*
X001613Y017412D01*
X001430Y017412D01*
X001430Y016942D01*
X001390Y016942D01*
X001390Y016902D01*
X001430Y016902D01*
X001390Y016902D02*
X001390Y016432D01*
X001207Y016432D01*
X000920Y016719D01*
X000920Y016902D01*
X001390Y016902D01*
X001390Y016905D02*
X000620Y016905D01*
X000620Y016787D02*
X000920Y016787D01*
X000971Y016668D02*
X000620Y016668D01*
X000620Y016550D02*
X001090Y016550D01*
X001390Y016550D02*
X001430Y016550D01*
X001430Y016668D02*
X001390Y016668D01*
X001390Y016787D02*
X001430Y016787D01*
X001390Y016942D02*
X000920Y016942D01*
X000920Y017125D01*
X001207Y017412D01*
X001390Y017412D01*
X001390Y016942D01*
X001390Y017024D02*
X001430Y017024D01*
X001430Y017142D02*
X001390Y017142D01*
X001390Y017261D02*
X001430Y017261D01*
X001430Y017379D02*
X001390Y017379D01*
X001174Y017379D02*
X000620Y017379D01*
X000620Y017261D02*
X001056Y017261D01*
X000937Y017142D02*
X000620Y017142D01*
X000620Y017024D02*
X000920Y017024D01*
X000620Y017498D02*
X011840Y017498D01*
X011958Y017616D02*
X000620Y017616D01*
X000620Y017735D02*
X012077Y017735D01*
X012195Y017853D02*
X000620Y017853D01*
X000620Y017972D02*
X012314Y017972D01*
X012432Y018090D02*
X000620Y018090D01*
X000620Y018209D02*
X012551Y018209D01*
X012669Y018327D02*
X000620Y018327D01*
X000620Y018446D02*
X012788Y018446D01*
X012906Y018564D02*
X000620Y018564D01*
X000620Y018683D02*
X013025Y018683D01*
X013143Y018801D02*
X000620Y018801D01*
X000620Y018920D02*
X013262Y018920D01*
X013380Y019038D02*
X000620Y019038D01*
X000620Y019157D02*
X013499Y019157D01*
X013617Y019275D02*
X000620Y019275D01*
X000620Y019394D02*
X013736Y019394D01*
X013854Y019512D02*
X000620Y019512D01*
X000620Y019631D02*
X013973Y019631D01*
X014091Y019749D02*
X000620Y019749D01*
X000620Y019868D02*
X014210Y019868D01*
X014328Y019986D02*
X000620Y019986D01*
X000620Y020105D02*
X014447Y020105D01*
X014565Y020223D02*
X000620Y020223D01*
X000620Y020342D02*
X014684Y020342D01*
X015002Y019868D02*
X031818Y019868D01*
X031700Y019986D02*
X021620Y019986D01*
X021647Y020014D02*
X021647Y020014D01*
X021739Y020105D02*
X031581Y020105D01*
X031463Y020223D02*
X021857Y020223D01*
X021976Y020342D02*
X031344Y020342D01*
X031226Y020460D02*
X022094Y020460D01*
X022213Y020579D02*
X031107Y020579D01*
X030989Y020697D02*
X022331Y020697D01*
X022450Y020816D02*
X030901Y020816D01*
X030880Y020867D02*
X030923Y020764D01*
X032763Y018924D01*
X032763Y018843D01*
X032823Y018697D01*
X032935Y018585D01*
X033081Y018525D01*
X033239Y018525D01*
X033385Y018585D01*
X033497Y018697D01*
X033557Y018843D01*
X033557Y019001D01*
X033497Y019147D01*
X033385Y019259D01*
X033239Y019320D01*
X033158Y019320D01*
X031440Y021038D01*
X031440Y021140D01*
X031497Y021197D01*
X031557Y021343D01*
X031557Y021501D01*
X031497Y021647D01*
X031385Y021759D01*
X031239Y021820D01*
X031081Y021820D01*
X030935Y021759D01*
X030823Y021647D01*
X030763Y021501D01*
X030763Y021343D01*
X030823Y021197D01*
X030880Y021140D01*
X030880Y020867D01*
X030880Y020934D02*
X022568Y020934D01*
X022687Y021053D02*
X029763Y021053D01*
X029831Y021025D02*
X029989Y021025D01*
X030135Y021085D01*
X030247Y021197D01*
X030307Y021343D01*
X030307Y021480D01*
X031509Y022682D01*
X032088Y022682D01*
X032185Y022585D01*
X032331Y022525D01*
X032489Y022525D01*
X032635Y022585D01*
X032747Y022697D01*
X032807Y022843D01*
X032807Y023001D01*
X032747Y023147D01*
X032635Y023259D01*
X032489Y023320D01*
X032331Y023320D01*
X032185Y023259D01*
X032088Y023162D01*
X031362Y023162D01*
X031274Y023126D01*
X031207Y023058D01*
X029968Y021820D01*
X029831Y021820D01*
X029685Y021759D01*
X029573Y021647D01*
X029513Y021501D01*
X029513Y021343D01*
X029573Y021197D01*
X029685Y021085D01*
X029831Y021025D01*
X030057Y021053D02*
X030880Y021053D01*
X030849Y021171D02*
X030221Y021171D01*
X030285Y021290D02*
X030785Y021290D01*
X030763Y021408D02*
X030307Y021408D01*
X030354Y021527D02*
X030773Y021527D01*
X030822Y021645D02*
X030472Y021645D01*
X030591Y021764D02*
X030946Y021764D01*
X030709Y021882D02*
X050247Y021882D01*
X050293Y021803D02*
X050537Y021559D01*
X050835Y021387D01*
X051169Y021297D01*
X051514Y021297D01*
X051847Y021387D01*
X052145Y021559D01*
X052389Y021803D01*
X052562Y022102D01*
X052651Y022435D01*
X052651Y022780D01*
X052562Y023113D01*
X052389Y023412D01*
X052145Y023656D01*
X051847Y023828D01*
X051514Y023917D01*
X051169Y023917D01*
X050835Y023828D01*
X050537Y023656D01*
X050293Y023412D01*
X050120Y023113D01*
X050031Y022780D01*
X050031Y022435D01*
X050120Y022102D01*
X050293Y021803D01*
X050332Y021764D02*
X031374Y021764D01*
X031498Y021645D02*
X050450Y021645D01*
X050593Y021527D02*
X031547Y021527D01*
X031557Y021408D02*
X035953Y021408D01*
X035957Y021412D02*
X035670Y021125D01*
X035670Y020719D01*
X035957Y020432D01*
X036363Y020432D01*
X036650Y020719D01*
X036650Y021125D01*
X036363Y021412D01*
X035957Y021412D01*
X035835Y021290D02*
X031535Y021290D01*
X031471Y021171D02*
X035716Y021171D01*
X035670Y021053D02*
X031440Y021053D01*
X031544Y020934D02*
X035670Y020934D01*
X035670Y020816D02*
X031662Y020816D01*
X031781Y020697D02*
X035692Y020697D01*
X035810Y020579D02*
X031899Y020579D01*
X032018Y020460D02*
X035929Y020460D01*
X035957Y020412D02*
X035670Y020125D01*
X035670Y019961D01*
X036122Y019961D01*
X036122Y020412D01*
X035957Y020412D01*
X035887Y020342D02*
X032136Y020342D01*
X032255Y020223D02*
X035768Y020223D01*
X035670Y020105D02*
X032373Y020105D01*
X032492Y019986D02*
X035670Y019986D01*
X035670Y019884D02*
X035670Y019719D01*
X035957Y019432D01*
X036122Y019432D01*
X036122Y019884D01*
X036198Y019884D01*
X036198Y019432D01*
X036363Y019432D01*
X036650Y019719D01*
X036650Y019884D01*
X036198Y019884D01*
X036198Y019961D01*
X036122Y019961D01*
X036122Y019884D01*
X035670Y019884D01*
X035670Y019868D02*
X032610Y019868D01*
X032729Y019749D02*
X035670Y019749D01*
X035759Y019631D02*
X032847Y019631D01*
X032966Y019512D02*
X035877Y019512D01*
X035957Y019412D02*
X035670Y019125D01*
X035670Y018961D01*
X036122Y018961D01*
X036122Y019412D01*
X035957Y019412D01*
X035939Y019394D02*
X033084Y019394D01*
X033346Y019275D02*
X035820Y019275D01*
X035702Y019157D02*
X033488Y019157D01*
X033542Y019038D02*
X035670Y019038D01*
X035670Y018884D02*
X035670Y018719D01*
X035957Y018432D01*
X036122Y018432D01*
X036122Y018884D01*
X036198Y018884D01*
X036198Y018432D01*
X036363Y018432D01*
X036650Y018719D01*
X036650Y018884D01*
X036198Y018884D01*
X036198Y018961D01*
X036122Y018961D01*
X036122Y018884D01*
X035670Y018884D01*
X035670Y018801D02*
X033540Y018801D01*
X033557Y018920D02*
X036122Y018920D01*
X036198Y018920D02*
X052850Y018920D01*
X052850Y019038D02*
X036650Y019038D01*
X036650Y018961D02*
X036650Y019125D01*
X036363Y019412D01*
X036198Y019412D01*
X036198Y018961D01*
X036650Y018961D01*
X036650Y018801D02*
X052850Y018801D01*
X052850Y018683D02*
X036613Y018683D01*
X036495Y018564D02*
X052850Y018564D01*
X052850Y018446D02*
X036376Y018446D01*
X036363Y018412D02*
X035957Y018412D01*
X035670Y018125D01*
X035670Y017719D01*
X035957Y017432D01*
X036363Y017432D01*
X036650Y017719D01*
X036650Y018125D01*
X036363Y018412D01*
X036448Y018327D02*
X052850Y018327D01*
X052850Y018209D02*
X036566Y018209D01*
X036650Y018090D02*
X052850Y018090D01*
X052850Y017972D02*
X036650Y017972D01*
X036650Y017853D02*
X052850Y017853D01*
X052850Y017735D02*
X036650Y017735D01*
X036547Y017616D02*
X052850Y017616D01*
X052850Y017498D02*
X036428Y017498D01*
X036363Y017412D02*
X035957Y017412D01*
X035670Y017125D01*
X035670Y016719D01*
X035957Y016432D01*
X036363Y016432D01*
X036650Y016719D01*
X036650Y017125D01*
X036363Y017412D01*
X036396Y017379D02*
X052850Y017379D01*
X052850Y017261D02*
X036514Y017261D01*
X036633Y017142D02*
X052850Y017142D01*
X052850Y017024D02*
X036650Y017024D01*
X036650Y016905D02*
X052850Y016905D01*
X052850Y016787D02*
X036650Y016787D01*
X036599Y016668D02*
X052850Y016668D01*
X052850Y016550D02*
X036480Y016550D01*
X036363Y016412D02*
X035957Y016412D01*
X035670Y016125D01*
X035670Y015719D01*
X035957Y015432D01*
X036363Y015432D01*
X036650Y015719D01*
X036650Y016125D01*
X036363Y016412D01*
X036462Y016313D02*
X052850Y016313D01*
X052850Y016431D02*
X030860Y016431D01*
X030765Y016392D02*
X030960Y016473D01*
X031109Y016622D01*
X031190Y016817D01*
X031190Y017028D01*
X031109Y017222D01*
X030960Y017372D01*
X030837Y017422D01*
X030863Y017431D01*
X030938Y017469D01*
X031005Y017518D01*
X031064Y017577D01*
X031113Y017644D01*
X031151Y017719D01*
X031177Y017798D01*
X031190Y017880D01*
X031190Y017902D01*
X030680Y017902D01*
X030680Y017942D01*
X031190Y017942D01*
X031190Y017964D01*
X031177Y018046D01*
X031151Y018126D01*
X031113Y018200D01*
X031064Y018267D01*
X031005Y018326D01*
X030938Y018376D01*
X030863Y018413D01*
X030784Y018439D01*
X030702Y018452D01*
X030680Y018452D01*
X030680Y017942D01*
X030640Y017942D01*
X030640Y017902D01*
X030130Y017902D01*
X030130Y017880D01*
X030143Y017798D01*
X030169Y017719D01*
X030207Y017644D01*
X030256Y017577D01*
X030315Y017518D01*
X030382Y017469D01*
X030457Y017431D01*
X030483Y017422D01*
X030360Y017372D01*
X030211Y017222D01*
X030130Y017028D01*
X030130Y016817D01*
X030211Y016622D01*
X030360Y016473D01*
X030555Y016392D01*
X030765Y016392D01*
X030460Y016431D02*
X027360Y016431D01*
X027265Y016392D02*
X027460Y016473D01*
X027609Y016622D01*
X027690Y016817D01*
X027690Y017028D01*
X027609Y017222D01*
X027460Y017372D01*
X027337Y017422D01*
X027363Y017431D01*
X027438Y017469D01*
X027505Y017518D01*
X027564Y017577D01*
X027613Y017644D01*
X027651Y017719D01*
X027677Y017798D01*
X027690Y017880D01*
X027690Y017902D01*
X027180Y017902D01*
X027180Y017942D01*
X027690Y017942D01*
X027690Y017964D01*
X027677Y018046D01*
X027651Y018126D01*
X027613Y018200D01*
X027564Y018267D01*
X027505Y018326D01*
X027438Y018376D01*
X027363Y018413D01*
X027284Y018439D01*
X027202Y018452D01*
X027180Y018452D01*
X027180Y017942D01*
X027140Y017942D01*
X027140Y017902D01*
X026630Y017902D01*
X026630Y017880D01*
X026643Y017798D01*
X026669Y017719D01*
X026707Y017644D01*
X026756Y017577D01*
X026815Y017518D01*
X026882Y017469D01*
X026957Y017431D01*
X026983Y017422D01*
X026860Y017372D01*
X026711Y017222D01*
X026630Y017028D01*
X026630Y016817D01*
X026711Y016622D01*
X026860Y016473D01*
X027055Y016392D01*
X027265Y016392D01*
X026960Y016431D02*
X023463Y016431D01*
X023497Y016397D02*
X023385Y016509D01*
X023239Y016570D01*
X023081Y016570D01*
X022935Y016509D01*
X022838Y016412D01*
X022314Y016412D01*
X022460Y016473D01*
X022609Y016622D01*
X022690Y016817D01*
X022690Y017028D01*
X022609Y017222D01*
X022460Y017372D01*
X022337Y017422D01*
X022363Y017431D01*
X022438Y017469D01*
X022505Y017518D01*
X022564Y017577D01*
X022613Y017644D01*
X022651Y017719D01*
X022677Y017798D01*
X022690Y017880D01*
X022690Y017902D01*
X022180Y017902D01*
X022180Y017942D01*
X022690Y017942D01*
X022690Y017964D01*
X022677Y018046D01*
X022651Y018126D01*
X022613Y018200D01*
X022564Y018267D01*
X022505Y018326D01*
X022438Y018376D01*
X022363Y018413D01*
X022284Y018439D01*
X022202Y018452D01*
X022180Y018452D01*
X022180Y017942D01*
X022140Y017942D01*
X022140Y017902D01*
X021630Y017902D01*
X021630Y017880D01*
X021643Y017798D01*
X021669Y017719D01*
X021707Y017644D01*
X021756Y017577D01*
X021815Y017518D01*
X021882Y017469D01*
X021957Y017431D01*
X021983Y017422D01*
X021860Y017372D01*
X021711Y017222D01*
X021630Y017028D01*
X021630Y016817D01*
X021711Y016622D01*
X021860Y016473D01*
X022006Y016412D01*
X021482Y016412D01*
X021385Y016509D01*
X021239Y016570D01*
X021081Y016570D01*
X020935Y016509D01*
X020823Y016397D01*
X020763Y016251D01*
X020763Y016093D01*
X020823Y015947D01*
X020935Y015835D01*
X021081Y015775D01*
X021239Y015775D01*
X021385Y015835D01*
X021482Y015932D01*
X022838Y015932D01*
X022935Y015835D01*
X023081Y015775D01*
X023239Y015775D01*
X023385Y015835D01*
X023497Y015947D01*
X023557Y016093D01*
X023557Y016251D01*
X023497Y016397D01*
X023532Y016313D02*
X035858Y016313D01*
X035739Y016194D02*
X023557Y016194D01*
X023550Y016076D02*
X035670Y016076D01*
X035670Y015957D02*
X023501Y015957D01*
X023389Y015839D02*
X026884Y015839D01*
X026957Y015912D02*
X026670Y015625D01*
X026670Y015219D01*
X026957Y014932D01*
X027363Y014932D01*
X027650Y015219D01*
X027650Y015625D01*
X027363Y015912D01*
X026957Y015912D01*
X026765Y015720D02*
X022555Y015720D01*
X022650Y015625D02*
X022363Y015912D01*
X021957Y015912D01*
X021670Y015625D01*
X021670Y015219D01*
X021957Y014932D01*
X022363Y014932D01*
X022650Y015219D01*
X022650Y015625D01*
X022650Y015602D02*
X026670Y015602D01*
X026670Y015483D02*
X022650Y015483D01*
X022650Y015365D02*
X026670Y015365D01*
X026670Y015246D02*
X022650Y015246D01*
X022558Y015128D02*
X026762Y015128D01*
X026880Y015009D02*
X022440Y015009D01*
X021880Y015009D02*
X019635Y015009D01*
X019489Y015070D01*
X019400Y015070D01*
X019400Y015600D01*
X019497Y015697D01*
X019557Y015843D01*
X019557Y016001D01*
X019497Y016147D01*
X019385Y016259D01*
X019239Y016320D01*
X019081Y016320D01*
X018935Y016259D01*
X018823Y016147D01*
X018763Y016001D01*
X018763Y015843D01*
X018823Y015697D01*
X018920Y015600D01*
X018920Y014874D01*
X018957Y014786D01*
X019013Y014730D01*
X019013Y014593D01*
X019073Y014447D01*
X019185Y014335D01*
X019331Y014275D01*
X019489Y014275D01*
X019635Y014335D01*
X019747Y014447D01*
X019807Y014593D01*
X019807Y014751D01*
X019747Y014897D01*
X019635Y015009D01*
X019750Y014891D02*
X035670Y014891D01*
X035670Y015009D02*
X030940Y015009D01*
X030863Y014932D02*
X031150Y015219D01*
X031150Y015625D01*
X030863Y015912D01*
X030457Y015912D01*
X030170Y015625D01*
X030170Y015219D01*
X030457Y014932D01*
X030863Y014932D01*
X031058Y015128D02*
X035673Y015128D01*
X035670Y015125D02*
X035670Y014719D01*
X035957Y014432D01*
X036363Y014432D01*
X036650Y014719D01*
X036650Y015125D01*
X036363Y015412D01*
X035957Y015412D01*
X035670Y015125D01*
X035791Y015246D02*
X031150Y015246D01*
X031150Y015365D02*
X035910Y015365D01*
X035906Y015483D02*
X031150Y015483D01*
X031150Y015602D02*
X035788Y015602D01*
X035670Y015720D02*
X031055Y015720D01*
X030936Y015839D02*
X035670Y015839D01*
X036414Y015483D02*
X052850Y015483D01*
X052850Y015365D02*
X036410Y015365D01*
X036529Y015246D02*
X052850Y015246D01*
X052850Y015128D02*
X036647Y015128D01*
X036650Y015009D02*
X052850Y015009D01*
X052850Y014891D02*
X036650Y014891D01*
X036650Y014772D02*
X052850Y014772D01*
X052850Y014654D02*
X036584Y014654D01*
X036466Y014535D02*
X052850Y014535D01*
X052850Y014417D02*
X019717Y014417D01*
X019783Y014535D02*
X035854Y014535D01*
X035736Y014654D02*
X019807Y014654D01*
X019799Y014772D02*
X035670Y014772D01*
X035843Y014298D02*
X019546Y014298D01*
X019274Y014298D02*
X017650Y014298D01*
X017650Y014180D02*
X035725Y014180D01*
X035670Y014061D02*
X017592Y014061D01*
X017473Y013943D02*
X035670Y013943D01*
X035670Y013824D02*
X007479Y013824D01*
X007595Y013706D02*
X016851Y013706D01*
X016732Y013587D02*
X007644Y013587D01*
X007670Y013469D02*
X016670Y013469D01*
X016728Y014061D02*
X009327Y014061D01*
X009480Y014180D02*
X016670Y014180D01*
X016670Y014298D02*
X009539Y014298D01*
X009557Y014417D02*
X016670Y014417D01*
X016680Y014535D02*
X009669Y014535D01*
X009788Y014654D02*
X016799Y014654D01*
X016917Y014772D02*
X009906Y014772D01*
X010025Y014891D02*
X016899Y014891D01*
X016957Y014832D02*
X017363Y014832D01*
X017650Y015119D01*
X017650Y015525D01*
X017363Y015812D01*
X016957Y015812D01*
X016670Y015525D01*
X016670Y015119D01*
X016957Y014832D01*
X016780Y015009D02*
X010143Y015009D01*
X010262Y015128D02*
X016670Y015128D01*
X016670Y015246D02*
X010380Y015246D01*
X010499Y015365D02*
X016670Y015365D01*
X016670Y015483D02*
X010617Y015483D01*
X010736Y015602D02*
X016747Y015602D01*
X016865Y015720D02*
X010854Y015720D01*
X010973Y015839D02*
X016951Y015839D01*
X016957Y015832D02*
X017363Y015832D01*
X017650Y016119D01*
X017650Y016525D01*
X017363Y016812D01*
X016957Y016812D01*
X016670Y016525D01*
X016670Y016119D01*
X016957Y015832D01*
X016832Y015957D02*
X011091Y015957D01*
X011210Y016076D02*
X016714Y016076D01*
X016670Y016194D02*
X011328Y016194D01*
X011447Y016313D02*
X016670Y016313D01*
X016670Y016431D02*
X011565Y016431D01*
X011684Y016550D02*
X016695Y016550D01*
X016813Y016668D02*
X011802Y016668D01*
X011921Y016787D02*
X016932Y016787D01*
X016957Y016832D02*
X017363Y016832D01*
X017650Y017119D01*
X017650Y017525D01*
X017363Y017812D01*
X016957Y017812D01*
X016670Y017525D01*
X016670Y017119D01*
X016957Y016832D01*
X016884Y016905D02*
X012039Y016905D01*
X012158Y017024D02*
X016766Y017024D01*
X016670Y017142D02*
X012276Y017142D01*
X012395Y017261D02*
X016670Y017261D01*
X016670Y017379D02*
X012513Y017379D01*
X012632Y017498D02*
X016670Y017498D01*
X016761Y017616D02*
X012750Y017616D01*
X012869Y017735D02*
X016880Y017735D01*
X016957Y017832D02*
X017363Y017832D01*
X017650Y018119D01*
X017650Y018525D01*
X017363Y018812D01*
X016957Y018812D01*
X016670Y018525D01*
X016670Y018119D01*
X016957Y017832D01*
X016936Y017853D02*
X012987Y017853D01*
X013106Y017972D02*
X016818Y017972D01*
X016699Y018090D02*
X013224Y018090D01*
X013343Y018209D02*
X016670Y018209D01*
X016670Y018327D02*
X013461Y018327D01*
X013580Y018446D02*
X016670Y018446D01*
X016709Y018564D02*
X013698Y018564D01*
X013817Y018683D02*
X016828Y018683D01*
X016946Y018801D02*
X013935Y018801D01*
X014054Y018920D02*
X016870Y018920D01*
X016957Y018832D02*
X017363Y018832D01*
X017650Y019119D01*
X017650Y019525D01*
X017363Y019812D01*
X016957Y019812D01*
X016670Y019525D01*
X016670Y019119D01*
X016957Y018832D01*
X016751Y019038D02*
X014172Y019038D01*
X014291Y019157D02*
X016670Y019157D01*
X016670Y019275D02*
X014409Y019275D01*
X014528Y019394D02*
X016670Y019394D01*
X016670Y019512D02*
X014646Y019512D01*
X014765Y019631D02*
X016776Y019631D01*
X016894Y019749D02*
X014883Y019749D01*
X016670Y020816D02*
X000620Y020816D01*
X000620Y020934D02*
X016670Y020934D01*
X016670Y021053D02*
X000620Y021053D01*
X000620Y021171D02*
X016716Y021171D01*
X016835Y021290D02*
X000620Y021290D01*
X000620Y021408D02*
X001585Y021408D01*
X001623Y021387D02*
X001324Y021559D01*
X001080Y021803D01*
X000908Y022102D01*
X000819Y022435D01*
X000819Y022780D01*
X000908Y023113D01*
X001080Y023412D01*
X001324Y023656D01*
X001623Y023828D01*
X001956Y023917D01*
X002301Y023917D01*
X002634Y023828D01*
X002933Y023656D01*
X003177Y023412D01*
X003349Y023113D01*
X003439Y022780D01*
X003439Y022435D01*
X003349Y022102D01*
X003177Y021803D01*
X002933Y021559D01*
X002634Y021387D01*
X002301Y021297D01*
X001956Y021297D01*
X001623Y021387D01*
X001380Y021527D02*
X000620Y021527D01*
X000620Y021645D02*
X001238Y021645D01*
X001119Y021764D02*
X000620Y021764D01*
X000620Y021882D02*
X001034Y021882D01*
X000966Y022001D02*
X000620Y022001D01*
X000620Y022119D02*
X000903Y022119D01*
X000871Y022238D02*
X000620Y022238D01*
X000620Y022356D02*
X000840Y022356D01*
X000819Y022475D02*
X000620Y022475D01*
X000620Y022593D02*
X000819Y022593D01*
X000819Y022712D02*
X000620Y022712D01*
X000620Y022830D02*
X000832Y022830D01*
X000864Y022949D02*
X000620Y022949D01*
X000620Y023067D02*
X000896Y023067D01*
X000950Y023186D02*
X000620Y023186D01*
X000620Y023304D02*
X001018Y023304D01*
X001091Y023423D02*
X000620Y023423D01*
X000620Y023541D02*
X001210Y023541D01*
X001331Y023660D02*
X000620Y023660D01*
X000620Y023778D02*
X001537Y023778D01*
X001880Y023897D02*
X000620Y023897D01*
X000620Y024015D02*
X006866Y024015D01*
X006920Y024070D02*
X006797Y023947D01*
X006731Y023786D01*
X006731Y023058D01*
X006797Y022897D01*
X006920Y022774D01*
X007081Y022708D01*
X007255Y022708D01*
X007416Y022774D01*
X007538Y022897D01*
X007605Y023058D01*
X007605Y023786D01*
X007538Y023947D01*
X007416Y024070D01*
X007255Y024137D01*
X007081Y024137D01*
X006920Y024070D01*
X007074Y024134D02*
X000620Y024134D01*
X000620Y024252D02*
X015380Y024252D01*
X015380Y024134D02*
X008204Y024134D01*
X008187Y024137D02*
X008181Y024137D01*
X008181Y023451D01*
X008589Y023451D01*
X008589Y023734D01*
X008579Y023802D01*
X008557Y023867D01*
X008526Y023928D01*
X008486Y023984D01*
X008437Y024033D01*
X008381Y024073D01*
X008320Y024105D01*
X008254Y024126D01*
X008187Y024137D01*
X008181Y024134D02*
X008124Y024134D01*
X008124Y024137D02*
X008118Y024137D01*
X008050Y024126D01*
X007984Y024105D01*
X007923Y024073D01*
X007867Y024033D01*
X007819Y023984D01*
X007778Y023928D01*
X007747Y023867D01*
X007726Y023802D01*
X007715Y023734D01*
X007715Y023451D01*
X008124Y023451D01*
X008124Y024137D01*
X008100Y024134D02*
X007262Y024134D01*
X007470Y024015D02*
X007850Y024015D01*
X007762Y023897D02*
X007559Y023897D01*
X007605Y023778D02*
X007722Y023778D01*
X007715Y023660D02*
X007605Y023660D01*
X007605Y023541D02*
X007715Y023541D01*
X007715Y023394D02*
X007715Y023111D01*
X007726Y023043D01*
X007747Y022977D01*
X007778Y022916D01*
X007819Y022860D01*
X007867Y022812D01*
X007923Y022771D01*
X007984Y022740D01*
X008050Y022719D01*
X008118Y022708D01*
X008124Y022708D01*
X008124Y023394D01*
X008181Y023394D01*
X008181Y023451D01*
X008124Y023451D01*
X008124Y023394D01*
X007715Y023394D01*
X007715Y023304D02*
X007605Y023304D01*
X007605Y023186D02*
X007715Y023186D01*
X007722Y023067D02*
X007605Y023067D01*
X007560Y022949D02*
X007761Y022949D01*
X007849Y022830D02*
X007471Y022830D01*
X007264Y022712D02*
X008093Y022712D01*
X008124Y022712D02*
X008181Y022712D01*
X008181Y022708D02*
X008187Y022708D01*
X008254Y022719D01*
X008320Y022740D01*
X008381Y022771D01*
X008437Y022812D01*
X008486Y022860D01*
X008526Y022916D01*
X008557Y022977D01*
X008579Y023043D01*
X008589Y023111D01*
X008589Y023394D01*
X008181Y023394D01*
X008181Y022708D01*
X008211Y022712D02*
X010257Y022712D01*
X010170Y022625D02*
X010457Y022912D01*
X010863Y022912D01*
X011150Y022625D01*
X011150Y022219D01*
X010863Y021932D01*
X010457Y021932D01*
X010170Y022219D01*
X010170Y022625D01*
X010170Y022593D02*
X003439Y022593D01*
X003439Y022475D02*
X010170Y022475D01*
X010170Y022356D02*
X003417Y022356D01*
X003386Y022238D02*
X010170Y022238D01*
X010270Y022119D02*
X003354Y022119D01*
X003291Y022001D02*
X010388Y022001D01*
X010932Y022001D02*
X014388Y022001D01*
X014457Y021932D02*
X014863Y021932D01*
X015073Y022142D01*
X015216Y022142D01*
X015319Y022185D01*
X015397Y022264D01*
X015897Y022764D01*
X015940Y022867D01*
X015940Y026478D01*
X015897Y026581D01*
X015819Y026660D01*
X015319Y027160D01*
X015216Y027202D01*
X015073Y027202D01*
X014863Y027412D01*
X014457Y027412D01*
X014170Y027125D01*
X014170Y026719D01*
X014457Y026432D01*
X014863Y026432D01*
X015058Y026628D01*
X015380Y026306D01*
X015380Y023038D01*
X015058Y022717D01*
X014863Y022912D01*
X014457Y022912D01*
X014170Y022625D01*
X014170Y022219D01*
X014457Y021932D01*
X014270Y022119D02*
X011050Y022119D01*
X011150Y022238D02*
X014170Y022238D01*
X014170Y022356D02*
X011150Y022356D01*
X011150Y022475D02*
X014170Y022475D01*
X014170Y022593D02*
X011150Y022593D01*
X011063Y022712D02*
X014257Y022712D01*
X014375Y022830D02*
X010945Y022830D01*
X010863Y022932D02*
X011150Y023219D01*
X011150Y023625D01*
X010863Y023912D01*
X010457Y023912D01*
X010170Y023625D01*
X010170Y023219D01*
X010457Y022932D01*
X010863Y022932D01*
X010880Y022949D02*
X014440Y022949D01*
X014457Y022932D02*
X014863Y022932D01*
X015150Y023219D01*
X015150Y023625D01*
X014863Y023912D01*
X014457Y023912D01*
X014170Y023625D01*
X014170Y023219D01*
X014457Y022932D01*
X014322Y023067D02*
X010998Y023067D01*
X011117Y023186D02*
X014203Y023186D01*
X014170Y023304D02*
X011150Y023304D01*
X011150Y023423D02*
X014170Y023423D01*
X014170Y023541D02*
X011150Y023541D01*
X011115Y023660D02*
X014205Y023660D01*
X014323Y023778D02*
X010997Y023778D01*
X010878Y023897D02*
X014442Y023897D01*
X014878Y023897D02*
X015380Y023897D01*
X015380Y024015D02*
X008454Y024015D01*
X008542Y023897D02*
X010442Y023897D01*
X010323Y023778D02*
X008582Y023778D01*
X008589Y023660D02*
X010205Y023660D01*
X010170Y023541D02*
X008589Y023541D01*
X008589Y023304D02*
X010170Y023304D01*
X010170Y023423D02*
X008181Y023423D01*
X008124Y023423D02*
X007605Y023423D01*
X008124Y023541D02*
X008181Y023541D01*
X008181Y023660D02*
X008124Y023660D01*
X008124Y023778D02*
X008181Y023778D01*
X008181Y023897D02*
X008124Y023897D01*
X008124Y024015D02*
X008181Y024015D01*
X008181Y023304D02*
X008124Y023304D01*
X008124Y023186D02*
X008181Y023186D01*
X008181Y023067D02*
X008124Y023067D01*
X008124Y022949D02*
X008181Y022949D01*
X008181Y022830D02*
X008124Y022830D01*
X008456Y022830D02*
X010375Y022830D01*
X010440Y022949D02*
X008543Y022949D01*
X008582Y023067D02*
X010322Y023067D01*
X010203Y023186D02*
X008589Y023186D01*
X007072Y022712D02*
X003439Y022712D01*
X003425Y022830D02*
X006864Y022830D01*
X006776Y022949D02*
X003393Y022949D01*
X003361Y023067D02*
X006731Y023067D01*
X006731Y023186D02*
X003307Y023186D01*
X003239Y023304D02*
X006731Y023304D01*
X006731Y023423D02*
X003166Y023423D01*
X003047Y023541D02*
X006731Y023541D01*
X006731Y023660D02*
X002926Y023660D01*
X002720Y023778D02*
X006731Y023778D01*
X006776Y023897D02*
X002377Y023897D01*
X000620Y024371D02*
X015380Y024371D01*
X015380Y024489D02*
X000620Y024489D01*
X000620Y024608D02*
X015380Y024608D01*
X015380Y024726D02*
X000620Y024726D01*
X000620Y024845D02*
X015380Y024845D01*
X015380Y024963D02*
X000620Y024963D01*
X000620Y025082D02*
X015380Y025082D01*
X015380Y025200D02*
X000620Y025200D01*
X000620Y025319D02*
X015380Y025319D01*
X015380Y025437D02*
X014868Y025437D01*
X014863Y025432D02*
X015150Y025719D01*
X015150Y026125D01*
X014863Y026412D01*
X014457Y026412D01*
X014170Y026125D01*
X014170Y025719D01*
X014457Y025432D01*
X014863Y025432D01*
X014987Y025556D02*
X015380Y025556D01*
X015380Y025674D02*
X015105Y025674D01*
X015150Y025793D02*
X015380Y025793D01*
X015380Y025911D02*
X015150Y025911D01*
X015150Y026030D02*
X015380Y026030D01*
X015380Y026148D02*
X015127Y026148D01*
X015008Y026267D02*
X015380Y026267D01*
X015301Y026385D02*
X014890Y026385D01*
X014935Y026504D02*
X015182Y026504D01*
X015064Y026622D02*
X015053Y026622D01*
X015500Y026978D02*
X016670Y026978D01*
X016670Y027096D02*
X015382Y027096D01*
X015619Y026859D02*
X016670Y026859D01*
X016670Y026741D02*
X015737Y026741D01*
X015856Y026622D02*
X016767Y026622D01*
X016670Y026719D02*
X016957Y026432D01*
X017363Y026432D01*
X017650Y026719D01*
X017650Y027125D01*
X017363Y027412D01*
X016957Y027412D01*
X016670Y027125D01*
X016670Y026719D01*
X016885Y026504D02*
X015929Y026504D01*
X015940Y026385D02*
X016930Y026385D01*
X016957Y026412D02*
X016670Y026125D01*
X016670Y025719D01*
X016957Y025432D01*
X017363Y025432D01*
X017650Y025719D01*
X017650Y026125D01*
X017363Y026412D01*
X016957Y026412D01*
X016812Y026267D02*
X015940Y026267D01*
X015940Y026148D02*
X016693Y026148D01*
X016670Y026030D02*
X015940Y026030D01*
X015940Y025911D02*
X016670Y025911D01*
X016670Y025793D02*
X015940Y025793D01*
X015940Y025674D02*
X016715Y025674D01*
X016833Y025556D02*
X015940Y025556D01*
X015940Y025437D02*
X016952Y025437D01*
X016957Y025412D02*
X016670Y025125D01*
X016670Y024719D01*
X016957Y024432D01*
X017363Y024432D01*
X017650Y024719D01*
X017650Y025125D01*
X017363Y025412D01*
X016957Y025412D01*
X016864Y025319D02*
X015940Y025319D01*
X015940Y025200D02*
X016745Y025200D01*
X016670Y025082D02*
X015940Y025082D01*
X015940Y024963D02*
X016670Y024963D01*
X016670Y024845D02*
X015940Y024845D01*
X015940Y024726D02*
X016670Y024726D01*
X016781Y024608D02*
X015940Y024608D01*
X015940Y024489D02*
X016900Y024489D01*
X016957Y024412D02*
X016670Y024125D01*
X016670Y023719D01*
X016957Y023432D01*
X017363Y023432D01*
X017650Y023719D01*
X017650Y024125D01*
X017363Y024412D01*
X016957Y024412D01*
X016916Y024371D02*
X015940Y024371D01*
X015940Y024252D02*
X016797Y024252D01*
X016679Y024134D02*
X015940Y024134D01*
X015940Y024015D02*
X016670Y024015D01*
X016670Y023897D02*
X015940Y023897D01*
X015940Y023778D02*
X016670Y023778D01*
X016729Y023660D02*
X015940Y023660D01*
X015940Y023541D02*
X016848Y023541D01*
X016957Y023412D02*
X016670Y023125D01*
X016670Y022719D01*
X016957Y022432D01*
X017363Y022432D01*
X017650Y022719D01*
X017650Y023125D01*
X017363Y023412D01*
X016957Y023412D01*
X016849Y023304D02*
X015940Y023304D01*
X015940Y023186D02*
X016731Y023186D01*
X016670Y023067D02*
X015940Y023067D01*
X015940Y022949D02*
X016670Y022949D01*
X016670Y022830D02*
X015925Y022830D01*
X015846Y022712D02*
X016677Y022712D01*
X016796Y022593D02*
X015727Y022593D01*
X015609Y022475D02*
X016914Y022475D01*
X016957Y022412D02*
X016670Y022125D01*
X016670Y021719D01*
X016957Y021432D01*
X017363Y021432D01*
X017650Y021719D01*
X017650Y022125D01*
X017363Y022412D01*
X016957Y022412D01*
X016901Y022356D02*
X015490Y022356D01*
X015372Y022238D02*
X016783Y022238D01*
X016670Y022119D02*
X015050Y022119D01*
X014932Y022001D02*
X016670Y022001D01*
X016670Y021882D02*
X003223Y021882D01*
X003138Y021764D02*
X016670Y021764D01*
X016744Y021645D02*
X003019Y021645D01*
X002877Y021527D02*
X016862Y021527D01*
X016953Y021408D02*
X002672Y021408D01*
X000620Y020697D02*
X016692Y020697D01*
X016810Y020579D02*
X000620Y020579D01*
X000620Y020460D02*
X016929Y020460D01*
X017391Y020460D02*
X021302Y020460D01*
X021421Y020579D02*
X017509Y020579D01*
X017628Y020697D02*
X021539Y020697D01*
X021658Y020816D02*
X017650Y020816D01*
X017650Y020934D02*
X021776Y020934D01*
X021895Y021053D02*
X017650Y021053D01*
X017604Y021171D02*
X022013Y021171D01*
X022132Y021290D02*
X017485Y021290D01*
X017367Y021408D02*
X022250Y021408D01*
X022369Y021527D02*
X017458Y021527D01*
X017576Y021645D02*
X022487Y021645D01*
X022606Y021764D02*
X017650Y021764D01*
X017650Y021882D02*
X022724Y021882D01*
X022843Y022001D02*
X017650Y022001D01*
X017650Y022119D02*
X022961Y022119D01*
X023080Y022238D02*
X017537Y022238D01*
X017419Y022356D02*
X023198Y022356D01*
X023317Y022475D02*
X017406Y022475D01*
X017524Y022593D02*
X023435Y022593D01*
X023513Y022712D02*
X017643Y022712D01*
X017650Y022830D02*
X023545Y022830D01*
X023624Y022949D02*
X017650Y022949D01*
X017650Y023067D02*
X023825Y023067D01*
X023995Y023067D02*
X029290Y023067D01*
X029263Y023001D02*
X029263Y022843D01*
X029323Y022697D01*
X029435Y022585D01*
X029581Y022525D01*
X029739Y022525D01*
X029885Y022585D01*
X029982Y022682D01*
X030208Y022682D01*
X030296Y022719D01*
X031102Y023525D01*
X031239Y023525D01*
X031385Y023585D01*
X031497Y023697D01*
X031557Y023843D01*
X031557Y024001D01*
X031497Y024147D01*
X031385Y024259D01*
X031239Y024320D01*
X031081Y024320D01*
X030935Y024259D01*
X030823Y024147D01*
X030763Y024001D01*
X030763Y023864D01*
X030061Y023162D01*
X029982Y023162D01*
X029885Y023259D01*
X029739Y023320D01*
X029581Y023320D01*
X029435Y023259D01*
X029323Y023147D01*
X029263Y023001D01*
X029263Y022949D02*
X024196Y022949D01*
X024275Y022830D02*
X029268Y022830D01*
X029317Y022712D02*
X024307Y022712D01*
X024307Y022593D02*
X029427Y022593D01*
X029893Y022593D02*
X030742Y022593D01*
X030860Y022712D02*
X030279Y022712D01*
X030407Y022830D02*
X030979Y022830D01*
X031097Y022949D02*
X030526Y022949D01*
X030644Y023067D02*
X031216Y023067D01*
X030881Y023304D02*
X032294Y023304D01*
X032111Y023186D02*
X030763Y023186D01*
X031000Y023423D02*
X050304Y023423D01*
X050231Y023304D02*
X036471Y023304D01*
X036363Y023412D02*
X035957Y023412D01*
X035670Y023125D01*
X035670Y022719D01*
X035957Y022432D01*
X036363Y022432D01*
X036650Y022719D01*
X036650Y023125D01*
X036363Y023412D01*
X036363Y023432D02*
X036650Y023719D01*
X036650Y024125D01*
X036363Y024412D01*
X035957Y024412D01*
X035670Y024125D01*
X035670Y023719D01*
X035957Y023432D01*
X036363Y023432D01*
X036472Y023541D02*
X050422Y023541D01*
X050544Y023660D02*
X036591Y023660D01*
X036650Y023778D02*
X050749Y023778D01*
X051092Y023897D02*
X036650Y023897D01*
X036650Y024015D02*
X052850Y024015D01*
X052850Y023897D02*
X051590Y023897D01*
X051933Y023778D02*
X052850Y023778D01*
X052850Y023660D02*
X052138Y023660D01*
X052260Y023541D02*
X052850Y023541D01*
X052850Y023423D02*
X052378Y023423D01*
X052451Y023304D02*
X052850Y023304D01*
X052850Y023186D02*
X052520Y023186D01*
X052574Y023067D02*
X052850Y023067D01*
X052850Y022949D02*
X052606Y022949D01*
X052638Y022830D02*
X052850Y022830D01*
X052850Y022712D02*
X052651Y022712D01*
X052651Y022593D02*
X052850Y022593D01*
X052850Y022475D02*
X052651Y022475D01*
X052630Y022356D02*
X052850Y022356D01*
X052850Y022238D02*
X052598Y022238D01*
X052567Y022119D02*
X052850Y022119D01*
X052850Y022001D02*
X052504Y022001D01*
X052435Y021882D02*
X052850Y021882D01*
X052850Y021764D02*
X052350Y021764D01*
X052232Y021645D02*
X052850Y021645D01*
X052850Y021527D02*
X052090Y021527D01*
X051884Y021408D02*
X052850Y021408D01*
X052850Y021290D02*
X036485Y021290D01*
X036367Y021408D02*
X050798Y021408D01*
X050179Y022001D02*
X030828Y022001D01*
X030946Y022119D02*
X050116Y022119D01*
X050084Y022238D02*
X031065Y022238D01*
X031183Y022356D02*
X050052Y022356D01*
X050031Y022475D02*
X036406Y022475D01*
X036524Y022593D02*
X050031Y022593D01*
X050031Y022712D02*
X036643Y022712D01*
X036650Y022830D02*
X050045Y022830D01*
X050076Y022949D02*
X036650Y022949D01*
X036650Y023067D02*
X050108Y023067D01*
X050162Y023186D02*
X036589Y023186D01*
X035849Y023304D02*
X032526Y023304D01*
X032709Y023186D02*
X035731Y023186D01*
X035670Y023067D02*
X032780Y023067D01*
X032807Y022949D02*
X035670Y022949D01*
X035670Y022830D02*
X032802Y022830D01*
X032753Y022712D02*
X035677Y022712D01*
X035796Y022593D02*
X032643Y022593D01*
X032177Y022593D02*
X031420Y022593D01*
X031302Y022475D02*
X035914Y022475D01*
X035848Y023541D02*
X031279Y023541D01*
X031460Y023660D02*
X035729Y023660D01*
X035670Y023778D02*
X031531Y023778D01*
X031557Y023897D02*
X035670Y023897D01*
X035670Y024015D02*
X031552Y024015D01*
X031503Y024134D02*
X035679Y024134D01*
X035797Y024252D02*
X031392Y024252D01*
X030928Y024252D02*
X017523Y024252D01*
X017641Y024134D02*
X030817Y024134D01*
X030768Y024015D02*
X017650Y024015D01*
X017650Y023897D02*
X030763Y023897D01*
X030677Y023778D02*
X017650Y023778D01*
X017591Y023660D02*
X030558Y023660D01*
X030440Y023541D02*
X017472Y023541D01*
X017471Y023304D02*
X029544Y023304D01*
X029361Y023186D02*
X017589Y023186D01*
X015940Y023423D02*
X030321Y023423D01*
X030203Y023304D02*
X029776Y023304D01*
X029959Y023186D02*
X030084Y023186D01*
X030623Y022475D02*
X024258Y022475D01*
X024156Y022356D02*
X030505Y022356D01*
X030386Y022238D02*
X023872Y022238D01*
X023753Y022119D02*
X030268Y022119D01*
X030149Y022001D02*
X023635Y022001D01*
X023516Y021882D02*
X030031Y021882D01*
X029696Y021764D02*
X023398Y021764D01*
X023279Y021645D02*
X029572Y021645D01*
X029523Y021527D02*
X023161Y021527D01*
X023042Y021408D02*
X029513Y021408D01*
X029535Y021290D02*
X022924Y021290D01*
X022805Y021171D02*
X029599Y021171D01*
X031937Y019749D02*
X017426Y019749D01*
X017544Y019631D02*
X032055Y019631D01*
X032174Y019512D02*
X017650Y019512D01*
X017650Y019394D02*
X032292Y019394D01*
X032411Y019275D02*
X017650Y019275D01*
X017650Y019157D02*
X032529Y019157D01*
X032648Y019038D02*
X017569Y019038D01*
X017450Y018920D02*
X032763Y018920D01*
X032780Y018801D02*
X017374Y018801D01*
X017492Y018683D02*
X032837Y018683D01*
X032986Y018564D02*
X017611Y018564D01*
X017650Y018446D02*
X022077Y018446D01*
X022118Y018452D02*
X022036Y018439D01*
X021957Y018413D01*
X021882Y018376D01*
X021815Y018326D01*
X021756Y018267D01*
X021707Y018200D01*
X021669Y018126D01*
X021643Y018046D01*
X021630Y017964D01*
X021630Y017942D01*
X022140Y017942D01*
X022140Y018452D01*
X022118Y018452D01*
X022140Y018446D02*
X022180Y018446D01*
X022243Y018446D02*
X027077Y018446D01*
X027036Y018439D02*
X026957Y018413D01*
X026882Y018376D01*
X026815Y018326D01*
X026756Y018267D01*
X026707Y018200D01*
X026669Y018126D01*
X026643Y018046D01*
X026630Y017964D01*
X026630Y017942D01*
X027140Y017942D01*
X027140Y018452D01*
X027118Y018452D01*
X027036Y018439D01*
X027140Y018446D02*
X027180Y018446D01*
X027243Y018446D02*
X030577Y018446D01*
X030536Y018439D02*
X030457Y018413D01*
X030382Y018376D01*
X030315Y018326D01*
X030256Y018267D01*
X030207Y018200D01*
X030169Y018126D01*
X030143Y018046D01*
X030130Y017964D01*
X030130Y017942D01*
X030640Y017942D01*
X030640Y018452D01*
X030618Y018452D01*
X030536Y018439D01*
X030640Y018446D02*
X030680Y018446D01*
X030743Y018446D02*
X035944Y018446D01*
X035872Y018327D02*
X031004Y018327D01*
X031107Y018209D02*
X035754Y018209D01*
X035670Y018090D02*
X031163Y018090D01*
X031189Y017972D02*
X035670Y017972D01*
X035670Y017853D02*
X031186Y017853D01*
X031156Y017735D02*
X035670Y017735D01*
X035773Y017616D02*
X031093Y017616D01*
X030977Y017498D02*
X035892Y017498D01*
X035924Y017379D02*
X030942Y017379D01*
X031071Y017261D02*
X035806Y017261D01*
X035687Y017142D02*
X031143Y017142D01*
X031190Y017024D02*
X035670Y017024D01*
X035670Y016905D02*
X031190Y016905D01*
X031178Y016787D02*
X035670Y016787D01*
X035721Y016668D02*
X031128Y016668D01*
X031037Y016550D02*
X035840Y016550D01*
X036581Y016194D02*
X052850Y016194D01*
X052850Y016076D02*
X036650Y016076D01*
X036650Y015957D02*
X052850Y015957D01*
X052850Y015839D02*
X036650Y015839D01*
X036650Y015720D02*
X052850Y015720D01*
X052850Y015602D02*
X036532Y015602D01*
X036477Y014298D02*
X052850Y014298D01*
X052850Y014180D02*
X036595Y014180D01*
X036650Y014061D02*
X052850Y014061D01*
X052850Y013943D02*
X036650Y013943D01*
X035921Y013469D02*
X017650Y013469D01*
X017588Y013587D02*
X035802Y013587D01*
X035684Y013706D02*
X017469Y013706D01*
X017650Y014417D02*
X019103Y014417D01*
X019037Y014535D02*
X017640Y014535D01*
X017521Y014654D02*
X019013Y014654D01*
X018971Y014772D02*
X017403Y014772D01*
X017421Y014891D02*
X018920Y014891D01*
X018920Y015009D02*
X017540Y015009D01*
X017650Y015128D02*
X018920Y015128D01*
X018920Y015246D02*
X017650Y015246D01*
X017650Y015365D02*
X018920Y015365D01*
X018920Y015483D02*
X017650Y015483D01*
X017573Y015602D02*
X018918Y015602D01*
X018813Y015720D02*
X017455Y015720D01*
X017369Y015839D02*
X018764Y015839D01*
X018763Y015957D02*
X017488Y015957D01*
X017606Y016076D02*
X018793Y016076D01*
X018870Y016194D02*
X017650Y016194D01*
X017650Y016313D02*
X019064Y016313D01*
X019256Y016313D02*
X020788Y016313D01*
X020763Y016194D02*
X019450Y016194D01*
X019527Y016076D02*
X020770Y016076D01*
X020819Y015957D02*
X019557Y015957D01*
X019556Y015839D02*
X020931Y015839D01*
X021389Y015839D02*
X021884Y015839D01*
X021765Y015720D02*
X019507Y015720D01*
X019402Y015602D02*
X021670Y015602D01*
X021670Y015483D02*
X019400Y015483D01*
X019400Y015365D02*
X021670Y015365D01*
X021670Y015246D02*
X019400Y015246D01*
X019400Y015128D02*
X021762Y015128D01*
X022436Y015839D02*
X022931Y015839D01*
X022857Y016431D02*
X022360Y016431D01*
X022537Y016550D02*
X023033Y016550D01*
X023287Y016550D02*
X026783Y016550D01*
X026692Y016668D02*
X022628Y016668D01*
X022678Y016787D02*
X026642Y016787D01*
X026630Y016905D02*
X022690Y016905D01*
X022690Y017024D02*
X026630Y017024D01*
X026677Y017142D02*
X022643Y017142D01*
X022571Y017261D02*
X026749Y017261D01*
X026878Y017379D02*
X022442Y017379D01*
X022477Y017498D02*
X026843Y017498D01*
X026727Y017616D02*
X022593Y017616D01*
X022656Y017735D02*
X026664Y017735D01*
X026634Y017853D02*
X022686Y017853D01*
X022689Y017972D02*
X026631Y017972D01*
X026657Y018090D02*
X022663Y018090D01*
X022607Y018209D02*
X026713Y018209D01*
X026816Y018327D02*
X022504Y018327D01*
X022180Y018327D02*
X022140Y018327D01*
X022140Y018209D02*
X022180Y018209D01*
X022180Y018090D02*
X022140Y018090D01*
X022140Y017972D02*
X022180Y017972D01*
X021816Y018327D02*
X017650Y018327D01*
X017650Y018209D02*
X021713Y018209D01*
X021657Y018090D02*
X017621Y018090D01*
X017502Y017972D02*
X021631Y017972D01*
X021634Y017853D02*
X017384Y017853D01*
X017440Y017735D02*
X021664Y017735D01*
X021727Y017616D02*
X017559Y017616D01*
X017650Y017498D02*
X021843Y017498D01*
X021878Y017379D02*
X017650Y017379D01*
X017650Y017261D02*
X021749Y017261D01*
X021677Y017142D02*
X017650Y017142D01*
X017554Y017024D02*
X021630Y017024D01*
X021630Y016905D02*
X017436Y016905D01*
X017388Y016787D02*
X021642Y016787D01*
X021692Y016668D02*
X017507Y016668D01*
X017625Y016550D02*
X021033Y016550D01*
X020857Y016431D02*
X017650Y016431D01*
X021287Y016550D02*
X021783Y016550D01*
X021960Y016431D02*
X021463Y016431D01*
X027140Y017972D02*
X027180Y017972D01*
X027180Y018090D02*
X027140Y018090D01*
X027140Y018209D02*
X027180Y018209D01*
X027180Y018327D02*
X027140Y018327D01*
X027504Y018327D02*
X030316Y018327D01*
X030213Y018209D02*
X027607Y018209D01*
X027663Y018090D02*
X030157Y018090D01*
X030131Y017972D02*
X027689Y017972D01*
X027686Y017853D02*
X030134Y017853D01*
X030164Y017735D02*
X027656Y017735D01*
X027593Y017616D02*
X030227Y017616D01*
X030343Y017498D02*
X027477Y017498D01*
X027442Y017379D02*
X030378Y017379D01*
X030249Y017261D02*
X027571Y017261D01*
X027643Y017142D02*
X030177Y017142D01*
X030130Y017024D02*
X027690Y017024D01*
X027690Y016905D02*
X030130Y016905D01*
X030142Y016787D02*
X027678Y016787D01*
X027628Y016668D02*
X030192Y016668D01*
X030283Y016550D02*
X027537Y016550D01*
X027436Y015839D02*
X030384Y015839D01*
X030265Y015720D02*
X027555Y015720D01*
X027650Y015602D02*
X030170Y015602D01*
X030170Y015483D02*
X027650Y015483D01*
X027650Y015365D02*
X030170Y015365D01*
X030170Y015246D02*
X027650Y015246D01*
X027558Y015128D02*
X030262Y015128D01*
X030380Y015009D02*
X027440Y015009D01*
X030640Y017972D02*
X030680Y017972D01*
X030680Y018090D02*
X030640Y018090D01*
X030640Y018209D02*
X030680Y018209D01*
X030680Y018327D02*
X030640Y018327D01*
X033334Y018564D02*
X035825Y018564D01*
X035707Y018683D02*
X033483Y018683D01*
X036122Y018683D02*
X036198Y018683D01*
X036198Y018801D02*
X036122Y018801D01*
X036122Y018564D02*
X036198Y018564D01*
X036198Y018446D02*
X036122Y018446D01*
X036122Y019038D02*
X036198Y019038D01*
X036198Y019157D02*
X036122Y019157D01*
X036122Y019275D02*
X036198Y019275D01*
X036198Y019394D02*
X036122Y019394D01*
X036122Y019512D02*
X036198Y019512D01*
X036198Y019631D02*
X036122Y019631D01*
X036122Y019749D02*
X036198Y019749D01*
X036198Y019868D02*
X036122Y019868D01*
X036122Y019986D02*
X036198Y019986D01*
X036198Y019961D02*
X036198Y020412D01*
X036363Y020412D01*
X036650Y020125D01*
X036650Y019961D01*
X036198Y019961D01*
X036198Y020105D02*
X036122Y020105D01*
X036122Y020223D02*
X036198Y020223D01*
X036198Y020342D02*
X036122Y020342D01*
X036391Y020460D02*
X052850Y020460D01*
X052850Y020342D02*
X036433Y020342D01*
X036552Y020223D02*
X052850Y020223D01*
X052850Y020105D02*
X036650Y020105D01*
X036650Y019986D02*
X052850Y019986D01*
X052850Y019868D02*
X036650Y019868D01*
X036650Y019749D02*
X052850Y019749D01*
X052850Y019631D02*
X036561Y019631D01*
X036443Y019512D02*
X052850Y019512D01*
X052850Y019394D02*
X036381Y019394D01*
X036500Y019275D02*
X052850Y019275D01*
X052850Y019157D02*
X036618Y019157D01*
X036510Y020579D02*
X052850Y020579D01*
X052850Y020697D02*
X036628Y020697D01*
X036650Y020816D02*
X052850Y020816D01*
X052850Y020934D02*
X036650Y020934D01*
X036650Y021053D02*
X052850Y021053D01*
X052850Y021171D02*
X036604Y021171D01*
X036641Y024134D02*
X052850Y024134D01*
X052850Y024252D02*
X036523Y024252D01*
X036404Y024371D02*
X052850Y024371D01*
X052850Y024489D02*
X036420Y024489D01*
X036363Y024432D02*
X036650Y024719D01*
X036650Y025125D01*
X036363Y025412D01*
X035957Y025412D01*
X035670Y025125D01*
X035670Y024719D01*
X035957Y024432D01*
X036363Y024432D01*
X036539Y024608D02*
X052850Y024608D01*
X052850Y024726D02*
X036650Y024726D01*
X036650Y024845D02*
X052850Y024845D01*
X052850Y024963D02*
X036650Y024963D01*
X036650Y025082D02*
X052850Y025082D01*
X052850Y025200D02*
X036575Y025200D01*
X036456Y025319D02*
X052850Y025319D01*
X052850Y025437D02*
X036368Y025437D01*
X036363Y025432D02*
X036650Y025719D01*
X036650Y026125D01*
X036363Y026412D01*
X035957Y026412D01*
X035670Y026125D01*
X035670Y025719D01*
X035957Y025432D01*
X036363Y025432D01*
X036487Y025556D02*
X052850Y025556D01*
X052850Y025674D02*
X036605Y025674D01*
X036650Y025793D02*
X052850Y025793D01*
X052850Y025911D02*
X036650Y025911D01*
X036650Y026030D02*
X052850Y026030D01*
X052850Y026148D02*
X036627Y026148D01*
X036508Y026267D02*
X052850Y026267D01*
X052850Y026385D02*
X036390Y026385D01*
X036363Y026432D02*
X035957Y026432D01*
X035670Y026719D01*
X035670Y027125D01*
X035957Y027412D01*
X036363Y027412D01*
X036650Y027125D01*
X036650Y026719D01*
X036363Y026432D01*
X036435Y026504D02*
X052850Y026504D01*
X052850Y026622D02*
X036553Y026622D01*
X036650Y026741D02*
X052850Y026741D01*
X052850Y026859D02*
X036650Y026859D01*
X036650Y026978D02*
X052850Y026978D01*
X052850Y027096D02*
X036650Y027096D01*
X036560Y027215D02*
X039313Y027215D01*
X039358Y027203D02*
X039703Y027203D01*
X040036Y027292D01*
X040334Y027464D01*
X040578Y027708D01*
X040751Y028007D01*
X040840Y028340D01*
X040840Y028685D01*
X040751Y029018D01*
X040578Y029317D01*
X040334Y029561D01*
X040036Y029733D01*
X039703Y029823D01*
X039358Y029823D01*
X039024Y029733D01*
X038726Y029561D01*
X038482Y029317D01*
X038309Y029018D01*
X038220Y028685D01*
X038220Y028340D01*
X038309Y028007D01*
X038482Y027708D01*
X038726Y027464D01*
X039024Y027292D01*
X039358Y027203D01*
X039747Y027215D02*
X052850Y027215D01*
X052850Y027333D02*
X040107Y027333D01*
X040312Y027452D02*
X052850Y027452D01*
X052850Y027570D02*
X040440Y027570D01*
X040559Y027689D02*
X052850Y027689D01*
X052850Y027807D02*
X040635Y027807D01*
X040704Y027926D02*
X052850Y027926D01*
X052850Y028044D02*
X040761Y028044D01*
X040793Y028163D02*
X052850Y028163D01*
X052850Y028281D02*
X040824Y028281D01*
X040840Y028400D02*
X052850Y028400D01*
X052850Y028518D02*
X040840Y028518D01*
X040840Y028637D02*
X052850Y028637D01*
X052850Y028755D02*
X040821Y028755D01*
X040790Y028874D02*
X052850Y028874D01*
X052850Y028992D02*
X040758Y028992D01*
X040697Y029111D02*
X052850Y029111D01*
X052850Y029229D02*
X040629Y029229D01*
X040548Y029348D02*
X052846Y029348D01*
X052824Y029466D02*
X040429Y029466D01*
X040293Y029585D02*
X052790Y029585D01*
X052721Y029703D02*
X040088Y029703D01*
X039706Y029822D02*
X052618Y029822D01*
X052450Y029940D02*
X034572Y029940D01*
X034581Y029938D02*
X034303Y030012D01*
X034017Y030012D01*
X033739Y029938D01*
X033491Y029794D01*
X033288Y029591D01*
X033144Y029343D01*
X033070Y029066D01*
X033070Y028779D01*
X033144Y028502D01*
X033288Y028253D01*
X033491Y028050D01*
X033739Y027907D01*
X034017Y027832D01*
X034303Y027832D01*
X034581Y027907D01*
X034829Y028050D01*
X035032Y028253D01*
X035176Y028502D01*
X035250Y028779D01*
X035250Y029066D01*
X035176Y029343D01*
X035032Y029591D01*
X034829Y029794D01*
X034581Y029938D01*
X034782Y029822D02*
X039354Y029822D01*
X038972Y029703D02*
X034920Y029703D01*
X035036Y029585D02*
X038767Y029585D01*
X038631Y029466D02*
X035104Y029466D01*
X035173Y029348D02*
X038512Y029348D01*
X038431Y029229D02*
X035206Y029229D01*
X035238Y029111D02*
X038363Y029111D01*
X038302Y028992D02*
X035250Y028992D01*
X035250Y028874D02*
X038271Y028874D01*
X038239Y028755D02*
X035244Y028755D01*
X035212Y028637D02*
X038220Y028637D01*
X038220Y028518D02*
X035180Y028518D01*
X035117Y028400D02*
X035945Y028400D01*
X035957Y028412D02*
X035670Y028125D01*
X035670Y027719D01*
X035957Y027432D01*
X036363Y027432D01*
X036650Y027719D01*
X036650Y028125D01*
X036363Y028412D01*
X035957Y028412D01*
X035826Y028281D02*
X035048Y028281D01*
X034942Y028163D02*
X035708Y028163D01*
X035670Y028044D02*
X034819Y028044D01*
X034614Y027926D02*
X035670Y027926D01*
X035670Y027807D02*
X017650Y027807D01*
X017650Y027719D02*
X017363Y027432D01*
X016957Y027432D01*
X016670Y027719D01*
X016670Y028125D01*
X016957Y028412D01*
X017363Y028412D01*
X017650Y028125D01*
X017650Y027719D01*
X017620Y027689D02*
X035700Y027689D01*
X035819Y027570D02*
X017501Y027570D01*
X017383Y027452D02*
X035937Y027452D01*
X035878Y027333D02*
X017442Y027333D01*
X017560Y027215D02*
X035760Y027215D01*
X035670Y027096D02*
X017650Y027096D01*
X017650Y026978D02*
X035670Y026978D01*
X035670Y026859D02*
X017650Y026859D01*
X017650Y026741D02*
X035670Y026741D01*
X035767Y026622D02*
X017553Y026622D01*
X017435Y026504D02*
X035885Y026504D01*
X035930Y026385D02*
X017390Y026385D01*
X017508Y026267D02*
X035812Y026267D01*
X035693Y026148D02*
X017627Y026148D01*
X017650Y026030D02*
X035670Y026030D01*
X035670Y025911D02*
X017650Y025911D01*
X017650Y025793D02*
X025437Y025793D01*
X025486Y025842D02*
X025240Y025596D01*
X025240Y025442D01*
X025640Y025442D01*
X025640Y025402D01*
X025680Y025402D01*
X025680Y025002D01*
X025834Y025002D01*
X026080Y025248D01*
X026080Y025402D01*
X025680Y025402D01*
X025680Y025442D01*
X026080Y025442D01*
X026080Y025596D01*
X025834Y025842D01*
X025680Y025842D01*
X025680Y025442D01*
X025640Y025442D01*
X025640Y025842D01*
X025486Y025842D01*
X025640Y025793D02*
X025680Y025793D01*
X025680Y025674D02*
X025640Y025674D01*
X025640Y025556D02*
X025680Y025556D01*
X025680Y025437D02*
X027240Y025437D01*
X027240Y025319D02*
X026080Y025319D01*
X026032Y025200D02*
X027288Y025200D01*
X027240Y025248D02*
X027486Y025002D01*
X027834Y025002D01*
X028080Y025248D01*
X028080Y025596D01*
X027834Y025842D01*
X027486Y025842D01*
X027240Y025596D01*
X027240Y025248D01*
X027406Y025082D02*
X025914Y025082D01*
X025680Y025082D02*
X025640Y025082D01*
X025640Y025002D02*
X025640Y025402D01*
X025240Y025402D01*
X025240Y025248D01*
X025486Y025002D01*
X025640Y025002D01*
X025640Y025200D02*
X025680Y025200D01*
X025680Y025319D02*
X025640Y025319D01*
X025640Y025437D02*
X017368Y025437D01*
X017456Y025319D02*
X025240Y025319D01*
X025288Y025200D02*
X017575Y025200D01*
X017650Y025082D02*
X025406Y025082D01*
X025240Y025556D02*
X017487Y025556D01*
X017605Y025674D02*
X025318Y025674D01*
X025883Y025793D02*
X027437Y025793D01*
X027318Y025674D02*
X026002Y025674D01*
X026080Y025556D02*
X027240Y025556D01*
X027883Y025793D02*
X035670Y025793D01*
X035715Y025674D02*
X028002Y025674D01*
X028080Y025556D02*
X035833Y025556D01*
X035952Y025437D02*
X028080Y025437D01*
X028080Y025319D02*
X035864Y025319D01*
X035745Y025200D02*
X028032Y025200D01*
X027914Y025082D02*
X035670Y025082D01*
X035670Y024963D02*
X017650Y024963D01*
X017650Y024845D02*
X035670Y024845D01*
X035670Y024726D02*
X017650Y024726D01*
X017539Y024608D02*
X035781Y024608D01*
X035900Y024489D02*
X017420Y024489D01*
X017404Y024371D02*
X035916Y024371D01*
X036442Y027333D02*
X038953Y027333D01*
X038748Y027452D02*
X036383Y027452D01*
X036501Y027570D02*
X038620Y027570D01*
X038501Y027689D02*
X036620Y027689D01*
X036650Y027807D02*
X038425Y027807D01*
X038356Y027926D02*
X036650Y027926D01*
X036650Y028044D02*
X038299Y028044D01*
X038268Y028163D02*
X036612Y028163D01*
X036494Y028281D02*
X038236Y028281D01*
X038220Y028400D02*
X036375Y028400D01*
X033706Y027926D02*
X023614Y027926D01*
X023581Y027907D02*
X023829Y028050D01*
X024032Y028253D01*
X024176Y028502D01*
X024250Y028779D01*
X024250Y029066D01*
X024176Y029343D01*
X024032Y029591D01*
X023829Y029794D01*
X023581Y029938D01*
X023303Y030012D01*
X023017Y030012D01*
X022739Y029938D01*
X022491Y029794D01*
X022288Y029591D01*
X022144Y029343D01*
X022070Y029066D01*
X022070Y028779D01*
X022144Y028502D01*
X022288Y028253D01*
X022491Y028050D01*
X022739Y027907D01*
X023017Y027832D01*
X023303Y027832D01*
X023581Y027907D01*
X023819Y028044D02*
X033501Y028044D01*
X033378Y028163D02*
X023942Y028163D01*
X024048Y028281D02*
X033272Y028281D01*
X033203Y028400D02*
X024117Y028400D01*
X024180Y028518D02*
X033140Y028518D01*
X033108Y028637D02*
X024212Y028637D01*
X024244Y028755D02*
X033076Y028755D01*
X033070Y028874D02*
X024250Y028874D01*
X024250Y028992D02*
X033070Y028992D01*
X033082Y029111D02*
X024238Y029111D01*
X024206Y029229D02*
X033114Y029229D01*
X033147Y029348D02*
X024173Y029348D01*
X024104Y029466D02*
X033216Y029466D01*
X033284Y029585D02*
X024036Y029585D01*
X023920Y029703D02*
X033400Y029703D01*
X033538Y029822D02*
X023782Y029822D01*
X023572Y029940D02*
X033748Y029940D01*
X022748Y029940D02*
X001020Y029940D01*
X000852Y029822D02*
X022538Y029822D01*
X022400Y029703D02*
X000748Y029703D01*
X000680Y029585D02*
X022284Y029585D01*
X022216Y029466D02*
X000645Y029466D01*
X000675Y029576D02*
X000675Y029576D01*
X000623Y029348D02*
X022147Y029348D01*
X022114Y029229D02*
X000620Y029229D01*
X000620Y029111D02*
X022082Y029111D01*
X022070Y028992D02*
X000620Y028992D01*
X000620Y028874D02*
X022070Y028874D01*
X022076Y028755D02*
X000620Y028755D01*
X000620Y028637D02*
X022108Y028637D01*
X022140Y028518D02*
X000620Y028518D01*
X000620Y028400D02*
X016945Y028400D01*
X016826Y028281D02*
X000620Y028281D01*
X000620Y028163D02*
X016708Y028163D01*
X016670Y028044D02*
X000620Y028044D01*
X000620Y027926D02*
X016670Y027926D01*
X016670Y027807D02*
X000620Y027807D01*
X000620Y027689D02*
X016700Y027689D01*
X016819Y027570D02*
X000620Y027570D01*
X000620Y027452D02*
X016937Y027452D01*
X016878Y027333D02*
X014942Y027333D01*
X015060Y027215D02*
X016760Y027215D01*
X017650Y027926D02*
X022706Y027926D01*
X022501Y028044D02*
X017650Y028044D01*
X017612Y028163D02*
X022378Y028163D01*
X022272Y028281D02*
X017494Y028281D01*
X017375Y028400D02*
X022203Y028400D01*
X014378Y027333D02*
X010942Y027333D01*
X010863Y027412D02*
X011150Y027125D01*
X011150Y026719D01*
X010863Y026432D01*
X010457Y026432D01*
X010170Y026719D01*
X010170Y027125D01*
X010457Y027412D01*
X010863Y027412D01*
X011060Y027215D02*
X014260Y027215D01*
X014170Y027096D02*
X011150Y027096D01*
X011150Y026978D02*
X014170Y026978D01*
X014170Y026859D02*
X011150Y026859D01*
X011150Y026741D02*
X014170Y026741D01*
X014267Y026622D02*
X011053Y026622D01*
X010935Y026504D02*
X014385Y026504D01*
X014430Y026385D02*
X010890Y026385D01*
X010863Y026412D02*
X010457Y026412D01*
X010170Y026125D01*
X010170Y025719D01*
X010457Y025432D01*
X010863Y025432D01*
X011150Y025719D01*
X011150Y026125D01*
X010863Y026412D01*
X011008Y026267D02*
X014312Y026267D01*
X014193Y026148D02*
X011127Y026148D01*
X011150Y026030D02*
X014170Y026030D01*
X014170Y025911D02*
X011150Y025911D01*
X011150Y025793D02*
X014170Y025793D01*
X014215Y025674D02*
X011105Y025674D01*
X010987Y025556D02*
X014333Y025556D01*
X014452Y025437D02*
X010868Y025437D01*
X010452Y025437D02*
X000620Y025437D01*
X000620Y025556D02*
X010333Y025556D01*
X010215Y025674D02*
X000620Y025674D01*
X000620Y025793D02*
X010170Y025793D01*
X010170Y025911D02*
X009204Y025911D01*
X009264Y025936D02*
X009426Y026097D01*
X009513Y026308D01*
X009513Y026536D01*
X009426Y026747D01*
X009264Y026908D01*
X009054Y026996D01*
X008825Y026996D01*
X008615Y026908D01*
X008453Y026747D01*
X008366Y026536D01*
X008366Y026308D01*
X008453Y026097D01*
X008615Y025936D01*
X008825Y025849D01*
X009054Y025849D01*
X009264Y025936D01*
X009358Y026030D02*
X010170Y026030D01*
X010193Y026148D02*
X009447Y026148D01*
X009496Y026267D02*
X010312Y026267D01*
X010430Y026385D02*
X009513Y026385D01*
X009513Y026504D02*
X010385Y026504D01*
X010267Y026622D02*
X009477Y026622D01*
X009428Y026741D02*
X010170Y026741D01*
X010170Y026859D02*
X009313Y026859D01*
X009097Y026978D02*
X010170Y026978D01*
X010170Y027096D02*
X000620Y027096D01*
X000620Y026978D02*
X006235Y026978D01*
X006246Y026981D02*
X006160Y026954D01*
X006080Y026913D01*
X006007Y026860D01*
X005943Y026796D01*
X005890Y026723D01*
X005849Y026642D01*
X005821Y026556D01*
X005809Y026482D01*
X006320Y026482D01*
X006320Y026362D01*
X005809Y026362D01*
X005821Y026288D01*
X005849Y026202D01*
X005890Y026122D01*
X005943Y026049D01*
X006007Y025985D01*
X006080Y025932D01*
X006160Y025891D01*
X006246Y025863D01*
X006320Y025851D01*
X006320Y026362D01*
X006440Y026362D01*
X006440Y025851D01*
X006515Y025863D01*
X006601Y025891D01*
X006681Y025932D01*
X006754Y025985D01*
X006818Y026049D01*
X006871Y026122D01*
X006912Y026202D01*
X006940Y026288D01*
X006952Y026362D01*
X006440Y026362D01*
X006440Y026482D01*
X006320Y026482D01*
X006320Y026993D01*
X006246Y026981D01*
X006320Y026978D02*
X006440Y026978D01*
X006440Y026993D02*
X006515Y026981D01*
X006601Y026954D01*
X006681Y026913D01*
X006754Y026860D01*
X006818Y026796D01*
X006871Y026723D01*
X006912Y026642D01*
X006940Y026556D01*
X006952Y026482D01*
X006440Y026482D01*
X006440Y026993D01*
X006526Y026978D02*
X008782Y026978D01*
X008566Y026859D02*
X006754Y026859D01*
X006858Y026741D02*
X008451Y026741D01*
X008402Y026622D02*
X006918Y026622D01*
X006948Y026504D02*
X008366Y026504D01*
X008366Y026385D02*
X006440Y026385D01*
X006440Y026267D02*
X006320Y026267D01*
X006320Y026385D02*
X000620Y026385D01*
X000620Y026267D02*
X005828Y026267D01*
X005877Y026148D02*
X000620Y026148D01*
X000620Y026030D02*
X005962Y026030D01*
X006120Y025911D02*
X000620Y025911D01*
X000620Y026504D02*
X005813Y026504D01*
X005843Y026622D02*
X000620Y026622D01*
X000620Y026741D02*
X005903Y026741D01*
X006007Y026859D02*
X000620Y026859D01*
X000620Y027215D02*
X010260Y027215D01*
X010378Y027333D02*
X000620Y027333D01*
X006320Y026859D02*
X006440Y026859D01*
X006440Y026741D02*
X006320Y026741D01*
X006320Y026622D02*
X006440Y026622D01*
X006440Y026504D02*
X006320Y026504D01*
X006320Y026148D02*
X006440Y026148D01*
X006440Y026030D02*
X006320Y026030D01*
X006320Y025911D02*
X006440Y025911D01*
X006641Y025911D02*
X008675Y025911D01*
X008521Y026030D02*
X006799Y026030D01*
X006884Y026148D02*
X008432Y026148D01*
X008383Y026267D02*
X006933Y026267D01*
X014997Y023778D02*
X015380Y023778D01*
X015380Y023660D02*
X015115Y023660D01*
X015150Y023541D02*
X015380Y023541D01*
X015380Y023423D02*
X015150Y023423D01*
X015150Y023304D02*
X015380Y023304D01*
X015380Y023186D02*
X015117Y023186D01*
X014998Y023067D02*
X015380Y023067D01*
X015291Y022949D02*
X014880Y022949D01*
X014945Y022830D02*
X015172Y022830D01*
X011721Y017379D02*
X001646Y017379D01*
X001764Y017261D02*
X011603Y017261D01*
X011484Y017142D02*
X001883Y017142D01*
X001900Y017024D02*
X011366Y017024D01*
X011010Y016668D02*
X001849Y016668D01*
X001730Y016550D02*
X010892Y016550D01*
X009825Y015483D02*
X000620Y015483D01*
X000620Y015365D02*
X009707Y015365D01*
X009588Y015246D02*
X000620Y015246D01*
X000620Y015128D02*
X009470Y015128D01*
X009351Y015009D02*
X000620Y015009D01*
X000620Y014891D02*
X009233Y014891D01*
X008966Y014772D02*
X000620Y014772D01*
X007373Y012402D02*
X010947Y012402D01*
X010829Y012284D02*
X007491Y012284D01*
X007610Y012165D02*
X010710Y012165D01*
X010670Y012047D02*
X007650Y012047D01*
X017365Y011810D02*
X021855Y011810D01*
X021957Y011912D02*
X021670Y011625D01*
X021670Y011219D01*
X021957Y010932D01*
X022363Y010932D01*
X022650Y011219D01*
X022650Y011625D01*
X022363Y011912D01*
X021957Y011912D01*
X021736Y011691D02*
X017484Y011691D01*
X017602Y011573D02*
X021670Y011573D01*
X021670Y011454D02*
X017650Y011454D01*
X017650Y011336D02*
X021670Y011336D01*
X021672Y011217D02*
X017650Y011217D01*
X017629Y011099D02*
X021791Y011099D01*
X021909Y010980D02*
X017511Y010980D01*
X017392Y010862D02*
X025907Y010862D01*
X025957Y010912D02*
X025670Y010625D01*
X025670Y010442D01*
X026140Y010442D01*
X026140Y010402D01*
X026180Y010402D01*
X026180Y009932D01*
X026363Y009932D01*
X026650Y010219D01*
X026650Y010402D01*
X026180Y010402D01*
X026180Y010442D01*
X026650Y010442D01*
X026650Y010625D01*
X026363Y010912D01*
X026180Y010912D01*
X026180Y010442D01*
X026140Y010442D01*
X026140Y010912D01*
X025957Y010912D01*
X026140Y010862D02*
X026180Y010862D01*
X026180Y010743D02*
X026140Y010743D01*
X026140Y010625D02*
X026180Y010625D01*
X026180Y010506D02*
X026140Y010506D01*
X026140Y010402D02*
X025670Y010402D01*
X025670Y010219D01*
X025957Y009932D01*
X026140Y009932D01*
X026140Y010402D01*
X026140Y010388D02*
X026180Y010388D01*
X026180Y010269D02*
X026140Y010269D01*
X026140Y010151D02*
X026180Y010151D01*
X026180Y010032D02*
X026140Y010032D01*
X025857Y010032D02*
X017563Y010032D01*
X017650Y010151D02*
X025739Y010151D01*
X025670Y010269D02*
X017650Y010269D01*
X017650Y010388D02*
X025670Y010388D01*
X025670Y010506D02*
X017650Y010506D01*
X017550Y010625D02*
X025670Y010625D01*
X025788Y010743D02*
X017432Y010743D01*
X018120Y009440D02*
X035746Y009440D01*
X030357Y010032D02*
X029963Y010032D01*
X029863Y009932D02*
X030150Y010219D01*
X030150Y010402D01*
X029680Y010402D01*
X029680Y009932D01*
X029863Y009932D01*
X029680Y010032D02*
X029640Y010032D01*
X029640Y009932D02*
X029457Y009932D01*
X029170Y010219D01*
X029170Y010402D01*
X029640Y010402D01*
X029680Y010402D01*
X029680Y010442D01*
X030150Y010442D01*
X030150Y010625D01*
X029863Y010912D01*
X029680Y010912D01*
X029680Y010442D01*
X029640Y010442D01*
X029640Y010402D01*
X029640Y009932D01*
X029640Y010151D02*
X029680Y010151D01*
X029680Y010269D02*
X029640Y010269D01*
X029640Y010388D02*
X029680Y010388D01*
X029640Y010442D02*
X029170Y010442D01*
X029170Y010625D01*
X029457Y010912D01*
X029640Y010912D01*
X029640Y010442D01*
X029640Y010506D02*
X029680Y010506D01*
X029680Y010625D02*
X029640Y010625D01*
X029640Y010743D02*
X029680Y010743D01*
X029680Y010862D02*
X029640Y010862D01*
X029407Y010862D02*
X027413Y010862D01*
X027363Y010912D02*
X026957Y010912D01*
X026670Y010625D01*
X026670Y010219D01*
X026957Y009932D01*
X027363Y009932D01*
X027650Y010219D01*
X027650Y010625D01*
X027363Y010912D01*
X027363Y010932D02*
X027650Y011219D01*
X027650Y011625D01*
X027363Y011912D01*
X026957Y011912D01*
X026670Y011625D01*
X026670Y011219D01*
X026957Y010932D01*
X027363Y010932D01*
X027411Y010980D02*
X030409Y010980D01*
X030407Y010862D02*
X029913Y010862D01*
X030032Y010743D02*
X030288Y010743D01*
X030170Y010625D02*
X030150Y010625D01*
X030150Y010506D02*
X030170Y010506D01*
X030170Y010388D02*
X030150Y010388D01*
X030150Y010269D02*
X030170Y010269D01*
X030239Y010151D02*
X030081Y010151D01*
X029357Y010032D02*
X027463Y010032D01*
X027581Y010151D02*
X029239Y010151D01*
X029170Y010269D02*
X027650Y010269D01*
X027650Y010388D02*
X029170Y010388D01*
X029170Y010506D02*
X027650Y010506D01*
X027650Y010625D02*
X029170Y010625D01*
X029288Y010743D02*
X027532Y010743D01*
X027529Y011099D02*
X030291Y011099D01*
X030172Y011217D02*
X027648Y011217D01*
X027650Y011336D02*
X030170Y011336D01*
X030170Y011454D02*
X027650Y011454D01*
X027650Y011573D02*
X030170Y011573D01*
X030236Y011691D02*
X027584Y011691D01*
X027465Y011810D02*
X030355Y011810D01*
X026855Y011810D02*
X022465Y011810D01*
X022584Y011691D02*
X026736Y011691D01*
X026670Y011573D02*
X022650Y011573D01*
X022650Y011454D02*
X026670Y011454D01*
X026670Y011336D02*
X022650Y011336D01*
X022648Y011217D02*
X026672Y011217D01*
X026791Y011099D02*
X022529Y011099D01*
X022411Y010980D02*
X026909Y010980D01*
X026907Y010862D02*
X026413Y010862D01*
X026532Y010743D02*
X026788Y010743D01*
X026670Y010625D02*
X026650Y010625D01*
X026650Y010506D02*
X026670Y010506D01*
X026670Y010388D02*
X026650Y010388D01*
X026650Y010269D02*
X026670Y010269D01*
X026739Y010151D02*
X026581Y010151D01*
X026463Y010032D02*
X026857Y010032D01*
X026957Y006912D02*
X026670Y006625D01*
X026670Y006219D01*
X026957Y005932D01*
X027363Y005932D01*
X027650Y006219D01*
X027650Y006625D01*
X027363Y006912D01*
X026957Y006912D01*
X026878Y006833D02*
X026442Y006833D01*
X026561Y006714D02*
X026759Y006714D01*
X026670Y006596D02*
X026650Y006596D01*
X026650Y006477D02*
X026670Y006477D01*
X026670Y006359D02*
X026650Y006359D01*
X026650Y006240D02*
X026670Y006240D01*
X026768Y006122D02*
X026552Y006122D01*
X026434Y006003D02*
X026886Y006003D01*
X027434Y006003D02*
X029386Y006003D01*
X029457Y005932D02*
X029863Y005932D01*
X030150Y006219D01*
X030150Y006625D01*
X029863Y006912D01*
X029457Y006912D01*
X029170Y006625D01*
X029170Y006219D01*
X029457Y005932D01*
X029268Y006122D02*
X027552Y006122D01*
X027650Y006240D02*
X029170Y006240D01*
X029170Y006359D02*
X027650Y006359D01*
X027650Y006477D02*
X029170Y006477D01*
X029170Y006596D02*
X027650Y006596D01*
X027561Y006714D02*
X029259Y006714D01*
X029378Y006833D02*
X027442Y006833D01*
X027699Y005292D02*
X029317Y005292D01*
X029213Y005174D02*
X027804Y005174D01*
X027853Y005055D02*
X029164Y005055D01*
X029152Y004937D02*
X027861Y004937D01*
X027861Y004818D02*
X029152Y004818D01*
X029561Y004818D02*
X029618Y004818D01*
X029618Y004700D02*
X030136Y004700D01*
X030136Y004818D02*
X030026Y004818D01*
X030026Y004937D02*
X030136Y004937D01*
X030144Y005055D02*
X030014Y005055D01*
X029965Y005174D02*
X030193Y005174D01*
X030298Y005292D02*
X029861Y005292D01*
X029618Y005292D02*
X029561Y005292D01*
X029561Y005174D02*
X029618Y005174D01*
X029618Y005055D02*
X029561Y005055D01*
X029561Y004937D02*
X029618Y004937D01*
X029561Y004700D02*
X027861Y004700D01*
X029934Y006003D02*
X030386Y006003D01*
X030268Y006122D02*
X030052Y006122D01*
X030150Y006240D02*
X030170Y006240D01*
X030170Y006359D02*
X030150Y006359D01*
X030150Y006477D02*
X030170Y006477D01*
X030170Y006596D02*
X030150Y006596D01*
X030061Y006714D02*
X030259Y006714D01*
X030378Y006833D02*
X029942Y006833D01*
X038543Y005055D02*
X039777Y005055D01*
X039895Y004937D02*
X039400Y004937D01*
X039617Y004818D02*
X040014Y004818D01*
X040132Y004700D02*
X039745Y004700D01*
X039828Y004581D02*
X040251Y004581D01*
X040369Y004463D02*
X039885Y004463D01*
X039921Y004344D02*
X043076Y004344D01*
X043112Y004463D02*
X042701Y004463D01*
X042819Y004581D02*
X043169Y004581D01*
X043252Y004700D02*
X042938Y004700D01*
X043056Y004818D02*
X043380Y004818D01*
X043175Y004937D02*
X043598Y004937D01*
X043809Y004937D02*
X043929Y004937D01*
X043929Y004818D02*
X043809Y004818D01*
X043809Y004700D02*
X043929Y004700D01*
X043929Y004581D02*
X043809Y004581D01*
X043809Y004463D02*
X043929Y004463D01*
X043929Y004344D02*
X043809Y004344D01*
X043809Y004226D02*
X039189Y004226D01*
X039821Y003752D02*
X043176Y003752D01*
X043117Y003870D02*
X039880Y003870D01*
X039918Y003989D02*
X043079Y003989D01*
X043060Y004107D02*
X039937Y004107D01*
X039735Y003633D02*
X043262Y003633D01*
X043395Y003515D02*
X039602Y003515D01*
X039362Y003396D02*
X043635Y003396D01*
X044102Y003396D02*
X045754Y003396D01*
X045520Y003515D02*
X044342Y003515D01*
X044475Y003633D02*
X045388Y003633D01*
X045303Y003752D02*
X044561Y003752D01*
X044620Y003870D02*
X045244Y003870D01*
X045206Y003989D02*
X044658Y003989D01*
X044677Y004107D02*
X045187Y004107D01*
X045203Y004344D02*
X044661Y004344D01*
X044625Y004463D02*
X045239Y004463D01*
X045296Y004581D02*
X044568Y004581D01*
X044485Y004700D02*
X045379Y004700D01*
X045505Y004818D02*
X044357Y004818D01*
X044140Y004937D02*
X045720Y004937D01*
X045939Y004226D02*
X043929Y004226D01*
X043293Y005055D02*
X046527Y005055D01*
D22*
X044660Y009922D03*
X044660Y010922D03*
X046660Y013422D03*
X026160Y021422D03*
X025660Y021422D03*
X025160Y021422D03*
X010160Y013422D03*
X008160Y010922D03*
X008160Y009922D03*
D23*
X009160Y014422D03*
X019160Y015922D03*
X019410Y014672D03*
X021160Y016172D03*
X023160Y016172D03*
X029910Y021422D03*
X031160Y021422D03*
X032410Y022922D03*
X031160Y023922D03*
X029660Y022922D03*
X023910Y022672D03*
X033160Y018922D03*
X028160Y008922D03*
X025160Y008422D03*
D24*
X014910Y020172D02*
X009160Y014422D01*
X014910Y020172D02*
X021410Y020172D01*
X023910Y022672D01*
X031160Y021422D02*
X031160Y020922D01*
X033160Y018922D01*
X015660Y022922D02*
X015160Y022422D01*
X014660Y022422D01*
X015660Y022922D02*
X015660Y026422D01*
X015160Y026922D01*
X014660Y026922D01*
D25*
X029660Y022922D02*
X030160Y022922D01*
X031160Y023922D01*
X031410Y022922D02*
X032410Y022922D01*
X031410Y022922D02*
X029910Y021422D01*
X023160Y016172D02*
X021160Y016172D01*
X019160Y015922D02*
X019160Y014922D01*
X019410Y014672D01*
X027660Y008422D02*
X028160Y008922D01*
X027660Y008422D02*
X025160Y008422D01*
D26*
X039660Y006422D02*
X039660Y005922D01*
X040340Y005242D01*
X041006Y005242D01*
X039660Y006422D02*
X041660Y008422D01*
X043160Y008422D01*
X043660Y008422D01*
X044160Y008422D01*
X047207Y005375D01*
X047207Y005239D01*
X010593Y005239D02*
X010593Y005489D01*
X007660Y008422D01*
X007160Y008422D01*
X006660Y008422D01*
X005160Y008422D01*
X003160Y006422D01*
X003160Y005922D01*
X003840Y005242D01*
X004392Y005242D01*
D27*
X006660Y009422D03*
X007660Y009422D03*
X043160Y009422D03*
X044160Y009422D03*
D28*
X044160Y008922D01*
X043660Y008422D01*
X043160Y008422D02*
X043160Y009422D01*
X007660Y009422D02*
X007660Y008922D01*
X007160Y008422D01*
X006660Y008422D02*
X006660Y009422D01*
M02*
