G75*
%MOIN*%
%OFA0B0*%
%FSLAX24Y24*%
%IPPOS*%
%LPD*%
%AMOC8*
5,1,8,0,0,1.08239X$1,22.5*
%
%ADD10C,0.0000*%
D10*
X001341Y002922D02*
X052129Y002922D01*
X052195Y002924D01*
X052261Y002929D01*
X052327Y002939D01*
X052392Y002952D01*
X052456Y002968D01*
X052519Y002988D01*
X052581Y003012D01*
X052641Y003039D01*
X052700Y003069D01*
X052757Y003103D01*
X052812Y003140D01*
X052865Y003180D01*
X052916Y003222D01*
X052964Y003268D01*
X053010Y003316D01*
X053052Y003367D01*
X053092Y003420D01*
X053129Y003475D01*
X053163Y003532D01*
X053193Y003591D01*
X053220Y003651D01*
X053244Y003713D01*
X053264Y003776D01*
X053280Y003840D01*
X053293Y003905D01*
X053303Y003971D01*
X053308Y004037D01*
X053310Y004103D01*
X053310Y029300D01*
X053308Y029366D01*
X053303Y029432D01*
X053293Y029498D01*
X053280Y029563D01*
X053264Y029627D01*
X053244Y029690D01*
X053220Y029752D01*
X053193Y029812D01*
X053163Y029871D01*
X053129Y029928D01*
X053092Y029983D01*
X053052Y030036D01*
X053010Y030087D01*
X052964Y030135D01*
X052916Y030181D01*
X052865Y030223D01*
X052812Y030263D01*
X052757Y030300D01*
X052700Y030334D01*
X052641Y030364D01*
X052581Y030391D01*
X052519Y030415D01*
X052456Y030435D01*
X052392Y030451D01*
X052327Y030464D01*
X052261Y030474D01*
X052195Y030479D01*
X052129Y030481D01*
X001341Y030481D01*
X001275Y030479D01*
X001209Y030474D01*
X001143Y030464D01*
X001078Y030451D01*
X001014Y030435D01*
X000951Y030415D01*
X000889Y030391D01*
X000829Y030364D01*
X000770Y030334D01*
X000713Y030300D01*
X000658Y030263D01*
X000605Y030223D01*
X000554Y030181D01*
X000506Y030135D01*
X000460Y030087D01*
X000418Y030036D01*
X000378Y029983D01*
X000341Y029928D01*
X000307Y029871D01*
X000277Y029812D01*
X000250Y029752D01*
X000226Y029690D01*
X000206Y029627D01*
X000190Y029563D01*
X000177Y029498D01*
X000167Y029432D01*
X000162Y029366D01*
X000160Y029300D01*
X000160Y004103D01*
X000162Y004037D01*
X000167Y003971D01*
X000177Y003905D01*
X000190Y003840D01*
X000206Y003776D01*
X000226Y003713D01*
X000250Y003651D01*
X000277Y003591D01*
X000307Y003532D01*
X000341Y003475D01*
X000378Y003420D01*
X000418Y003367D01*
X000460Y003316D01*
X000506Y003268D01*
X000554Y003222D01*
X000605Y003180D01*
X000658Y003140D01*
X000713Y003103D01*
X000770Y003069D01*
X000829Y003039D01*
X000889Y003012D01*
X000951Y002988D01*
X001014Y002968D01*
X001078Y002952D01*
X001143Y002939D01*
X001209Y002929D01*
X001275Y002924D01*
X001341Y002922D01*
X016530Y008922D02*
X016532Y008972D01*
X016538Y009022D01*
X016548Y009071D01*
X016562Y009119D01*
X016579Y009166D01*
X016600Y009211D01*
X016625Y009255D01*
X016653Y009296D01*
X016685Y009335D01*
X016719Y009372D01*
X016756Y009406D01*
X016796Y009436D01*
X016838Y009463D01*
X016882Y009487D01*
X016928Y009508D01*
X016975Y009524D01*
X017023Y009537D01*
X017073Y009546D01*
X017122Y009551D01*
X017173Y009552D01*
X017223Y009549D01*
X017272Y009542D01*
X017321Y009531D01*
X017369Y009516D01*
X017415Y009498D01*
X017460Y009476D01*
X017503Y009450D01*
X017544Y009421D01*
X017583Y009389D01*
X017619Y009354D01*
X017651Y009316D01*
X017681Y009276D01*
X017708Y009233D01*
X017731Y009189D01*
X017750Y009143D01*
X017766Y009095D01*
X017778Y009046D01*
X017786Y008997D01*
X017790Y008947D01*
X017790Y008897D01*
X017786Y008847D01*
X017778Y008798D01*
X017766Y008749D01*
X017750Y008701D01*
X017731Y008655D01*
X017708Y008611D01*
X017681Y008568D01*
X017651Y008528D01*
X017619Y008490D01*
X017583Y008455D01*
X017544Y008423D01*
X017503Y008394D01*
X017460Y008368D01*
X017415Y008346D01*
X017369Y008328D01*
X017321Y008313D01*
X017272Y008302D01*
X017223Y008295D01*
X017173Y008292D01*
X017122Y008293D01*
X017073Y008298D01*
X017023Y008307D01*
X016975Y008320D01*
X016928Y008336D01*
X016882Y008357D01*
X016838Y008381D01*
X016796Y008408D01*
X016756Y008438D01*
X016719Y008472D01*
X016685Y008509D01*
X016653Y008548D01*
X016625Y008589D01*
X016600Y008633D01*
X016579Y008678D01*
X016562Y008725D01*
X016548Y008773D01*
X016538Y008822D01*
X016532Y008872D01*
X016530Y008922D01*
X035530Y008422D02*
X035532Y008472D01*
X035538Y008522D01*
X035548Y008571D01*
X035562Y008619D01*
X035579Y008666D01*
X035600Y008711D01*
X035625Y008755D01*
X035653Y008796D01*
X035685Y008835D01*
X035719Y008872D01*
X035756Y008906D01*
X035796Y008936D01*
X035838Y008963D01*
X035882Y008987D01*
X035928Y009008D01*
X035975Y009024D01*
X036023Y009037D01*
X036073Y009046D01*
X036122Y009051D01*
X036173Y009052D01*
X036223Y009049D01*
X036272Y009042D01*
X036321Y009031D01*
X036369Y009016D01*
X036415Y008998D01*
X036460Y008976D01*
X036503Y008950D01*
X036544Y008921D01*
X036583Y008889D01*
X036619Y008854D01*
X036651Y008816D01*
X036681Y008776D01*
X036708Y008733D01*
X036731Y008689D01*
X036750Y008643D01*
X036766Y008595D01*
X036778Y008546D01*
X036786Y008497D01*
X036790Y008447D01*
X036790Y008397D01*
X036786Y008347D01*
X036778Y008298D01*
X036766Y008249D01*
X036750Y008201D01*
X036731Y008155D01*
X036708Y008111D01*
X036681Y008068D01*
X036651Y008028D01*
X036619Y007990D01*
X036583Y007955D01*
X036544Y007923D01*
X036503Y007894D01*
X036460Y007868D01*
X036415Y007846D01*
X036369Y007828D01*
X036321Y007813D01*
X036272Y007802D01*
X036223Y007795D01*
X036173Y007792D01*
X036122Y007793D01*
X036073Y007798D01*
X036023Y007807D01*
X035975Y007820D01*
X035928Y007836D01*
X035882Y007857D01*
X035838Y007881D01*
X035796Y007908D01*
X035756Y007938D01*
X035719Y007972D01*
X035685Y008009D01*
X035653Y008048D01*
X035625Y008089D01*
X035600Y008133D01*
X035579Y008178D01*
X035562Y008225D01*
X035548Y008273D01*
X035538Y008322D01*
X035532Y008372D01*
X035530Y008422D01*
X033530Y028922D02*
X033532Y028972D01*
X033538Y029022D01*
X033548Y029071D01*
X033562Y029119D01*
X033579Y029166D01*
X033600Y029211D01*
X033625Y029255D01*
X033653Y029296D01*
X033685Y029335D01*
X033719Y029372D01*
X033756Y029406D01*
X033796Y029436D01*
X033838Y029463D01*
X033882Y029487D01*
X033928Y029508D01*
X033975Y029524D01*
X034023Y029537D01*
X034073Y029546D01*
X034122Y029551D01*
X034173Y029552D01*
X034223Y029549D01*
X034272Y029542D01*
X034321Y029531D01*
X034369Y029516D01*
X034415Y029498D01*
X034460Y029476D01*
X034503Y029450D01*
X034544Y029421D01*
X034583Y029389D01*
X034619Y029354D01*
X034651Y029316D01*
X034681Y029276D01*
X034708Y029233D01*
X034731Y029189D01*
X034750Y029143D01*
X034766Y029095D01*
X034778Y029046D01*
X034786Y028997D01*
X034790Y028947D01*
X034790Y028897D01*
X034786Y028847D01*
X034778Y028798D01*
X034766Y028749D01*
X034750Y028701D01*
X034731Y028655D01*
X034708Y028611D01*
X034681Y028568D01*
X034651Y028528D01*
X034619Y028490D01*
X034583Y028455D01*
X034544Y028423D01*
X034503Y028394D01*
X034460Y028368D01*
X034415Y028346D01*
X034369Y028328D01*
X034321Y028313D01*
X034272Y028302D01*
X034223Y028295D01*
X034173Y028292D01*
X034122Y028293D01*
X034073Y028298D01*
X034023Y028307D01*
X033975Y028320D01*
X033928Y028336D01*
X033882Y028357D01*
X033838Y028381D01*
X033796Y028408D01*
X033756Y028438D01*
X033719Y028472D01*
X033685Y028509D01*
X033653Y028548D01*
X033625Y028589D01*
X033600Y028633D01*
X033579Y028678D01*
X033562Y028725D01*
X033548Y028773D01*
X033538Y028822D01*
X033532Y028872D01*
X033530Y028922D01*
X022530Y028922D02*
X022532Y028972D01*
X022538Y029022D01*
X022548Y029071D01*
X022562Y029119D01*
X022579Y029166D01*
X022600Y029211D01*
X022625Y029255D01*
X022653Y029296D01*
X022685Y029335D01*
X022719Y029372D01*
X022756Y029406D01*
X022796Y029436D01*
X022838Y029463D01*
X022882Y029487D01*
X022928Y029508D01*
X022975Y029524D01*
X023023Y029537D01*
X023073Y029546D01*
X023122Y029551D01*
X023173Y029552D01*
X023223Y029549D01*
X023272Y029542D01*
X023321Y029531D01*
X023369Y029516D01*
X023415Y029498D01*
X023460Y029476D01*
X023503Y029450D01*
X023544Y029421D01*
X023583Y029389D01*
X023619Y029354D01*
X023651Y029316D01*
X023681Y029276D01*
X023708Y029233D01*
X023731Y029189D01*
X023750Y029143D01*
X023766Y029095D01*
X023778Y029046D01*
X023786Y028997D01*
X023790Y028947D01*
X023790Y028897D01*
X023786Y028847D01*
X023778Y028798D01*
X023766Y028749D01*
X023750Y028701D01*
X023731Y028655D01*
X023708Y028611D01*
X023681Y028568D01*
X023651Y028528D01*
X023619Y028490D01*
X023583Y028455D01*
X023544Y028423D01*
X023503Y028394D01*
X023460Y028368D01*
X023415Y028346D01*
X023369Y028328D01*
X023321Y028313D01*
X023272Y028302D01*
X023223Y028295D01*
X023173Y028292D01*
X023122Y028293D01*
X023073Y028298D01*
X023023Y028307D01*
X022975Y028320D01*
X022928Y028336D01*
X022882Y028357D01*
X022838Y028381D01*
X022796Y028408D01*
X022756Y028438D01*
X022719Y028472D01*
X022685Y028509D01*
X022653Y028548D01*
X022625Y028589D01*
X022600Y028633D01*
X022579Y028678D01*
X022562Y028725D01*
X022548Y028773D01*
X022538Y028822D01*
X022532Y028872D01*
X022530Y028922D01*
M02*
